<svg xmlns="http://www.w3.org/2000/svg" width="65.249" height="16.317" viewBox="0 0 65.249 16.317">
  <path id="Amex" d="M9.885,15.76l-7.364,16.3h8.816l1.093-2.6h2.5l1.093,2.6h9.7V30.073l.865,1.983h5.019l.865-2.025v2.025H52.654l2.454-2.531,2.3,2.531,10.365.021-7.387-8.123,7.387-8.193h-10.2l-2.389,2.484L52.952,15.76H31l-1.885,4.206L27.184,15.76h-8.8v1.916l-.979-1.916Zm1.706,2.314h4.3l4.884,11.05V18.074H25.48L29.253,26l3.477-7.923h4.684V29.767h-2.85L34.54,20.6l-4.155,9.163H27.836L23.658,20.6v9.163H17.795l-1.112-2.622H10.678L9.569,29.765H6.427Zm28.43,0H51.61L55.154,21.9l3.659-3.829h3.544l-5.385,5.877,5.385,5.809H58.652l-3.544-3.873L51.43,29.76H40.021V18.074ZM13.682,20.052,11.7,24.722h3.955Zm29.2.443v2.135H49.2v2.379H42.883v2.33h7.091l3.295-3.432-3.155-3.414H42.883Z" transform="translate(-2.522 -15.76)" fill="#26a6d1"/>
</svg>
