<svg id="_817610" data-name="817610" xmlns="http://www.w3.org/2000/svg" width="23.293" height="23.293" viewBox="0 0 23.293 23.293">
  <path id="Path_18862" data-name="Path 18862" d="M37.9,177.977a.681.681,0,0,0,.743-.145l11.581-11.581a.681.681,0,0,0,.145-.743.647.647,0,0,0-.627-.415,4.048,4.048,0,0,1-2.808-1.168l-.087-.087h-1.93l-8.686,8.686v1.93l.087.087a3.966,3.966,0,0,1,1.168,2.808A.647.647,0,0,0,37.9,177.977Z" transform="translate(-28.779 -156.385)" fill="#fea832"/>
  <path id="Path_18863" data-name="Path 18863" d="M169.519,269.094a.681.681,0,0,0,.743-.145l5.791-5.79-3.86-3.86-4.343,4.343v1.93l.087.087a3.966,3.966,0,0,1,1.168,2.808A.647.647,0,0,0,169.519,269.094Z" transform="translate(-160.395 -247.501)" fill="#fe9923"/>
  <path id="Path_18864" data-name="Path 18864" d="M422.55.6a2.047,2.047,0,1,1,0,2.9A2.045,2.045,0,0,1,422.55.6Z" transform="translate(-421.949 0)" fill="#fea832"/>
  <path id="Path_18865" data-name="Path 18865" d="M438.651,16.1l-2.9-2.9a2.047,2.047,0,1,0,2.9,2.9Z" transform="translate(-435.155 -12.604)" fill="#fe9923"/>
  <path id="Path_18866" data-name="Path 18866" d="M82.457,302.3a3.412,3.412,0,0,0,4.825-4.825.676.676,0,0,0-.965,0l-3.86,3.86A.676.676,0,0,0,82.457,302.3Z" transform="translate(-68.73 -283.745)" fill="#fea832"/>
  <path id="Path_18867" data-name="Path 18867" d="M104.413,347.045a3.413,3.413,0,0,0,4.825,0l-2.9-2.9-1.93,1.93A.676.676,0,0,0,104.413,347.045Z" transform="translate(-90.686 -328.493)" fill="#fe9923"/>
  <path id="Path_18868" data-name="Path 18868" d="M117.009,20.233l4.923,4.923L132.548,14.54l-4.923-4.923a7.507,7.507,0,0,0-10.616,10.616Z" transform="translate(-114.478 -7.086)" fill="#fedb41"/>
  <path id="Path_18869" data-name="Path 18869" d="M233.682,66.248l4.923,4.923,5.308-5.308L233.682,55.632A7.52,7.52,0,0,0,233.682,66.248Z" transform="translate(-231.151 -53.101)" fill="#fcbf29"/>
  <path id="Path_18870" data-name="Path 18870" d="M.4,191.176a1.369,1.369,0,0,0,1.93,0L14.874,178.63a1.365,1.365,0,0,0-1.93-1.93L.4,189.246A1.369,1.369,0,0,0,.4,191.176Z" transform="translate(8.021 -168.281)" fill="#fedb41"/>
  <path id="Path_18871" data-name="Path 18871" d="M147.034,331.141a1.369,1.369,0,0,0,1.93,0l6.273-6.273-1.93-1.93-6.273,6.273A1.369,1.369,0,0,0,147.034,331.141Z" transform="translate(-138.615 -308.246)" fill="#fcbf29"/>
</svg>
