<svg xmlns="http://www.w3.org/2000/svg" width="22.3" height="17.101" viewBox="0 0 22.3 17.101">
  <g id="binoculars" transform="translate(-2.35 -2.45)">
    <g id="Group_27700" data-name="Group 27700">
      <path id="Path_19713" data-name="Path 19713" d="M21.747,13.246c-.037-.107-2.458-6.477-2.469-6.5a3.408,3.408,0,0,0-1.817-1.883c-.009-.024-.329-.854-.339-.877a2.336,2.336,0,0,0-4.379.311.644.644,0,0,0-.024.176v2.9H9.281v-2.9a.645.645,0,0,0-.024-.176,2.336,2.336,0,0,0-4.391-.282l-.327.848A3.411,3.411,0,0,0,2.713,6.765C.089,13.67.291,13.134.253,13.246a4.641,4.641,0,1,0,8.964,2.287h3.567a4.641,4.641,0,1,0,8.964-2.287ZM18.082,7.223l.009.021,1.263,3.324a4.636,4.636,0,0,0-5.346.984V7.971a2.106,2.106,0,0,1,4.074-.748Zm-5.363,5.216H9.281V8.658h3.437ZM9.281,13.728h3.437v.516H9.281Zm5.7-9.84a1.039,1.039,0,0,1,.986.691,3.376,3.376,0,0,0-1.964.731V4.569A1.046,1.046,0,0,1,14.986,3.889Zm-7.972,0a1.046,1.046,0,0,1,.978.681v.742A3.376,3.376,0,0,0,6.028,4.58,1.039,1.039,0,0,1,7.014,3.889Zm-3.1,3.334a2.106,2.106,0,0,1,4.074.748v3.583a4.636,4.636,0,0,0-5.346-.984C4.527,5.618,3.683,7.841,3.918,7.223Zm.723,10.888A3.352,3.352,0,1,1,7.992,14.76,3.355,3.355,0,0,1,4.641,18.111Zm12.719,0a3.352,3.352,0,1,1,3.352-3.352A3.355,3.355,0,0,1,17.359,18.111Z" transform="translate(2.5)" fill="#181346" stroke="#181346" stroke-width="0.3"/>
    </g>
  </g>
</svg>
