<svg xmlns="http://www.w3.org/2000/svg" width="16.642" height="16.915" viewBox="0 0 16.642 16.915">
  <path id="cart-02" d="M3.339,5.465.757,2.884,1.884,1.757,4.465,4.339H16.6a.8.8,0,0,1,.763,1.025l-1.911,6.37a.8.8,0,0,1-.763.568H4.932v1.593h8.759v1.593H4.136a.8.8,0,0,1-.8-.8Zm1.593.467V10.71H14.1l1.433-4.778Zm-.4,12.741a1.194,1.194,0,1,1,1.194-1.194A1.194,1.194,0,0,1,4.534,18.672Zm9.555,0a1.194,1.194,0,1,1,1.194-1.194A1.194,1.194,0,0,1,14.089,18.672Z" transform="translate(-0.757 -1.757)" fill="#fff"/>
</svg>
