<svg xmlns="http://www.w3.org/2000/svg" width="23.844" height="28" viewBox="0 0 23.844 28">
  <g id="cart-bag" transform="translate(-88.698 -1070.855)">
    <path id="Path_20131" data-name="Path 20131" d="M-9049.623,18797.166h19.457l.263,2.832h-20.448Z" transform="translate(9140.476 -17702.682)" fill="#13bdbf"/>
    <path id="Path_20132" data-name="Path 20132" d="M-9039.2,18767.766l-1.656,1.389-.743,1.988.743.643,3.907.568h3.755v-1.824l-1.769-1.932-1.163-.832Z" transform="translate(9138.123 -17694.781)" fill="#13bdbf"/>
    <path id="shopping-bag_2_" data-name="shopping-bag(2)" d="M24.337,26.8,22.259,6.234a1.094,1.094,0,0,0-1.088-.984h-3.5a5.25,5.25,0,1,0-10.5,0h-3.5a1.094,1.094,0,0,0-1.088.984L.5,26.8A1.094,1.094,0,0,0,1.593,28H23.249A1.094,1.094,0,0,0,24.337,26.8ZM12.421,2.187A3.066,3.066,0,0,1,15.483,5.25H9.358A3.066,3.066,0,0,1,12.421,2.187ZM2.8,25.812,4.66,7.437H7.171V9.625a1.094,1.094,0,0,0,2.187,0V7.437h6.125V9.625a1.094,1.094,0,0,0,2.187,0V7.437h2.511l1.857,18.375Zm0,0" transform="translate(88.199 1070.855)" fill="#19124f"/>
  </g>
</svg>
