<svg id="_565453" data-name="565453" xmlns="http://www.w3.org/2000/svg" width="18.244" height="19" viewBox="0 0 18.244 19">
  <g id="Group_26598" data-name="Group 26598">
    <g id="Group_26597" data-name="Group 26597">
      <path id="Path_19374" data-name="Path 19374" d="M14.494,32.869a.215.215,0,0,1,.027-.109l.814-1.475h6.74a1.815,1.815,0,0,0,1.583-.932l3.492-6.342-1.583-.869h0l-1,1.81-2.493,4.524H15.724l-.118-.244-2.031-4.28-.86-1.81-.855-1.81H8.907v1.81h1.81l3.257,6.863-1.226,2.217a1.839,1.839,0,0,0-.222.873,1.809,1.809,0,0,0,1.81,1.81H25.193v-1.81H14.72A.224.224,0,0,1,14.494,32.869Z" transform="translate(-8.907 -20.428)" fill="#fff"/>
      <path id="Path_19375" data-name="Path 19375" d="M160.954,7.238h1.81V4.524h2.714V2.714h-2.714V0h-1.81V2.714H158.24v1.81h2.714Z" transform="translate(-151.907)" fill="#fff"/>
      <path id="Path_19376" data-name="Path 19376" d="M96.254,362.667a1.81,1.81,0,1,0,1.81,1.81A1.8,1.8,0,0,0,96.254,362.667Z" transform="translate(-90.826 -347.286)" fill="#fff"/>
      <path id="Path_19377" data-name="Path 19377" d="M309.587,362.667a1.81,1.81,0,1,0,1.81,1.81A1.8,1.8,0,0,0,309.587,362.667Z" transform="translate(-295.111 -347.286)" fill="#fff"/>
    </g>
  </g>
</svg>
