<svg xmlns="http://www.w3.org/2000/svg" width="61.43" height="56.882" viewBox="0 0 61.43 56.882">
  <g id="check-04" transform="translate(0 -10.255)">
    <path id="Path_19496" data-name="Path 19496" d="M77.512,57.319c0,2.684-5.077,4.539-5.915,6.955s2.107,6.881.533,8.956-6.854.757-9.037,2.294-2.539,6.735-5.077,7.565-5.889-3.246-8.682-3.246-6.194,4.051-8.707,3.27-2.894-6.052-5.077-7.565-7.413-.2-9.063-2.294,1.371-6.467.533-8.956S21.156,60,21.156,57.319s5.077-4.539,5.915-6.955-2.107-6.881-.584-8.98,6.854-.757,9.037-2.294,2.539-6.735,5.077-7.565,5.94,3.27,8.733,3.27,6.194-4.051,8.707-3.27,2.894,6.052,5.077,7.565,7.438.2,9.037,2.294-1.371,6.467-.533,8.956S77.512,54.635,77.512,57.319Z" transform="translate(-18.618 -18.621)" fill="#85dee2"/>
    <g id="Group_27012" data-name="Group 27012" transform="translate(0 10.255)">
      <path id="Path_19497" data-name="Path 19497" d="M22.7,67.138a4.853,4.853,0,0,1-1.477-.228c-2.493-.776-3.511-3.208-4.409-5.35a9.189,9.189,0,0,0-1.371-2.586,9.733,9.733,0,0,0-2.914-.441c-2.267-.147-5.087-.328-6.689-2.373-1.645-2.1-.921-4.773-.34-6.92a8.519,8.519,0,0,0,.482-2.789A8.748,8.748,0,0,0,3.93,44.47C2.181,43.072,0,41.326,0,38.7c0-2.645,2.221-4.41,4.008-5.83a9.236,9.236,0,0,0,2.038-1.922,9.125,9.125,0,0,0-.487-2.814C4.968,25.9,4.3,23.37,5.788,21.308c1.528-2.113,4.379-2.292,6.669-2.436a9.694,9.694,0,0,0,2.95-.441,8.933,8.933,0,0,0,1.373-2.576c.894-2.13,1.906-4.542,4.389-5.355,2.526-.833,4.915.637,6.829,1.812a9.037,9.037,0,0,0,2.721,1.337,9.144,9.144,0,0,0,2.752-1.342c1.993-1.215,4.25-2.591,6.735-1.819s3.511,3.205,4.407,5.348a9.2,9.2,0,0,0,1.373,2.588,9.693,9.693,0,0,0,2.919.441c2.275.147,5.108.331,6.679,2.4s.876,4.728.31,6.856a8.671,8.671,0,0,0-.477,2.823,8.89,8.89,0,0,0,2.064,1.979c1.759,1.4,3.95,3.151,3.95,5.779,0,2.645-2.221,4.413-4.008,5.833a9.294,9.294,0,0,0-2.038,1.922,9.042,9.042,0,0,0,.477,2.787c.592,2.25,1.262,4.8-.3,6.869S51.309,58.34,48.928,58.5a9.642,9.642,0,0,0-2.955.451A9.119,9.119,0,0,0,44.6,61.525c-.9,2.128-1.906,4.54-4.389,5.358-2.526.83-4.9-.629-6.8-1.8a8.914,8.914,0,0,0-2.7-1.327A9.144,9.144,0,0,0,27.962,65.1C26.375,66.063,24.616,67.138,22.7,67.138Zm0-51.983a14.629,14.629,0,0,0-1.218,2.537c-.739,1.758-1.5,3.577-3.079,4.692s-3.64,1.254-5.62,1.379a9.79,9.79,0,0,0-2.909.426,17.363,17.363,0,0,0,.6,2.73c.492,1.861,1.005,3.783.383,5.578-.6,1.751-2.14,2.97-3.625,4.151-.716.568-2.046,1.628-2.163,2.089a10.092,10.092,0,0,0,2.1,1.976c1.424,1.144,3.036,2.434,3.643,4.239s.071,3.788-.4,5.534a8.451,8.451,0,0,0-.482,2.8,13.058,13.058,0,0,0,2.937.372c1.95.125,3.965.255,5.544,1.352s2.363,2.946,3.11,4.724a9.149,9.149,0,0,0,1.356,2.566,20.709,20.709,0,0,0,2.368-1.337c1.615-.984,3.442-2.1,5.468-2.1s3.831,1.114,5.427,2.094a9.329,9.329,0,0,0,2.528,1.276A14.553,14.553,0,0,0,39.9,59.686c.739-1.761,1.5-3.578,3.079-4.692,1.592-1.126,3.729-1.264,5.615-1.386a9.561,9.561,0,0,0,2.929-.443,15.629,15.629,0,0,0-.579-2.718c-.485-1.846-.987-3.756-.371-5.539.6-1.751,2.14-2.973,3.625-4.151A9.642,9.642,0,0,0,56.347,38.7a9.441,9.441,0,0,0-2.1-2.006c-1.432-1.141-3.054-2.436-3.658-4.241s-.079-3.8.386-5.551a8.562,8.562,0,0,0,.477-2.806,14.21,14.21,0,0,0-2.886-.345c-1.952-.125-3.97-.255-5.552-1.354s-2.363-2.946-3.11-4.724a9.159,9.159,0,0,0-1.356-2.564,21.05,21.05,0,0,0-2.369,1.339c-1.615.984-3.442,2.1-5.468,2.1s-3.841-1.119-5.448-2.1A9.165,9.165,0,0,0,22.7,15.154ZM56.358,38.735h0Z" transform="translate(0 -10.255)" fill="#13bdbf"/>
      <path id="Path_19498" data-name="Path 19498" d="M159.527,192.113a2.525,2.525,0,0,1-1.795-.744l-6.778-6.778A2.538,2.538,0,0,1,154.544,181l4.816,4.813,11.317-13.533a2.54,2.54,0,0,1,3.9,3.259l-13.1,15.663a2.534,2.534,0,0,1-1.835.906C159.6,192.113,159.565,192.113,159.527,192.113Z" transform="translate(-132.187 -153.096)" fill="#fff"/>
    </g>
  </g>
</svg>
