<svg xmlns="http://www.w3.org/2000/svg" width="29.978" height="38.372" viewBox="0 0 29.978 38.372">
  <g id="checklist_2_" data-name="checklist(2)" transform="translate(-56)">
    <path id="Path_19656" data-name="Path 19656" d="M181,0h11.242V4.465H181Z" transform="translate(-115.632)" fill="#13bdbf"/>
    <path id="Path_19657" data-name="Path 19657" d="M146,278.578h2.248v2.248H146Z" transform="translate(-83.255 -257.7)" fill="#13bdbf"/>
    <path id="Path_19658" data-name="Path 19658" d="M78.858,29.578v4.5H63.12v-4.5H56V65.733H85.978V29.578ZM60.5,36.7h6.745v6.745H60.5Zm0,9.293h6.745v6.745H60.5Zm2.473,15.68-3.043-3.043,1.59-1.59,1.453,1.453L66.3,55.164l1.59,1.59Zm18.512-2.04H70.989V57.383H81.482Zm0-9.143H70.989V48.239H81.482Zm0-9.293H70.989V38.946H81.482Z" transform="translate(0 -27.361)" fill="#13bdbf"/>
    <path id="Path_19659" data-name="Path 19659" d="M146,154.578h2.248v2.248H146Z" transform="translate(-83.255 -142.993)" fill="#13bdbf"/>
  </g>
</svg>
