<svg xmlns="http://www.w3.org/2000/svg" width="38.99" height="26.252" viewBox="0 0 38.99 26.252">
  <g id="coins" transform="translate(0 -75.473)">
    <g id="Group_27147" data-name="Group 27147" transform="translate(16.214 95.194)">
      <g id="Group_27146" data-name="Group 27146">
        <path id="Path_19535" data-name="Path 19535" d="M196,309.435v-.152c-.776-.008-1.519-.051-2.236-.11a10.19,10.19,0,0,1-1.62,2.776,26.355,26.355,0,0,0,3.907.346Z" transform="translate(-192.146 -309.173)" fill="#13bdbf"/>
      </g>
    </g>
    <g id="Group_27149" data-name="Group 27149" transform="translate(0 83.161)">
      <g id="Group_27148" data-name="Group 27148" transform="translate(0 0)">
        <path id="Path_19536" data-name="Path 19536" d="M16.653,173.282a8.472,8.472,0,0,0-5.755-6.337,8.6,8.6,0,0,0-2.489-.371A8.408,8.408,0,1,0,14.071,181.2a8.361,8.361,0,0,0,2.751-6.219A8.825,8.825,0,0,0,16.653,173.282Zm-8.244.565a3.185,3.185,0,0,1,.861,6.253v.743a.844.844,0,0,1-1.688,0v-.734a3.206,3.206,0,0,1-2.363-3.08.844.844,0,0,1,1.688,0,1.5,1.5,0,1,0,1.494-1.5,3.184,3.184,0,0,1-.81-6.261V168.9a.844.844,0,0,1,1.688,0v.38a3.19,3.19,0,0,1,2.321,3.072.844.844,0,1,1-1.688,0,1.5,1.5,0,1,0-1.5,1.494Z" transform="translate(0 -166.573)" fill="#13bdbf"/>
      </g>
    </g>
    <g id="Group_27151" data-name="Group 27151" transform="translate(18.315 90.561)">
      <g id="Group_27150" data-name="Group 27150">
        <path id="Path_19537" data-name="Path 19537" d="M218.776,257.319l-.051-2.987c-.523-.008-1.038-.025-1.527-.059.025.338.042.667.042,1a10.373,10.373,0,0,1-.194,1.975C217.6,257.294,218.185,257.319,218.776,257.319Z" transform="translate(-217.046 -254.273)" fill="#13bdbf"/>
      </g>
    </g>
    <g id="Group_27153" data-name="Group 27153" transform="translate(11.953 79.642)">
      <g id="Group_27152" data-name="Group 27152" transform="translate(0 0)">
        <path id="Path_19538" data-name="Path 19538" d="M158.979,124.873a10.122,10.122,0,0,1-1.831.734,27.88,27.88,0,0,1-13.679.068,9.35,9.35,0,0,1-1.823-.7l.059,2.38a9.736,9.736,0,0,1,2.641,1.494c.025.008.042.008.068.017a24.142,24.142,0,0,0,5.747.633,23.886,23.886,0,0,0,6.5-.819c1.831-.557,2.236-1.139,2.236-1.249a.485.485,0,0,1,.084-.346Z" transform="translate(-141.646 -124.873)" fill="#13bdbf"/>
      </g>
    </g>
    <g id="Group_27155" data-name="Group 27155" transform="translate(11.868 75.473)">
      <g id="Group_27154" data-name="Group 27154" transform="translate(0 0)">
        <path id="Path_19539" data-name="Path 19539" d="M155.734,76.292a23.56,23.56,0,0,0-6.5-.819,22.8,22.8,0,0,0-6.413.819c-1.781.54-2.169,1.072-2.177,1.24,0,0,.008,0,.008.017.042.186.549.759,2.363,1.283a23.17,23.17,0,0,0,6.219.759,23.845,23.845,0,0,0,6.489-.81c1.831-.549,2.245-1.131,2.245-1.249S157.565,76.848,155.734,76.292Z" transform="translate(-140.646 -75.473)" fill="#13bdbf"/>
      </g>
    </g>
    <g id="Group_27157" data-name="Group 27157" transform="translate(21.792 97.11)">
      <g id="Group_27156" data-name="Group 27156" transform="translate(0 0)">
        <path id="Path_19540" data-name="Path 19540" d="M275.427,334.4v-2.532a10.815,10.815,0,0,1-1.772.717,24.955,24.955,0,0,1-6.97.886,25.969,25.969,0,0,1-6.337-.726,10.994,10.994,0,0,1-2.1-.768l.042,2.447v.017c0,.127.371.692,2.152,1.241a22.963,22.963,0,0,0,6.4.8,22.529,22.529,0,0,0,6.422-.827c1.781-.557,2.169-1.139,2.169-1.257Z" transform="translate(-258.246 -331.873)" fill="#13bdbf"/>
      </g>
    </g>
    <g id="Group_27159" data-name="Group 27159" transform="translate(16.628 84.35)">
      <g id="Group_27158" data-name="Group 27158" transform="translate(0 0)">
        <path id="Path_19541" data-name="Path 19541" d="M209.687,180.673a10.656,10.656,0,0,1-1.823.726,25.187,25.187,0,0,1-7,.886,30.392,30.392,0,0,1-3.823-.245,10,10,0,0,1,1.511,3.139c.726.051,1.51.084,2.321.084h.084c1.384-1.519,5.105-2.278,8.725-2.38v-2.211Z" transform="translate(-197.046 -180.673)" fill="#13bdbf"/>
      </g>
    </g>
    <g id="Group_27161" data-name="Group 27161" transform="translate(21.716 92.443)">
      <g id="Group_27160" data-name="Group 27160">
        <path id="Path_19542" data-name="Path 19542" d="M272.772,277.29a25.26,25.26,0,0,1-6.894.861,24.942,24.942,0,0,1-6.692-.819,10.357,10.357,0,0,1-1.84-.709l.034,1.941.008.709c.658.819,3.806,1.873,8.481,1.873a23.349,23.349,0,0,0,6.472-.81c1.823-.557,2.219-1.131,2.219-1.249,0-.093.051-.194.051-.278h.008v-2.236A9.634,9.634,0,0,1,272.772,277.29Z" transform="translate(-257.346 -276.573)" fill="#13bdbf"/>
      </g>
    </g>
    <g id="Group_27163" data-name="Group 27163" transform="translate(21.657 88.266)">
      <g id="Group_27162" data-name="Group 27162" transform="translate(0 0)">
        <path id="Path_19543" data-name="Path 19543" d="M271.734,227.875a23.649,23.649,0,0,0-6.5-.8h-.143a22.966,22.966,0,0,0-6.017.717c-1.747.489-2.346,1.046-2.422,1.274a.064.064,0,0,0-.008.034l.017.034c.051.177.549.751,2.363,1.283a26.225,26.225,0,0,0,12.633-.042c1.873-.557,2.3-1.139,2.3-1.266V229.1C273.953,228.972,273.532,228.415,271.734,227.875Z" transform="translate(-256.646 -227.073)" fill="#13bdbf"/>
      </g>
    </g>
  </g>
</svg>
