<svg xmlns="http://www.w3.org/2000/svg" width="71.039" height="66.683" viewBox="0 0 71.039 66.683">
  <g id="Group_26616" data-name="Group 26616" transform="translate(-1022.533 -1056)">
    <g id="_3077264" data-name="3077264" transform="translate(1024 1021.699)">
      <g id="Group_4806" data-name="Group 4806" transform="translate(1.716 44.15)">
        <path id="Path_19054" data-name="Path 19054" d="M417.518,209.722l-1.271,5.082,7.623-1.271Z" transform="translate(-361.402 -188.102)" fill="#fff"/>
        <path id="Path_19055" data-name="Path 19055" d="M371.1,116.816a7,7,0,0,0-5.652,1.458.6.6,0,0,0-.119.757,7,7,0,0,0,4.934,3.118,6.869,6.869,0,0,0,6-1.791A6.869,6.869,0,0,0,371.1,116.816Z" transform="translate(-317.33 -107.737)" fill="#85dee2"/>
        <path id="Path_19056" data-name="Path 19056" d="M445.6,52.2a6.642,6.642,0,0,1,5.3-1.5.6.6,0,0,1,.485.6,6.642,6.642,0,0,1-2.561,4.879,6.515,6.515,0,0,1-5.777,1.39A6.515,6.515,0,0,1,445.6,52.2Z" transform="translate(-384.551 -50.612)" fill="#e0f5f4"/>
        <path id="Path_19057" data-name="Path 19057" d="M149.45,121.039l-30.122-14.586a.923.923,0,0,0-1.316.981,23.509,23.509,0,0,0,3.122,8.523l25.23,10.346Z" transform="translate(-103.68 -98.783)" fill="#e0f5f4"/>
        <path id="Path_19058" data-name="Path 19058" d="M65.478,137.168h0a10.956,10.956,0,0,0-7.747,3.209l-1.861,1.861a3.267,3.267,0,0,1-3.414.765L13.948,129.18a.987.987,0,0,0-1.236,1.328,25.681,25.681,0,0,0,6.342,8.887c5.808,9.8,14.963,9.276,14.963,9.276l7.36,5.759-18.364,8.292a2.183,2.183,0,0,0-1.272,2.147c.216,3.059,1.723,9.527,10.612,9.394a2.2,2.2,0,0,0,1.928-1.209l4-8.063c6.957,2.411,19.568,3.642,25.272-15.641a5.117,5.117,0,0,1,2.954-3.3l.036-.015a5,5,0,0,0,3.106-4.626v-.068a4.172,4.172,0,0,0-4.172-4.172Z" transform="translate(-12.626 -118.451)" fill="#85dee2"/>
        <path id="Path_19059" data-name="Path 19059" d="M97.641,390.042a2.2,2.2,0,0,0,1.928-1.21l4-8.063-3.779-1.741a2.178,2.178,0,0,0-2.059.127l-9.551,5.922C89.47,387.678,92.14,390.124,97.641,390.042Z" transform="translate(-77.913 -334.23)" fill="#e0f5f4"/>
        <path id="Path_19060" data-name="Path 19060" d="M122.079,394.083a12.846,12.846,0,0,0,4.854.769,2.2,2.2,0,0,0,1.928-1.21l4-8.063-2.571-1.184Z" transform="translate(-107.206 -339.04)" fill="#85dee2"/>
        <path id="Path_19061" data-name="Path 19061" d="M151.318,270.692l9.862-2.2,5.445,3.267c-9.8,8.712-15.307-1.072-15.307-1.072" transform="translate(-132.472 -238.89)" fill="#edfafa"/>
        <path id="Path_19062" data-name="Path 19062" d="M73.026,209.428a18.625,18.625,0,0,1-13.094-4.688c1.543,5.124,7.137,15.394,22.28,8.664l-1.691-1.353A11.64,11.64,0,0,0,73.026,209.428Z" transform="translate(-53.504 -183.797)" fill="#e0f5f4"/>
      </g>
      <g id="Group_4807" data-name="Group 4807" transform="translate(0 43.134)">
        <path id="Path_19063" data-name="Path 19063" d="M386.741,215.016v-1.089a1.019,1.019,0,1,0-2.038,0v1.089a1.019,1.019,0,1,0,2.038,0Z" transform="translate(-332.428 -189.838)" fill="#00205b"/>
        <path id="Path_19064" data-name="Path 19064" d="M61.036,52.292c.214.021.43.035.647.035a7.969,7.969,0,0,0,4.949-1.817,7.583,7.583,0,0,0,2.925-6.229,1.019,1.019,0,0,0-.737-.909,7.584,7.584,0,0,0-6.7,1.579,8.26,8.26,0,0,0-2.014,2.4c-.173-1.091-.317-2.153-.423-3.17a1.019,1.019,0,1,0-2.027.213,85.843,85.843,0,0,0,1.584,9.275,8.594,8.594,0,0,0-3.6-1.443,7.94,7.94,0,0,0-6.895,2.09,1.019,1.019,0,0,0-.181,1.156,7.94,7.94,0,0,0,5.924,4.1,8.762,8.762,0,0,0,1.356.106,8.047,8.047,0,0,0,4.509-1.333c.836,3.289,1.739,6.435,2.548,9.1L59.491,65.4a5.2,5.2,0,0,0-4.926-3.549,11.885,11.885,0,0,0-7.932,3.006l-30.377-14.7a1.019,1.019,0,0,0-1.463.926,21.08,21.08,0,0,0,1.688,7.545L1.364,53.195A1.019,1.019,0,0,0,.042,54.441a27.25,27.25,0,0,0,5.246,9.23A22.765,22.765,0,0,0,7.25,65.665c.969,2.86,3.359,7.985,8.442,10.22a13.341,13.341,0,0,0,4.3,1.07,10.446,10.446,0,0,0,6.637,4.623,8.457,8.457,0,0,0,1.4.117c2.736,0,5.6-1.31,8.518-3.909a1.019,1.019,0,1,0-1.354-1.523c-2.936,2.61-5.7,3.723-8.212,3.308a7.8,7.8,0,0,1-4.417-2.615,25.31,25.31,0,0,0,8.275-2.268,1.019,1.019,0,1,0-.828-1.863c-5.35,2.378-9.891,2.779-13.5,1.194a12.985,12.985,0,0,1-6.028-5.968A20.765,20.765,0,0,0,25.156,70.4,1.019,1.019,0,0,0,24.8,68.4c-7.276,1.284-13.31-.739-17.931-6.012a25.858,25.858,0,0,1-4.1-6.522L41.2,69.66a4.3,4.3,0,0,0,4.479-1L47.539,66.8a9.873,9.873,0,0,1,7.029-2.91,3.157,3.157,0,0,1,3.153,3.153v.068a3.961,3.961,0,0,1-2.5,3.7,6.016,6.016,0,0,0-3.541,3.918c-2.337,7.925-6.07,13.02-11.1,15.145-2.213.935-8.253,2.64-16.531-1.716a3.193,3.193,0,0,0-3.15.118L12.429,93.5a11.7,11.7,0,0,1-.581-3,1.158,1.158,0,0,1,.677-1.148l10.7-4.862a1.019,1.019,0,0,0-.843-1.856l-10.7,4.862A3.219,3.219,0,0,0,9.815,90.64a12.068,12.068,0,0,0,2.26,6.441c1.979,2.59,5.039,3.9,9.1,3.9l.286,0a3.2,3.2,0,0,0,2.824-1.773l3.632-7.264a23.165,23.165,0,0,0,6.821,1.1,16.938,16.938,0,0,0,6.638-1.3c5.616-2.374,9.741-7.907,12.258-16.446a3.991,3.991,0,0,1,2.345-2.6,6.041,6.041,0,0,0,1.9-1.208l5.974-1c.857,2.7,1.472,4.466,1.552,4.692a1.019,1.019,0,1,0,1.924-.673,215.067,215.067,0,0,1-6.288-22.218Zm2.37-5.758a5.772,5.772,0,0,1,4.1-1.343,6.043,6.043,0,0,1-6.26,5.08A5.772,5.772,0,0,1,63.406,46.534Zm-8.6,11.022a6.125,6.125,0,0,1-4.016-2.331,6.416,6.416,0,0,1,8.552,1.342A6.126,6.126,0,0,1,54.807,57.555ZM41.887,67.742,19.344,59.649a17.186,17.186,0,0,1-2.365-6.884l28.1,13.6-.847.847A2.257,2.257,0,0,1,41.887,67.742Zm-28.565,27.6L21.971,90a1.145,1.145,0,0,1,1.13-.049l.01.005L16.289,97.93a7.309,7.309,0,0,1-2.966-2.589ZM22.46,98.3a1.183,1.183,0,0,1-1.032.646,13.164,13.164,0,0,1-3.068-.3l6.655-7.778c.3.131.624.264.961.4ZM59.4,69.165a6.015,6.015,0,0,0,.307-1.263l1.581.949Z" transform="translate(0 -43.134)" fill="#00205b"/>
      </g>
    </g>
    <circle id="Ellipse_42" data-name="Ellipse 42" cx="2" cy="2" r="2" transform="translate(1022.533 1059.804) rotate(-72)" fill="#85dee2"/>
    <circle id="Ellipse_41" data-name="Ellipse 41" cx="5" cy="5" r="5" transform="matrix(-0.993, -0.122, 0.122, -0.993, 1075.773, 1113.553)" fill="#e0f5f4"/>
    <circle id="Ellipse_42-2" data-name="Ellipse 42" cx="2" cy="2" r="2" transform="matrix(-0.993, -0.122, 0.122, -0.993, 1066.979, 1119.526)" fill="#85dee2"/>
  </g>
</svg>
