<svg xmlns="http://www.w3.org/2000/svg" width="63.288" height="73.066" viewBox="0 0 63.288 73.066">
  <g id="Group_26614" data-name="Group 26614" transform="translate(-229 -1057.833)">
    <g id="Twotone" transform="translate(231 1061.833)">
      <g id="Color_copy_2" data-name="Color copy 2" transform="translate(2.967 2.967)">
        <g id="Group_4772" data-name="Group 4772" transform="translate(0 0)">
          <path id="Path_18989" data-name="Path 18989" d="M47.467,52.133A25.133,25.133,0,0,1,22.333,27H14.6V54.067a5.8,5.8,0,1,0-5.8,5.8H59.067V52.133Z" transform="translate(-3 -3.8)" fill="#85dee2"/>
          <g id="Group_4770" data-name="Group 4770" transform="translate(18.371 4.018)">
            <rect id="Rectangle_1735" data-name="Rectangle 1735" width="14" height="4" rx="2" transform="translate(0.662 15.015)" fill="#e0f5f4"/>
            <path id="Path_18990" data-name="Path 18990" d="M25,27h9.667v.967a4.833,4.833,0,1,1-9.667,0Z" transform="translate(-22.104 -7.818)" fill="#e0f5f4"/>
            <path id="Path_18991" data-name="Path 18991" d="M26.833,11.839a8.65,8.65,0,0,1,1.375-4.682A7.733,7.733,0,0,0,24.9,20.771v1.7h9.667v-1.7c.1-.083.193-.178.3-.266a8.7,8.7,0,0,1-8.029-8.666Z" transform="translate(-22.005 -7.157)" fill="#85dee2"/>
          </g>
          <path id="Path_18992" data-name="Path 18992" d="M42.536,44.733a5.863,5.863,0,0,0-.1-1.058L44.4,42.541,42.47,39.192l-1.964,1.135a5.766,5.766,0,0,0-1.837-1.057V37H34.8v2.271a5.766,5.766,0,0,0-1.837,1.057L31,39.192l-1.933,3.349,1.965,1.135a5.612,5.612,0,0,0,0,2.115l-1.964,1.135L31,50.274l1.964-1.135A5.766,5.766,0,0,0,34.8,50.2v2.271h3.867V50.2a5.766,5.766,0,0,0,1.837-1.057l1.965,1.135L44.4,46.926l-1.965-1.135a5.863,5.863,0,0,0,.1-1.058Zm-5.8,1.933a1.933,1.933,0,1,1,1.933-1.933A1.933,1.933,0,0,1,36.736,46.667Z" transform="translate(-3.869 -4.133)" fill="#e0f5f4"/>
          <circle id="Ellipse_36" data-name="Ellipse 36" cx="2" cy="2" r="2" transform="translate(17.033 47.033)" fill="#fff"/>
          <g id="Group_4771" data-name="Group 4771" transform="translate(44.467)">
            <path id="Path_18993" data-name="Path 18993" d="M0,0H7.733V24.167H0Z" transform="translate(7.733 33.833) rotate(180)" fill="#85dee2"/>
            <path id="Path_18994" data-name="Path 18994" d="M53.465,43.949,56.218,38H49Z" transform="translate(-49 -4.167)" fill="#e0f5f4"/>
            <path id="Path_18995" data-name="Path 18995" d="M0,0H7.733V1.933A3.867,3.867,0,1,1,0,1.933Z" transform="translate(7.733 5.8) rotate(180)" fill="#e0f5f4"/>
            <path id="Path_18996" data-name="Path 18996" d="M0,0H7.733V3.867H0Z" transform="translate(7.733 9.667) rotate(180)" fill="#e0f5f4"/>
            <path id="Path_18997" data-name="Path 18997" d="M50.6,42h4.64l-2.32,5.8Z" transform="translate(-49.053 -4.3)" fill="#fff"/>
          </g>
          <path id="Path_18998" data-name="Path 18998" d="M9.767,32.654V17.087A5.768,5.768,0,0,0,3,22.8V53.733a5.8,5.8,0,0,1,11.6,0V47.667A25.748,25.748,0,0,1,9.767,32.654Z" transform="translate(-3 -3.467)" fill="#85dee2"/>
        </g>
      </g>
      <g id="Stroke_Close_copy" data-name="Stroke Close copy" transform="translate(2 2)">
        <g id="Group_4773" data-name="Group 4773">
          <path id="Path_18999" data-name="Path 18999" d="M59.033,25.2h-2.9V6.833a4.833,4.833,0,0,0-9.667,0V25.2H36.622a2.849,2.849,0,0,0-1.755-3.689v-.468a8.7,8.7,0,1,0-11.6,0v.465A2.849,2.849,0,0,0,21.511,25.2H15.533V22.3A6.767,6.767,0,1,0,2,22.3V53.233A6.774,6.774,0,0,0,8.767,60H59.033A.967.967,0,0,0,60,59.033V26.167A.967.967,0,0,0,59.033,25.2ZM52.966,39.7H49.634l-.773-1.933h4.878Zm-2.558,1.933h1.784L51.3,43.864Zm3.792-5.8H52.267V13.6H54.2Zm-5.8,0V13.6h1.933V35.833Zm5.8-24.167H48.4V9.733h5.8ZM48.4,6.833a2.9,2.9,0,0,1,5.8,0V7.8H48.4ZM29.067,31A3.867,3.867,0,0,1,25.2,27.133h7.733A3.867,3.867,0,0,1,29.067,31ZM22.3,14.567a6.767,6.767,0,1,1,10.995,5.278.967.967,0,0,0-.362.754v.735H32.08l.848-7.627a.967.967,0,0,0-1.266-1.024l-2.595.865-2.595-.865a.967.967,0,0,0-1.266,1.024l.848,7.627H25.2V20.6a.967.967,0,0,0-.362-.754A6.739,6.739,0,0,1,22.3,14.567Zm4.995.428,1.466.489a.967.967,0,0,0,.611,0l1.466-.489-.7,6.338H28Zm-4.028,9.238a.967.967,0,0,1,.967-.967H33.9a.967.967,0,1,1,0,1.933H24.233A.967.967,0,0,1,23.267,24.233ZM3.933,22.3a4.833,4.833,0,1,1,9.667,0V48.5a6.758,6.758,0,0,0-9.667,0ZM58.067,58.067H8.767A4.833,4.833,0,1,1,13.6,53.233a.967.967,0,1,0,1.933,0v-26.1h7.733a5.807,5.807,0,0,0,4,5.51,8.023,8.023,0,0,1-3.75,2.127l-1.474.369A4.767,4.767,0,0,0,23.2,44.533h2a.967.967,0,0,0,0-1.933h-2a2.833,2.833,0,0,1-.686-5.582l1.474-.368a9.957,9.957,0,0,0,5.586-3.742,5.8,5.8,0,0,0,5.293-5.775h11.6V36.8c0,.014.007.024.008.038a.954.954,0,0,0,.061.322l1.547,3.867,2.32,5.8a.967.967,0,0,0,1.8,0l2.32-5.8,1.547-3.867a.955.955,0,0,0,.061-.323c0-.013.008-.023.008-.037V27.133h1.933Z" transform="translate(-2 -2)" fill="#00205b"/>
          <ellipse id="Ellipse_37" data-name="Ellipse 37" cx="0.5" cy="1" rx="0.5" ry="1" transform="translate(15 12)" fill="#00205b"/>
          <circle id="Ellipse_38" data-name="Ellipse 38" cx="1" cy="1" r="1" transform="translate(38 12)" fill="#00205b"/>
          <circle id="Ellipse_39" data-name="Ellipse 39" cx="1" cy="1" r="1" transform="translate(26)" fill="#00205b"/>
          <path id="Path_19000" data-name="Path 19000" d="M19.091,9.8a.967.967,0,1,0-.354-1.32.967.967,0,0,0,.354,1.32Z" transform="translate(-2.554 -2.2)" fill="#00205b"/>
          <path id="Path_19001" data-name="Path 19001" d="M39.875,21.8a.967.967,0,1,0-.354-1.32A.967.967,0,0,0,39.875,21.8Z" transform="translate(-3.246 -2.6)" fill="#00205b"/>
          <circle id="Ellipse_40" data-name="Ellipse 40" cx="0.967" cy="0.967" r="0.967" transform="translate(31.686 1.832) rotate(-15.009)" fill="#00205b"/>
          <path id="Path_19002" data-name="Path 19002" d="M40.842,9.8a.967.967,0,1,0-1.32-.354.967.967,0,0,0,1.32.354Z" transform="translate(-3.246 -2.2)" fill="#00205b"/>
          <path id="Path_19003" data-name="Path 19003" d="M19.091,20.13a.967.967,0,1,0,1.32.354.967.967,0,0,0-1.32-.354Z" transform="translate(-2.554 -2.6)" fill="#00205b"/>
          <path id="Path_19004" data-name="Path 19004" d="M24.45,5.412a.967.967,0,1,0-1.32-.354A.967.967,0,0,0,24.45,5.412Z" transform="translate(-2.7 -2.054)" fill="#00205b"/>
          <path id="Path_19005" data-name="Path 19005" d="M39.6,52.433V50.808a6.64,6.64,0,0,0,.942-.542l1.406.812a.967.967,0,0,0,1.32-.354L45.2,47.376a.967.967,0,0,0-.354-1.32l-1.4-.811c.015-.183.023-.363.023-.544s-.008-.362-.023-.544l1.4-.811a.967.967,0,0,0,.354-1.32L43.27,38.676a.967.967,0,0,0-1.32-.354l-1.406.812a6.641,6.641,0,0,0-.942-.542V36.967A.967.967,0,0,0,38.636,36H34.769a.967.967,0,0,0-.967.967v1.625a6.642,6.642,0,0,0-.942.542l-1.406-.812a.967.967,0,0,0-1.32.354L28.2,42.024a.967.967,0,0,0,.354,1.32l1.4.811c-.015.183-.023.363-.023.544s.008.362.023.544l-1.4.811a.967.967,0,0,0-.354,1.32l1.933,3.349a.967.967,0,0,0,1.32.354l1.406-.812a6.641,6.641,0,0,0,.942.542v1.625a.967.967,0,0,0,.967.967h3.867A.967.967,0,0,0,39.6,52.433Zm-1.933-2.271v1.3H35.736v-1.3a.967.967,0,0,0-.644-.911,4.828,4.828,0,0,1-1.527-.881.967.967,0,0,0-1.112-.1l-1.127.652-.967-1.674,1.123-.652a.967.967,0,0,0,.468-1.012,4.621,4.621,0,0,1,0-1.765.967.967,0,0,0-.468-1.012l-1.127-.652.967-1.674,1.127.652a.967.967,0,0,0,1.112-.1,4.828,4.828,0,0,1,1.527-.881.967.967,0,0,0,.648-.911v-1.3h1.933v1.3a.967.967,0,0,0,.644.911,4.828,4.828,0,0,1,1.527.881.967.967,0,0,0,1.112.1l1.127-.652.967,1.674-1.123.652a.967.967,0,0,0-.468,1.012,4.621,4.621,0,0,1,0,1.765.967.967,0,0,0,.468,1.012l1.127.652-.967,1.674-1.127-.652a.967.967,0,0,0-1.112.1,4.828,4.828,0,0,1-1.527.881A.967.967,0,0,0,37.669,50.163Z" transform="translate(-2.869 -3.133)" fill="#00205b"/>
          <path id="Path_19006" data-name="Path 19006" d="M36.9,42a2.9,2.9,0,1,0,2.9,2.9A2.9,2.9,0,0,0,36.9,42Zm0,3.867a.967.967,0,1,1,.967-.967A.967.967,0,0,1,36.9,45.867Z" transform="translate(-3.067 -3.333)" fill="#00205b"/>
          <path id="Path_19007" data-name="Path 19007" d="M52.467,51a.967.967,0,0,0-.967.967V53.9a1.933,1.933,0,0,1-1.933,1.933h-11.6a.967.967,0,0,0,0,1.933h11.6A3.867,3.867,0,0,0,53.433,53.9V51.967A.967.967,0,0,0,52.467,51Z" transform="translate(-3.167 -3.633)" fill="#00205b"/>
          <path id="Path_19008" data-name="Path 19008" d="M22.9,51a2.9,2.9,0,1,0,2.9,2.9A2.9,2.9,0,0,0,22.9,51Zm0,3.867a.967.967,0,1,1,.967-.967A.967.967,0,0,1,22.9,54.867Z" transform="translate(-2.6 -3.633)" fill="#00205b"/>
        </g>
      </g>
    </g>
    <circle id="Ellipse_42" data-name="Ellipse 42" cx="2" cy="2" r="2" transform="translate(229 1057.833)" fill="#85dee2"/>
    <circle id="Ellipse_41" data-name="Ellipse 41" cx="5" cy="5" r="5" transform="matrix(-0.883, -0.469, 0.469, -0.883, 287.594, 1128.474)" fill="#e0f5f4"/>
    <circle id="Ellipse_42-2" data-name="Ellipse 42" cx="2" cy="2" r="2" transform="matrix(-0.883, -0.469, 0.469, -0.883, 277.243, 1130.898)" fill="#85dee2"/>
  </g>
</svg>
