<svg xmlns="http://www.w3.org/2000/svg" width="76.376" height="61.372" viewBox="0 0 76.376 61.372">
  <g id="Group_26615" data-name="Group 26615" transform="translate(-614.004 -1063.818)">
    <g id="_993366" data-name="993366" transform="translate(614.128 1063.817)">
      <g id="Group_4774" data-name="Group 4774" transform="translate(25.465 15.869)">
        <path id="Path_19009" data-name="Path 19009" d="M74.963,136.117a3.741,3.741,0,0,0-3.741-3.741H68.728v14.671h6.235S74.963,136.117,74.963,136.117Z" transform="translate(-68.728 -132.376)" fill="#e0f5f4"/>
        <path id="Path_19010" data-name="Path 19010" d="M391.253,136.117a3.741,3.741,0,0,1,3.741-3.741h2.494v14.671h-6.235V136.117Z" transform="translate(-352.593 -132.376)" fill="#e0f5f4"/>
      </g>
      <path id="Path_19011" data-name="Path 19011" d="M330.895,92.042v13.932h0a3.742,3.742,0,0,0-3.672.678l-7.437,6.2a3.733,3.733,0,0,0-1.361,2.887v13.72H328.4v-3.743a3.736,3.736,0,0,1,1.541-3.026l6.9-5.175a3.736,3.736,0,0,0,1.537-3.023V92.042a3.741,3.741,0,1,0-7.482,0Z" transform="translate(-263.029 -77.715)" fill="#e0f5f4"/>
      <g id="Group_4775" data-name="Group 4775" transform="translate(61.709 10.586)">
        <path id="Path_19012" data-name="Path 19012" d="M379.161,88.78a3.739,3.739,0,0,1,1.91,3.262V106.15a6.1,6.1,0,0,0-3.819-2.6v2.423a3.742,3.742,0,0,1,2.494,3.527h0a3.731,3.731,0,0,1-1.361,2.887l-5.941,4.906-.009.024a3.732,3.732,0,0,0-1.341,2.868v9.267h3.663v-3.743a3.736,3.736,0,0,1,1.541-3.026l6.9-5.175a3.736,3.736,0,0,0,1.537-3.023V92.042a3.741,3.741,0,0,0-5.573-3.262Z" transform="translate(-371.094 -88.301)" fill="#85dee2"/>
        <path id="Path_19013" data-name="Path 19013" d="M392.406,253.134a.8.8,0,0,0,1.126.116l1.047-.864a1.949,1.949,0,0,0-.565-3.333l-.048-.017a1.95,1.95,0,0,0-1.887.362l-.015.012-.986.822a.8.8,0,0,0-.111,1.108Z" transform="translate(-388.43 -229.678)" fill="#85dee2"/>
      </g>
      <rect id="Rectangle_1736" data-name="Rectangle 1736" width="14.965" height="4.991" transform="translate(52.901 50.493)" fill="#fff"/>
      <rect id="Rectangle_1737" data-name="Rectangle 1737" width="3.753" height="4.98" transform="translate(64.124 50.504)" fill="#fff"/>
      <rect id="Rectangle_1738" data-name="Rectangle 1738" width="19.953" height="6.236" transform="translate(50.407 54.234)" fill="#85dee2"/>
      <rect id="Rectangle_1739" data-name="Rectangle 1739" width="3.741" height="6.236" transform="translate(66.619 54.234)" fill="#e0f5f4"/>
      <path id="Path_19014" data-name="Path 19014" d="M34.6,92.042v13.932h0a3.742,3.742,0,0,1,3.672.678l7.437,6.2a3.733,3.733,0,0,1,1.361,2.887v13.72H37.09v-3.743a3.736,3.736,0,0,0-1.541-3.026l-6.9-5.175a3.736,3.736,0,0,1-1.537-3.023V92.042a3.741,3.741,0,1,1,7.482,0Z" transform="translate(-6.636 -77.715)" fill="#e0f5f4"/>
      <g id="Group_4776" data-name="Group 4776" transform="translate(20.477 10.586)">
        <path id="Path_19015" data-name="Path 19015" d="M32.686,88.78a3.739,3.739,0,0,0-1.91,3.262V106.15a6.1,6.1,0,0,1,3.819-2.6v2.423A3.742,3.742,0,0,0,32.1,109.5h0a3.731,3.731,0,0,0,1.361,2.887L39.4,117.3l.009.024a3.732,3.732,0,0,1,1.341,2.868v9.267H37.09v-3.743a3.736,3.736,0,0,0-1.541-3.026l-6.9-5.175a3.736,3.736,0,0,1-1.537-3.023V92.042a3.741,3.741,0,0,1,5.573-3.262Z" transform="translate(-27.113 -88.301)" fill="#85dee2"/>
        <path id="Path_19016" data-name="Path 19016" d="M86.566,253.134a.8.8,0,0,1-1.126.116l-1.047-.864a1.949,1.949,0,0,1,.565-3.333l.048-.017a1.95,1.95,0,0,1,1.887.362l.015.012.986.822a.8.8,0,0,1,.111,1.108Z" transform="translate(-76.902 -229.678)" fill="#85dee2"/>
      </g>
      <rect id="Rectangle_1740" data-name="Rectangle 1740" width="14.965" height="4.991" transform="translate(27.96 50.493)" fill="#e0f5f4"/>
      <rect id="Rectangle_1741" data-name="Rectangle 1741" width="3.753" height="4.98" transform="translate(27.948 50.504)" fill="#fff"/>
      <rect id="Rectangle_1742" data-name="Rectangle 1742" width="19.953" height="6.236" transform="translate(25.465 54.234)" fill="#85dee2"/>
      <rect id="Rectangle_1743" data-name="Rectangle 1743" width="3.741" height="6.236" transform="translate(25.465 54.234)" fill="#e0f5f4"/>
      <path id="Path_19017" data-name="Path 19017" d="M213.7,5.07a11.519,11.519,0,0,0,0,19.954,11.519,11.519,0,0,0,0-19.954Z" transform="translate(-165.789 -4.461)" fill="#e0f5f4"/>
      <path id="Path_19018" data-name="Path 19018" d="M242.267,5.07A11.568,11.568,0,0,0,240.4,6.42a11.51,11.51,0,0,1,0,17.254,11.571,11.571,0,0,0,1.871,1.35,11.519,11.519,0,0,0,0-19.953Z" transform="translate(-194.354 -4.461)" fill="#85dee2"/>
      <path id="Path_19019" data-name="Path 19019" d="M290.709,162.815a5.76,5.76,0,0,0-7.981,5.987,5.76,5.76,0,0,0,7.981-5.987Z" transform="translate(-231.575 -142.89)" fill="#e0f5f4"/>
      <path id="Path_19020" data-name="Path 19020" d="M290.72,163.485a5.784,5.784,0,0,0-1.261-.371,5.748,5.748,0,0,1-6.724,5.043,5.783,5.783,0,0,0,0,1.315,5.76,5.76,0,0,0,7.981-5.987Z" transform="translate(-231.586 -143.561)" fill="#85dee2"/>
      <path id="Path_19021" data-name="Path 19021" d="M162.088,162.815a5.76,5.76,0,0,1,7.981,5.987,5.76,5.76,0,0,1-7.981-5.987Z" transform="translate(-125.396 -142.89)" fill="#e0f5f4"/>
      <path id="Path_19022" data-name="Path 19022" d="M162.088,163.485a5.784,5.784,0,0,1,1.261-.371,5.748,5.748,0,0,0,6.724,5.043,5.783,5.783,0,0,1,0,1.315,5.76,5.76,0,0,1-7.981-5.987Z" transform="translate(-125.396 -143.561)" fill="#85dee2"/>
      <path id="Path_19023" data-name="Path 19023" d="M291.379,80.765a4.65,4.65,0,0,0-4.645,4.645v.728a4.652,4.652,0,0,0-3.741,4.556v8.961l-7.04,5.867a4.632,4.632,0,0,0-1.69,3.584v11.568h-1.591a.9.9,0,0,0-.9.9v2.838h-1.591a.9.9,0,0,0-.9.9v6.236a.9.9,0,1,0,1.807,0V126.22h18.147v5.332a.9.9,0,1,0,1.807,0v-6.236a.9.9,0,0,0-.9-.9h-1.591v-2.838a.9.9,0,0,0-.9-.9h-1.591v-1.591a2.85,2.85,0,0,1,1.17-2.3l.01-.008,6.89-5.168a4.663,4.663,0,0,0,1.907-3.753V85.41A4.65,4.65,0,0,0,291.379,80.765ZM286.734,88V98.239c-.114-.008-.228-.014-.344-.014a4.658,4.658,0,0,0-1.591.281V90.693A2.842,2.842,0,0,1,286.734,88Zm0,36.41H273.576v-1.935h13.158v1.935Zm7.483-16.556a2.856,2.856,0,0,1-1.175,2.3l-6.894,5.171a4.662,4.662,0,0,0-1.907,3.753v1.591h-8.17V109.1a2.834,2.834,0,0,1,1.036-2.193l7.362-6.135.005,0,.077-.065a2.838,2.838,0,1,1,3.644,4.352l-7.074,5.843a.9.9,0,0,0,1.151,1.393l7.074-5.842a4.643,4.643,0,0,0-.8-7.7V85.41a2.838,2.838,0,0,1,5.676,0v22.448Z" transform="translate(-219.771 -71.083)" fill="#00205b"/>
      <path id="Path_19025" data-name="Path 19025" d="M45.419,124.415H43.828v-2.838a.9.9,0,0,0-.9-.9H41.333V109.106a4.63,4.63,0,0,0-1.686-3.581L32.6,99.656V90.694a4.652,4.652,0,0,0-3.742-4.556v-.728a4.645,4.645,0,1,0-9.289,0v22.448a4.658,4.658,0,0,0,1.9,3.746l6.9,5.174.01.008a2.85,2.85,0,0,1,1.17,2.3v1.591H27.959a.9.9,0,0,0-.9.9v2.838H25.465a.9.9,0,0,0-.9.9v6.236a.9.9,0,0,0,1.807,0v-5.332h3.315a.9.9,0,0,0,0-1.807h-.821V122.48H42.021v1.935h-8.3a.9.9,0,0,0,0,1.807h10.8v5.332a.9.9,0,0,0,1.807,0v-6.236A.9.9,0,0,0,45.419,124.415ZM30.8,90.694v7.813a4.648,4.648,0,0,0-1.591-.281c-.116,0-.23.006-.344.014V88A2.842,2.842,0,0,1,30.8,90.694ZM29.45,115.33l-6.9-5.178a2.851,2.851,0,0,1-1.166-2.294V85.411a2.838,2.838,0,1,1,5.676,0V98.755a4.643,4.643,0,0,0-.8,7.7l7.074,5.843a.9.9,0,0,0,1.151-1.393L27.4,105.06a2.838,2.838,0,1,1,3.652-4.345l.072.06h0l7.367,6.139a2.831,2.831,0,0,1,1.033,2.19v11.568h-8.17v-1.591A4.661,4.661,0,0,0,29.45,115.33Z" transform="translate(0 -71.084)" fill="#00205b"/>
      <path id="Path_19027" data-name="Path 19027" d="M171.323,35.823a.9.9,0,0,0-.9-.9h-2.838V28.792l2.483-1.862a6.66,6.66,0,0,0,8.731-7.112.9.9,0,0,0-.543-.724,6.661,6.661,0,0,0-9.274,6.391l-1.4,1.049v-5.17A12.421,12.421,0,0,0,167.13.123a.9.9,0,0,0-.9,0,12.42,12.42,0,0,0-.451,21.242v5.17l-1.4-1.049a6.661,6.661,0,0,0-9.274-6.391.9.9,0,0,0-.543.724,6.664,6.664,0,0,0,8.731,7.112l2.484,1.862V34.92h-2.838a.9.9,0,0,0,0,1.807h7.483A.9.9,0,0,0,171.323,35.823Zm1.4-14.487a4.877,4.877,0,0,1,4.314-.764,4.855,4.855,0,0,1-6.256,4.692A4.877,4.877,0,0,1,172.722,21.336ZM158.261,24.5a4.877,4.877,0,0,1-1.942-3.928,4.854,4.854,0,0,1,6.256,4.692A4.877,4.877,0,0,1,158.261,24.5Zm3.559-13.619a10.66,10.66,0,0,1,4.858-8.918,10.611,10.611,0,0,1,.9,17.179V13.934l1.995-1a.9.9,0,0,0-.808-1.616l-1.187.593V8.387a.9.9,0,1,0-1.807,0V9.42l-1.187-.594a.9.9,0,1,0-.808,1.616l2,1v7.7A10.657,10.657,0,0,1,161.82,10.881Z" transform="translate(-118.765)" fill="#00205b"/>
    </g>
    <circle id="Ellipse_41" data-name="Ellipse 41" cx="5" cy="5" r="5" transform="translate(675.646 1107.237) rotate(16)" fill="#e0f5f4"/>
    <circle id="Ellipse_42" data-name="Ellipse 42" cx="2" cy="2" r="2" transform="matrix(-0.966, -0.259, 0.259, -0.966, 617.868, 1077.025)" fill="#85dee2"/>
  </g>
</svg>
