<svg id="copy" xmlns="http://www.w3.org/2000/svg" width="18.941" height="18.941" viewBox="0 0 18.941 18.941">
  <path id="Path_19868" data-name="Path 19868" d="M0,0H18.941V18.941H0Z" fill="none"/>
  <path id="Path_19869" data-name="Path 19869" d="M6.157,5.157V2.789A.789.789,0,0,1,6.946,2h9.47a.789.789,0,0,1,.789.789V13.838a.789.789,0,0,1-.789.789H14.049v2.368a.792.792,0,0,1-.795.789H3.795A.79.79,0,0,1,3,16.995L3,5.946A.792.792,0,0,1,3.8,5.157Zm1.578,0h6.314v7.892h1.578V3.578H7.735Z" transform="translate(-0.632 -0.422)" fill="#8784a4"/>
</svg>
