<svg xmlns="http://www.w3.org/2000/svg" xmlns:xlink="http://www.w3.org/1999/xlink" width="93.854" height="101.511" viewBox="0 0 93.854 101.511">
  <defs>
    <linearGradient id="linear-gradient" y1="0.5" x2="1" y2="0.5" gradientUnits="objectBoundingBox">
      <stop offset="0" stop-color="#d2deff" stop-opacity="0"/>
      <stop offset="1" stop-color="#85dee2"/>
    </linearGradient>
  </defs>
  <g id="_4039160" data-name="4039160" transform="translate(8.375 -5.494)">
    <g id="Group_26611" data-name="Group 26611" transform="translate(0 12.388)">
      <path id="Path_19501" data-name="Path 19501" d="M46.517,6.1c-21.6,19.08,6.2,37.575,3.55,58.424-1.177,9.269,2.562,18.13,14.8,17.118,14.91-1.234,9.5-15.516,12.62-25.024,5.373-16.361,38.424-12.539,24.724-37.741C93.465,2.8,61.384-7.03,46.517,6.1Z" transform="matrix(0.921, 0.391, -0.391, 0.921, -11.641, -21.835)" fill="url(#linear-gradient)"/>
      <g id="Group_26610" data-name="Group 26610" transform="translate(13.17 2.777)">
        <g id="Group_26607" data-name="Group 26607" transform="translate(2.43)">
          <path id="Path_19481" data-name="Path 19481" d="M140.569,81.607h8.592a2.5,2.5,0,0,0,0-5h-8.6a2.874,2.874,0,0,0-2.865-2.718,2.818,2.818,0,0,0-2.761,2.718h-.005V74.9a2.82,2.82,0,1,0-5.64,0v-1.1a2.88,2.88,0,0,0-2.874-2.894,2.82,2.82,0,0,0-2.766,2.82V66.3a2.869,2.869,0,0,0-2.7-2.892,2.807,2.807,0,0,0-1.976.7,8.935,8.935,0,0,0-12.4,12.852c-.052.024-.1.048-.156.075L103.763,78.4a.8.8,0,0,0,0,1.419l2.648,1.365a3.814,3.814,0,0,0,1.747.424h4.209v8.572a10.847,10.847,0,0,0,6,9.7l-.564,11.648h-14.28a.8.8,0,0,0-.8.8V127.3a.8.8,0,0,0,.8.8h16.773a.8.8,0,0,0,.795-.766h13.973a.8.8,0,0,0,.8-.837l-.53-10.948h14.732a1.6,1.6,0,0,0,1.6-1.6V95.7a1.6,1.6,0,0,0-1.6-1.6H139.836a10.817,10.817,0,0,0,.734-3.921Z" transform="translate(-101.924 -56.678)" fill="#2626bc" opacity="0.1"/>
          <g id="Group_26593" data-name="Group 26593" transform="translate(2.103 0.798)">
            <circle id="Ellipse_93" data-name="Ellipse 93" cx="8.936" cy="8.936" r="8.936" fill="#fff"/>
            <path id="Path_19482" data-name="Path 19482" d="M155.564,71a2.652,2.652,0,1,0-4.545,1.854,2.642,2.642,0,0,0-.759,1.854.8.8,0,0,0,1.6,0,1.056,1.056,0,1,1,2.111,0,.8.8,0,1,0,1.6,0,2.642,2.642,0,0,0-.759-1.854A2.641,2.641,0,0,0,155.564,71Zm-2.652-1.056A1.056,1.056,0,1,1,151.856,71,1.057,1.057,0,0,1,152.912,69.94Z" transform="translate(-143.976 -62.987)" fill="#ff4a61"/>
          </g>
          <g id="Group_26598" data-name="Group 26598" transform="translate(1.406 2.421)">
            <path id="Path_19483" data-name="Path 19483" d="M211.251,285.947l-1.466-30.292H193.853l-1.466,30.292Z" transform="translate(-178.682 -222.02)" fill="#fff"/>
            <g id="Group_26597" data-name="Group 26597">
              <g id="Group_26595" data-name="Group 26595" transform="translate(0 13.201)">
                <path id="Path_19484" data-name="Path 19484" d="M154.859,130.149a2.5,2.5,0,0,1-2.5,2.5h-41a3.811,3.811,0,0,1-1.747-.424l-2.648-1.365a.8.8,0,0,1,0-1.419l2.648-1.365a3.814,3.814,0,0,1,1.747-.424h41A2.5,2.5,0,0,1,154.859,130.149Z" transform="translate(-106.531 -127.651)" fill="#fff"/>
                <g id="Group_26594" data-name="Group 26594" transform="translate(8.205)">
                  <path id="Path_19485" data-name="Path 19485" d="M160.183,127.65v5H157.93v-5Z" transform="translate(-157.93 -127.65)" fill="#ff4a61"/>
                  <path id="Path_19486" data-name="Path 19486" d="M373.76,132.647h3.171a2.5,2.5,0,0,0,0-5H373.76Z" transform="translate(-339.306 -127.65)" fill="#ff4a61"/>
                </g>
              </g>
              <g id="Group_26596" data-name="Group 26596" transform="translate(9.036)">
                <path id="Path_19487" data-name="Path 19487" d="M163.138,63.151v8.572a10.85,10.85,0,0,0,10.85,10.85h6.5a10.85,10.85,0,0,0,10.85-10.85V58.329a2.88,2.88,0,0,0-2.874-2.894,2.82,2.82,0,0,0-2.766,2.82V56.446a2.82,2.82,0,1,0-5.64,0V55.276a2.82,2.82,0,1,0-5.64,0V47.847a2.88,2.88,0,0,0-2.874-2.894,2.82,2.82,0,0,0-2.766,2.82V63.151Z" transform="translate(-163.138 -44.953)" fill="#fff"/>
              </g>
            </g>
          </g>
          <g id="Group_26601" data-name="Group 26601" transform="translate(0.798 50.544)">
            <g id="Group_26599" data-name="Group 26599">
              <path id="Path_19488" data-name="Path 19488" d="M120.294,362.98H103.521a.8.8,0,0,1-.8-.8V347.207a.8.8,0,0,1,.8-.8h16.773a.8.8,0,0,1,.8.8v14.974A.8.8,0,0,1,120.294,362.98Z" transform="translate(-102.723 -346.409)" fill="#ff4a61"/>
              <path id="Path_19489" data-name="Path 19489" d="M121.093,350.988v-3.781a.8.8,0,0,0-.8-.8H103.521a.8.8,0,0,0-.8.8v3.781Z" transform="translate(-102.723 -346.409)" fill="#fff"/>
            </g>
            <g id="Group_26600" data-name="Group 26600" transform="translate(2.536 2.211)">
              <circle id="Ellipse_94" data-name="Ellipse 94" cx="0.559" cy="0.559" r="0.559" fill="#19124f"/>
              <circle id="Ellipse_95" data-name="Ellipse 95" cx="0.559" cy="0.559" r="0.559" transform="translate(1.782)" fill="#19124f"/>
              <circle id="Ellipse_96" data-name="Ellipse 96" cx="0.559" cy="0.559" r="0.559" transform="translate(3.565)" fill="#19124f"/>
            </g>
          </g>
          <g id="Group_26606" data-name="Group 26606">
            <g id="Group_26602" data-name="Group 26602" transform="translate(27.556 30.014)">
              <path id="Path_19491" data-name="Path 19491" d="M271.935,242.356H290.92a1.6,1.6,0,0,0,1.6-1.6V222.5a1.6,1.6,0,0,0-1.6-1.6h-11.01l-1.144-2.311a1.415,1.415,0,0,0-2.536,0l-1.142,2.31h-3.153a1.6,1.6,0,0,0-1.6,1.6V240.76a1.6,1.6,0,0,0,1.6,1.6Z" transform="translate(-270.339 -217.807)" fill="#fff"/>
            </g>
            <path id="Path_19492" data-name="Path 19492" d="M145.858,62.1h-9.125a11.576,11.576,0,0,0,.431-3.123V46.207h7.794a1.7,1.7,0,1,1,0,3.4h-3.171a.8.8,0,1,0,0,1.6h3.171a3.3,3.3,0,0,0,0-6.593h-7.927a3.76,3.76,0,0,0-.987-1.683,3.541,3.541,0,0,0-2.568-1.035,3.59,3.59,0,0,0-2.114.74,3.617,3.617,0,0,0-5.832-1.659,3.616,3.616,0,0,0-5.288-1.442V35.1a3.747,3.747,0,0,0-1.12-2.657,3.55,3.55,0,0,0-4.313-.541,9.725,9.725,0,0,0-13.715,13.6l-1.9.98a1.6,1.6,0,0,0,0,2.838l2.648,1.365a4.632,4.632,0,0,0,2.113.512h3.411v7.774a11.655,11.655,0,0,0,5.974,10.168l-.5,10.387H99.317a1.6,1.6,0,0,0-1.6,1.6V96.1a1.6,1.6,0,0,0,1.6,1.6h16.773a1.6,1.6,0,0,0,1.6-1.6V81.128a1.6,1.6,0,0,0-1.6-1.6h-1.655l.467-9.657a11.588,11.588,0,0,0,4.111.751h5.465v3.046a.8.8,0,0,0,1.6,0V64.495a.8.8,0,0,1,.8-.8h3.153a.8.8,0,0,0,.715-.444l1.142-2.31a.617.617,0,0,1,1.106,0l1.144,2.311a.8.8,0,0,0,.715.444h11.01a.8.8,0,0,1,.8.8V82.754a.8.8,0,0,1-.8.8H126.873a.8.8,0,0,1-.8-.8v-4.2a.8.8,0,0,0-1.6,0v4.2a2.4,2.4,0,0,0,2.395,2.395h3.493l.534,11.025a.8.8,0,0,0,.8.76h.039a.8.8,0,0,0,.759-.836l-.53-10.948h13.894a2.4,2.4,0,0,0,2.395-2.395V64.495A2.4,2.4,0,0,0,145.858,62.1Zm-29.766,34H99.318V81.128h16.773Zm-7.332-64.72a8.086,8.086,0,0,1,4.869,1.627,3.586,3.586,0,0,0-.623,2.018V44.61h-9.051a4.625,4.625,0,0,0-1.363.207,8.129,8.129,0,0,1,6.168-13.435Zm-6.186,17.89-2.648-1.365,2.648-1.365a3.028,3.028,0,0,1,1.381-.335h9.051v3.4h-9.051A3.025,3.025,0,0,1,102.574,49.272ZM134.42,60.233a2.213,2.213,0,0,0-3.968,0L129.53,62.1h-2.657a2.4,2.4,0,0,0-2.395,2.395v4.535h-5.465a9.985,9.985,0,0,1-4.5-1.067l-.011-.006a10.061,10.061,0,0,1-5.542-8.979V51.2h4.044v6.518a.8.8,0,1,0,1.6,0V35.027a2.032,2.032,0,0,1,1.983-2.022,1.993,1.993,0,0,1,1.419.578,2.141,2.141,0,0,1,.642,1.517V50.3a.8.8,0,1,0,1.6,0V42.53a2.022,2.022,0,1,1,4.044,0V50.3a.8.8,0,1,0,1.6,0V43.7a2.022,2.022,0,0,1,4.044,0v6.6a.8.8,0,0,0,1.6,0V45.51a2.032,2.032,0,0,1,1.983-2.022,1.991,1.991,0,0,1,1.419.578,2.141,2.141,0,0,1,.642,1.517V58.977a9.994,9.994,0,0,1-.394,2.779Z" transform="translate(-97.721 -29.786)" fill="#19124f"/>
            <g id="Group_26604" data-name="Group 26604" transform="translate(39.059 42.915)">
              <g id="Group_26603" data-name="Group 26603">
                <path id="Path_19493" data-name="Path 19493" d="M349.08,307.05a.8.8,0,0,1-.733-.483l-2.207-5.127-2.207,5.127a.8.8,0,1,1-1.466-.631l2.94-6.83a.8.8,0,0,1,1.466,0l2.94,6.83a.8.8,0,0,1-.733,1.114Z" transform="translate(-342.4 -298.623)" fill="#19124f"/>
                <path id="Path_19494" data-name="Path 19494" d="M352.41,329.361h-3.336a.8.8,0,1,1,0-1.6h3.336a.8.8,0,0,1,0,1.6Z" transform="translate(-347.338 -323.113)" fill="#19124f"/>
              </g>
            </g>
            <g id="Group_26605" data-name="Group 26605" transform="translate(31.24 36.549)">
              <path id="Path_19495" data-name="Path 19495" d="M307.591,262.157H294.219a.8.8,0,0,1-.8-.8v-1.822a.8.8,0,0,1,.8-.8h13.372a.8.8,0,0,1,.8.8v1.822A.8.8,0,0,1,307.591,262.157Z" transform="translate(-293.421 -258.739)" fill="#ff4a61"/>
            </g>
          </g>
        </g>
        <g id="Group_26609" data-name="Group 26609" transform="translate(0 3.033)">
          <path id="Path_19496" data-name="Path 19496" d="M106.527,266.533h-.479v-.479a.8.8,0,0,0-1.6,0v.479h-.479a.8.8,0,1,0,0,1.6h.479v.479a.8.8,0,0,0,1.6,0v-.479h.479a.8.8,0,1,0,0-1.6Z" transform="translate(-99.874 -230.7)" fill="#19124f"/>
          <path id="Path_19497" data-name="Path 19497" d="M302.823,50.063h-.479v-.479a.8.8,0,0,0-1.6,0v.479h-.479a.8.8,0,1,0,0,1.6h.479v.479a.8.8,0,0,0,1.6,0v-.479h.479a.8.8,0,1,0,0-1.6Z" transform="translate(-264.835 -48.786)" fill="#19124f"/>
          <g id="Group_26608" data-name="Group 26608" transform="translate(0 22.43)">
            <path id="Path_19498" data-name="Path 19498" d="M362.3,438.491h-.479v-.479a.8.8,0,0,0-1.6,0v.479h-.479a.8.8,0,1,0,0,1.6h.479v.479a.8.8,0,1,0,1.6,0v-.479h.479a.8.8,0,1,0,0-1.6Z" transform="translate(-314.821 -397.638)" fill="#19124f"/>
            <path id="Path_19499" data-name="Path 19499" d="M85.852,222.5a.8.8,0,0,1-.564-.234l-.713-.713-.713.713a.8.8,0,0,1-1.129-1.129l1.277-1.277a.8.8,0,0,1,1.129,0l1.277,1.277a.8.8,0,0,1-.564,1.362Z" transform="translate(-82.499 -214.782)" fill="#19124f"/>
            <path id="Path_19500" data-name="Path 19500" d="M410.772,192.17a.8.8,0,0,1-.564-.234l-.713-.713-.713.713a.8.8,0,1,1-1.129-1.129l1.277-1.277a.8.8,0,0,1,1.129,0l1.277,1.277a.8.8,0,0,1-.564,1.362Z" transform="translate(-355.552 -189.296)" fill="#19124f"/>
          </g>
        </g>
      </g>
    </g>
  </g>
</svg>
