<svg xmlns="http://www.w3.org/2000/svg" xmlns:xlink="http://www.w3.org/1999/xlink" width="84.523" height="71.134" viewBox="0 0 84.523 71.134">
  <defs>
    <linearGradient id="linear-gradient" y1="0.5" x2="1" y2="0.5" gradientUnits="objectBoundingBox">
      <stop offset="0" stop-color="#d2deff" stop-opacity="0"/>
      <stop offset="1" stop-color="#85dee2"/>
    </linearGradient>
  </defs>
  <g id="_4216762" data-name="4216762" transform="translate(0 -40.554)">
    <path id="Path_19433" data-name="Path 19433" d="M60.227,42.974c-11.407-4.463-27.2-2.767-35.933,5.2C18.13,53.8,22.9,55.407,27.1,65.7,30.144,73.155,0,72.13,0,85.6c0,15.567,21.833,12.616,29.935,14.4,12.387,2.725,23.194,12.917,36.429,11.573,11.522-1.17,15.915-10.211,17.517-20.577C86.866,71.679,79.534,50.529,60.227,42.974Z" transform="translate(0 0)" fill="url(#linear-gradient)"/>
    <path id="Path_19434" data-name="Path 19434" d="M98.746,129.9H39.732a3.3,3.3,0,0,0-3.3,3.3v31.935a3.3,3.3,0,0,0,2.476,3.193v1.781a3.3,3.3,0,0,0,2.476,3.193v1.713c0,.106,0,.21.015.314a3.3,3.3,0,0,0,3.287,2.988H93.794a3.3,3.3,0,0,0,3.287-2.988c.01-.1.015-.208.015-.314v-1.713a3.3,3.3,0,0,0,2.476-3.193v-1.781a3.3,3.3,0,0,0,2.476-3.193V133.2A3.3,3.3,0,0,0,98.746,129.9Z" transform="translate(-30.416 -74.597)" fill="#2b2ab5" opacity="0.11"/>
    <path id="Path_19435" data-name="Path 19435" d="M142.973,292.5V304.63c0,.106,0,.21-.015.314a3.3,3.3,0,0,1-3.287,2.988H90.562a3.3,3.3,0,0,1-3.287-2.988c-.01-.1-.015-.208-.015-.314V292.5a3.3,3.3,0,0,1,3.3-3.3h49.109A3.3,3.3,0,0,1,142.973,292.5Z" transform="translate(-72.855 -207.601)" fill="#fff"/>
    <path id="Path_19436" data-name="Path 19436" d="M129.624,228.114H75.562a3.3,3.3,0,0,1-3.3-3.3V202.782a3.3,3.3,0,0,1,3.3-3.3h54.062a3.3,3.3,0,0,1,3.3,3.3v22.031A3.3,3.3,0,0,1,129.624,228.114Z" transform="translate(-60.331 -132.69)" fill="#fff"/>
    <path id="Path_19437" data-name="Path 19437" d="M119.576,147.885H60.562a3.3,3.3,0,0,1-3.3-3.3V112.648a3.3,3.3,0,0,1,3.3-3.3h59.015a3.3,3.3,0,0,1,3.3,3.3v31.936A3.3,3.3,0,0,1,119.576,147.885Z" transform="translate(-47.807 -57.435)" fill="#fff"/>
    <path id="Path_19438" data-name="Path 19438" d="M147.039,156.455v8.431a.831.831,0,0,1-.6.792,9.531,9.531,0,0,0-6.559,7.269.821.821,0,0,1-.809.655H101.294a.821.821,0,0,1-.809-.655,9.531,9.531,0,0,0-6.559-7.269.831.831,0,0,1-.6-.792v-8.431a.831.831,0,0,1,.6-.792,9.531,9.531,0,0,0,6.559-7.269.821.821,0,0,1,.809-.655h37.781a.821.821,0,0,1,.809.655,9.531,9.531,0,0,0,6.559,7.269A.831.831,0,0,1,147.039,156.455Z" transform="translate(-77.923 -89.49)" fill="#ff4a61"/>
    <ellipse id="Ellipse_84" data-name="Ellipse 84" cx="8.337" cy="10.596" rx="8.337" ry="10.596" transform="translate(33.925 60.584)" fill="#fff"/>
    <g id="Group_26571" data-name="Group 26571" transform="translate(8.627 51.085)">
      <path id="Path_19439" data-name="Path 19439" d="M159,277.638h-3.6a.825.825,0,0,1,0-1.651H159a.825.825,0,0,1,0,1.651Z" transform="translate(-137.687 -247.652)" fill="#19124f"/>
      <path id="Path_19440" data-name="Path 19440" d="M330.037,167.8h-3.6a.825.825,0,0,1,0-1.651h3.6a.825.825,0,0,1,0,1.651Z" transform="translate(-280.485 -155.95)" fill="#19124f"/>
      <g id="Group_26570" data-name="Group 26570" transform="translate(14.978 19.172)">
        <circle id="Ellipse_85" data-name="Ellipse 85" cx="0.923" cy="0.923" r="0.923" fill="#19124f"/>
        <circle id="Ellipse_86" data-name="Ellipse 86" cx="0.923" cy="0.923" r="0.923" transform="translate(2.792)" fill="#19124f"/>
        <circle id="Ellipse_87" data-name="Ellipse 87" cx="0.923" cy="0.923" r="0.923" transform="translate(5.583)" fill="#19124f"/>
        <circle id="Ellipse_88" data-name="Ellipse 88" cx="0.923" cy="0.923" r="0.923" transform="translate(29.884)" fill="#19124f"/>
        <circle id="Ellipse_89" data-name="Ellipse 89" cx="0.923" cy="0.923" r="0.923" transform="translate(32.676)" fill="#19124f"/>
        <circle id="Ellipse_90" data-name="Ellipse 90" cx="0.923" cy="0.923" r="0.923" transform="translate(35.467)" fill="#19124f"/>
      </g>
      <path id="Path_19441" data-name="Path 19441" d="M406.734,151.716a.825.825,0,0,1-.584-1.409l2.917-2.917a.825.825,0,0,1,1.167,1.167l-2.917,2.917A.823.823,0,0,1,406.734,151.716Z" transform="translate(-347.526 -140.083)" fill="#19124f"/>
      <path id="Path_19442" data-name="Path 19442" d="M394.249,137.882a.825.825,0,0,1-.584-1.409l2.917-2.917a.825.825,0,0,1,1.167,1.167l-2.917,2.917A.822.822,0,0,1,394.249,137.882Z" transform="translate(-337.102 -128.533)" fill="#19124f"/>
      <path id="Path_19443" data-name="Path 19443" d="M91.734,295.727a.825.825,0,0,1-.584-1.409l2.917-2.917a.825.825,0,1,1,1.167,1.167l-2.917,2.917A.823.823,0,0,1,91.734,295.727Z" transform="translate(-84.528 -260.32)" fill="#19124f"/>
      <path id="Path_19444" data-name="Path 19444" d="M79.249,281.894a.825.825,0,0,1-.584-1.409l2.917-2.917a.825.825,0,1,1,1.167,1.167l-2.916,2.916A.823.823,0,0,1,79.249,281.894Z" transform="translate(-74.104 -248.77)" fill="#19124f"/>
      <path id="Path_19445" data-name="Path 19445" d="M238.973,197.833h-.256v-1.7h1.075a.825.825,0,1,0,0-1.651h-1.075v-.421a.825.825,0,1,0-1.651,0v.421h-.256a2.5,2.5,0,0,0,0,5h.256v1.7h-1.075a.825.825,0,0,0,0,1.651h1.075v.421a.825.825,0,1,0,1.651,0v-.421h.256a2.5,2.5,0,0,0,0-5Zm-2.162,0a.849.849,0,0,1,0-1.7h.256v1.7Zm2.162,3.348h-.256v-1.7h.256a.849.849,0,0,1,0,1.7Z" transform="translate(-204.257 -178.564)" fill="#19124f"/>
      <path id="Path_19446" data-name="Path 19446" d="M118.7,132.428a.825.825,0,0,0,.825-.825V108.473a4.132,4.132,0,0,0-4.127-4.127H56.387a4.132,4.132,0,0,0-4.127,4.127v31.935a4.132,4.132,0,0,0,2.476,3.781v1.193a4.126,4.126,0,0,0,2.476,3.784v1.123a4.132,4.132,0,0,0,4.127,4.127h49.109a4.132,4.132,0,0,0,4.127-4.127v-1.125a4.125,4.125,0,0,0,2.476-3.782V144.19a4.133,4.133,0,0,0,2.476-3.781v-4.168a.825.825,0,0,0-1.651,0v4.168a2.479,2.479,0,0,1-2.476,2.476H56.387a2.479,2.479,0,0,1-2.476-2.476V108.473A2.479,2.479,0,0,1,56.387,106H115.4a2.479,2.479,0,0,1,2.476,2.476V131.6A.826.826,0,0,0,118.7,132.428Zm-3.3,12.108v.848a2.474,2.474,0,0,1-1.856,2.4,2.5,2.5,0,0,1-.621.078H62.793a.825.825,0,1,0,0,1.651h50.132v.78a2.479,2.479,0,0,1-2.476,2.476H61.34a2.479,2.479,0,0,1-2.476-2.476v-1.709a.825.825,0,0,0-.62-.8,2.475,2.475,0,0,1-1.857-2.4v-.848Z" transform="translate(-52.26 -104.346)" fill="#19124f"/>
      <path id="Path_19447" data-name="Path 19447" d="M136.52,144.062a1.647,1.647,0,0,0-1.619-1.322H97.119a1.647,1.647,0,0,0-1.619,1.322A8.665,8.665,0,0,1,89.51,150.7a1.649,1.649,0,0,0-1.18,1.582v8.431a1.649,1.649,0,0,0,1.18,1.582,8.665,8.665,0,0,1,5.99,6.638,1.647,1.647,0,0,0,1.619,1.322H134.9a1.647,1.647,0,0,0,1.619-1.322,8.665,8.665,0,0,1,5.989-6.638,1.649,1.649,0,0,0,1.18-1.582v-8.431a1.649,1.649,0,0,0-1.18-1.582A8.665,8.665,0,0,1,136.52,144.062Zm5.508,16.653A10.312,10.312,0,0,0,134.9,168.6l-37.78.012a10.315,10.315,0,0,0-7.139-7.9l.011-8.433a10.312,10.312,0,0,0,7.127-7.888l37.78-.012a10.328,10.328,0,0,0,7.139,7.907Z" transform="translate(-82.375 -136.402)" fill="#19124f"/>
    </g>
    <path id="Path_19448" data-name="Path 19448" d="M41.3,374.311h-.537v-.536a.825.825,0,1,0-1.651,0v.536h-.537a.825.825,0,0,0,0,1.651h.537v.536a.825.825,0,1,0,1.651,0v-.536H41.3a.825.825,0,0,0,0-1.651Z" transform="translate(-31.518 -277.522)" fill="#19124f"/>
    <path id="Path_19449" data-name="Path 19449" d="M136.258,71.195h-.537v-.537a.825.825,0,1,0-1.651,0v.537h-.537a.825.825,0,1,0,0,1.651h.537v.537a.825.825,0,1,0,1.651,0v-.537h.537a.825.825,0,1,0,0-1.651Z" transform="translate(-110.801 -24.445)" fill="#19124f"/>
    <path id="Path_19450" data-name="Path 19450" d="M448.153,382.322h-.537v-.537a.825.825,0,0,0-1.651,0v.537h-.536a.825.825,0,0,0,0,1.651h.536v.536a.825.825,0,0,0,1.651,0v-.536h.537a.825.825,0,0,0,0-1.651Z" transform="translate(-371.207 -284.21)" fill="#19124f"/>
    <path id="Path_19451" data-name="Path 19451" d="M437.41,49.029A2.412,2.412,0,0,1,435.1,45.9a2.41,2.41,0,1,1,2.305,3.128Zm0-3.172a.763.763,0,1,0,.227.035A.757.757,0,0,0,437.406,45.857Z" transform="translate(-363.184 -3.048)" fill="#19124f"/>
    <path id="Path_19452" data-name="Path 19452" d="M63.23,413.236a2.411,2.411,0,1,1,2.3-1.7,2.4,2.4,0,0,1-2.3,1.7Zm0-3.171a.76.76,0,1,0,.225.034A.761.761,0,0,0,63.232,410.065Zm1.513,1.231h0Z" transform="translate(-50.78 -307.132)" fill="#19124f"/>
  </g>
</svg>
