<svg xmlns="http://www.w3.org/2000/svg" xmlns:xlink="http://www.w3.org/1999/xlink" width="73.906" height="73.777" viewBox="0 0 73.906 73.777">
  <defs>
    <linearGradient id="linear-gradient" y1="0.5" x2="1" y2="0.5" gradientUnits="objectBoundingBox">
      <stop offset="0" stop-color="#d2deff" stop-opacity="0"/>
      <stop offset="1" stop-color="#85dee2"/>
    </linearGradient>
  </defs>
  <g id="_4152001" data-name="4152001" transform="translate(-0.001 -0.447)">
    <g id="Group_26552" data-name="Group 26552" transform="translate(0.001 0.447)">
      <path id="Path_19402" data-name="Path 19402" d="M60.384.743C52.349-.631,34.647,2.5,31.514,15.9c-2.083,8.909-2.022,16.178-7.279,16.314-3.128.081-4.759-6.4-9.078-6.929-5.636-.7-9.548,4-11.989,8.248-5.37,9.35-3.691,25.249,3.371,33,17.1,18.778,37.415-.859,46.1-16.212,5.57-9.846,18.135-17.806,20.753-28.905C75.581,12.128,70.72,2.511,60.384.743Z" transform="translate(-0.001 -0.447)" fill="url(#linear-gradient)"/>
    </g>
    <g id="Group_26569" data-name="Group 26569" transform="translate(0.939 3.059)">
      <g id="Group_26553" data-name="Group 26553" transform="translate(7.245 8.34)" opacity="0.2">
        <path id="Path_19403" data-name="Path 19403" d="M112.452,84.427a1.443,1.443,0,0,0,1.443-1.443V77.76a1.443,1.443,0,0,0-1.443-1.443H58.136a1.444,1.444,0,0,0-1.444,1.444v54.315a1.444,1.444,0,0,0,1.443,1.443h5.224a1.444,1.444,0,0,0,1.443-1.443V84.427Z" transform="translate(-56.692 -76.317)" fill="#6583fe"/>
        <path id="Path_19404" data-name="Path 19404" d="M184.941,194.527h-1.186v-3.075l.528-.015a.722.722,0,0,0,.5-1.218l-1.031-1.085V159.4a1.443,1.443,0,0,0-1.443-1.443H139.779a1.443,1.443,0,0,0-1.443,1.443v42.531a1.443,1.443,0,0,0,1.443,1.443h42.531a1.443,1.443,0,0,0,1.443-1.443v-3.871h1.186a.593.593,0,0,0,.593-.593v-2.349a.593.593,0,0,0-.593-.594Z" transform="translate(-126.551 -146.174)" fill="#6583fe"/>
      </g>
      <g id="Group_26568" data-name="Group 26568">
        <g id="Group_26565" data-name="Group 26565" transform="translate(6.524 4.731)">
          <path id="Path_19405" data-name="Path 19405" d="M64.8,56.319v55.759a1.444,1.444,0,0,1-1.443,1.443H58.135a1.444,1.444,0,0,1-1.443-1.443V57.762a1.444,1.444,0,0,1,1.443-1.443Z" transform="translate(-55.971 -55.597)" fill="#fff"/>
          <path id="Path_19406" data-name="Path 19406" d="M56.695,64.427V57.76a1.443,1.443,0,0,1,1.443-1.443h54.316A1.443,1.443,0,0,1,113.9,57.76v5.223a1.443,1.443,0,0,1-1.443,1.443Z" transform="translate(-55.973 -55.595)" fill="#fff"/>
          <path id="Path_19407" data-name="Path 19407" d="M182.312,183.377H139.781a1.443,1.443,0,0,1-1.443-1.443V139.4a1.443,1.443,0,0,1,1.443-1.443h42.531a1.443,1.443,0,0,1,1.443,1.443v42.531A1.444,1.444,0,0,1,182.312,183.377Z" transform="translate(-125.83 -125.452)" fill="#ff4a61"/>
          <path id="Path_19408" data-name="Path 19408" d="M166.082,165.7H138.337V139.4a1.443,1.443,0,0,1,1.443-1.443h26.3Z" transform="translate(-125.83 -125.452)" fill="#fff"/>
          <g id="Group_26556" data-name="Group 26556">
            <path id="Path_19409" data-name="Path 19409" d="M397.24,303.489l.294,11.369a.722.722,0,0,0,1.217.506l2.895-2.732a.287.287,0,0,1,.189-.078l3.979-.115a.722.722,0,0,0,.5-1.218l-7.831-8.246A.722.722,0,0,0,397.24,303.489Z" transform="translate(-347.361 -266.453)" fill="#19124f"/>
            <g id="Group_26555" data-name="Group 26555">
              <path id="Path_19410" data-name="Path 19410" d="M443.757,394.829h-2.349a.593.593,0,0,1-.593-.593v-2.349a.593.593,0,0,1,.593-.593h2.349a.593.593,0,0,1,.593.593v2.349A.593.593,0,0,1,443.757,394.829Z" transform="translate(-384.646 -342.218)" fill="#19124f"/>
              <g id="Group_26554" data-name="Group 26554">
                <path id="Path_19411" data-name="Path 19411" d="M61.247,60.141V60.03l-.011,0a.72.72,0,0,0-.71-.608H53.137V53.481a.723.723,0,0,1,.722-.722H59.8v1.615a.722.722,0,0,0,1.443,0V52.759h3.045v1.615a.722.722,0,0,0,1.443,0V52.759h3.045v1.615a.722.722,0,0,0,1.443,0V52.759H73.27v1.615a.722.722,0,0,0,1.443,0V52.759h3.045v1.615a.722.722,0,1,0,1.443,0V52.759h3.045v1.615a.722.722,0,0,0,1.443,0V52.759h3.045v1.615a.722.722,0,0,0,1.443,0V52.759h3.045v1.615a.722.722,0,0,0,1.443,0V52.759h3.045v1.615a.722.722,0,1,0,1.443,0V52.759H100.2v1.615a.722.722,0,0,0,1.443,0V52.759h3.045v1.615a.722.722,0,0,0,1.443,0V52.759h2.041a.723.723,0,0,1,.722.722V58.7a.723.723,0,0,1-.722.722H65.434a.722.722,0,0,0,0,1.443h42.741a2.168,2.168,0,0,0,2.165-2.165V53.481a2.168,2.168,0,0,0-2.165-2.165H53.859a2.168,2.168,0,0,0-2.165,2.165V107.8a2.168,2.168,0,0,0,2.165,2.165h5.223a2.168,2.168,0,0,0,2.165-2.165V60.155s0,0,0-.007S61.247,60.143,61.247,60.141Zm-2.165,48.378H53.859a.723.723,0,0,1-.722-.722v-2.041h1.615a.722.722,0,0,0,0-1.443H53.137v-3.045h1.615a.722.722,0,0,0,0-1.443H53.137V96.779h1.615a.722.722,0,0,0,0-1.443H53.137V92.29h1.615a.722.722,0,0,0,0-1.443H53.137V87.8h1.615a.722.722,0,0,0,0-1.443H53.137V83.313h1.615a.722.722,0,0,0,0-1.443H53.137V78.824h1.615a.722.722,0,0,0,0-1.443H53.137V74.335h1.615a.722.722,0,1,0,0-1.443H53.137V69.847h1.615a.722.722,0,0,0,0-1.443H53.137V65.358h1.615a.722.722,0,0,0,0-1.443H53.137V60.869H59.8V107.8a.723.723,0,0,1-.722.722Z" transform="translate(-51.694 -51.316)" fill="#19124f"/>
                <path id="Path_19412" data-name="Path 19412" d="M170.79,325.171a.722.722,0,0,0,0,1.443h1.66a.722.722,0,1,0,0-1.443Z" transform="translate(-152.981 -285.641)" fill="#19124f"/>
                <path id="Path_19413" data-name="Path 19413" d="M207.523,325.171a.722.722,0,0,0,0,1.443h1.66a.722.722,0,0,0,0-1.443Z" transform="translate(-184.412 -285.641)" fill="#19124f"/>
                <path id="Path_19414" data-name="Path 19414" d="M244.255,325.171a.722.722,0,0,0,0,1.443h1.66a.722.722,0,1,0,0-1.443Z" transform="translate(-215.841 -285.641)" fill="#19124f"/>
                <path id="Path_19415" data-name="Path 19415" d="M280.988,325.171a.722.722,0,1,0,0,1.443h1.66a.722.722,0,0,0,0-1.443Z" transform="translate(-247.272 -285.641)" fill="#19124f"/>
                <path id="Path_19416" data-name="Path 19416" d="M326.992,170.413a.722.722,0,1,0-1.443,0v1.66a.722.722,0,1,0,1.443,0Z" transform="translate(-286.018 -152.604)" fill="#19124f"/>
                <path id="Path_19417" data-name="Path 19417" d="M326.992,207.145a.722.722,0,0,0-1.443,0v1.66a.722.722,0,0,0,1.443,0Z" transform="translate(-286.018 -184.034)" fill="#19124f"/>
                <path id="Path_19418" data-name="Path 19418" d="M326.992,243.877a.722.722,0,0,0-1.443,0v1.66a.722.722,0,0,0,1.443,0Z" transform="translate(-286.018 -215.463)" fill="#19124f"/>
                <path id="Path_19419" data-name="Path 19419" d="M326.992,280.61a.722.722,0,0,0-1.443,0v1.66a.722.722,0,1,0,1.443,0Z" transform="translate(-286.018 -246.894)" fill="#19124f"/>
                <path id="Path_19420" data-name="Path 19420" d="M318.954,316.62a.722.722,0,0,0-.722.722v.513h-.513a.722.722,0,1,0,0,1.443h1.234a.722.722,0,0,0,.722-.722v-1.234A.722.722,0,0,0,318.954,316.62Z" transform="translate(-278.702 -278.324)" fill="#19124f"/>
                <path id="Path_19421" data-name="Path 19421" d="M180.662,169.526H180.2v-1.664a1.442,1.442,0,0,0,.832-2.42l-.832-.876v-10a.722.722,0,0,0-1.443,0v8.478L173.2,157.2a1.443,1.443,0,0,0-2.49,1.031L171,169.6a1.426,1.426,0,0,0,.888,1.3,1.459,1.459,0,0,0,.561.113,1.429,1.429,0,0,0,.984-.4l2.775-2.619,2.543-.073v1.61h-.441A1.317,1.317,0,0,0,177,170.841v2.349a1.317,1.317,0,0,0,1.315,1.315h.441v3.149a.723.723,0,0,1-.722.722H135.5a.723.723,0,0,1-.722-.722V162.147h.938a.722.722,0,1,0,0-1.443h-.938v-25.58a.723.723,0,0,1,.722-.722h25.58v.938a.722.722,0,1,0,1.443,0V134.4h15.507a.723.723,0,0,1,.722.722V149.66a.722.722,0,0,0,1.443,0V135.123a2.168,2.168,0,0,0-2.165-2.165H135.5a2.168,2.168,0,0,0-2.165,2.165v42.531a2.168,2.168,0,0,0,2.165,2.165h42.531a2.168,2.168,0,0,0,2.165-2.165v-3.149h.465a1.317,1.317,0,0,0,1.315-1.315v-2.349A1.317,1.317,0,0,0,180.662,169.526ZM176,166.551a1.008,1.008,0,0,0-.664.275l-2.895,2.732-.294-11.369,7.831,8.246Zm4.529,6.511h-2.092V170.97h2.092Z" transform="translate(-121.551 -121.173)" fill="#19124f"/>
              </g>
            </g>
          </g>
          <g id="Group_26560" data-name="Group 26560" transform="translate(16.764 17.122)">
            <g id="Group_26557" data-name="Group 26557">
              <path id="Path_19422" data-name="Path 19422" d="M170.959,171.376h-2.406a.722.722,0,1,1,0-1.443h2.406a.722.722,0,1,1,0,1.443Z" transform="translate(-167.831 -169.933)" fill="#19124f"/>
            </g>
            <g id="Group_26558" data-name="Group 26558" transform="translate(0 2.79)">
              <path id="Path_19423" data-name="Path 19423" d="M178.176,190.706h-9.623a.722.722,0,1,1,0-1.443h9.623a.722.722,0,1,1,0,1.443Z" transform="translate(-167.831 -189.263)" fill="#19124f"/>
            </g>
            <g id="Group_26559" data-name="Group 26559" transform="translate(0 5.581)">
              <path id="Path_19424" data-name="Path 19424" d="M178.176,210.037h-9.623a.722.722,0,1,1,0-1.443h9.623a.722.722,0,1,1,0,1.443Z" transform="translate(-167.831 -208.594)" fill="#19124f"/>
            </g>
          </g>
          <g id="Group_26564" data-name="Group 26564" transform="translate(35.216 46.281)">
            <g id="Group_26561" data-name="Group 26561" transform="translate(7.217)">
              <path id="Path_19425" data-name="Path 19425" d="M346.38,373.376h2.406a.722.722,0,1,0,0-1.444H346.38a.722.722,0,0,0,0,1.444Z" transform="translate(-345.658 -371.933)" fill="#19124f"/>
            </g>
            <g id="Group_26562" data-name="Group 26562" transform="translate(0 2.79)">
              <path id="Path_19426" data-name="Path 19426" d="M296.38,392.706H306a.722.722,0,1,0,0-1.443H296.38a.722.722,0,1,0,0,1.443Z" transform="translate(-295.658 -391.263)" fill="#19124f"/>
            </g>
            <g id="Group_26563" data-name="Group 26563" transform="translate(0 5.581)">
              <path id="Path_19427" data-name="Path 19427" d="M296.38,412.037H306a.722.722,0,1,0,0-1.443H296.38a.722.722,0,1,0,0,1.443Z" transform="translate(-295.658 -410.594)" fill="#19124f"/>
            </g>
          </g>
        </g>
        <g id="Group_26567" data-name="Group 26567">
          <g id="Group_26566" data-name="Group 26566" transform="translate(0 29.317)">
            <path id="Path_19428" data-name="Path 19428" d="M475.81,226.26a.722.722,0,0,1-.722-.722.867.867,0,0,0-.866-.866.722.722,0,1,1,0-1.444.867.867,0,0,0,.866-.866.722.722,0,1,1,1.443,0,.867.867,0,0,0,.866.866.722.722,0,0,1,0,1.444.867.867,0,0,0-.866.866A.722.722,0,0,1,475.81,226.26Z" transform="translate(-406.089 -221.641)" fill="#19124f"/>
            <path id="Path_19429" data-name="Path 19429" d="M8.81,389.9a.722.722,0,0,1-.722-.722.867.867,0,0,0-.866-.866.722.722,0,1,1,0-1.443A.867.867,0,0,0,8.088,386a.722.722,0,0,1,1.443,0,.867.867,0,0,0,.866.866.722.722,0,1,1,0,1.443.867.867,0,0,0-.866.866A.722.722,0,0,1,8.81,389.9Z" transform="translate(-6.5 -361.656)" fill="#19124f"/>
          </g>
          <path id="Path_19430" data-name="Path 19430" d="M208.273,21.43a.722.722,0,0,1-.51-1.232l1.443-1.443a.722.722,0,0,1,1.021,1.021l-1.443,1.443A.72.72,0,0,1,208.273,21.43Z" transform="translate(-178.53 -18.543)" fill="#19124f"/>
          <path id="Path_19431" data-name="Path 19431" d="M275.988,476.346a.722.722,0,0,1-.51-1.232l1.443-1.443a.722.722,0,0,1,1.021,1.021l-1.443,1.444A.719.719,0,0,1,275.988,476.346Z" transform="translate(-236.47 -407.793)" fill="#19124f"/>
          <path id="Path_19432" data-name="Path 19432" d="M469.222,156.475a.722.722,0,0,1-.51-1.232l1.443-1.443a.722.722,0,0,1,1.021,1.021l-1.443,1.443A.719.719,0,0,1,469.222,156.475Z" transform="translate(-401.811 -134.094)" fill="#19124f"/>
        </g>
      </g>
    </g>
  </g>
</svg>
