<svg xmlns="http://www.w3.org/2000/svg" xmlns:xlink="http://www.w3.org/1999/xlink" width="63.933" height="71.776" viewBox="0 0 63.933 71.776">
  <defs>
    <linearGradient id="linear-gradient" y1="0.5" x2="1" y2="0.5" gradientUnits="objectBoundingBox">
      <stop offset="0" stop-color="#d2deff" stop-opacity="0"/>
      <stop offset="1" stop-color="#85dee2"/>
    </linearGradient>
  </defs>
  <g id="_4151702" data-name="4151702" transform="translate(-27.973 0)">
    <g id="Group_26591" data-name="Group 26591" transform="translate(28.674 0)">
      <g id="Group_26572" data-name="Group 26572" transform="translate(2.075)">
        <path id="Path_19453" data-name="Path 19453" d="M55.046,5.36c-18.971,16.758,5.443,33,3.118,51.313-1.034,8.141,2.251,15.924,13,15.034,13.1-1.084,8.342-13.628,11.084-21.978,4.719-14.369,33.747-11.013,21.714-33.147C96.279,2.456,68.1-6.174,55.046,5.36Z" transform="translate(-47.774 0)" fill="url(#linear-gradient)"/>
      </g>
      <g id="Group_26590" data-name="Group 26590" transform="translate(0 4.441)">
        <path id="Path_19454" data-name="Path 19454" d="M76.525,83a1.709,1.709,0,0,0-1.023.376L60.1,89.046v-.825a6.953,6.953,0,0,0-6.953-6.953H50.159a6.075,6.075,0,1,0-11.3,1.615A6.953,6.953,0,0,0,43.31,95.174h.134l-7.715,2.839a4.206,4.206,0,0,0-2.753,3.947v6.526a4.206,4.206,0,0,0,2.753,3.947l2.41.887v7.262a4.531,4.531,0,0,0,2.883,4.238l12.851,5.074a4.556,4.556,0,0,0,6.229-4.238V121.4s16.074,6.043,16.423,6.043c3.072,0,5.561-9.948,5.561-22.22S79.6,83,76.525,83ZM56.6,125.656a1.052,1.052,0,0,1-1.438.978l-12.85-5.074a1.046,1.046,0,0,1-.665-.978v-5.973l14.953,5.5Z" transform="translate(-32.975 -68.019)" fill="#2626bc" opacity="0.1"/>
        <g id="Group_26573" data-name="Group 26573" transform="translate(5.817)">
          <path id="Path_19455" data-name="Path 19455" d="M254.376,62.692a.7.7,0,0,1-.7-.7.842.842,0,0,0-.841-.841.7.7,0,1,1,0-1.4.842.842,0,0,0,.841-.841.7.7,0,1,1,1.4,0,.842.842,0,0,0,.841.841.7.7,0,1,1,0,1.4.842.842,0,0,0-.841.841A.7.7,0,0,1,254.376,62.692Z" transform="translate(-227.226 -54.487)" fill="#19124f"/>
          <path id="Path_19456" data-name="Path 19456" d="M396.494,420.051a.7.7,0,0,1-.7-.7.842.842,0,0,0-.841-.841.7.7,0,0,1,0-1.4.842.842,0,0,0,.841-.841.7.7,0,1,1,1.4,0,.842.842,0,0,0,.841.841.7.7,0,0,1,0,1.4.842.842,0,0,0-.841.841A.7.7,0,0,1,396.494,420.051Z" transform="translate(-349.421 -361.749)" fill="#19124f"/>
          <path id="Path_19457" data-name="Path 19457" d="M213.416,36.166a.7.7,0,0,1-.7-.7.842.842,0,0,0-.841-.841.7.7,0,0,1,0-1.4.842.842,0,0,0,.841-.841.7.7,0,0,1,1.4,0,.842.842,0,0,0,.841.841.7.7,0,1,1,0,1.4.842.842,0,0,0-.841.841A.7.7,0,0,1,213.416,36.166Z" transform="translate(-192.008 -31.68)" fill="#19124f"/>
          <path id="Path_19458" data-name="Path 19458" d="M374.493,75.957a.7.7,0,0,1-.5-.205l-1.542-1.542a.7.7,0,0,1,0-.991L374,71.676a.7.7,0,0,1,.991,0l1.542,1.542a.7.7,0,0,1,0,.991l-1.542,1.542A.7.7,0,0,1,374.493,75.957Zm-.551-2.243.551.551.551-.551-.551-.551Z" transform="translate(-330.505 -65.893)" fill="#19124f"/>
          <path id="Path_19459" data-name="Path 19459" d="M76.709,445.666a.7.7,0,0,1-.5-.205l-1.542-1.542a.7.7,0,0,1,0-.991l1.542-1.542a.7.7,0,0,1,.991,0l1.542,1.542a.7.7,0,0,1,0,.991L77.2,445.461A.7.7,0,0,1,76.709,445.666Zm-.551-2.243.551.551.551-.551-.551-.551Z" transform="translate(-74.466 -383.773)" fill="#19124f"/>
        </g>
        <g id="Group_26584" data-name="Group 26584" transform="translate(0 0.046)">
          <g id="Group_26579" data-name="Group 26579" transform="translate(0 11.574)">
            <g id="Group_26574" data-name="Group 26574" transform="translate(5.164 27.708)">
              <path id="Path_19460" data-name="Path 19460" d="M73.313,312.216v9.87a1.046,1.046,0,0,0,.665.978l12.85,5.074a1.052,1.052,0,0,0,1.438-.978v-8.309h3.5v8.309a4.555,4.555,0,0,1-6.229,4.238l-12.851-5.074a4.531,4.531,0,0,1-2.883-4.238v-9.87Z" transform="translate(-69.808 -312.216)" fill="#fff"/>
            </g>
            <path id="Path_19461" data-name="Path 19461" d="M32.973,133.522v6.526a4.206,4.206,0,0,0,2.753,3.947L76.523,159v-44.44l-40.8,15.01A4.206,4.206,0,0,0,32.973,133.522Z" transform="translate(-32.973 -114.565)" fill="#fff"/>
            <path id="Path_19462" data-name="Path 19462" d="M110.723,282.947l-14.86-5.467a1.4,1.4,0,0,0-1.886,1.316v2.5a1.4,1.4,0,0,0,.918,1.316l14.86,5.467a1.4,1.4,0,0,0,1.886-1.316v-2.5A1.4,1.4,0,0,0,110.723,282.947Z" transform="translate(-85.425 -254.566)" fill="#ff4a61"/>
            <path id="Path_19463" data-name="Path 19463" d="M47.042,191.943v22.744L35.73,210.525a4.2,4.2,0,0,1-2.753-3.946v-6.526a4.205,4.205,0,0,1,2.753-3.948l3.764-1.385Z" transform="translate(-32.976 -181.096)" fill="#ff4a61"/>
            <g id="Group_26578" data-name="Group 26578" transform="translate(0.001 19.283)">
              <g id="Group_26575" data-name="Group 26575">
                <path id="Path_19464" data-name="Path 19464" d="M32.977,252.115H35.9a.7.7,0,1,1,0,1.4H32.977Z" transform="translate(-32.977 -252.115)" fill="#19124f"/>
              </g>
              <g id="Group_26576" data-name="Group 26576" transform="translate(0 2.236)">
                <path id="Path_19465" data-name="Path 19465" d="M32.977,268.063H35.9a.7.7,0,0,1,0,1.4H32.977Z" transform="translate(-32.977 -268.063)" fill="#19124f"/>
              </g>
              <g id="Group_26577" data-name="Group 26577" transform="translate(0 4.472)">
                <path id="Path_19466" data-name="Path 19466" d="M32.977,284.012H35.9a.7.7,0,0,1,0,1.4H32.977Z" transform="translate(-32.977 -284.012)" fill="#19124f"/>
              </g>
            </g>
            <ellipse id="Ellipse_91" data-name="Ellipse 91" cx="5.561" cy="22.22" rx="5.561" ry="22.22" transform="translate(37.988 0)" fill="#fff"/>
            <path id="Path_19467" data-name="Path 19467" d="M309.45,239.4a5.49,5.49,0,0,1-5.319,5.488c-.112-1.755-.171-3.594-.171-5.488s.059-3.733.171-5.488A5.49,5.49,0,0,1,309.45,239.4Z" transform="translate(-265.971 -217.184)" fill="#ff4a61"/>
          </g>
          <path id="Path_19468" data-name="Path 19468" d="M80.136,116.093H64.045a6.953,6.953,0,1,1,0-13.907h9.838a6.953,6.953,0,0,1,6.953,6.953v6.253A.7.7,0,0,1,80.136,116.093Z" transform="translate(-53.711 -92.348)" fill="#fff"/>
          <g id="Group_26582" data-name="Group 26582" transform="translate(8.669 16.371)">
            <g id="Group_26580" data-name="Group 26580">
              <path id="Path_19469" data-name="Path 19469" d="M108.341,150.188H95.511a.7.7,0,1,1,0-1.4h12.83a.7.7,0,1,1,0,1.4Z" transform="translate(-94.81 -148.786)" fill="#19124f"/>
            </g>
            <g id="Group_26581" data-name="Group 26581" transform="translate(0 2.615)">
              <path id="Path_19470" data-name="Path 19470" d="M108.341,168.845H95.511a.7.7,0,0,1,0-1.4h12.83a.7.7,0,1,1,0,1.4Z" transform="translate(-94.81 -167.443)" fill="#19124f"/>
            </g>
          </g>
          <g id="Group_26583" data-name="Group 26583" transform="translate(2.646 0)">
            <circle id="Ellipse_92" data-name="Ellipse 92" cx="6.075" cy="6.075" r="6.075" transform="translate(0 8.59) rotate(-45)" fill="#fff"/>
            <path id="Path_19471" data-name="Path 19471" d="M101.185,73.186a2.329,2.329,0,1,0-3.991,1.628,2.321,2.321,0,0,0-.667,1.628.7.7,0,1,0,1.4,0,.927.927,0,0,1,1.854,0,.7.7,0,1,0,1.4,0,2.32,2.32,0,0,0-.667-1.628A2.319,2.319,0,0,0,101.185,73.186Zm-2.329-.927a.927.927,0,1,1-.927.927A.928.928,0,0,1,98.856,72.259Z" transform="translate(-90.263 -65.411)" fill="#19124f"/>
          </g>
          <path id="Path_19472" data-name="Path 19472" d="M99.491,278.812V284.3l-4.6-1.691a1.4,1.4,0,0,1-.918-1.315v-2.5a1.4,1.4,0,0,1,1.886-1.316Z" transform="translate(-85.425 -242.99)" fill="#fff"/>
        </g>
        <g id="Group_26589" data-name="Group 26589" transform="translate(52.189 26.916)" opacity="0.15">
          <g id="Group_26585" data-name="Group 26585" transform="translate(0 10.875)">
            <path id="Path_19473" data-name="Path 19473" d="M410.124,303.971a.7.7,0,0,1-.158-.018l-4.173-.965a.7.7,0,0,1,.316-1.366l3.614.836.36-.792a.7.7,0,0,1,.778-.4l4.871.992a.7.7,0,1,1-.28,1.374l-4.324-.88-.366.806a.7.7,0,0,1-.638.411Z" transform="translate(-405.249 -301.255)" fill="#2626bc"/>
          </g>
          <g id="Group_26588" data-name="Group 26588">
            <g id="Group_26586" data-name="Group 26586">
              <path id="Path_19474" data-name="Path 19474" d="M405.951,231.443a.7.7,0,0,1-.372-1.3l3.147-1.965-.305-.814a.7.7,0,0,1,.269-.831l4.146-2.743a.7.7,0,1,1,.774,1.169l-3.68,2.435.311.828a.7.7,0,0,1-.285.841l-3.633,2.269A.7.7,0,0,1,405.951,231.443Z" transform="translate(-405.249 -223.678)" fill="#2626bc"/>
            </g>
            <g id="Group_26587" data-name="Group 26587" transform="translate(0 16.702)">
              <path id="Path_19475" data-name="Path 19475" d="M413.222,350.583a.7.7,0,0,1-.386-.116l-4.146-2.743a.7.7,0,0,1-.269-.831l.305-.814-3.147-1.965a.7.7,0,0,1,.743-1.189l3.633,2.269a.7.7,0,0,1,.285.841l-.311.828,3.68,2.435a.7.7,0,0,1-.387,1.286Z" transform="translate(-405.25 -342.818)" fill="#2626bc"/>
            </g>
          </g>
        </g>
      </g>
    </g>
    <g id="Group_26592" data-name="Group 26592" transform="translate(27.973 6.301)">
      <path id="Path_19476" data-name="Path 19476" d="M31.185,84.794l1.952.718v6.772a5.228,5.228,0,0,0,3.326,4.89l12.852,5.075a5.257,5.257,0,0,0,7.186-4.89V94.108l8.312,3.058a.7.7,0,1,0,.484-1.316L31.669,83.479a3.518,3.518,0,0,1-2.295-3.289V73.664a3.517,3.517,0,0,1,2.295-3.289l7.6-2.8H47.7a.7.7,0,0,0,0-1.4H39.009a6.246,6.246,0,0,1-4.587-10.493A6.771,6.771,0,0,0,46.4,53.672h2.446A6.26,6.26,0,0,1,55.1,59.925v6.253H52.416a.7.7,0,1,0,0,1.4H55.1a1.4,1.4,0,0,0,1.4-1.4V61.239l12.683-4.667a20.99,20.99,0,0,0-1.573,4.473,49.494,49.494,0,0,0-.957,5.074,78.815,78.815,0,0,0-.693,10.808,68.484,68.484,0,0,0,1.65,15.882c1.169,4.67,2.721,7.039,4.612,7.039s3.443-2.368,4.612-7.039a68.485,68.485,0,0,0,1.65-15.882,68.487,68.487,0,0,0-1.65-15.882c-1.161-4.638-2.7-7-4.573-7.037h-.04a2.367,2.367,0,0,0-1.38.462L56.5,59.747a7.662,7.662,0,0,0-7.65-7.476H46.664c.015-.181.024-.363.024-.548a6.776,6.776,0,1,0-12.989,2.7,7.645,7.645,0,0,0,2.729,12.709l-5.242,1.929a4.925,4.925,0,0,0-3.212,4.6V80.19a4.924,4.924,0,0,0,3.212,4.6ZM55.1,97.36a3.855,3.855,0,0,1-5.27,3.586L36.978,95.871a3.833,3.833,0,0,1-2.439-3.586V86.028l2.1.774v5.483a1.744,1.744,0,0,0,1.108,1.631L50.6,98.988A1.751,1.751,0,0,0,53,97.36V92.819l2.1.774ZM38.044,87.317,51.594,92.3V97.36a.349.349,0,0,1-.479.325l-12.85-5.073a.345.345,0,0,1-.221-.327ZM77.084,76.927c0,13.332-2.831,21.519-4.86,21.519s-4.86-8.186-4.86-21.519c0-11.833,2.23-19.612,4.151-21.212l.814-.3C74.349,55.688,77.084,63.821,77.084,76.927ZM39.912,46.348a5.374,5.374,0,1,1-5.374,5.374A5.38,5.38,0,0,1,39.912,46.348Z" transform="translate(-27.973 -44.947)" fill="#19124f"/>
      <path id="Path_19477" data-name="Path 19477" d="M405.793,278.99l4.173.965a.7.7,0,0,0,.8-.393l.366-.806,4.324.88a.7.7,0,1,0,.28-1.374l-4.872-.992a.7.7,0,0,0-.778.4l-.36.792-3.614-.835a.7.7,0,1,0-.316,1.366Z" transform="translate(-352.36 -244.689)" fill="#19124f"/>
      <path id="Path_19478" data-name="Path 19478" d="M405.952,207.443a.7.7,0,0,0,.371-.106l3.633-2.269a.7.7,0,0,0,.285-.841l-.311-.828,3.68-2.435a.7.7,0,1,0-.774-1.169l-4.146,2.743a.7.7,0,0,0-.269.831l.305.814-3.146,1.965a.7.7,0,0,0,.372,1.3Z" transform="translate(-352.36 -177.987)" fill="#19124f"/>
      <path id="Path_19479" data-name="Path 19479" d="M408.69,323.724l4.146,2.743a.7.7,0,1,0,.774-1.169l-3.68-2.435.311-.828a.7.7,0,0,0-.285-.841l-3.633-2.269a.7.7,0,1,0-.743,1.189l3.147,1.965-.305.814A.7.7,0,0,0,408.69,323.724Z" transform="translate(-352.36 -280.425)" fill="#19124f"/>
    </g>
  </g>
</svg>
