<svg xmlns="http://www.w3.org/2000/svg" xmlns:xlink="http://www.w3.org/1999/xlink" width="71.846" height="81.723" viewBox="0 0 71.846 81.723">
  <defs>
    <linearGradient id="linear-gradient" y1="0.5" x2="1" y2="0.5" gradientUnits="objectBoundingBox">
      <stop offset="0" stop-color="#d2deff" stop-opacity="0"/>
      <stop offset="1" stop-color="#85dee2"/>
    </linearGradient>
  </defs>
  <g id="_4151908" data-name="4151908" transform="translate(-30.938 0)">
    <g id="Group_26551" data-name="Group 26551" transform="translate(30.938 0)">
      <g id="Group_26527" data-name="Group 26527" transform="translate(1.165)">
        <path id="Path_19375" data-name="Path 19375" d="M46.517,6.1c-21.6,19.08,6.2,37.575,3.55,58.424-1.177,9.269,2.562,18.13,14.8,17.118,14.91-1.234,9.5-15.516,12.62-25.024,5.373-16.361,38.424-12.539,24.724-37.741C93.465,2.8,61.384-7.03,46.517,6.1Z" transform="translate(-38.237 0)" fill="url(#linear-gradient)"/>
      </g>
      <g id="Group_26550" data-name="Group 26550" transform="translate(0 8.284)">
        <path id="Path_19376" data-name="Path 19376" d="M148.183,126.761a3.033,3.033,0,0,0-4.289,0l-8.019,8.019H125.112V125.1a1.6,1.6,0,0,0-1.6-1.6H88.56a1.6,1.6,0,0,0-1.6,1.6v44.373a6.385,6.385,0,0,0,6.385,6.385h38.946a6.385,6.385,0,0,0,6.385-6.385V140.554l9.5-9.5A3.033,3.033,0,0,0,148.183,126.761Z" transform="translate(-78.021 -112.072)" fill="#2626bc" opacity="0.1"/>
        <g id="Group_26545" data-name="Group 26545">
          <g id="Group_26543" data-name="Group 26543" transform="translate(8.942 7.118)">
            <g id="Group_26528" data-name="Group 26528">
              <path id="Path_19377" data-name="Path 19377" d="M221.381,168.766v33.093A6.385,6.385,0,0,1,215,208.244H185.373V167.17h34.411a1.6,1.6,0,0,1,1.579,1.366A1.369,1.369,0,0,1,221.381,168.766Z" transform="translate(-169.665 -155.89)" fill="#fff"/>
              <path id="Path_19378" data-name="Path 19378" d="M131.5,148.854H93.348a6.385,6.385,0,0,1-6.385-6.385V98.1a1.6,1.6,0,0,1,1.6-1.6h34.956a1.6,1.6,0,0,1,1.6,1.6v44.373A6.385,6.385,0,0,0,131.5,148.854Z" transform="translate(-86.963 -96.5)" fill="#fff"/>
              <path id="Path_19379" data-name="Path 19379" d="M125.111,110.094v-12a1.6,1.6,0,0,0-1.6-1.6H88.559a1.6,1.6,0,0,0-1.6,1.6v12Z" transform="translate(-86.963 -96.5)" fill="#ff4a61"/>
            </g>
            <g id="Group_26542" data-name="Group 26542" transform="translate(5.009 6.433)">
              <g id="Group_26529" data-name="Group 26529" transform="translate(0 28.913)">
                <path id="Path_19380" data-name="Path 19380" d="M145.384,319.547H119.141a.8.8,0,1,1,0-1.6h26.243a.8.8,0,1,1,0,1.6Z" transform="translate(-118.343 -317.951)" fill="#19124f"/>
              </g>
              <g id="Group_26530" data-name="Group 26530" transform="translate(0 36.379)">
                <path id="Path_19381" data-name="Path 19381" d="M134.634,366.319H119.142a.8.8,0,0,1,0-1.6h15.492a.8.8,0,0,1,0,1.6Z" transform="translate(-118.344 -364.723)" fill="#19124f"/>
              </g>
              <g id="Group_26534" data-name="Group 26534" transform="translate(0 19.337)">
                <g id="Group_26531" data-name="Group 26531">
                  <path id="Path_19382" data-name="Path 19382" d="M145.384,259.547H119.141a.8.8,0,1,1,0-1.6h26.243a.8.8,0,1,1,0,1.6Z" transform="translate(-118.343 -257.951)" fill="#19124f"/>
                </g>
                <g id="Group_26532" data-name="Group 26532" transform="translate(0 3.192)">
                  <path id="Path_19383" data-name="Path 19383" d="M145.384,279.547H119.141a.8.8,0,1,1,0-1.6h26.243a.8.8,0,1,1,0,1.6Z" transform="translate(-118.343 -277.951)" fill="#19124f"/>
                </g>
                <g id="Group_26533" data-name="Group 26533" transform="translate(0 6.385)">
                  <path id="Path_19384" data-name="Path 19384" d="M145.384,299.547H119.141a.8.8,0,1,1,0-1.6h26.243a.8.8,0,1,1,0,1.6Z" transform="translate(-118.343 -297.951)" fill="#19124f"/>
                </g>
              </g>
              <g id="Group_26541" data-name="Group 26541">
                <g id="Group_26535" data-name="Group 26535" transform="translate(0 9.76)">
                  <path id="Path_19385" data-name="Path 19385" d="M126.022,199.547h-6.881a.8.8,0,1,1,0-1.6h6.881a.8.8,0,1,1,0,1.6Z" transform="translate(-118.343 -197.951)" fill="#19124f"/>
                </g>
                <g id="Group_26536" data-name="Group 26536" transform="translate(0 2.896)">
                  <path id="Path_19386" data-name="Path 19386" d="M126.022,156.547h-6.881a.8.8,0,1,1,0-1.6h6.881a.8.8,0,1,1,0,1.6Z" transform="translate(-118.343 -154.951)" fill="#19124f"/>
                </g>
                <g id="Group_26537" data-name="Group 26537">
                  <path id="Path_19387" data-name="Path 19387" d="M126.022,138.4h-6.881a.8.8,0,1,1,0-1.6h6.881a.8.8,0,1,1,0,1.6Z" transform="translate(-118.343 -136.806)" fill="#19124f"/>
                </g>
                <g id="Group_26538" data-name="Group 26538" transform="translate(23.819)">
                  <path id="Path_19388" data-name="Path 19388" d="M269.983,138.4H268.37a.8.8,0,0,1,0-1.6h1.613a.8.8,0,1,1,0,1.6Z" transform="translate(-267.572 -136.806)" fill="#19124f"/>
                </g>
                <g id="Group_26539" data-name="Group 26539" transform="translate(0 12.952)">
                  <path id="Path_19389" data-name="Path 19389" d="M145.384,219.547H119.141a.8.8,0,0,1,0-1.6h26.243a.8.8,0,0,1,0,1.6Z" transform="translate(-118.343 -217.951)" fill="#19124f"/>
                </g>
                <g id="Group_26540" data-name="Group 26540" transform="translate(0 16.144)">
                  <path id="Path_19390" data-name="Path 19390" d="M145.384,239.547H119.141a.8.8,0,1,1,0-1.6h26.243a.8.8,0,0,1,0,1.6Z" transform="translate(-118.343 -237.951)" fill="#19124f"/>
                </g>
              </g>
            </g>
          </g>
          <g id="Group_26544" data-name="Group 26544">
            <path id="Path_19391" data-name="Path 19391" d="M33.492,281.973a.8.8,0,0,1-.564-.234l-1.756-1.756a.8.8,0,0,1,0-1.128l1.756-1.756a.8.8,0,0,1,1.129,0l1.756,1.756a.8.8,0,0,1,0,1.128l-1.756,1.756A.8.8,0,0,1,33.492,281.973Zm-.627-2.554.627.627.627-.627-.627-.627Z" transform="translate(-30.938 -240.958)" fill="#19124f"/>
            <path id="Path_19392" data-name="Path 19392" d="M44.493,413.608a.8.8,0,0,1-.8-.8.959.959,0,0,0-.958-.958.8.8,0,1,1,0-1.6.959.959,0,0,0,.958-.958.8.8,0,1,1,1.6,0,.959.959,0,0,0,.958.958.8.8,0,1,1,0,1.6.959.959,0,0,0-.958.958A.8.8,0,0,1,44.493,413.608Z" transform="translate(-40.183 -351.582)" fill="#19124f"/>
            <path id="Path_19393" data-name="Path 19393" d="M367.517,100.472a.8.8,0,0,1-.8-.8.959.959,0,0,0-.958-.958.8.8,0,1,1,0-1.6.959.959,0,0,0,.958-.958.8.8,0,1,1,1.6,0,.959.959,0,0,0,.958.958.8.8,0,0,1,0,1.6.959.959,0,0,0-.958.958A.8.8,0,0,1,367.517,100.472Z" transform="translate(-311.648 -88.427)" fill="#19124f"/>
            <path id="Path_19394" data-name="Path 19394" d="M331.653,57.011a.8.8,0,0,1-.8-.8.959.959,0,0,0-.958-.958.8.8,0,0,1,0-1.6.959.959,0,0,0,.958-.958.8.8,0,0,1,1.6,0,.959.959,0,0,0,.958.958.8.8,0,0,1,0,1.6.959.959,0,0,0-.958.958A.8.8,0,0,1,331.653,57.011Z" transform="translate(-281.508 -51.903)" fill="#19124f"/>
          </g>
        </g>
        <g id="Group_26547" data-name="Group 26547" transform="translate(35.757 16.751)">
          <g id="Group_26546" data-name="Group 26546">
            <path id="Path_19395" data-name="Path 19395" d="M260.411,159.574a2.727,2.727,0,1,0-4.673,1.906,2.717,2.717,0,0,0-.78,1.906.821.821,0,1,0,1.641,0,1.085,1.085,0,1,1,2.171,0,.821.821,0,1,0,1.641,0,2.716,2.716,0,0,0-.78-1.906A2.716,2.716,0,0,0,260.411,159.574Zm-2.727-1.085a1.085,1.085,0,1,1-1.085,1.085A1.087,1.087,0,0,1,257.685,158.488Z" transform="translate(-254.958 -156.847)" fill="#19124f"/>
          </g>
        </g>
        <g id="Group_26549" data-name="Group 26549" transform="translate(29.044 9.491)">
          <path id="Path_19396" data-name="Path 19396" d="M218.5,151.532l-4.509,1.781a.8.8,0,0,1-1.036-1.036l1.781-4.509a4.507,4.507,0,0,1,1-1.531l33.985-33.985a3.033,3.033,0,1,1,4.289,4.289l-33.985,33.985A4.505,4.505,0,0,1,218.5,151.532Z" transform="translate(-212.9 -111.365)" fill="#ff4a61"/>
          <path id="Path_19397" data-name="Path 19397" d="M0,0H1.516V6.065H0Z" transform="translate(33.575 4.138) rotate(-45)" fill="#fff"/>
          <path id="Path_19398" data-name="Path 19398" d="M0,0H6.345V6.065H0Z" transform="translate(28.095 9.618) rotate(-45)" fill="#fff"/>
          <g id="Group_26548" data-name="Group 26548" transform="translate(26.174 9.371)">
            <path id="Path_19399" data-name="Path 19399" d="M377.118,175.172l4.865-4.865a.8.8,0,0,1,1.129,1.129l-4.865,4.865a.8.8,0,1,1-1.129-1.129Z" transform="translate(-376.884 -170.073)" fill="#19124f"/>
          </g>
        </g>
        <path id="Path_19400" data-name="Path 19400" d="M434.649,257.059a.8.8,0,0,1-.564-.234l-1.756-1.756a.8.8,0,0,1,0-1.128l1.756-1.756a.8.8,0,0,1,1.129,0l1.756,1.756a.8.8,0,0,1,0,1.128l-1.756,1.756A.8.8,0,0,1,434.649,257.059Zm-.627-2.554.627.627.627-.627-.627-.627Z" transform="translate(-368.065 -220.021)" fill="#19124f"/>
      </g>
    </g>
    <path id="Path_19401" data-name="Path 19401" d="M139.126,94.995l-7.785,7.785h-5.061a.8.8,0,0,0,0,1.6h3.465l-8.039,8.039V93.894a2.4,2.4,0,0,0-2.394-2.394H84.356a2.4,2.4,0,0,0-2.394,2.394v44.373a7.191,7.191,0,0,0,7.183,7.183h38.946a7.191,7.191,0,0,0,7.183-7.183V109.749c0-.021,0-.04-.006-.061l9.277-9.276a3.831,3.831,0,0,0-5.417-5.417Zm-5.449,43.273a5.593,5.593,0,0,1-5.587,5.587h-.8a5.593,5.593,0,0,1-5.587-5.587v-9.824a.8.8,0,1,0-1.6,0v9.824a7.173,7.173,0,0,0,2.673,5.587H89.145a5.593,5.593,0,0,1-5.587-5.587V93.894a.8.8,0,0,1,.8-.8h34.956a.8.8,0,0,1,.8.8v20.117L105.141,128.98a5.271,5.271,0,0,0-1.183,1.8l-1.781,4.509a1.6,1.6,0,0,0,1.476,2.186,1.618,1.618,0,0,0,.6-.115l4.509-1.781a5.279,5.279,0,0,0,1.8-1.183l23.119-23.119v26.989Zm9.738-38.984L109.43,133.269a3.686,3.686,0,0,1-1.26.827l-4.509,1.781,1.782-4.509a3.685,3.685,0,0,1,.827-1.26l33.985-33.985a2.235,2.235,0,0,1,3.16,3.16Z" transform="translate(-42.88 -76.895)" fill="#19124f"/>
  </g>
</svg>
