<svg xmlns="http://www.w3.org/2000/svg" width="22.287" height="22.287" viewBox="0 0 22.287 22.287">
  <path id="delivery-box" d="M9.751,22.287H5.224A5.229,5.229,0,0,1,0,17.064V5.224A5.229,5.229,0,0,1,5.224,0h11.84a5.229,5.229,0,0,1,5.224,5.224V9.576a.871.871,0,0,1-1.741,0V5.224a3.486,3.486,0,0,0-3.482-3.482H5.224A3.486,3.486,0,0,0,1.741,5.224v11.84a3.486,3.486,0,0,0,3.482,3.482H9.751A.871.871,0,0,1,9.751,22.287Zm4.484-17.5a.871.871,0,0,0-.871-.871H8.924a.871.871,0,0,0,0,1.741h4.44A.871.871,0,0,0,14.234,4.788Zm8.053,11.622a5.876,5.876,0,1,0-5.876,5.876A5.883,5.883,0,0,0,22.287,16.411Zm-1.741,0a4.135,4.135,0,1,1-4.135-4.135A4.14,4.14,0,0,1,20.546,16.411Zm-2.9,0,.69-.69A.871.871,0,0,0,17.1,14.489l-.69.69-.69-.69a.871.871,0,0,0-1.231,1.231l.69.69-.69.69a.871.871,0,0,0,1.231,1.231l.69-.69.69.69A.871.871,0,1,0,18.332,17.1Z" fill="#fff"/>
</svg>
