<svg xmlns="http://www.w3.org/2000/svg" xmlns:xlink="http://www.w3.org/1999/xlink" width="50" height="50" viewBox="0 0 50 50">
  <defs>
    <linearGradient id="linear-gradient" x1="0.5" x2="0.5" y2="1" gradientUnits="objectBoundingBox">
      <stop offset="0" stop-color="#ca99fc"/>
      <stop offset="1" stop-color="#792dfa"/>
    </linearGradient>
    <linearGradient id="linear-gradient-2" y1="0.5" x2="1" y2="0.5" gradientUnits="objectBoundingBox">
      <stop offset="0" stop-color="#e9c5fd"/>
      <stop offset="0.362" stop-color="#8839f9"/>
      <stop offset="0.621" stop-color="#7529fa"/>
      <stop offset="0.823" stop-color="#a655fb"/>
      <stop offset="1" stop-color="#e6bffd"/>
    </linearGradient>
  </defs>
  <g id="diamond-crown" transform="translate(-74.779 19.999)">
    <g id="Group_28251" data-name="Group 28251" transform="translate(74.779 -19.999)">
      <circle id="Ellipse_3208" data-name="Ellipse 3208" cx="25" cy="25" r="25" fill="url(#linear-gradient)"/>
      <circle id="Ellipse_3202" data-name="Ellipse 3202" cx="23" cy="23" r="23" transform="translate(2 2)" fill="#fcfcfc"/>
      <g id="crown_2_" data-name="crown(2)" transform="translate(7 11)">
        <g id="Layer_1_17_" transform="translate(0 0)">
          <g id="Group_28250" data-name="Group 28250">
            <g id="Group_28239" data-name="Group 28239" transform="translate(2.504 5.268)">
              <g id="Group_28238" data-name="Group 28238">
                <path id="Path_19955" data-name="Path 19955" d="M35.7,30.932c-1.826,1.309-4.388,3.051-5.544,3.051a.389.389,0,0,1-.356-.134c-.472-.582-.344-2.622.38-6.061a.725.725,0,0,0-1.312-.554c-2.494,3.718-3.636,4.5-4.154,4.5-.734,0-1.481-2.112-2.221-6.278a.723.723,0,0,0-.673-.594v0h-.042v0a.724.724,0,0,0-.672.594c-.741,4.166-1.488,6.278-2.222,6.278-.518,0-1.659-.78-4.153-4.5a.726.726,0,0,0-1.312.554c.724,3.439.853,5.48.38,6.061-.052.065-.127.134-.355.134-1.156,0-3.718-1.741-5.545-3.051a.726.726,0,0,0-1.012,1.013,16.785,16.785,0,0,1,3.39,11.47,1.483,1.483,0,0,0-.023.263c0,1.506,2.108,2.1,3.945,2.453a42.514,42.514,0,0,0,7.52.611h.164A42.571,42.571,0,0,0,29.4,46.13c1.837-.351,3.946-.948,3.946-2.453a1.486,1.486,0,0,0-.023-.263,16.787,16.787,0,0,1,3.389-11.47A.726.726,0,0,0,35.7,30.932ZM21.878,44.664h-.164a30.894,30.894,0,0,1-8.788-.986,30.846,30.846,0,0,1,8.788-.986h.163a30.847,30.847,0,0,1,8.787.986A30.884,30.884,0,0,1,21.878,44.664Z" transform="translate(-6.748 -24.855)" fill="url(#linear-gradient-2)"/>
              </g>
            </g>
            <g id="Group_28241" data-name="Group 28241" transform="translate(15.358)">
              <g id="Group_28240" data-name="Group 28240">
                <circle id="Ellipse_3203" data-name="Ellipse 3203" cx="2.194" cy="2.194" r="2.194" fill="url(#linear-gradient-2)"/>
              </g>
            </g>
            <g id="Group_28243" data-name="Group 28243" transform="translate(6.461 3.017)">
              <g id="Group_28242" data-name="Group 28242">
                <circle id="Ellipse_3204" data-name="Ellipse 3204" cx="1.829" cy="1.829" r="1.829" fill="url(#linear-gradient-2)"/>
              </g>
            </g>
            <g id="Group_28245" data-name="Group 28245" transform="translate(24.834 3.017)">
              <g id="Group_28244" data-name="Group 28244">
                <circle id="Ellipse_3205" data-name="Ellipse 3205" cx="1.829" cy="1.829" r="1.829" fill="url(#linear-gradient-2)"/>
              </g>
            </g>
            <g id="Group_28247" data-name="Group 28247" transform="translate(0 8.823)">
              <g id="Group_28246" data-name="Group 28246">
                <circle id="Ellipse_3206" data-name="Ellipse 3206" cx="1.233" cy="1.233" r="1.233" fill="url(#linear-gradient-2)"/>
              </g>
            </g>
            <g id="Group_28249" data-name="Group 28249" transform="translate(32.6 8.823)">
              <g id="Group_28248" data-name="Group 28248">
                <circle id="Ellipse_3207" data-name="Ellipse 3207" cx="1.233" cy="1.233" r="1.233" fill="url(#linear-gradient-2)"/>
              </g>
            </g>
          </g>
        </g>
      </g>
    </g>
  </g>
</svg>
