<svg xmlns="http://www.w3.org/2000/svg" width="80.743" height="13.805" viewBox="0 0 80.743 13.805">
  <g id="discover" transform="translate(0 -18.08)">
    <circle id="Ellipse_3141" data-name="Ellipse 3141" cx="6.772" cy="6.772" r="6.772" transform="translate(36.074 18.21)" fill="#ef9122"/>
    <path id="Path_19027" data-name="Path 19027" d="M23.679,24.937a6.772,6.772,0,1,1,6.772,6.772" transform="translate(12.395 0.045)" fill="#f26e21"/>
    <path id="Path_19028" data-name="Path 19028" d="M25.047,20.119a6.722,6.722,0,0,1,9.507,9.507" transform="translate(13.111 0.045)" fill="#f44500"/>
    <path id="Path_19029" data-name="Path 19029" d="M3.646,18.422H0V31.184H3.646A7.064,7.064,0,0,0,8.2,29.752,6.44,6.44,0,0,0,10.549,24.8C10.549,21.026,7.814,18.422,3.646,18.422Zm3,9.637A5.006,5.006,0,0,1,3.256,29.1H2.474V20.636h.651a4.42,4.42,0,0,1,3.386,1.042A4.16,4.16,0,0,1,7.944,24.8,3.893,3.893,0,0,1,6.642,28.059Z" transform="translate(0 0.179)" fill="#595a5b"/>
    <rect id="SVGCleanerId_0" width="2.474" height="12.763" transform="translate(11.721 18.601)" fill="#595a5b"/>
    <path id="Path_19030" data-name="Path 19030" d="M15.211,23.415c-1.563-.521-1.953-.912-1.953-1.563a1.648,1.648,0,0,1,1.823-1.433,2.519,2.519,0,0,1,2.084,1.042l1.3-1.693a5.674,5.674,0,0,0-3.777-1.433,3.821,3.821,0,0,0-4.037,3.646c0,1.823.781,2.6,3.126,3.516a5.064,5.064,0,0,1,1.693.781,1.432,1.432,0,0,1,.781,1.3A1.815,1.815,0,0,1,14.3,29.406a3.037,3.037,0,0,1-2.735-1.693L10,29.276a5.107,5.107,0,0,0,4.428,2.474,4.107,4.107,0,0,0,4.428-4.167C18.857,25.369,18.076,24.457,15.211,23.415Z" transform="translate(5.235 0.134)" fill="#595a5b"/>
    <path id="Path_19031" data-name="Path 19031" d="M16.327,24.982A6.617,6.617,0,0,0,23.1,31.624a7.367,7.367,0,0,0,3.126-.781v-3a4.049,4.049,0,0,1-3,1.433,4.208,4.208,0,0,1-4.3-4.428A4.258,4.258,0,0,1,23.1,20.424a4.106,4.106,0,0,1,3.126,1.433v-3A6.544,6.544,0,0,0,23.1,18.08,7.2,7.2,0,0,0,16.327,24.982Z" transform="translate(8.547 0)" fill="#3b3d3f"/>
    <path id="Path_19032" data-name="Path 19032" d="M38.348,27.017l-3.386-8.6H32.227l5.339,13.153H39l5.6-13.153H41.865Z" transform="translate(16.87 0.179)"/>
    <path id="Path_19033" data-name="Path 19033" d="M41.032,31.184h7.163V29.1H43.637V25.584h4.428V23.371H43.637V20.636h4.558V18.422H41.032Z" transform="translate(21.479 0.179)"/>
    <g id="Group_26786" data-name="Group 26786" transform="translate(0 18.601)">
      <path id="Path_19034" data-name="Path 19034" d="M52.185,25.845a3.436,3.436,0,0,0,3-3.646c0-2.344-1.693-3.777-4.558-3.777H46.845V31.184H49.32V26.105h.391l3.516,5.079h3ZM50.1,24.282H49.32V20.375H50.1c1.563,0,2.474.651,2.474,1.953S51.664,24.282,50.1,24.282Z" transform="translate(24.521 -18.422)" fill="#595a5b"/>
      <path id="Path_19035" data-name="Path 19035" d="M3.646,18.422H0V31.184H3.646A7.064,7.064,0,0,0,8.2,29.752,6.44,6.44,0,0,0,10.549,24.8C10.549,21.026,7.814,18.422,3.646,18.422Zm3,9.637A5.006,5.006,0,0,1,3.256,29.1H2.474V20.636h.651a4.42,4.42,0,0,1,3.386,1.042A4.16,4.16,0,0,1,7.944,24.8,3.893,3.893,0,0,1,6.642,28.059Z" transform="translate(0 -18.422)" fill="#595a5b"/>
    </g>
    <g id="Group_26787" data-name="Group 26787" transform="translate(11.721 18.601)">
      <rect id="SVGCleanerId_0_1_" width="2.474" height="12.763" transform="translate(0 0)" fill="#595a5b"/>
    </g>
    <g id="Group_26788" data-name="Group 26788" transform="translate(15.237 18.471)">
      <path id="Path_19036" data-name="Path 19036" d="M15.211,23.415c-1.563-.521-1.953-.912-1.953-1.563a1.648,1.648,0,0,1,1.823-1.433,2.519,2.519,0,0,1,2.084,1.042l1.3-1.693a5.674,5.674,0,0,0-3.777-1.433,3.821,3.821,0,0,0-4.037,3.646c0,1.823.781,2.6,3.126,3.516a5.064,5.064,0,0,1,1.693.781,1.432,1.432,0,0,1,.781,1.3A1.815,1.815,0,0,1,14.3,29.406a3.037,3.037,0,0,1-2.735-1.693L10,29.276a5.107,5.107,0,0,0,4.428,2.474,4.107,4.107,0,0,0,4.428-4.167C18.857,25.369,18.076,24.457,15.211,23.415Z" transform="translate(-10.002 -18.336)" fill="#595a5b"/>
      <path id="Path_19037" data-name="Path 19037" d="M23.186,31a7.367,7.367,0,0,0,3.126-.781v-3a4.049,4.049,0,0,1-3,1.433,4.208,4.208,0,0,1-4.3-4.428,4.87,4.87,0,0,1,1.3-3.256l-1.693-1.693a6.776,6.776,0,0,0-2.214,4.949A6.5,6.5,0,0,0,23.186,31Z" transform="translate(-6.647 -17.844)" fill="#595a5b"/>
    </g>
    <path id="Path_19038" data-name="Path 19038" d="M52.185,25.845a3.436,3.436,0,0,0,3-3.646c0-2.344-1.693-3.777-4.558-3.777H46.845V31.184H49.32V26.105h.391l3.516,5.079h3ZM50.1,24.282H49.32V20.375H50.1c1.563,0,2.474.651,2.474,1.953S51.664,24.282,50.1,24.282Z" transform="translate(24.521 0.179)"/>
    <g id="Group_26790" data-name="Group 26790" transform="translate(49.097 18.601)">
      <path id="Path_19046" data-name="Path 19046" d="M45.981,27.132H43.637V24.788l-2.6-2.6v7.032h7.032Z" transform="translate(-27.618 -16.453)" fill="#3b3d3f"/>
      <path id="Path_19047" data-name="Path 19047" d="M41.213,19.724l-2.865,7.293-3.386-8.6H32.227l5.339,13.153H39l4.167-9.9Z" transform="translate(-32.227 -18.422)" fill="#3b3d3f"/>
    </g>
  </g>
</svg>
