<svg xmlns="http://www.w3.org/2000/svg" width="33.928" height="33.946" viewBox="0 0 33.928 33.946">
  <g id="facebook-logo_4_" data-name="facebook-logo(4)" transform="translate(0.5 0.5)">
    <g id="Group_28409" data-name="Group 28409" transform="translate(0.482 0.767)">
      <circle id="Ellipse_3216" data-name="Ellipse 3216" cx="16" cy="16" r="16" transform="translate(-0.019 -0.304)" fill="#fff"/>
      <path id="Path_20133" data-name="Path 20133" d="M25.028,95.2A15.977,15.977,0,0,1,12.984,68.719,15.978,15.978,0,1,0,35.526,91.261,15.915,15.915,0,0,1,25.028,95.2Z" transform="translate(-7.5 -65.066)" fill="#13bdbf"/>
      <g id="Path_20134" data-name="Path 20134" transform="translate(-142.511 -97.792)" fill="#fff">
        <path d="M 158.4928588867188 129.9706268310547 L 158.2842102050781 129.9706268310547 L 158.137451171875 129.8223114013672 L 155.5598297119141 127.2173309326172 L 155.4152374267578 127.0712127685547 L 155.4152374267578 126.8656539916992 L 155.4152374267578 118.1133270263672 L 152.3065032958984 118.1133270263672 C 151.7465362548828 118.1133270263672 151.2909698486328 117.6577682495117 151.2909698486328 117.0978088378906 L 151.2909698486328 114.0045928955078 C 151.2909698486328 113.4446182250977 151.7465362548828 112.9890594482422 152.3065032958984 112.9890594482422 L 155.4152374267578 112.9890594482422 L 155.4152374267578 109.3647918701172 C 155.4152374267578 105.9621810913086 158.1834716796875 103.1939468383789 161.5860900878906 103.1939468383789 L 164.6793060302734 103.1939468383789 C 165.2391967773438 103.1939468383789 165.6947937011719 103.6494674682617 165.6948852539062 104.2093811035156 L 165.6948852539062 107.3026885986328 C 165.6948852539062 107.862663269043 165.2393188476562 108.3182220458984 164.6793518066406 108.3182220458984 L 162.6172027587891 108.3182220458984 C 162.0401153564453 108.3182220458984 161.5706329345703 108.787712097168 161.5706329345703 109.3647918701172 L 161.5706329345703 112.9890594482422 L 164.5346069335938 112.9890594482422 C 164.8494720458984 112.9890594482422 165.1411895751953 113.1313934326172 165.3349761962891 113.3795471191406 C 165.5287933349609 113.6277313232422 165.5961761474609 113.9452896118164 165.5198516845703 114.2508010864258 L 164.7464752197266 117.344123840332 C 164.6331176757812 117.7970581054688 164.2279968261719 118.1133270263672 163.7612457275391 118.1133270263672 L 161.570556640625 118.1133270263672 L 161.570556640625 129.2608337402344 L 161.570556640625 129.6862640380859 L 161.1506195068359 129.7543792724609 C 160.2660217285156 129.8978729248047 159.371826171875 129.9706268310547 158.4928588867188 129.9706268310547 Z" stroke="none"/>
        <path d="M 161.5860900878906 103.6939544677734 C 158.4541473388672 103.6939544677734 155.9152374267578 106.2328643798828 155.9152374267578 109.3647918701172 L 155.9152374267578 113.4890594482422 L 152.3065032958984 113.4890594482422 C 152.0217895507812 113.4890594482422 151.7909698486328 113.7198791503906 151.7909698486328 114.0045928955078 L 151.7909698486328 117.0978088378906 C 151.7909698486328 117.3825225830078 152.0217895507812 117.6133270263672 152.3065032958984 117.6133270263672 L 155.9152374267578 117.6133270263672 L 155.9152374267578 126.8656539916992 L 158.4928588867188 129.4706420898438 C 159.3708038330078 129.4706420898438 160.2311706542969 129.3969879150391 161.070556640625 129.2608337402344 L 161.070556640625 117.6133270263672 L 163.7612457275391 117.6133270263672 C 163.9977874755859 117.6133270263672 164.2039794921875 117.4523010253906 164.2613983154297 117.2228393554688 L 165.0347595214844 114.1296081542969 C 165.1160430908203 113.8042602539062 164.8699951171875 113.4890594482422 164.5346069335938 113.4890594482422 L 161.0706329345703 113.4890594482422 L 161.0706329345703 109.3647918701172 C 161.0706329345703 108.5105972290039 161.7630767822266 107.8182220458984 162.6172027587891 107.8182220458984 L 164.6793518066406 107.8182220458984 C 164.9640808105469 107.8182220458984 165.1948852539062 107.58740234375 165.1948852539062 107.3026885986328 L 165.1948852539062 104.20947265625 C 165.1948394775391 103.9246978759766 164.9639587402344 103.6939544677734 164.6793060302734 103.6939544677734 L 161.5860900878906 103.6939544677734 M 161.5860900878906 102.6939544677734 L 164.6793060302734 102.6939544677734 C 165.5148620605469 102.6939544677734 166.1947326660156 103.3737335205078 166.1948852539062 104.2092895507812 L 166.1948852539062 107.3026885986328 C 166.1948852539062 108.1383590698242 165.5150146484375 108.8182220458984 164.6793518066406 108.8182220458984 L 162.6172027587891 108.8182220458984 C 162.3158264160156 108.8182220458984 162.0706329345703 109.0634078979492 162.0706329345703 109.3647918701172 L 162.0706329345703 112.4890594482422 L 164.5346069335938 112.4890594482422 C 165.0044860839844 112.4890594482422 165.4398498535156 112.7014617919922 165.7290496826172 113.0718078613281 C 166.0182800292969 113.4421844482422 166.1188354492188 113.9160842895508 166.0049438476562 114.3719787597656 L 165.2315368652344 117.4653930664062 C 165.0623779296875 118.141357421875 164.4577941894531 118.6133270263672 163.7612457275391 118.6133270263672 L 162.070556640625 118.6133270263672 L 162.070556640625 130.1116943359375 L 161.2306823730469 130.2479248046875 C 160.3196868896484 130.3956909179688 159.3985443115234 130.4706420898438 158.4928588867188 130.4706420898438 L 158.0755462646484 130.4706420898438 L 154.9152374267578 127.2767715454102 L 154.9152374267578 118.6133270263672 L 152.3065032958984 118.6133270263672 C 151.4708251953125 118.6133270263672 150.7909698486328 117.9334716796875 150.7909698486328 117.0978088378906 L 150.7909698486328 114.0045928955078 C 150.7909698486328 113.1689224243164 151.4708251953125 112.4890594482422 152.3065032958984 112.4890594482422 L 154.9152374267578 112.4890594482422 L 154.9152374267578 109.3647918701172 C 154.9152374267578 105.6864776611328 157.9077758789062 102.6939544677734 161.5860900878906 102.6939544677734 Z" stroke="none" fill="#181346"/>
      </g>
      <path id="Path_20135" data-name="Path 20135" d="M161.02,270.363a15.312,15.312,0,0,1-3.1-.015.518.518,0,0,1-.457-.516v-9.708a1.547,1.547,0,0,0-1.547-1.547h-2.062a.516.516,0,0,1-.516-.516V256h-1.031a.516.516,0,0,0-.516.516v3.093a.516.516,0,0,0,.516.515h3.609v11.648a15.942,15.942,0,0,0,5.155,0v-1.413Z" transform="translate(-142.51 -240.303)" fill="#13bdbf"/>
    </g>
    <g id="Group_28410" data-name="Group 28410" transform="translate(0)">
      <g id="Path_20136" data-name="Path 20136" transform="translate(0 0)" fill="#19124f">
        <path d="M 16.4638671875 33.17778015136719 C 11.99949741363525 33.17778015136719 7.802257061004639 31.43925094604492 4.645327091217041 28.28244018554688 C 1.488507151603699 25.12549018859863 -0.2500227987766266 20.92824935913086 -0.2500227987766266 16.46389007568359 C -0.2500227987766266 11.99952983856201 1.488507151603699 7.802289962768555 4.645317077636719 4.645349979400635 C 7.802267074584961 1.488530039787292 11.99950695037842 -0.249999925494194 16.4638671875 -0.249999925494194 C 20.92822647094727 -0.249999925494194 25.12546730041504 1.488530039787292 28.28240776062012 4.645339965820312 C 31.43922805786133 7.802289962768555 33.17775726318359 11.99952983856201 33.17775726318359 16.46389007568359 C 33.17775726318359 20.92824935913086 31.43922805786133 25.12549018859863 28.28241729736328 28.28243064880371 C 25.12546730041504 31.43925094604492 20.92822647094727 33.17778015136719 16.4638671875 33.17778015136719 Z M 16.4638671875 1.214690089225769 C 12.39062690734863 1.214690089225769 8.561217308044434 2.800880193710327 5.681036949157715 5.681059837341309 C 2.800847291946411 8.561249732971191 1.214657187461853 12.39066982269287 1.214657187461853 16.46389961242676 C 1.214657187461853 20.53713035583496 2.800847291946411 24.36655044555664 5.681036949157715 27.24673080444336 C 8.561217308044434 30.12692070007324 12.39063739776611 31.71310997009277 16.4638671875 31.71310997009277 C 17.07561683654785 31.71310997009277 17.69534492492676 31.67585754394531 18.30928802490234 31.60226631164551 L 18.30928802490234 20.58823013305664 C 18.30928802490234 20.18441963195801 18.6378173828125 19.85589027404785 19.04162788391113 19.85589027404785 L 21.56305313110352 19.85589027404785 L 22.22795104980469 17.19623947143555 L 19.04162788391113 17.19623947143555 C 18.6378173828125 17.19623947143555 18.30928802490234 16.86771011352539 18.30928802490234 16.46389961242676 C 18.30928802490234 16.06007957458496 18.6378173828125 15.7315502166748 19.04162788391113 15.7315502166748 L 22.5055980682373 15.7315502166748 C 22.89249801635742 15.7315502166748 23.2509765625 15.90645980834961 23.48911666870117 16.21143913269043 C 23.72729682922363 16.51646041870117 23.81007766723633 16.90669059753418 23.71623802185059 17.28206062316895 L 22.94286727905273 20.37528038024902 C 22.80373764038086 20.93181037902832 22.30590629577637 21.32049942016602 21.73224639892578 21.32049942016602 L 19.77389717102051 21.32049942016602 L 19.77389717102051 31.35492515563965 C 22.59860992431641 30.73295974731445 25.17669105529785 29.31673622131348 27.24669647216797 27.24671936035156 C 30.12688636779785 24.36655044555664 31.71307754516602 20.53713035583496 31.71307754516602 16.46389961242676 C 31.71307754516602 12.39066982269287 30.12688636779785 8.561249732971191 27.24669647216797 5.681059837341309 C 24.36651802062988 2.800880193710327 20.53710746765137 1.214690089225769 16.4638671875 1.214690089225769 Z" stroke="none"/>
        <path d="M 16.4638671875 0 C 12.06620788574219 0 7.931777954101562 1.712570190429688 4.822097778320312 4.822120666503906 C 1.712547302246094 7.931800842285156 -2.288818359375e-05 12.06623077392578 -2.288818359375e-05 16.46389007568359 C -2.288818359375e-05 20.86154937744141 1.712547302246094 24.99597930908203 4.822097778320312 28.10565948486328 C 7.931777954101562 31.21521949768066 12.06620788574219 32.92778015136719 16.4638671875 32.92778015136719 C 20.86152648925781 32.92778015136719 24.99595642089844 31.2152099609375 28.10563659667969 28.10565948486328 C 31.21518707275391 24.99597930908203 32.92775726318359 20.86154937744141 32.92775726318359 16.46389007568359 C 32.92775726318359 12.06623077392578 31.21518707275391 7.931800842285156 28.10563659667969 4.822120666503906 C 24.99595642089844 1.712570190429688 20.86152648925781 0 16.4638671875 0 M 27.42347717285156 27.42350959777832 L 27.42347717285156 27.42350006103516 C 25.23101806640625 29.61597061157227 22.4974365234375 31.07051086425781 19.52389717102051 31.66275978088379 L 19.52389717102051 21.07049942016602 L 21.73224639892578 21.07049942016602 C 22.19098663330078 21.07049942016602 22.58907699584961 20.75967979431152 22.70033645629883 20.31464004516602 L 23.47368621826172 17.2214298248291 C 23.54874801635742 16.92122077941895 23.48249816894531 16.60918045043945 23.29207611083984 16.36529922485352 C 23.10164642333984 16.12142944335938 22.81500625610352 15.98155975341797 22.50559616088867 15.98155975341797 L 19.0416259765625 15.98155975341797 C 18.77524757385254 15.98155975341797 18.55928802490234 16.19751930236816 18.55928802490234 16.46389961242676 C 18.55928802490234 16.73027038574219 18.77524757385254 16.94623947143555 19.0416259765625 16.94623947143555 L 22.50559616088867 16.94623947143555 C 22.51042747497559 16.94623947143555 22.52174758911133 16.94623947143555 22.53177642822266 16.95903015136719 C 22.541748046875 16.97177124023438 22.53897857666016 16.98283004760742 22.53782653808594 16.98752021789551 L 21.7645378112793 20.08073997497559 C 21.76080703735352 20.09553909301758 21.74755859375 20.10589027404785 21.7323169708252 20.10589027404785 L 19.0416259765625 20.10589027404785 C 18.77524757385254 20.10589027404785 18.55928802490234 20.32184982299805 18.55928802490234 20.58823013305664 L 18.55928802490234 31.82251930236816 C 17.87024688720703 31.91493988037109 17.1707878112793 31.96310997009277 16.4638671875 31.96310997009277 C 12.3238468170166 31.96310997009277 8.431676864624023 30.35092926025391 5.504257202148438 27.42350959777832 C 2.576837539672852 24.49608993530273 0.9646568298339844 20.60391998291016 0.9646568298339844 16.46389961242676 C 0.9646568298339844 12.3238697052002 2.576837539672852 8.431709289550781 5.504257202148438 5.504280090332031 C 8.431676864624023 2.576860427856445 12.3238468170166 0.9646892547607422 16.4638671875 0.9646892547607422 C 20.60389709472656 0.9646892547607422 24.49605751037598 2.576860427856445 27.42347717285156 5.504280090332031 C 30.35089683532715 8.431709289550781 31.96307754516602 12.3238697052002 31.96307754516602 16.46389961242676 C 31.96307754516602 20.60391998291016 30.35089683532715 24.49608993530273 27.42347717285156 27.42350959777832 M 16.4638671875 -0.5 C 20.9950065612793 -0.5 25.25502777099609 1.26453971862793 28.45918655395508 4.468559265136719 C 31.66321754455566 7.6727294921875 33.42775726318359 11.9327507019043 33.42775726318359 16.46389007568359 C 33.42775726318359 20.99502944946289 31.66321754455566 25.25505065917969 28.45919799804688 28.45920944213867 C 25.25502777099609 31.66324043273926 20.9950065612793 33.42778015136719 16.4638671875 33.42778015136719 C 11.93271636962891 33.42778015136719 7.672697067260742 31.66324043273926 4.468547821044922 28.45922088623047 C 1.264516830444336 25.25505065917969 -0.5000228881835938 20.99502944946289 -0.5000228881835938 16.46389007568359 C -0.5000228881835938 11.9327507019043 1.264516830444336 7.6727294921875 4.468536376953125 4.468570709228516 C 7.672706604003906 1.26453971862793 11.9327278137207 -0.5 16.4638671875 -0.5 Z M 27.06992721557617 27.06995964050293 C 29.90288734436035 24.23698997497559 31.46307754516602 20.47035026550293 31.46307754516602 16.46389961242676 C 31.46307754516602 12.45745086669922 29.90288734436035 8.69080924987793 27.06992721557617 5.857830047607422 C 24.23695755004883 3.024869918823242 20.47032737731934 1.464689254760742 16.4638671875 1.464689254760742 C 12.45740699768066 1.464689254760742 8.690776824951172 3.024869918823242 5.857807159423828 5.857830047607422 C 3.024847030639648 8.69080924987793 1.464656829833984 12.45745086669922 1.464656829833984 16.46389961242676 C 1.464656829833984 20.47035026550293 3.024847030639648 24.23698997497559 5.857807159423828 27.06995964050293 C 8.690776824951172 29.90291976928711 12.45741653442383 31.46310997009277 16.4638671875 31.46310997009277 C 16.99261474609375 31.46310997009277 17.52753067016602 31.43480491638184 18.05928802490234 31.37883186340332 L 18.05928802490234 20.58823013305664 C 18.05928802490234 20.04656982421875 18.49996757507324 19.60589027404785 19.0416259765625 19.60589027404785 L 21.36786079406738 19.60589027404785 L 21.90776252746582 17.44623947143555 L 19.0416259765625 17.44623947143555 C 18.49996757507324 17.44623947143555 18.05928802490234 17.00555992126465 18.05928802490234 16.46389961242676 C 18.05928802490234 15.92223930358887 18.49996757507324 15.48155975341797 19.0416259765625 15.48155975341797 L 22.50559616088867 15.48155975341797 C 22.97001647949219 15.48155975341797 23.40031814575195 15.69150924682617 23.68616676330566 16.05756950378418 C 23.9720573425293 16.42373085021973 24.07140731811523 16.89213943481445 23.9587574005127 17.34271049499512 L 23.1854076385498 20.43590927124023 C 23.01839828491211 21.10393905639648 22.42083740234375 21.57049942016602 21.73224639892578 21.57049942016602 L 20.02389717102051 21.57049942016602 L 20.02389717102051 31.04053115844727 C 22.68291664123535 30.39631271362305 25.10828399658203 29.03159332275391 27.06992721557617 27.06995010375977 L 27.06992721557617 27.06995964050293 Z" stroke="none" fill="#181346"/>
      </g>
      <path id="Path_20137" data-name="Path 20137" d="M157.661,96.193h-3.093a6.16,6.16,0,0,0-6.153,6.153v3.642h-3.126a1,1,0,0,0-1,1v3.093a1,1,0,0,0,1,1h3.126v10.541a.482.482,0,1,0,.965,0V110.595a.482.482,0,0,0-.482-.482h-3.609a.033.033,0,0,1-.033-.033v-3.093a.033.033,0,0,1,.033-.033H148.9a.482.482,0,0,0,.482-.482v-4.124a5.194,5.194,0,0,1,5.189-5.189h3.093a.033.033,0,0,1,.033.033v3.093a.033.033,0,0,1-.033.033H155.6a2.031,2.031,0,0,0-2.029,2.029v2.062a.482.482,0,1,0,.965,0v-2.062a1.065,1.065,0,0,1,1.064-1.064h2.062a1,1,0,0,0,1-1V97.191A1,1,0,0,0,157.661,96.193Z" transform="translate(-135.01 -90.007)" fill="#19124f"/>
    </g>
  </g>
</svg>
