<svg id="gift-02" xmlns="http://www.w3.org/2000/svg" width="70.476" height="70.476" viewBox="0 0 70.476 70.476">
  <path id="Path_19904" data-name="Path 19904" d="M0,0H70.476V70.476H0Z" fill="none"/>
  <path id="Path_19905" data-name="Path 19905" d="M54.857,34.308V54.863A2.936,2.936,0,0,1,51.92,57.8H10.809a2.936,2.936,0,0,1-2.936-2.936V34.308ZM38.706,2.007a10.278,10.278,0,0,1,9.288,14.685l9.8,0a2.936,2.936,0,0,1,2.936,2.936v8.809a2.936,2.936,0,0,1-2.936,2.936H4.936A2.936,2.936,0,0,1,2,28.435V19.626a2.936,2.936,0,0,1,2.936-2.936l9.8,0a10.278,10.278,0,0,1,16.632-11.6,10.219,10.219,0,0,1,7.338-3.086ZM24.024,7.88a4.4,4.4,0,0,0-.423,8.789l.423.021h4.4v-4.4A4.4,4.4,0,0,0,24.447,7.9Zm14.682,0-.423.021a4.4,4.4,0,0,0-3.964,3.961l-.018.423v4.4h4.4l.423-.021a4.4,4.4,0,0,0,0-8.768Z" transform="translate(3.873 3.866)" fill="#13bdbf"/>
</svg>
