<svg xmlns="http://www.w3.org/2000/svg" width="56.199" height="53.336" viewBox="0 0 56.199 53.336">
  <g id="_891441" data-name="891441" transform="translate(0 -12.497)">
    <path id="Path_18886" data-name="Path 18886" d="M71.424,222.169H22.555a1.222,1.222,0,0,0-1.222,1.222v21.991a6.109,6.109,0,0,0,6.109,6.109h39.1a6.109,6.109,0,0,0,6.109-6.109V223.391A1.222,1.222,0,0,0,71.424,222.169Z" transform="translate(-18.89 -185.657)" fill="#85dee2"/>
    <path id="Path_18887" data-name="Path 18887" d="M3.665,115.5H52.534a3.665,3.665,0,0,1,3.665,3.665v7.33a3.665,3.665,0,0,1-3.665,3.665H3.665A3.665,3.665,0,0,1,0,126.5v-7.33A3.665,3.665,0,0,1,3.665,115.5Z" transform="translate(0 -91.208)" fill="#55d0d5"/>
    <g id="Group_4585" data-name="Group 4585" transform="translate(15.08 12.497)">
      <rect id="Rectangle_1706" data-name="Rectangle 1706" width="2.443" height="41.539" transform="translate(11.797 11.798)" fill="#e0f5f4"/>
      <path id="Path_18888" data-name="Path 18888" d="M144.684,26.752a13.519,13.519,0,0,1-12.882-9.6h0a3.651,3.651,0,0,1,4.5-4.5,13.52,13.52,0,0,1,9.6,12.882A1.222,1.222,0,0,1,144.684,26.752Zm-10.538-10.3a11.064,11.064,0,0,0,9.239,7.775,11.064,11.064,0,0,0-7.777-9.241,1.207,1.207,0,0,0-1.466,1.466Z" transform="translate(-131.665 -12.511)" fill="#19124f"/>
      <path id="Path_18889" data-name="Path 18889" d="M235.888,26.739a1.222,1.222,0,0,1-1.222-1.222,13.519,13.519,0,0,1,9.6-12.882,3.65,3.65,0,0,1,4.5,4.506h0A13.519,13.519,0,0,1,235.888,26.739Zm9.388-11.807a1.063,1.063,0,0,0-.31.046,11.064,11.064,0,0,0-7.777,9.239,11.064,11.064,0,0,0,9.239-7.78h0a1.149,1.149,0,0,0-.318-1.148A1.186,1.186,0,0,0,245.275,14.932Z" transform="translate(-222.869 -12.497)" fill="#19124f"/>
      <path id="Path_18890" data-name="Path 18890" d="M171.871,125.151a1.222,1.222,0,0,1-.865-2.087l7.33-7.33a1.222,1.222,0,0,1,1.758,1.7l-.03.03-7.33,7.33A1.222,1.222,0,0,1,171.871,125.151Z" transform="translate(-166.182 -103.579)" fill="#19124f"/>
      <path id="Path_18891" data-name="Path 18891" d="M243.325,125.4a1.221,1.221,0,0,1-.865-.357l-7.33-7.33a1.222,1.222,0,0,1,1.727-1.728l7.33,7.33a1.222,1.222,0,0,1-.862,2.084Z" transform="translate(-222.976 -103.83)" fill="#19124f"/>
    </g>
  </g>
</svg>
