<svg id="gift-box" xmlns="http://www.w3.org/2000/svg" width="52.378" height="52.378" viewBox="0 0 52.378 52.378">
  <path id="Path_19904" data-name="Path 19904" d="M0,0H52.378V52.378H0Z" fill="none"/>
  <path id="Path_19905" data-name="Path 19905" d="M41.283,26.011V41.288A2.182,2.182,0,0,1,39.1,43.47H8.547a2.182,2.182,0,0,1-2.182-2.182V26.011ZM29.28,2a7.638,7.638,0,0,1,6.9,10.914l7.283,0A2.182,2.182,0,0,1,45.648,15.1v6.547a2.182,2.182,0,0,1-2.182,2.182H4.182A2.182,2.182,0,0,1,2,21.646V15.1a2.182,2.182,0,0,1,2.182-2.182l7.283,0A7.638,7.638,0,0,1,23.826,4.3,7.6,7.6,0,0,1,29.28,2ZM18.368,6.369a3.274,3.274,0,0,0-.314,6.532l.314.015h3.274V9.643a3.274,3.274,0,0,0-2.959-3.258Zm10.912,0-.314.015A3.274,3.274,0,0,0,26.02,9.328l-.013.314v3.274H29.28l.314-.015a3.274,3.274,0,0,0,0-6.517Z" transform="translate(2.365 2.361)" fill="#fff"/>
</svg>
