<svg xmlns="http://www.w3.org/2000/svg" width="26.027" height="26.026" viewBox="0 0 26.027 26.026">
  <g id="gift_8_" data-name="gift(8)" transform="translate(0 -0.013)">
    <path id="Path_20016" data-name="Path 20016" d="M145.054,1372.873h-1.687l-.82,1.369v1.609l3.106,1.047.668.725,1.922-.43,1.667-.295,1.038-1.275.623-1.6-.623-1.148-1.412-.316-1.632.871-.889,1.281-1.961-1.281" transform="translate(-133.986 -1371.986)" fill="#13bdbf"/>
    <path id="Path_20010" data-name="Path 20010" d="M17.525,103.987h21.35a1.525,1.525,0,0,1,1.525,1.525v1.83a1.525,1.525,0,0,1-1.525,1.525H17.525A1.525,1.525,0,0,1,16,107.342v-1.83A1.525,1.525,0,0,1,17.525,103.987Z" transform="translate(-15.187 -98.689)" fill="#fff"/>
    <path id="Path_20011" data-name="Path 20011" d="M48,199.987H69.147v13.522a1.525,1.525,0,0,1-1.525,1.525h-18.1A1.525,1.525,0,0,1,48,213.509Z" transform="translate(-45.56 -189.809)" fill="#fff"/>
    <path id="Path_20012" data-name="Path 20012" d="M429.558,105.512v1.83a1.525,1.525,0,0,1-1.525,1.525H426a1.525,1.525,0,0,0,1.525-1.525v-1.83A1.525,1.525,0,0,0,426,103.987h2.033A1.525,1.525,0,0,1,429.558,105.512Z" transform="translate(-404.345 -98.689)" fill="#fff"/>
    <path id="Path_20013" data-name="Path 20013" d="M397.558,199.987v13.522a1.525,1.525,0,0,1-1.525,1.525H394a1.525,1.525,0,0,0,1.525-1.525V199.987Z" transform="translate(-373.972 -189.809)" fill="#fff"/>
    <path id="Path_20014" data-name="Path 20014" d="M224,103.987h3.253v19.927H224Z" transform="translate(-212.613 -98.689)" fill="#13bdbf"/>
    <path id="Path_20015" data-name="Path 20015" d="M23.688,4.485h-5.9A2.846,2.846,0,0,0,13.441.845a2.273,2.273,0,0,0-.427.61,2.274,2.274,0,0,0-.427-.61,2.846,2.846,0,0,0-4.348,3.64h-5.9A2.341,2.341,0,0,0,0,6.823v1.83A2.342,2.342,0,0,0,1.627,10.88V23.7a2.341,2.341,0,0,0,2.338,2.338h18.1A2.341,2.341,0,0,0,24.4,23.7V10.88a2.342,2.342,0,0,0,1.627-2.227V6.823A2.341,2.341,0,0,0,23.688,4.485Zm-9.862,4.88H12.2V6.111h1.627ZM14.018,3.8c.251-1.445.541-1.769.573-1.8a1.22,1.22,0,1,1,1.725,1.725c-.032.032-.354.32-1.788.57-.209.036-.412.067-.6.092C13.953,4.2,13.983,4,14.018,3.8ZM9.711,2a1.221,1.221,0,0,1,1.725,0c.032.032.32.354.57,1.788.036.209.067.412.092.6-.184-.025-.383-.055-.587-.09-1.445-.251-1.769-.541-1.8-.573A1.221,1.221,0,0,1,9.711,2ZM1.627,6.823a.712.712,0,0,1,.712-.712h8.235V9.365H2.338a.712.712,0,0,1-.712-.712ZM3.253,23.7V10.992h7.32v13.42H3.965A.712.712,0,0,1,3.253,23.7Zm8.947.712V10.992h1.627v13.42ZM22.773,23.7a.712.712,0,0,1-.712.712H15.453V10.992h7.32ZM24.4,8.653a.712.712,0,0,1-.712.712H15.453V6.111h8.235a.712.712,0,0,1,.712.712Z" transform="translate(0 0)" fill="#19124f"/>
  </g>
</svg>
