<svg xmlns="http://www.w3.org/2000/svg" width="22" height="22" viewBox="0 0 22 22">
  <g id="Group_26224" data-name="Group 26224" transform="translate(-704 -920)">
    <path id="Path_19270" data-name="Path 19270" d="M31.6,17.348H22.631a.717.717,0,0,0-.717.717v2.867a.717.717,0,0,0,.717.717h5.053a6.746,6.746,0,0,1-2.9,3.4l2.155,3.73a10.786,10.786,0,0,0,5.5-9.433,7.271,7.271,0,0,0-.124-1.409A.721.721,0,0,0,31.6,17.348Z" transform="translate(693.565 911.739)" fill="#167ee6"/>
    <path id="Path_19271" data-name="Path 19271" d="M12.344,30.737a6.694,6.694,0,0,1-5.791-3.351l-3.73,2.15a10.991,10.991,0,0,0,15.021,4.032v-.005l-2.155-3.73A6.646,6.646,0,0,1,12.344,30.737Z" transform="translate(702.656 906.959)" fill="#12b347"/>
    <path id="Path_19272" data-name="Path 19272" d="M26.5,35.791v-.005l-2.155-3.73a6.646,6.646,0,0,1-3.345.9v4.3A10.981,10.981,0,0,0,26.5,35.791Z" transform="translate(694 904.735)" fill="#0f993e"/>
    <path id="Path_19273" data-name="Path 19273" d="M4.3,16a6.646,6.646,0,0,1,.9-3.345l-3.73-2.15a10.95,10.95,0,0,0,0,10.99l3.73-2.15A6.646,6.646,0,0,1,4.3,16Z" transform="translate(704 914.995)" fill="#ffd500"/>
    <path id="Path_19274" data-name="Path 19274" d="M12.344,4.3A6.665,6.665,0,0,1,16.6,5.831a.715.715,0,0,0,.962-.043l2.031-2.031A.723.723,0,0,0,19.547,2.7,10.976,10.976,0,0,0,2.823,5.505l3.73,2.15A6.694,6.694,0,0,1,12.344,4.3Z" transform="translate(702.656 920)" fill="#ff4b26"/>
    <path id="Path_19275" data-name="Path 19275" d="M25.251,5.831a.715.715,0,0,0,.962-.043l2.031-2.031A.723.723,0,0,0,28.2,2.7,10.967,10.967,0,0,0,21,0V4.3A6.665,6.665,0,0,1,25.251,5.831Z" transform="translate(694 920)" fill="#d93f21"/>
  </g>
</svg>
