<svg xmlns="http://www.w3.org/2000/svg" width="167.126" height="156.645" viewBox="0 0 167.126 156.645">
  <g id="heart_10_" data-name="heart(10)" transform="translate(0 -16.055)">
    <g id="Group_27280" data-name="Group 27280" transform="translate(3.298 19.352)">
      <path id="Path_19593" data-name="Path 19593" d="M170.268,65.632a41.348,41.348,0,0,0-79.9-12.973A41.344,41.344,0,0,0,10.549,64.467c-7.333,42.6,78.342,111.739,78.342,111.739S177.008,107.231,170.268,65.632Z" transform="translate(-10.104 -26.154)" fill="#85dee2"/>
      <path id="Path_19594" data-name="Path 19594" d="M207.2,65.632a41.348,41.348,0,0,0-41.3-39.477c-7.175,0-18.551,7.108-24.43,10.324,23.406-3.53,34.679,6.415,38.267,26.192s-25.548,51.514-46.371,70.6c-11.218,10.28-25.891,9.847-38.016.661-10.909-8.264-21.463-16.7-30.412-29.421,2.117,6.969,2.083,9.206,5.393,15.689,23.232,29.967,55.5,56.01,55.5,56.01S213.942,107.232,207.2,65.632Z" transform="translate(-47.037 -26.155)" fill="#13bdbf"/>
      <path id="Path_19595" data-name="Path 19595" d="M34.725,394.6l2.718,7.643a1.225,1.225,0,0,0,.637.717l6.791,3.06a1.355,1.355,0,0,1,0,2.393l-6.791,3.06a1.226,1.226,0,0,0-.637.717l-2.718,7.643a1.1,1.1,0,0,1-2.126,0l-2.718-7.643a1.226,1.226,0,0,0-.637-.717l-6.791-3.06a1.355,1.355,0,0,1,0-2.393l6.791-3.06a1.225,1.225,0,0,0,.637-.717L32.6,394.6A1.1,1.1,0,0,1,34.725,394.6Z" transform="translate(-17.937 -273.784)" fill="#85dee2"/>
      <path id="Path_19596" data-name="Path 19596" d="M467.367,343.972l2.016,5.67a.909.909,0,0,0,.473.532l5.038,2.27a1,1,0,0,1,0,1.775l-5.038,2.27a.91.91,0,0,0-.473.532l-2.016,5.67a.818.818,0,0,1-1.577,0l-2.016-5.67a.909.909,0,0,0-.473-.532l-5.037-2.27a1,1,0,0,1,0-1.775l5.037-2.27a.91.91,0,0,0,.473-.532l2.016-5.67A.818.818,0,0,1,467.367,343.972Z" transform="translate(-311.616 -239.826)" fill="#85dee2"/>
      <circle id="Ellipse_3171" data-name="Ellipse 3171" cx="2.56" cy="2.56" r="2.56" transform="translate(128.379 143.873) rotate(-22.514)" fill="#13bdbf"/>
    </g>
    <g id="Group_27282" data-name="Group 27282" transform="translate(0 16.055)">
      <path id="Path_19597" data-name="Path 19597" d="M82.086,172.7a3.293,3.293,0,0,1-2.07-.731,428.047,428.047,0,0,1-42.293-40.246C9.878,101.016-2.656,75.966.467,57.265a44.644,44.644,0,0,1,83.1-19.014,44.645,44.645,0,0,1,83.181,20.242c2.847,18.3-10.289,43.022-39.047,73.486A449.114,449.114,0,0,1,84.118,172,3.29,3.29,0,0,1,82.086,172.7ZM44.971,22.648A38.17,38.17,0,0,0,7.032,57.9q-.012.161-.039.32c-2.818,16.371,9.479,40.235,35.562,69.013a424.884,424.884,0,0,0,39.564,37.916A445.958,445.958,0,0,0,122.956,127.4c26.954-28.567,39.836-52.1,37.252-68.043a3.3,3.3,0,0,1-.039-.38A38.051,38.051,0,0,0,86.641,47.041a3.3,3.3,0,0,1-6.153,0A38.292,38.292,0,0,0,44.971,22.648Z" transform="translate(0 -16.055)" fill="#19124f"/>
      <path id="Path_19598" data-name="Path 19598" d="M55.978,148.706a3.3,3.3,0,0,1-3.1-2.178c-2.141-5.927-5.072-17.534-.637-28.679a3.3,3.3,0,0,1,6.126,2.437c-2.651,6.663-2.392,15.412.712,24a3.3,3.3,0,0,1-3.1,4.418Z" transform="translate(-33.63 -83.222)" fill="#fff"/>
      <path id="Path_19599" data-name="Path 19599" d="M83.806,78.336a3.3,3.3,0,0,1-2.266-5.692,54.71,54.71,0,0,1,4.268-3.573A3.3,3.3,0,0,1,89.821,74.3a48.577,48.577,0,0,0-3.752,3.133A3.286,3.286,0,0,1,83.806,78.336Z" transform="translate(-54.229 -51.306)" fill="#fff"/>
      <g id="Group_27281" data-name="Group 27281" transform="translate(96.472 51.886)">
        <path id="Path_19600" data-name="Path 19600" d="M334.172,207.282a1.978,1.978,0,0,1-1.978-1.978v-4.049a1.978,1.978,0,0,1,3.956,0V205.3A1.978,1.978,0,0,1,334.172,207.282Z" transform="translate(-320.231 -191.356)" fill="#fff"/>
        <path id="Path_19601" data-name="Path 19601" d="M377.259,183.016a1.978,1.978,0,0,1-1.978-1.978v-4.049a1.978,1.978,0,0,1,3.956,0v4.049A1.979,1.979,0,0,1,377.259,183.016Z" transform="translate(-349.254 -175.011)" fill="#fff"/>
        <path id="Path_19602" data-name="Path 19602" d="M362.4,240.465a1.978,1.978,0,0,1-1.978-1.978v-4.049a1.978,1.978,0,1,1,3.956,0v4.049A1.978,1.978,0,0,1,362.4,240.465Z" transform="translate(-339.246 -213.708)" fill="#fff"/>
        <path id="Path_19603" data-name="Path 19603" d="M297.523,297.913a1.978,1.978,0,0,1-1.978-1.978v-4.049a1.978,1.978,0,0,1,3.956,0v4.049A1.978,1.978,0,0,1,297.523,297.913Z" transform="translate(-295.545 -252.403)" fill="#fff"/>
      </g>
    </g>
  </g>
</svg>
