<svg xmlns="http://www.w3.org/2000/svg" width="99.093" height="63.74" viewBox="0 0 99.093 63.74">
  <g id="Group_27744" data-name="Group 27744" transform="translate(17623 -13618.812)">
    <g id="handshake_1_" data-name="handshake(1)" transform="translate(-17623 13618.812)">
      <path id="Path_19737" data-name="Path 19737" d="M347.945,98.91l-19.907,9.059a1.59,1.59,0,0,0-.856,2.159l12.387,26.266a1.591,1.591,0,0,0,2.071.782l19.881-9.308Z" transform="translate(-263.604 -97.737)" fill="#13bdbf"/>
      <path id="Path_19738" data-name="Path 19738" d="M41.5,110.656l-18.1-10.406L8.46,128.863l18.017,10.083a1.591,1.591,0,0,0,2.189-.647l13.417-25.543a1.6,1.6,0,0,0-.582-2.1Z" transform="translate(-7.287 -98.815)" fill="#ff4a61"/>
      <path id="Path_19739" data-name="Path 19739" d="M167.472,204.525l-20.837-19.7a6.209,6.209,0,0,0-2.679-1.561l-9.724-5a9.977,9.977,0,0,0-6.843-.145L116.52,198.813l26.725,23.2a3.634,3.634,0,1,0,4.771-5.484l1.576,1.363a3.633,3.633,0,1,0,4.753-5.5l1.595,1.378a3.635,3.635,0,0,0,4.772-5.481l1.929,1.667a3.637,3.637,0,0,0,5.137-.387l.061-.07A3.526,3.526,0,0,0,167.472,204.525Z" transform="translate(-94.23 -161.06)" fill="#fff"/>
      <path id="Path_19740" data-name="Path 19740" d="M209.179,163.477l-.01,0-1.554.662a11.428,11.428,0,0,1-6.173-.219l-5.19-1.458a6.879,6.879,0,0,0-3.934.064l-5.008,1.583A6.892,6.892,0,0,0,183.05,168l-4.1,11.217.328.147a6.639,6.639,0,0,0,6.374-.481,6.455,6.455,0,0,0,2.873-4.772q.015-.138.023-.281s.61-3.607,3.291-3.617l2.347.661a6.209,6.209,0,0,1,2.679,1.561l18.283,17.5.033-.039a8.939,8.939,0,0,0,4.5-4.147Z" transform="translate(-144.461 -148.667)" fill="#fff"/>
      <path id="Path_19743" data-name="Path 19743" d="M205.022,369.256l-.416-.3a3.056,3.056,0,0,0-4.266.694l-1.675,2.323a3.058,3.058,0,0,0,.694,4.268l.416.3a3.055,3.055,0,0,0,4.266-.694l1.9-2.685A3.054,3.054,0,0,0,205.022,369.256Z" transform="translate(-159.86 -314.548)" fill="#fff"/>
      <path id="Path_19744" data-name="Path 19744" d="M178.636,341.447l-.414-.3a3.056,3.056,0,0,0-4.256.68c-.006,0-.008.01-.012.014l-2.8,3.885a3.058,3.058,0,0,0,.694,4.268l.416.3a3.056,3.056,0,0,0,4.266-.694l2.8-3.885A3.056,3.056,0,0,0,178.636,341.447Z" transform="translate(-137.725 -292.173)" fill="#fff"/>
      <path id="Path_19745" data-name="Path 19745" d="M152.252,313.639l-.416-.3a3.056,3.056,0,0,0-4.24.655l-3.949,5.483a3.056,3.056,0,0,0,.694,4.266l.414.3a3.058,3.058,0,0,0,4.268-.694l3.924-5.446A3.055,3.055,0,0,0,152.252,313.639Z" transform="translate(-115.591 -269.799)" fill="#fff"/>
      <path id="Path_19746" data-name="Path 19746" d="M126.112,284.055l-.416-.3a3.058,3.058,0,0,0-4.268.694l-5.3,7.353a3.055,3.055,0,0,0,.692,4.266l.416.3a3.058,3.058,0,0,0,4.268-.694l5.3-7.353A3.058,3.058,0,0,0,126.112,284.055Z" transform="translate(-93.454 -245.997)" fill="#fff"/>
      <g id="Group_27729" data-name="Group 27729" transform="translate(0 0)">
        <path id="Path_19747" data-name="Path 19747" d="M93.565,131.6a1.172,1.172,0,0,0-1.586.483l-.735,1.38a1.172,1.172,0,0,0,2.069,1.1l.735-1.38A1.172,1.172,0,0,0,93.565,131.6Z" transform="translate(-73.783 -123.928)" fill="#19124f"/>
        <path id="Path_19748" data-name="Path 19748" d="M59.011,154.546a1.172,1.172,0,0,0-1.586.483l-6.158,11.554a1.172,1.172,0,1,0,2.069,1.1l6.158-11.554A1.173,1.173,0,0,0,59.011,154.546Z" transform="translate(-41.618 -142.39)" fill="#19124f"/>
        <path id="Path_19749" data-name="Path 19749" d="M101.426,122.516,87.86,93.582a1.172,1.172,0,0,0-1.547-.569L66.43,102.06a2.764,2.764,0,0,0-1.455,3.737l.621,1.317-.34.145a10.274,10.274,0,0,1-5.5-.224l-5.189-1.458a8.028,8.028,0,0,0-4.605.074l-5.008,1.584a8.036,8.036,0,0,0-2.761,1.523,11.032,11.032,0,0,0-4.405-.408l.5-.958a2.769,2.769,0,0,0-1.01-3.646l-.025-.015L19.16,93.325a1.172,1.172,0,0,0-1.624.474L2.59,122.413a1.172,1.172,0,0,0,.467,1.566l18.014,10.08a2.746,2.746,0,0,0,1.352.358,2.781,2.781,0,0,0,.787-.115,2.741,2.741,0,0,0,1.665-1.366l.166-.317,1.761,1.773-2.619,3.635a4.23,4.23,0,0,0,.959,5.9l.416.3a4.206,4.206,0,0,0,2.467.8,4.264,4.264,0,0,0,.78-.073c0,.032.006.065.011.1a4.2,4.2,0,0,0,1.7,2.753l.416.3a4.206,4.206,0,0,0,2.467.8,4.264,4.264,0,0,0,.78-.073c0,.032.006.065.011.1a4.2,4.2,0,0,0,1.7,2.753l.416.3a4.207,4.207,0,0,0,2.467.8,4.266,4.266,0,0,0,.782-.074,4.214,4.214,0,0,0,1.712,2.851l.416.3a4.233,4.233,0,0,0,5.9-.959l1.2-1.671,1.929,1.541a4.8,4.8,0,0,0,7.908-3.232,4.8,4.8,0,0,0,6.347-4.12,4.8,4.8,0,0,0,6.331-3.957,4.752,4.752,0,0,0,1.921.407c.121,0,.243,0,.365-.014a4.8,4.8,0,0,0,3.3-1.664l.06-.07a4.672,4.672,0,0,0,1.115-3.584,4.83,4.83,0,0,0-1.676-3.111l-1.169-1.009a11.787,11.787,0,0,0,2.286-2.08,2.747,2.747,0,0,0,2.347,1.323,2.778,2.778,0,0,0,1.106-.231l.031-.014,19.881-9.306a1.176,1.176,0,0,0,.675-1.114,1.226,1.226,0,0,0-.124-.471Zm-78.486,9.06a.715.715,0,0,1-.982.292L5.2,122.488,19.049,95.967l16.767,9.642a.7.7,0,0,1,.271.935ZM29.56,141.9a1.887,1.887,0,0,1-2.63.427l-.416-.3a1.884,1.884,0,0,1-.427-2.63l5.3-7.353a1.886,1.886,0,0,1,2.63-.427l.416.3a1.884,1.884,0,0,1,.427,2.63Zm5.378,3.873a1.888,1.888,0,0,1-2.632.427l-.416-.3a1.884,1.884,0,0,1-.427-2.63l3.923-5.445a1.887,1.887,0,0,1,2.63-.428l.416.3a1.887,1.887,0,0,1,.429,2.63Zm5.374,3.873a1.887,1.887,0,0,1-2.63.428l-.416-.3a1.884,1.884,0,0,1-.427-2.63l2.8-3.885a1.887,1.887,0,0,1,2.63-.427l.416.3a1.887,1.887,0,0,1,.427,2.63Zm7.05,1.55-1.674,2.323a1.887,1.887,0,0,1-2.63.428l-.416-.3a1.887,1.887,0,0,1-.427-2.63l1.674-2.323a1.886,1.886,0,0,1,2.63-.428l.416.3a1.887,1.887,0,0,1,.428,2.63Zm25.973-18.433-11.5-10.852a.743.743,0,0,0-1.264.528,4.194,4.194,0,0,0,1.081,2.59l13.284,12.229a2.34,2.34,0,0,1,.814,1.675,2.448,2.448,0,0,1-.618,1.7l-.012.014a2.472,2.472,0,0,1-1.7.858,2.431,2.431,0,0,1-1.788-.591l-7.057-6.1a1.205,1.205,0,0,0-1.667.062,1.172,1.172,0,0,0,.1,1.681l.013.012,5.139,4.44a2.461,2.461,0,1,1-3.226,3.717l-5.145-4.444a1.172,1.172,0,1,0-1.533,1.774l3.548,3.065a2.461,2.461,0,1,1-3.218,3.725l-3.511-3.032a1.205,1.205,0,0,0-1.667.062,1.172,1.172,0,0,0,.1,1.681l1.952,1.686a2.462,2.462,0,1,1-3.221,3.724l-2.306-1.844a4.233,4.233,0,0,0-1.626-4.463l-.416-.3a4.2,4.2,0,0,0-2.181-.782,4.235,4.235,0,0,0-1.655-4.353l-.416-.3a4.2,4.2,0,0,0-2.181-.782A4.235,4.235,0,0,0,39.8,135.8l-.416-.3a4.2,4.2,0,0,0-2.028-.77,4.226,4.226,0,0,0-1.557-4.711l-.416-.3a4.234,4.234,0,0,0-5.9.959l-1.29,1.79-2.007-2.02,10.231-19.48a9.923,9.923,0,0,1,4.079-.214,8.139,8.139,0,0,0-.533,1.041l-4.129,11.3a1.173,1.173,0,0,0,.637,1.436l.329.147a7.762,7.762,0,0,0,7.5-.577,7.631,7.631,0,0,0,3.39-5.634v0a3.839,3.839,0,0,1,1.565-2.713,1.043,1.043,0,0,1,.7-.043l1.909.539a5.03,5.03,0,0,1,2.171,1.264l2.914,2.881c.692.684,1.37.753,1.84.386a1.172,1.172,0,0,0,.105-1.76l-3.209-3.173a7.4,7.4,0,0,0-3.185-1.855l-2.347-.662a1.069,1.069,0,0,0-.323-.044,4.171,4.171,0,0,0-3.677,2.428,7.794,7.794,0,0,0-.72,1.946,3.056,3.056,0,0,0-.059.378l-.02.207A5.3,5.3,0,0,1,43,122.145a5.466,5.466,0,0,1-4.6.63l3.723-10.081a5.7,5.7,0,0,1,3.535-3.22l5.008-1.584a5.69,5.69,0,0,1,3.263-.053l5.189,1.459a12.537,12.537,0,0,0,6.738.236l.738-.292,9.758,20.69a8.073,8.073,0,0,1-3.02,2.834Zm7.4-1.824a1.186,1.186,0,0,1-1.576-.568L67.488,105.63a1.329,1.329,0,0,1,.039-1.21,1.373,1.373,0,0,1,.643-.576l18.056-8.217,12.587,26.848Z" transform="translate(-2.457 -92.907)" fill="#19124f"/>
      </g>
    </g>
  </g>
</svg>
