<svg xmlns="http://www.w3.org/2000/svg" width="78.291" height="78.291" viewBox="0 0 78.291 78.291">
  <g id="Group_27745" data-name="Group 27745" transform="translate(18425.506 -13536.494)">
    <path id="Path_19763" data-name="Path 19763" d="M-18350.324,13549l5.063-.93,5.508-2.337,4.289-1.16,2.66,3.233h7.275l2.875,1.361.281,2.65-1.455,2.32-24.111.565-2.385-.565a9.975,9.975,0,0,1-.432-1.41v-2.892Z" transform="translate(-59.309 -6.412)" fill="#ff4a61"/>
    <g id="Group_27742" data-name="Group 27742" transform="translate(-18425.506 13536.494)">
      <g id="notes_1_" data-name="notes(1)" transform="translate(0 0)">
        <g id="Group_27731" data-name="Group 27731" transform="translate(21.848 22.835)">
          <g id="Group_27730" data-name="Group 27730" transform="translate(0 0)">
            <path id="Path_19750" data-name="Path 19750" d="M156.781,149.333H129.515a1.636,1.636,0,0,0,0,3.262h27.266a1.636,1.636,0,0,0,0-3.262Z" transform="translate(-128 -149.333)" fill="#19124f"/>
            <path id="Path_19759" data-name="Path 19759" d="M148.624,149.333H129.085c-.6,0-1.085.731-1.085,1.631s.486,1.631,1.085,1.631h19.538c.6,0,1.085-.731,1.085-1.631S149.223,149.333,148.624,149.333Z" transform="translate(-128 -137.352)" fill="#19124f"/>
          </g>
        </g>
        <g id="Group_27739" data-name="Group 27739" transform="translate(7.54 57.693)">
          <g id="Group_27738" data-name="Group 27738" transform="translate(0 0)">
            <path id="Path_19754" data-name="Path 19754" d="M46.622,128a3.955,3.955,0,1,0,3.955,3.955A3.959,3.959,0,0,0,46.622,128Zm0,5.273a1.318,1.318,0,1,1,1.318-1.318A1.319,1.319,0,0,1,46.622,133.273Z" transform="translate(-42.667 -128)" fill="#13bdbf"/>
          </g>
        </g>
        <g id="Group_27741" data-name="Group 27741">
          <g id="Group_27740" data-name="Group 27740">
            <path id="Path_19755" data-name="Path 19755" d="M58.718,23.791V11.417a4.9,4.9,0,0,0-4.893-4.893H45.37a4.884,4.884,0,0,0-4.593-3.262H34.99a6.49,6.49,0,0,0-11.261,0H17.942a4.884,4.884,0,0,0-4.593,3.262H4.893A4.9,4.9,0,0,0,0,11.417V73.4a4.9,4.9,0,0,0,4.893,4.893H53.825A4.9,4.9,0,0,0,58.718,73.4ZM16.311,8.155a1.632,1.632,0,0,1,1.631-1.631h6.824A1.636,1.636,0,0,0,26.3,5.438a3.235,3.235,0,0,1,6.113,0,1.631,1.631,0,0,0,1.536,1.086h6.824a1.632,1.632,0,0,1,1.631,1.631V9.786h-26.1ZM55.456,73.4a1.632,1.632,0,0,1-1.631,1.631H4.893A1.632,1.632,0,0,1,3.262,73.4V11.417A1.632,1.632,0,0,1,4.893,9.786h8.155v1.631a1.632,1.632,0,0,0,1.631,1.631H44.039a1.632,1.632,0,0,0,1.631-1.631V9.786h8.155a1.632,1.632,0,0,1,1.631,1.631V27.344c-.1,0,.042,4.492,0,4.562.1-.064-.084-1.034,0,0V73.4Z" fill="#19124f"/>
            <rect id="Rectangle_1981" data-name="Rectangle 1981" width="15.709" height="2.618" rx="1.309" transform="translate(21.692 46.127)" fill="#19124f"/>
            <path id="Path_19760" data-name="Path 19760" d="M-18270.166,13666.313l2.422-11.085,26.023-26.127,7.494-6.3,5.068.742,2.316,2.11,1.533,3.825-2.586,6.513-29.762,28.145-12.068,3.62Z" transform="translate(18302.254 -13604.97)" fill="#13bdbf"/>
            <path id="Path_19758" data-name="Path 19758" d="M183.886,78.961a8.494,8.494,0,0,0-6.045,2.505l-4.5,4.5-.476.476v24.182l12.559-12.559s.007,0,.01-.007,0-.007.007-.01l4.492-4.492a8.548,8.548,0,0,0-6.048-14.595Zm-11.019,7.48-12.3,12.3c-.228-.121.013.018,0,0,.006-.017-3.074,3.047-3.057,3.057l-9.786,9.786c.238.139-1.559,3.265-1.412,3.262l-2.447,9.786c.293.17-.264,3.755,1.272,3.262a1.478,1.478,0,0,0,.395-.052l13.048-3.262c.039-.01.065-.046.1-.059a1.639,1.639,0,0,0,.551-.31c.029-.026.075-.029.1-.059l13.525-13.528S172.867,86.463,172.867,86.441ZM149.615,115.1a10.317,10.317,0,0,1,6.691,6.691l-8.925,2.234Zm9.437,4.73a13.486,13.486,0,0,0-7.477-7.477L174.5,89.426l7.477,7.477Zm28.576-28.576L184.281,94.6,176.8,87.119l3.347-3.35a5.288,5.288,0,0,1,7.477,7.48Z" transform="translate(-114.149 -62.65)" fill="#fff"/>
          </g>
          <rect id="Rectangle_1982" data-name="Rectangle 1982" width="15.709" height="3.491" rx="1.745" transform="translate(21.691 61.836)" fill="#19124f"/>
        </g>
      </g>
      <path id="Path_19756" data-name="Path 19756" d="M11.582,18.212l4.827-5.233,1.061,1.027-5.888,6.26-3.946-3.8L8.7,15.442Z" transform="translate(-1.128 9.156)" fill="#13bdbf"/>
      <path id="Path_19761" data-name="Path 19761" d="M11.582,18.212l4.827-5.233,1.061,1.027-5.888,6.26-3.946-3.8L8.7,15.442Z" transform="translate(-1.128 19.691)" fill="#13bdbf"/>
      <path id="Path_19762" data-name="Path 19762" d="M11.582,18.212l4.827-5.233,1.061,1.027-5.888,6.26-3.946-3.8L8.7,15.442Z" transform="translate(-1.128 31.052)" fill="#13bdbf"/>
    </g>
  </g>
</svg>
