<svg xmlns="http://www.w3.org/2000/svg" width="75.584" height="85.989" viewBox="0 0 75.584 85.989">
  <g id="Group_27743" data-name="Group 27743" transform="translate(16610.566 -13517.101)">
    <g id="open-box" transform="translate(-16608.523 13529.124)">
      <path id="Path_19725" data-name="Path 19725" d="M79,253.47V275.88l28.208,13.634V253Z" transform="translate(-69.967 -216.487)" fill="#fff"/>
      <path id="Path_19727" data-name="Path 19727" d="M259,253v36.513l28.208-13.634V253.47Z" transform="translate(-221.759 -216.487)" fill="#fff"/>
      <path id="Path_19728" data-name="Path 19728" d="M294.309,35.1l-6.6,12.668L258.94,37.932,264.05,26Z" transform="translate(-221.708 -25.06)" fill="#fff"/>
      <path id="Path_19729" data-name="Path 19729" d="M287.707,164.94,258.94,179.306l5.991,11.982,28.625-15.221Z" transform="translate(-221.708 -142.227)" fill="#fff"/>
      <path id="Path_19730" data-name="Path 19730" d="M132.9,111.981l-28.767,14.366L75.36,111.981l28.769-9.841Z" transform="translate(-66.897 -89.268)" fill="#dbdbe6"/>
      <path id="Path_19731" data-name="Path 19731" d="M57.622,29.91l6.029,11.319L34.882,51.07,27.36,38.211Z" transform="translate(-26.419 -28.358)" fill="#fff"/>
      <path id="Path_19732" data-name="Path 19732" d="M43.888,164.94,38.04,176.066l28.626,15.221,5.991-11.982Z" transform="translate(-35.426 -142.227)" fill="#fff"/>
      <g id="Group_27728" data-name="Group 27728" transform="translate(0 0)">
        <path id="Path_19736" data-name="Path 19736" d="M94.229,29.148l-30.261-9.1a.94.94,0,0,0-1.135.53L58.5,30.7,53.39,21.114a.94.94,0,0,0-1.079-.465l-30.262,8.3a.94.94,0,0,0-.563,1.382l7.259,12.41L23.14,53.405a.94.94,0,0,0,.391,1.268l5.92,3.148V79.4a.941.941,0,0,0,.531.846l28.2,13.634a.941.941,0,0,0,.819,0L87.2,80.242a.95.95,0,0,0,.541-.846V57.81l5.9-3.137a.94.94,0,0,0,.391-1.268l-5.62-10.691,6.375-12.231a.94.94,0,0,0-.563-1.335Zm-70.5,1.291,28.356-7.777,5.156,9.682-27,9.234ZM25.24,53.452l4.985-9.483L57.326,57.5,52.187,67.781ZM57.658,91.53,31.33,78.806V58.82L52.155,69.894a.94.94,0,0,0,1.283-.41l4.22-8.439Zm.931-35.5L32.25,42.879l26.338-9.009,26.337,9.009ZM85.865,78.806,59.538,91.531V61.084l4.2,8.4a.94.94,0,0,0,1.282.41L85.865,58.81Zm6.071-25.354L64.989,67.781,59.849,57.5l27.1-13.534ZM86.9,41.565,59.851,32.314l4.38-10.228L92.6,30.622Z" transform="translate(-21.357 -20.004)" fill="#19124f"/>
      </g>
    </g>
    <g id="tshirt_2_" data-name="tshirt(2)" transform="translate(-16593.738 13517.829)">
      <path id="Path_19764" data-name="Path 19764" d="M22.377,9.472l-9.864-.826-.395-1.537a2.558,2.558,0,0,0,.761-.6,2.491,2.491,0,0,0,.382-2.66,2.6,2.6,0,0,0-.56-.8,2.685,2.685,0,0,0-.792-.531,2.715,2.715,0,0,0-.931-.224A2.673,2.673,0,0,0,10,2.42a2.6,2.6,0,0,0-.857.466,2.525,2.525,0,0,0-.6.717,2.478,2.478,0,0,0-.235,1.84.641.641,0,0,0,.113.231.667.667,0,0,0,.188.166.68.68,0,0,0,.237.087.673.673,0,0,0,.261-.008.654.654,0,0,0,.236-.106.634.634,0,0,0,.168-.18.62.62,0,0,0,.073-.484,1.24,1.24,0,0,1,.147-.968,1.27,1.27,0,0,1,.337-.361,1.308,1.308,0,0,1,.472-.213,1.345,1.345,0,0,1,.522-.017,1.359,1.359,0,0,1,.475.174,1.333,1.333,0,0,1,.375.333,1.282,1.282,0,0,1,.225.462,1.24,1.24,0,0,1-.148.967,1.27,1.27,0,0,1-.337.361,1.308,1.308,0,0,1-.471.213.654.654,0,0,0-.236.106.635.635,0,0,0-.168.18.619.619,0,0,0-.074.483l.533,2.07L2.881,13.973a.633.633,0,0,0-.188.173.618.618,0,0,0-.106.467.633.633,0,0,0,.095.237.66.66,0,0,0,.182.184.683.683,0,0,0,.483.11.658.658,0,0,0,.243-.088l8.561-5.193,10.121.878a.669.669,0,0,0,.259-.028.655.655,0,0,0,.219-.118.635.635,0,0,0,.157-.19.622.622,0,0,0,.041-.495.642.642,0,0,0-.124-.214.663.663,0,0,0-.2-.154.674.674,0,0,0-.251-.072Z" transform="translate(7.67 1.771)" fill="#ac8168"/>
      <path id="Path_19765" data-name="Path 19765" d="M36.1,6.82l-8.238-3.34-6.84-.392A4.452,4.452,0,0,1,21.116,4.7a4.989,4.989,0,0,1-.462,1.584A4.157,4.157,0,0,1,19.7,7.577a3.133,3.133,0,0,1-1.385.731,3.247,3.247,0,0,1-1.585-.045,4.467,4.467,0,0,1-1.473-.728,5.319,5.319,0,0,1-1.178-1.205,4.576,4.576,0,0,1-.7-1.476L7.494,8.183l-5.858,5.94,6.224,5.74,1.95-2.819,4.727,18.083,20.144-4.651L30.16,12.583,33.2,14.011Z" transform="translate(2.613 7.63)" fill="#13bdbf"/>
      <path id="Path_19766" data-name="Path 19766" d="M18.854,7.871a.654.654,0,0,0-.236.106.635.635,0,0,0-.168.18.619.619,0,0,0-.074.483l.525,2.039-3.067,1.86-6.012,2.7q-.027.012-.053.027t-.051.031q-.024.017-.047.036t-.044.04L3.767,21.311a.609.609,0,0,0-.177.451A.625.625,0,0,0,3.646,22a.649.649,0,0,0,.151.208l6.224,5.738a.667.667,0,0,0,.114.084.677.677,0,0,0,.549.06.654.654,0,0,0,.128-.057.636.636,0,0,0,.111-.082.621.621,0,0,0,.091-.1l1.137-1.637L16.521,42.9a.618.618,0,0,0,.111.224.652.652,0,0,0,.185.161.674.674,0,0,0,.491.075l20.139-4.649a.654.654,0,0,0,.233-.1.631.631,0,0,0,.167-.176.609.609,0,0,0,.086-.224.6.6,0,0,0-.01-.248l-4.188-16.6,1.8.844a.656.656,0,0,0,.521.02.648.648,0,0,0,.119-.059.638.638,0,0,0,.1-.081.626.626,0,0,0,.084-.1.615.615,0,0,0,.061-.116l2.9-7.189a.615.615,0,0,0,.045-.245.623.623,0,0,0-.053-.236.64.64,0,0,0-.139-.2.659.659,0,0,0-.214-.139l-8.24-3.341a.666.666,0,0,0-.136-.039.671.671,0,0,0-.141-.01L23.8,10.7l-3.626-.315L19.788,8.88a2.558,2.558,0,0,0,.761-.6,2.491,2.491,0,0,0,.382-2.66,2.6,2.6,0,0,0-.56-.8,2.685,2.685,0,0,0-.792-.531,2.715,2.715,0,0,0-.931-.224,2.673,2.673,0,0,0-.977.124,2.6,2.6,0,0,0-.857.466,2.525,2.525,0,0,0-.6.717,2.478,2.478,0,0,0-.235,1.84.641.641,0,0,0,.113.231.667.667,0,0,0,.188.166.68.68,0,0,0,.237.087.673.673,0,0,0,.261-.008.654.654,0,0,0,.236-.106.634.634,0,0,0,.168-.18.62.62,0,0,0,.073-.484,1.24,1.24,0,0,1,.147-.968,1.27,1.27,0,0,1,.337-.361,1.308,1.308,0,0,1,.472-.213,1.345,1.345,0,0,1,.522-.017,1.359,1.359,0,0,1,.475.174,1.333,1.333,0,0,1,.375.333,1.282,1.282,0,0,1,.225.462,1.24,1.24,0,0,1-.148.967,1.27,1.27,0,0,1-.337.361A1.308,1.308,0,0,1,18.854,7.871Zm.967,3.763,3.4.3a3.07,3.07,0,0,1-.568,2.15,3.167,3.167,0,0,1-.811.778,3.262,3.262,0,0,1-1.075.462,3.358,3.358,0,0,1-3.191-.962,3.209,3.209,0,0,1-.632-.978ZM37.871,14.8l-2.406,5.979-2.409-1.132a.672.672,0,0,0-.535-.016.651.651,0,0,0-.159.092.633.633,0,0,0-.126.131.615.615,0,0,0-.1.51l4.371,17.285L17.621,42,13.057,24.526a.629.629,0,0,0-.073-.171.65.65,0,0,0-.117-.141.668.668,0,0,0-.153-.1.679.679,0,0,0-.371-.066.666.666,0,0,0-.18.045.647.647,0,0,0-.159.092.626.626,0,0,0-.127.135l-1.522,2.2-5.18-4.778,5.326-5.4,5.269-2.362a4.527,4.527,0,0,0,.91,1.314,4.678,4.678,0,0,0,1.277.91,4.728,4.728,0,0,0,3.127.355,4.592,4.592,0,0,0,1.477-.626,4.459,4.459,0,0,0,1.128-1.052,4.32,4.32,0,0,0,.862-2.928l5.806-.2Z" fill="#19124f"/>
      <path id="Path_19767" data-name="Path 19767" d="M6.4,1.442a1.54,1.54,0,0,0-.285-.53A1.614,1.614,0,0,0,5.659.532,1.651,1.651,0,0,0,4.475.362a1.617,1.617,0,0,0-.457.181,1.563,1.563,0,0,0-.364.3,1.533,1.533,0,0,0-.255.383,1.5,1.5,0,0,0-.129.442,1.6,1.6,0,0,0-.328-.336A1.652,1.652,0,0,0,1.57,1.032a1.607,1.607,0,0,0-.553.242,1.55,1.55,0,0,0-.4.408A1.508,1.508,0,0,0,.388,2.2a1.487,1.487,0,0,0-.01.582A2.11,2.11,0,0,0,1.055,4,8.181,8.181,0,0,0,2.421,5.084c.491.322.978.593,1.342.784s.605.3.605.3.167-.2.407-.533.554-.783.847-1.283A7.851,7.851,0,0,0,6.35,2.8,1.985,1.985,0,0,0,6.4,1.442Z" transform="translate(21.02 25.288)" fill="#fff"/>
    </g>
    <g id="tshirt_2_2" data-name="tshirt(2)" transform="translate(-16580.822 13520.583)">
      <path id="Path_19764-2" data-name="Path 19764" d="M19.7,7.493l-8.684-.452-.335-1.213a2.346,2.346,0,0,0,.676-.492,2.042,2.042,0,0,0,.418-.649,1.827,1.827,0,0,0,.13-.733,1.8,1.8,0,0,0-.188-.742,1.983,1.983,0,0,0-.487-.624,2.3,2.3,0,0,0-.695-.407,2.562,2.562,0,0,0-.82-.159,2.634,2.634,0,0,0-.864.119,2.474,2.474,0,0,0-.76.389,2.18,2.18,0,0,0-.535.583,1.906,1.906,0,0,0-.266.707,1.781,1.781,0,0,0,.045.762.472.472,0,0,0,.1.181.547.547,0,0,0,.165.129.625.625,0,0,0,.209.064.66.66,0,0,0,.23-.012.631.631,0,0,0,.209-.089.557.557,0,0,0,.15-.147.482.482,0,0,0,.078-.184.446.446,0,0,0-.009-.2.892.892,0,0,1-.018-.4A.966.966,0,0,1,8.6,3.548a1.116,1.116,0,0,1,.3-.294,1.262,1.262,0,0,1,.418-.179,1.319,1.319,0,0,1,.461-.024,1.248,1.248,0,0,1,.417.129,1.091,1.091,0,0,1,.329.258.942.942,0,0,1,.194.363.892.892,0,0,1,.017.4.966.966,0,0,1-.156.369,1.116,1.116,0,0,1-.3.294,1.262,1.262,0,0,1-.418.179.631.631,0,0,0-.209.089.557.557,0,0,0-.15.147.482.482,0,0,0-.078.184.444.444,0,0,0,.009.2L9.89,7.3,2.483,11.468a.566.566,0,0,0-.167.141.485.485,0,0,0-.09.179.443.443,0,0,0-.007.193.457.457,0,0,0,.082.186.529.529,0,0,0,.159.142.616.616,0,0,0,.2.075.663.663,0,0,0,.222,0,.641.641,0,0,0,.215-.075l7.586-4.3,8.909.487a.658.658,0,0,0,.228-.027.626.626,0,0,0,.194-.1.548.548,0,0,0,.14-.154.471.471,0,0,0,.066-.194.442.442,0,0,0-.025-.2.475.475,0,0,0-.107-.167.55.55,0,0,0-.172-.118.627.627,0,0,0-.22-.052Z" transform="translate(6.787 1.566)" fill="#ac8168"/>
      <path id="Path_19765-2" data-name="Path 19765" d="M31.8,5.376,24.592,2.9l-6.022-.17a3.173,3.173,0,0,1,.068,1.28,3.781,3.781,0,0,1-.421,1.266,3.519,3.519,0,0,1-.853,1.042,2.989,2.989,0,0,1-1.227.608,3.163,3.163,0,0,1-1.4,0,3.976,3.976,0,0,1-1.292-.547,4.249,4.249,0,0,1-1.029-.931,3.344,3.344,0,0,1-.605-1.156L6.605,7.051l-5.2,4.827,5.443,4.4,1.735-2.266L12.6,28.136l17.681-4.082L26.517,10.06l2.657,1.065Z" transform="translate(2.271 6.048)" fill="#ff4a61"/>
      <path id="Path_19766-2" data-name="Path 19766" d="M16.652,6.613a.631.631,0,0,0-.209.089.557.557,0,0,0-.15.147.482.482,0,0,0-.078.184.444.444,0,0,0,.009.2l.446,1.609-2.72,1.54L8.63,12.648l-.047.022-.045.026-.042.029-.039.033-5.2,4.829a.5.5,0,0,0-.122.17.441.441,0,0,0,.012.377.5.5,0,0,0,.132.161l5.443,4.4a.562.562,0,0,0,.1.064.61.61,0,0,0,.113.043.646.646,0,0,0,.121.021A.664.664,0,0,0,9.3,22.8a.631.631,0,0,0,.113-.048.586.586,0,0,0,.1-.067A.535.535,0,0,0,9.6,22.6l1.012-1.316,3.71,13.032a.446.446,0,0,0,.1.173.53.53,0,0,0,.161.122.619.619,0,0,0,.2.06A.661.661,0,0,0,15,34.656l17.675-4.08a.632.632,0,0,0,.205-.087.554.554,0,0,0,.148-.142.468.468,0,0,0,.078-.178.421.421,0,0,0-.006-.194L29.623,17l1.571.629a.6.6,0,0,0,.111.033.631.631,0,0,0,.116.012.644.644,0,0,0,.231-.04.624.624,0,0,0,.106-.049.587.587,0,0,0,.091-.066.541.541,0,0,0,.075-.081.5.5,0,0,0,.055-.093L34.609,11.6a.455.455,0,0,0,.043-.2.441.441,0,0,0-.043-.186.482.482,0,0,0-.12-.156.56.56,0,0,0-.186-.106l-7.214-2.48q-.029-.01-.059-.017t-.06-.011l-.062-.005h-.062l-5.856.317L17.8,8.584,17.468,7.4a2.346,2.346,0,0,0,.676-.492,2.042,2.042,0,0,0,.418-.649,1.827,1.827,0,0,0,.13-.733A1.8,1.8,0,0,0,18.5,4.78a1.983,1.983,0,0,0-.487-.624,2.3,2.3,0,0,0-.695-.407,2.562,2.562,0,0,0-.82-.159,2.634,2.634,0,0,0-.864.119,2.474,2.474,0,0,0-.76.389,2.18,2.18,0,0,0-.535.583,1.906,1.906,0,0,0-.266.707,1.781,1.781,0,0,0,.045.762.472.472,0,0,0,.1.181.547.547,0,0,0,.165.129.625.625,0,0,0,.209.064.66.66,0,0,0,.23-.012.631.631,0,0,0,.209-.089.557.557,0,0,0,.15-.147.482.482,0,0,0,.078-.184.446.446,0,0,0-.009-.2.892.892,0,0,1-.018-.4.966.966,0,0,1,.155-.369,1.116,1.116,0,0,1,.3-.294,1.262,1.262,0,0,1,.418-.179,1.319,1.319,0,0,1,.461-.024,1.248,1.248,0,0,1,.417.129A1.091,1.091,0,0,1,17.314,5a.942.942,0,0,1,.194.363.892.892,0,0,1,.017.4.966.966,0,0,1-.156.369,1.116,1.116,0,0,1-.3.294A1.262,1.262,0,0,1,16.652,6.613Zm.821,2.97,3,.165a2.222,2.222,0,0,1-.087.91,2.458,2.458,0,0,1-.433.807,2.826,2.826,0,0,1-.721.634,3.157,3.157,0,0,1-.951.388,3.286,3.286,0,0,1-1.039.071,3.139,3.139,0,0,1-.964-.245,2.791,2.791,0,0,1-.8-.523,2.417,2.417,0,0,1-.55-.763Zm15.859,2.133L31.148,16.5l-2.1-.844a.621.621,0,0,0-.155-.04.659.659,0,0,0-.315.038.618.618,0,0,0-.141.076.558.558,0,0,0-.112.106.5.5,0,0,0-.073.126.453.453,0,0,0-.031.138.435.435,0,0,0,.014.141l3.641,13.519L15.289,33.586,11.416,19.933a.454.454,0,0,0-.063-.133.5.5,0,0,0-.1-.109.57.57,0,0,0-.134-.079.629.629,0,0,0-.159-.043.663.663,0,0,0-.167,0,.655.655,0,0,0-.159.039.612.612,0,0,0-.14.076.547.547,0,0,0-.112.109l-1.354,1.77L4.5,17.9,9.222,13.51l4.662-1.982a3.439,3.439,0,0,0,.791,1.023,3.96,3.96,0,0,0,1.118.695,4.431,4.431,0,0,0,1.328.319,4.626,4.626,0,0,0,1.423-.1,4.448,4.448,0,0,0,1.306-.527,4,4,0,0,0,1-.857,3.487,3.487,0,0,0,.622-1.1,3.142,3.142,0,0,0,.165-1.244l5.116-.278Z" fill="#19124f"/>
      <path id="Path_19767-2" data-name="Path 19767" d="M5.617,1.129A1.126,1.126,0,0,0,5.373.717a1.322,1.322,0,0,0-.395-.29A1.52,1.52,0,0,0,4.484.286,1.618,1.618,0,0,0,3.94.318a1.571,1.571,0,0,0-.4.153,1.426,1.426,0,0,0-.323.241,1.272,1.272,0,0,0-.228.307,1.126,1.126,0,0,0-.117.351,1.264,1.264,0,0,0-.285-.258A1.441,1.441,0,0,0,2.224.94,1.564,1.564,0,0,0,1.815.868a1.625,1.625,0,0,0-.434.041,1.553,1.553,0,0,0-.488.2,1.369,1.369,0,0,0-.359.33,1.176,1.176,0,0,0-.2.416,1.057,1.057,0,0,0-.014.459A1.552,1.552,0,0,0,.9,3.256a6.762,6.762,0,0,0,1.19.827c.428.243.853.446,1.17.589s.528.224.528.224.148-.164.362-.428.493-.629.756-1.028A6.189,6.189,0,0,0,5.563,2.2,1.421,1.421,0,0,0,5.617,1.129Z" transform="translate(18.398 20.237)" fill="#fff"/>
    </g>
    <g id="tshirt_2_3" data-name="tshirt(2)" transform="translate(-16610.566 13517.101)">
      <path id="Path_19764-3" data-name="Path 19764" d="M22.948,8.777l-10.08-.39-.425-1.419a2.676,2.676,0,0,0,.769-.589,2.365,2.365,0,0,0,.465-.77,2.138,2.138,0,0,0-.112-1.732,2.367,2.367,0,0,0-.584-.725,2.7,2.7,0,0,0-.818-.467,2.958,2.958,0,0,0-.956-.174,3,3,0,0,0-1,.154,2.814,2.814,0,0,0-.87.469,2.5,2.5,0,0,0-.6.694,2.232,2.232,0,0,0-.287.836,2.124,2.124,0,0,0,.076.894.565.565,0,0,0,.119.211.647.647,0,0,0,.195.148.726.726,0,0,0,.244.072.755.755,0,0,0,.267-.018.717.717,0,0,0,.24-.108.638.638,0,0,0,.17-.175.563.563,0,0,0,.084-.218.531.531,0,0,0-.016-.237,1.063,1.063,0,0,1-.033-.474,1.128,1.128,0,0,1,.169-.436,1.279,1.279,0,0,1,.34-.351,1.435,1.435,0,0,1,.48-.217,1.508,1.508,0,0,1,.534-.036,1.449,1.449,0,0,1,.488.144,1.291,1.291,0,0,1,.389.3,1.129,1.129,0,0,1,.237.424,1.063,1.063,0,0,1,.032.474,1.129,1.129,0,0,1-.169.436,1.279,1.279,0,0,1-.339.35,1.435,1.435,0,0,1-.479.217.717.717,0,0,0-.239.108.639.639,0,0,0-.17.175.563.563,0,0,0-.084.218.53.53,0,0,0,.016.237l.575,1.912L3.112,13.722a.646.646,0,0,0-.189.168.564.564,0,0,0-.1.211.525.525,0,0,0,0,.227.548.548,0,0,0,.1.217.628.628,0,0,0,.189.164.718.718,0,0,0,.238.084.76.76,0,0,0,.257,0,.728.728,0,0,0,.247-.091l8.66-5.166,10.34.427a.75.75,0,0,0,.263-.036.712.712,0,0,0,.222-.119.63.63,0,0,0,.158-.183.552.552,0,0,0,.071-.229.527.527,0,0,0-.035-.233.568.568,0,0,0-.128-.195.647.647,0,0,0-.2-.136.724.724,0,0,0-.256-.057Z" transform="translate(7.824 1.951)" fill="#ac8168"/>
      <path id="Path_19765-3" data-name="Path 19765" d="M36.811,6.287,28.382,3.5l-6.986-.1a3.78,3.78,0,0,1,.118,1.5,4.433,4.433,0,0,1-.45,1.493,4.05,4.05,0,0,1-.956,1.236,3.4,3.4,0,0,1-1.4.734,3.622,3.622,0,0,1-1.617.019,4.639,4.639,0,0,1-1.514-.62,5.039,5.039,0,0,1-1.221-1.076,4,4,0,0,1-.738-1.347L7.66,8.663,1.788,14.409l6.447,5.069,1.939-2.684,5.086,16.459,20.327-5.068L30.824,11.866l3.108,1.2Z" transform="translate(2.822 7.092)" fill="#ff4a61"/>
      <path id="Path_19766-3" data-name="Path 19766" d="M19.3,8.013a.717.717,0,0,0-.239.108.639.639,0,0,0-.17.175.563.563,0,0,0-.084.218.53.53,0,0,0,.016.237l.567,1.883-3.106,1.852-6.1,2.743-.054.027q-.026.015-.051.031t-.048.035q-.023.019-.044.039l-5.873,5.75a.581.581,0,0,0-.136.2A.524.524,0,0,0,4,21.755a.592.592,0,0,0,.158.187l6.447,5.065a.661.661,0,0,0,.118.073.71.71,0,0,0,.132.049.746.746,0,0,0,.141.022.761.761,0,0,0,.145,0,.753.753,0,0,0,.141-.032.717.717,0,0,0,.129-.058.667.667,0,0,0,.112-.08.613.613,0,0,0,.091-.1l1.13-1.558,4.7,15.186a.531.531,0,0,0,.116.2.624.624,0,0,0,.19.14.717.717,0,0,0,.238.067.755.755,0,0,0,.26-.019l20.318-5.066a.719.719,0,0,0,.235-.1.634.634,0,0,0,.167-.168.545.545,0,0,0,.085-.209.5.5,0,0,0-.012-.227l-4.406-15.13,1.838.711a.7.7,0,0,0,.129.037.725.725,0,0,0,.134.012.736.736,0,0,0,.135-.013.728.728,0,0,0,.131-.038.71.71,0,0,0,.121-.059.67.67,0,0,0,.1-.079.622.622,0,0,0,.084-.1.574.574,0,0,0,.061-.11l2.88-6.782a.536.536,0,0,0,.044-.23.527.527,0,0,0-.056-.217.574.574,0,0,0-.143-.181.655.655,0,0,0-.219-.121L31.452,10.03a.706.706,0,0,0-.068-.019Q31.348,10,31.313,10t-.071-.005q-.036,0-.072,0l-6.779.467-3.708-.154-.417-1.39a2.676,2.676,0,0,0,.769-.589,2.365,2.365,0,0,0,.465-.77,2.138,2.138,0,0,0-.112-1.732A2.367,2.367,0,0,0,20.8,5.1a2.7,2.7,0,0,0-.818-.467,2.958,2.958,0,0,0-.956-.174,3,3,0,0,0-1,.154,2.814,2.814,0,0,0-.87.469,2.5,2.5,0,0,0-.6.694,2.232,2.232,0,0,0-.287.836,2.124,2.124,0,0,0,.076.894.565.565,0,0,0,.119.211.647.647,0,0,0,.195.148.726.726,0,0,0,.244.072.755.755,0,0,0,.267-.018.717.717,0,0,0,.24-.108.638.638,0,0,0,.17-.175.563.563,0,0,0,.084-.218.531.531,0,0,0-.016-.237,1.063,1.063,0,0,1-.033-.474,1.128,1.128,0,0,1,.169-.436,1.279,1.279,0,0,1,.34-.351,1.435,1.435,0,0,1,.48-.217,1.508,1.508,0,0,1,.534-.036,1.448,1.448,0,0,1,.488.144,1.291,1.291,0,0,1,.389.3,1.129,1.129,0,0,1,.237.424,1.063,1.063,0,0,1,.032.474,1.129,1.129,0,0,1-.169.436,1.279,1.279,0,0,1-.339.35A1.435,1.435,0,0,1,19.3,8.013Zm1.044,3.474,3.477.145a2.632,2.632,0,0,1-.073,1.069,2.856,2.856,0,0,1-.477.955,3.231,3.231,0,0,1-.816.755,3.589,3.589,0,0,1-1.091.471,3.754,3.754,0,0,1-1.2.1,3.634,3.634,0,0,1-1.125-.271,3.286,3.286,0,0,1-.944-.6,2.886,2.886,0,0,1-.661-.886ZM38.78,13.732,36.39,19.374l-2.461-.955a.718.718,0,0,0-.181-.044.751.751,0,0,0-.364.05.7.7,0,0,0-.161.091.64.64,0,0,0-.126.127.578.578,0,0,0-.081.149.533.533,0,0,0-.032.162.518.518,0,0,0,.021.165l4.608,15.766L18.548,39.638,13.64,23.726a.543.543,0,0,0-.077-.155.6.6,0,0,0-.122-.126.67.67,0,0,0-.158-.09.729.729,0,0,0-.185-.048.759.759,0,0,0-.194,0,.745.745,0,0,0-.182.049.7.7,0,0,0-.16.092.626.626,0,0,0-.127.13l-1.513,2.1L5.557,21.453,10.9,16.231l5.342-2.4a4.1,4.1,0,0,0,.949,1.188,4.658,4.658,0,0,0,1.317.8,5.126,5.126,0,0,0,1.549.353,5.283,5.283,0,0,0,1.646-.145,5.055,5.055,0,0,0,1.5-.639,4.567,4.567,0,0,0,1.136-1.022,4.047,4.047,0,0,0,.688-1.3,3.717,3.717,0,0,0,.153-1.463l5.921-.409Z" fill="#19124f"/>
      <path id="Path_19767-3" data-name="Path 19767" d="M6.5,1.319a1.342,1.342,0,0,0-.3-.478A1.556,1.556,0,0,0,5.74.508,1.76,1.76,0,0,0,5.163.35,1.849,1.849,0,0,0,4.534.4a1.786,1.786,0,0,0-.462.185A1.626,1.626,0,0,0,3.706.87a1.466,1.466,0,0,0-.254.364,1.317,1.317,0,0,0-.125.413,1.5,1.5,0,0,0-.338-.3,1.682,1.682,0,0,0-.422-.2,1.8,1.8,0,0,0-.476-.078,1.855,1.855,0,0,0-.5.055,1.764,1.764,0,0,0-.559.246,1.565,1.565,0,0,0-.406.393,1.366,1.366,0,0,0-.22.49A1.251,1.251,0,0,0,.4,2.8a1.848,1.848,0,0,0,.7,1.09,7.956,7.956,0,0,0,1.4.949c.5.277,1,.508,1.373.67s.618.254.618.254.167-.195.406-.508.552-.744.844-1.216a7.178,7.178,0,0,0,.72-1.465A1.68,1.68,0,0,0,6.5,1.319Z" transform="translate(21.775 23.879)" fill="#fff"/>
    </g>
  </g>
</svg>
