<svg xmlns="http://www.w3.org/2000/svg" width="59.999" height="60" viewBox="0 0 59.999 60">
  <g id="hw-2" transform="translate(0 0)">
    <g id="_006---Get-Points-Cards" data-name="006---Get-Points-Cards">
      <g id="Icons_copy_2" transform="translate(1)">
        <path id="Shape" d="M50,54.76V55a4,4,0,0,1-4,4H4a4,4,0,0,1-4-4V52H34.02L47.8,54.91A3.987,3.987,0,0,0,50,54.76Z" fill="#13bdbf"/>
        <path id="Shape-2" data-name="Shape" d="M34.02,52H0V29a4,4,0,0,1,4-4H7.1L4.24,38.56l-.62,2.93a4,4,0,0,0,3.09,4.74Z" fill="#fff"/>
        <path id="Shape-3" data-name="Shape" d="M57.91,26.39l-4.75,22.5L4.24,38.56,7.1,25l1.89-8.95v-.02l3.38,3.43a2.416,2.416,0,0,1,.65,2.07L11.9,28.28a2.229,2.229,0,0,0,3.18,2.46l5.91-3.24a2.128,2.128,0,0,1,2.02,0l5.91,3.24a2.229,2.229,0,0,0,3.18-2.46l-1.12-6.75a2.416,2.416,0,0,1,.65-2.07l2.21-2.24,20.99,4.43a3.991,3.991,0,0,1,3.08,4.74Z" fill="#fff"/>
        <path id="Shape-4" data-name="Shape" d="M54.83,21.65,33.84,17.22l-.517.524L51.83,21.65a3.991,3.991,0,0,1,3.08,4.74L50.288,48.284l2.872.606,4.75-22.5a3.991,3.991,0,0,0-3.08-4.74Z" fill="#13bdbf"/>
        <path id="Shape-5" data-name="Shape" d="M53.16,48.89l-.62,2.94a3.985,3.985,0,0,1-4.74,3.08L34.02,52,6.71,46.23a4,4,0,0,1-3.09-4.74l.62-2.93Z" fill="#13bdbf"/>
        <rect id="Rectangle-path" width="10" height="8" rx="2" transform="translate(51.184 34.158) rotate(-168.049)" fill="#fff"/>
        <path id="Shape-6" data-name="Shape" d="M36.32,14.7l-2.48,2.52-2.21,2.24a2.416,2.416,0,0,0-.65,2.07l1.12,6.75a2.229,2.229,0,0,1-3.18,2.46L23.01,27.5a2.128,2.128,0,0,0-2.02,0l-5.91,3.24a2.229,2.229,0,0,1-3.18-2.46l1.12-6.75a2.416,2.416,0,0,0-.65-2.07L8.99,16.03,7.68,14.7a2.349,2.349,0,0,1,1.21-3.96l6.54-.99A2.238,2.238,0,0,0,17.09,8.5l2.95-6.22a2.139,2.139,0,0,1,3.92,0L26.91,8.5a2.238,2.238,0,0,0,1.66,1.25l6.54.99a2.349,2.349,0,0,1,1.21,3.96Z" fill="#fff"/>
        <path id="Shape-7" data-name="Shape" d="M35.11,10.74l-6.54-.99A2.238,2.238,0,0,1,26.91,8.5L23.96,2.28a2.122,2.122,0,0,0-3.46-.639,2.3,2.3,0,0,1,.46.639L23.91,8.5a2.238,2.238,0,0,0,1.66,1.25l6.54.99a2.349,2.349,0,0,1,1.21,3.96l-2.48,2.52-2.21,2.24a2.416,2.416,0,0,0-.65,2.07l1.12,6.75a2.342,2.342,0,0,1-.748,2.149l.568.311a2.229,2.229,0,0,0,3.18-2.46l-1.12-6.75a2.416,2.416,0,0,1,.65-2.07l2.21-2.24,2.48-2.52a2.349,2.349,0,0,0-1.21-3.96Z" fill="#13bdbf"/>
      </g>
      <g id="Icons" transform="translate(1 25)">
        <path id="Shape-8" data-name="Shape" d="M4,34H7a4,4,0,0,1-4-4V4A4,4,0,0,1,7,0H4A4,4,0,0,0,0,4V30A4,4,0,0,0,4,34Z" fill="#fff"/>
      </g>
      <g id="Icons_copy">
        <path id="Rectangle-path-2" data-name="Rectangle-path" d="M0,29H2v8H0Z" fill="#fff"/>
        <g id="Group_28318" data-name="Group 28318">
          <circle id="Oval" cx="1" cy="1" r="1" transform="translate(0 32)" fill="#19124f"/>
          <path id="Shape-9" data-name="Shape" d="M5,60H47a4.991,4.991,0,0,0,4.959-4.59,4.989,4.989,0,0,0,2.56-3.373L59.889,26.6a4.993,4.993,0,0,0-3.853-5.928l-19.2-4.051,1.2-1.215a3.375,3.375,0,0,0,.787-3.456,3.211,3.211,0,0,0-2.559-2.2l-6.546-.989a1.208,1.208,0,0,1-.9-.7l-2.951-6.21a3.146,3.146,0,0,0-5.734,0L17.182,8.066a1.208,1.208,0,0,1-.9.7l-6.546.989a3.211,3.211,0,0,0-2.559,2.2,3.375,3.375,0,0,0,.787,3.456l.938.951L7.29,24H5a5.006,5.006,0,0,0-5,5,1,1,0,0,0,2,0,3,3,0,0,1,3-3H6.868L4.262,38.345v.005l-.618,2.928A4.995,4.995,0,0,0,7.5,47.208L25.452,51H2V37a1,1,0,0,0-2,0V55A5.006,5.006,0,0,0,5,60ZM9.075,12.58a1.209,1.209,0,0,1,.961-.851l6.546-.989a3.2,3.2,0,0,0,2.406-1.816l2.951-6.216a1.149,1.149,0,0,1,2.122,0l2.951,6.216a3.2,3.2,0,0,0,2.406,1.816l6.546.989a1.209,1.209,0,0,1,.961.851A1.388,1.388,0,0,1,36.611,14l-4.7,4.759A3.389,3.389,0,0,0,31,21.691l1.113,6.753a1.354,1.354,0,0,1-.532,1.343,1.082,1.082,0,0,1-1.176.071L24.49,26.625a3.1,3.1,0,0,0-2.98,0L15.6,29.858a1.084,1.084,0,0,1-1.176-.071,1.354,1.354,0,0,1-.532-1.343L15,21.692a3.39,3.39,0,0,0-.916-2.933L9.389,14a1.388,1.388,0,0,1-.314-1.42Zm3.586,7.584a1.385,1.385,0,0,1,.367,1.2l-1.113,6.753a3.338,3.338,0,0,0,1.347,3.3,3.09,3.09,0,0,0,3.293.2l5.914-3.233a1.1,1.1,0,0,1,1.062,0l5.914,3.233a3.088,3.088,0,0,0,3.293-.2,3.338,3.338,0,0,0,1.347-3.3l-1.113-6.754a1.384,1.384,0,0,1,.367-1.2l1.828-1.853,20.459,4.318a2.991,2.991,0,0,1,2.306,3.555L53.388,47.706,6.425,37.784l4.162-19.721ZM6.017,43.952A2.968,2.968,0,0,1,5.6,41.7l.412-1.956,46.964,9.922-.413,1.959a3,3,0,0,1-3.555,2.31l-41.09-8.68a3,3,0,0,1-1.9-1.3ZM2,53H34.919l13.673,2.888a5,5,0,0,0,1.04.11c.064,0,.126-.014.189-.016A2.993,2.993,0,0,1,47,58H5a3,3,0,0,1-3-3Z" fill="#19124f"/>
          <path id="Shape-10" data-name="Shape" d="M44.126,33.484,50,34.725a3,3,0,0,0,3.557-2.316l.826-3.913a3,3,0,0,0-2.315-3.556L46.2,23.7a3,3,0,0,0-3.556,2.316l-.826,3.913a3,3,0,0,0,2.314,3.555Zm-.357-3.142.826-3.913a1,1,0,0,1,.978-.794,1.04,1.04,0,0,1,.207.022l5.87,1.24a1,1,0,0,1,.772,1.186L51.6,32a1,1,0,0,1-1.186.772l-5.87-1.241a1,1,0,0,1-.771-1.185Z" fill="#19124f"/>
          <path id="Shape-11" data-name="Shape" d="M33.309,36.31,50.92,40.03a1,1,0,0,0,.414-1.957l-17.611-3.72a1,1,0,1,0-.414,1.957Z" fill="#19124f"/>
          <path id="Shape-12" data-name="Shape" d="M50.507,41.987,41.7,40.126a1,1,0,0,0-.414,1.957l8.806,1.861a1.056,1.056,0,0,0,.208.021,1,1,0,0,0,.206-1.978Z" fill="#19124f"/>
          <path id="Path_19998" data-name="Path 19998" d="M43.144,10.362H41.459V8.677h1.685Zm5.4,0H46.856V8.677h1.685Zm-2.7-2.7H44.157V5.978h1.685Zm0,5.4H44.157V11.375h1.685Z" transform="translate(4.436 -1.182)" fill="#19124f"/>
        </g>
      </g>
    </g>
  </g>
</svg>
