<svg xmlns="http://www.w3.org/2000/svg" width="63.029" height="62.927" viewBox="0 0 63.029 62.927">
  <g id="hw-3" transform="translate(0 -0.413)">
    <path id="Path_19982" data-name="Path 19982" d="M149.958,195.694l-19.243-27.037a1.844,1.844,0,0,0-2.571-.433l-4.506,3.207,8.848,12.431H100.55v21.755a3.687,3.687,0,0,0,3.687,3.687h29.5a3.687,3.687,0,0,0,3.687-3.687V190.8l7.6,10.672,4.506-3.207A1.844,1.844,0,0,0,149.958,195.694Z" transform="translate(-88.191 -146.886)" fill="#fff"/>
    <path id="Path_19983" data-name="Path 19983" d="M58.812,52.376,64.82,48.1l2.922,4.106-6.008,4.276Zm-16.4-.537V77.282H47.45V51.84ZM23.288,23.857,16.117,24.9l5.189,5.058L20.081,37.1l6.414-3.372L32.908,37.1l-1.225-7.142L36.872,24.9,29.7,23.857l-3.207-6.5ZM37.415,38.834,40.551,39.9l2.654-1.98-.042,3.311,2.7,1.912-3.162.983-.983,3.162-1.912-2.7-3.311.042,1.98-2.654Zm3.743-11.856,4.357-2.15.7-4.809,3.392,3.48,4.789-.821-2.261,4.3,2.261,4.3-4.789-.821-3.392,3.48-.7-4.809Z" transform="translate(-14.136 -14.863)" fill="#13bdbf"/>
    <path id="Path_19984" data-name="Path 19984" d="M62.517,48.273l-4.1-5.758,1.468-1.045a3.134,3.134,0,0,0-1.044-5.591l-5.7-1.452.5-5.862a3.1,3.1,0,0,0-1.57-2.987c-2.346-1.338-4.1.857-4.838,1.214-3.809-4.976-3.872-6.365-5.749-6.681s-2.573,1.091-7.32,4.216l8.346,11.725H11.437V58.731a4.614,4.614,0,0,0,4.609,4.609h29.5a4.614,4.614,0,0,0,4.609-4.609V46.8l6.458,9.073,5.257-3.742A2.768,2.768,0,0,0,62.517,48.273ZM45.961,37.73l4.506-3.207,1.853,2.6-4.506,3.207Zm13.377.951c.229,1.225-1.077,1.534-1.988,2.333L54.211,36.6c3.448,1.076,4.876.732,5.127,2.078Zm-8.184-11.5c1.188.677.4,1.865.284,5.525L48.3,28.3c1.053-.6,1.773-1.731,2.855-1.114ZM40.487,22.089a.923.923,0,0,1,1.286.216l3.956,5.558h0L49.4,33.02l-4.506,3.207-8.16-11.465ZM32.393,37.9V61.5H29.2V37.9ZM13.28,58.731V37.9H27.353V61.5H16.046A2.769,2.769,0,0,1,13.28,58.731Zm35.029,0A2.769,2.769,0,0,1,45.544,61.5H34.236V37.9h9.582l4.491,6.31Zm12.489-8.1L57.044,53.3,48.883,41.835l4.506-3.207,7.626,10.714A.923.923,0,0,1,60.8,50.628ZM12.359,19.9,20,23.92l-1.459-8.5,6.179-6.023-8.54-1.241L12.359.413,8.54,8.151,0,9.392l6.179,6.023L4.721,23.92Zm-8.4-9.226,5.8-.843,2.595-5.257,2.595,5.257,5.8.843-4.2,4.093.991,5.778-5.189-2.728L7.169,20.55l.991-5.778ZM25.2,30.646l2.711,3.833L29.3,30,33.788,28.6l-3.833-2.711.06-4.694-3.762,2.808L21.806,22.5l1.508,4.446-2.808,3.762Zm-.449-5.2,1.826.619,1.545-1.153L28.1,26.837l1.574,1.113-1.841.572-.572,1.841L26.146,28.79l-1.928.025,1.153-1.545Zm6.683-4.389,4.357-4.47,6.152,1.055-2.9-5.525,2.9-5.525L35.792,7.645l-4.357-4.47-.9,6.177-5.6,2.763,5.6,2.763Zm.787-10.478.5-3.44,2.426,2.489,3.426-.588-1.617,3.077,1.617,3.077L35.148,14.6l-2.426,2.489-.5-3.44L29.1,12.114ZM7.743,28.02H9.586v1.844H7.743Zm5.9,1.844V28.02H15.49v1.844Zm-2.952-4.8h1.844v1.844H10.695Zm1.844,7.748H10.695V30.972h1.844ZM47.2,11.3H45.358V9.454H47.2Zm5.9,0H51.262V9.454h1.844ZM50.153,8.345H48.31V6.5h1.844Zm0,5.9H48.31V12.406h1.844Z" transform="translate(0 0)" fill="#19124f"/>
  </g>
</svg>
