<svg xmlns="http://www.w3.org/2000/svg" width="56.5" height="56.5" viewBox="0 0 56.5 56.5">
  <g id="hw-4" transform="translate(0.25 0.25)">
    <path id="Path_19985" data-name="Path 19985" d="M115.719,100a15.716,15.716,0,0,0-5.895,30.285v-8.671H107.86a1.964,1.964,0,0,1-1.635-3.054l7.86-11.789a1.964,1.964,0,0,1,3.27,0l7.86,11.789a1.964,1.964,0,0,1-1.635,3.054h-1.965v8.671A15.716,15.716,0,0,0,115.719,100Zm0,0" transform="translate(-87.719 -87.719)" fill="#13bdbf"/>
    <g id="Group_28319" data-name="Group 28319">
      <path id="Path_19986" data-name="Path 19986" d="M56.07,80.14A24.07,24.07,0,1,1,80.14,56.07,24.1,24.1,0,0,1,56.07,80.14Zm0-47.158A23.088,23.088,0,1,0,79.158,56.07,23.114,23.114,0,0,0,56.07,32.982Zm0,0" transform="translate(-28.07 -28.07)" fill="#19124f" stroke="#181346" stroke-width="0.5"/>
      <path id="Path_19987" data-name="Path 19987" d="M.491,28.491A.492.492,0,0,1,0,28,28.032,28.032,0,0,1,28,0a.491.491,0,1,1,0,.982A27.048,27.048,0,0,0,.982,28,.492.492,0,0,1,.491,28.491Zm0,0" fill="#19124f" stroke="#181346" stroke-width="0.5"/>
      <path id="Path_19988" data-name="Path 19988" d="M241.474.982h-.982a.491.491,0,1,1,0-.982h.982a.491.491,0,1,1,0,.982Zm0,0" transform="translate(-210.526 0)" fill="#263238"/>
      <path id="Path_19989" data-name="Path 19989" d="M224.491,252.491a.491.491,0,0,1,0-.982,27.048,27.048,0,0,0,27.018-27.018.491.491,0,0,1,.982,0A28.032,28.032,0,0,1,224.491,252.491Zm0,0" transform="translate(-196.491 -196.491)" fill="#19124f" stroke="#181346" stroke-width="0.5"/>
      <path id="Path_19990" data-name="Path 19990" d="M201.474,448.982h-.982a.491.491,0,1,1,0-.982h.982a.491.491,0,1,1,0,.982Zm0,0" transform="translate(-175.439 -392.982)" fill="#19124f" stroke="#181346" stroke-width="0.5"/>
      <path id="Path_19991" data-name="Path 19991" d="M364.421,16.982h-3.93a.491.491,0,1,1,0-.982h3.93a.491.491,0,1,1,0,.982Zm0,0" transform="translate(-315.789 -14.035)" fill="#19124f" stroke="#181346" stroke-width="0.5"/>
      <path id="Path_19992" data-name="Path 19992" d="M376.491,4.912A.492.492,0,0,1,376,4.421V.491a.491.491,0,0,1,.982,0v3.93A.492.492,0,0,1,376.491,4.912Zm0,0" transform="translate(-329.825)" fill="#19124f"/>
      <path id="Path_19993" data-name="Path 19993" d="M420.421,68.982h-3.93a.491.491,0,0,1,0-.982h3.93a.491.491,0,0,1,0,.982Zm0,0" transform="translate(-364.912 -59.649)" fill="#19124f" stroke="#181346" stroke-width="0.5"/>
      <path id="Path_19994" data-name="Path 19994" d="M432.491,56.912a.492.492,0,0,1-.491-.491v-3.93a.491.491,0,0,1,.982,0v3.93A.492.492,0,0,1,432.491,56.912Zm0,0" transform="translate(-378.947 -45.614)" fill="#19124f"/>
    </g>
    <path id="Path_19995" data-name="Path 19995" d="M171.86,164,164,175.789h3.93V186.6a.983.983,0,0,0,.982.982h5.895a.983.983,0,0,0,.982-.982V175.789h3.93Zm0,0" transform="translate(-143.86 -143.86)" fill="#13bdbf"/>
    <path id="Path_19996" data-name="Path 19996" d="M171.3,184.663h-5.895a1.475,1.475,0,0,1-1.474-1.474V172.873h-3.439a.492.492,0,0,1-.409-.763l7.86-11.789a.51.51,0,0,1,.817,0l7.86,11.789a.492.492,0,0,1-.409.763h-3.439v10.316A1.475,1.475,0,0,1,171.3,184.663Zm-9.888-12.772h3.011a.492.492,0,0,1,.491.491v10.807a.492.492,0,0,0,.491.491H171.3a.492.492,0,0,0,.491-.491V172.382a.492.492,0,0,1,.491-.491h3.011l-6.941-10.413Zm0,0" transform="translate(-140.353 -140.452)" fill="#19124f"/>
    <path id="Path_19997" data-name="Path 19997" d="M118.105,127.268a.491.491,0,0,1-.185-.946,15.228,15.228,0,1,0-11.421,0,.491.491,0,1,1-.368.91,16.21,16.21,0,1,1,12.158,0A.506.506,0,0,1,118.105,127.268Zm0,0" transform="translate(-84.211 -84.211)" fill="#19124f"/>
  </g>
</svg>
