<svg xmlns="http://www.w3.org/2000/svg" width="35" height="39.67" viewBox="0 0 35 39.67">
  <g id="information-button" transform="translate(-1 0.835)">
    <g id="megaphone" transform="translate(-29.136 -0.835)">
      <g id="Group_27553" data-name="Group 27553" transform="translate(44.549 0.318)">
        <g id="Group_27552" data-name="Group 27552">
          <path id="Path_19663" data-name="Path 19663" d="M235.6,20.253,220.132,4.779a2.325,2.325,0,1,0-3.289,3.288L232.317,23.54a2.324,2.324,0,1,0,3.287-3.287Z" transform="translate(-216.163 -4.1)" fill="#13bdbf"/>
        </g>
      </g>
      <g id="Group_27555" data-name="Group 27555" transform="translate(38.454 6.424)">
        <g id="Group_27554" data-name="Group 27554" transform="translate(0)">
          <path id="Path_19664" data-name="Path 19664" d="M143.121,82.9l-.116.584a24.984,24.984,0,0,1-5.51,11.161l8.418,8.418A24.9,24.9,0,0,1,157.019,97.5l.585-.116Z" transform="translate(-137.494 -82.905)" fill="#13bdbf"/>
        </g>
      </g>
      <g id="Group_27557" data-name="Group 27557" transform="translate(30.136 19.912)">
        <g id="Group_27556" data-name="Group 27556" transform="translate(0)">
          <path id="Path_19665" data-name="Path 19665" d="M36.911,256.989l-5.753,5.752a3.486,3.486,0,0,0,0,4.931l3.287,3.287a3.486,3.486,0,0,0,4.931,0l5.753-5.753Zm.822,9.04a1.162,1.162,0,0,1-1.643-1.643l1.643-1.643a1.162,1.162,0,0,1,1.643,1.643Z" transform="translate(-30.136 -256.989)" fill="#13bdbf"/>
        </g>
      </g>
      <g id="Group_27559" data-name="Group 27559" transform="translate(42.663 26.814)">
        <g id="Group_27558" data-name="Group 27558">
          <path id="Path_19666" data-name="Path 19666" d="M199.131,353.761l1.581-1.581a3.484,3.484,0,0,0,0-4.93l-1.174-1.175a22.016,22.016,0,0,0-1.872,1.415l1.4,1.4a1.16,1.16,0,0,1,0,1.642l-1.607,1.607-2.362-2.288-3.287,3.287,5.273,5.11a2.325,2.325,0,0,0,3.286-3.289Z" transform="translate(-191.813 -346.075)" fill="#13bdbf"/>
        </g>
      </g>
      <g id="Group_27561" data-name="Group 27561" transform="translate(53.514)">
        <g id="Group_27560" data-name="Group 27560" transform="translate(0)">
          <path id="Path_19667" data-name="Path 19667" d="M333.026,0a1.162,1.162,0,0,0-1.162,1.162V3.487a1.162,1.162,0,0,0,2.324,0V1.162A1.162,1.162,0,0,0,333.026,0Z" transform="translate(-331.864)" fill="#13bdbf"/>
        </g>
      </g>
      <g id="Group_27563" data-name="Group 27563" transform="translate(60.487 9.298)">
        <g id="Group_27562" data-name="Group 27562">
          <path id="Path_19668" data-name="Path 19668" d="M425.351,120h-2.324a1.162,1.162,0,1,0,0,2.324h2.324a1.162,1.162,0,0,0,0-2.324Z" transform="translate(-421.864 -120)" fill="#13bdbf"/>
        </g>
      </g>
      <g id="Group_27565" data-name="Group 27565" transform="translate(58.163 2.324)">
        <g id="Group_27564" data-name="Group 27564">
          <path id="Path_19669" data-name="Path 19669" d="M396.172,30.34a1.162,1.162,0,0,0-1.643,0L392.2,32.665a1.162,1.162,0,0,0,1.643,1.643l2.324-2.324A1.162,1.162,0,0,0,396.172,30.34Z" transform="translate(-391.864 -30)" fill="#13bdbf"/>
        </g>
      </g>
    </g>
  </g>
</svg>
