<svg xmlns="http://www.w3.org/2000/svg" width="38" height="38" viewBox="0 0 38 38">
  <g id="instagram_14_" data-name="instagram(14)" transform="translate(2.116 2.116)">
    <circle id="Ellipse_3217" data-name="Ellipse 3217" cx="18" cy="18" r="18" transform="translate(-1.116 -1.116)" fill="#fff" stroke="#181346" stroke-width="2"/>
    <path id="Path_20138" data-name="Path 20138" d="M224.831,0a17.213,17.213,0,0,0-2.223.144,17.046,17.046,0,0,1,0,33.8,17.215,17.215,0,0,0,2.223.144,17.045,17.045,0,0,0,0-34.089Z" transform="translate(-207.947 -0.161)" fill="#13bdbf"/>
    <g id="Group_28418" data-name="Group 28418" transform="translate(8.282 8.282)">
      <path id="Path_20139" data-name="Path 20139" d="M105.4,91.826H95.459a3.637,3.637,0,0,0-3.633,3.632V105.4a3.637,3.637,0,0,0,3.633,3.632H105.4a3.637,3.637,0,0,0,3.633-3.632V95.458A3.637,3.637,0,0,0,105.4,91.826Zm2.758,13.57a2.761,2.761,0,0,1-2.758,2.758H95.459A2.761,2.761,0,0,1,92.7,105.4V95.458A2.761,2.761,0,0,1,95.459,92.7H105.4a2.761,2.761,0,0,1,2.758,2.758V105.4Z" transform="translate(-91.826 -91.826)" fill="#19124f" stroke="#181346" stroke-width="1"/>
      <path id="Path_20140" data-name="Path 20140" d="M174.258,169.739a4.519,4.519,0,1,0,4.519,4.519A4.524,4.524,0,0,0,174.258,169.739Zm0,8.164a3.645,3.645,0,1,1,3.645-3.645A3.649,3.649,0,0,1,174.258,177.9Z" transform="translate(-165.657 -165.657)" fill="#19124f" stroke="#181346" stroke-width="1"/>
      <ellipse id="Ellipse_3218" data-name="Ellipse 3218" cx="1.166" cy="1.166" rx="1.166" ry="1.166" transform="translate(12.101 2.187)" fill="#13bdbf"/>
    </g>
  </g>
</svg>
