<svg xmlns="http://www.w3.org/2000/svg" width="34.243" height="38.884" viewBox="0 0 34.243 38.884">
  <g id="like_14_" data-name="like(14)" transform="translate(-30.556)">
    <g id="Group_27579" data-name="Group 27579" transform="translate(55.667 6.848)">
      <g id="Group_27578" data-name="Group 27578" transform="translate(0)">
        <path id="Path_19672" data-name="Path 19672" d="M364.631,90.17h-2.283a1.141,1.141,0,0,0,0,2.283h2.283a1.141,1.141,0,0,0,0-2.283Z" transform="translate(-361.207 -90.17)" fill="#13bdbf"/>
      </g>
    </g>
    <g id="Group_27581" data-name="Group 27581" transform="translate(44.253 0)">
      <g id="Group_27580" data-name="Group 27580" transform="translate(0 0)">
        <path id="Path_19673" data-name="Path 19673" d="M214.211,2.913,213.07.63a1.142,1.142,0,0,0-2.042,1.021l1.141,2.283a1.142,1.142,0,1,0,2.042-1.021Z" transform="translate(-210.907 0)" fill="#13bdbf"/>
      </g>
    </g>
    <g id="Group_27583" data-name="Group 27583" transform="translate(52.243 0)">
      <g id="Group_27582" data-name="Group 27582" transform="translate(0 0)">
        <path id="Path_19674" data-name="Path 19674" d="M318.906.12a1.144,1.144,0,0,0-1.532.511l-1.141,2.283a1.142,1.142,0,1,0,2.042,1.021l1.141-2.283A1.142,1.142,0,0,0,318.906.12Z" transform="translate(-316.112 0)" fill="#13bdbf"/>
      </g>
    </g>
    <g id="Group_27585" data-name="Group 27585" transform="translate(39.687 6.848)">
      <g id="Group_27584" data-name="Group 27584" transform="translate(0)">
        <path id="Path_19675" data-name="Path 19675" d="M154.217,90.17h-2.283a1.141,1.141,0,1,0,0,2.283h2.283a1.141,1.141,0,0,0,0-2.283Z" transform="translate(-150.793 -90.17)" fill="#13bdbf"/>
      </g>
    </g>
    <g id="Group_27587" data-name="Group 27587" transform="translate(30.556 18.338)">
      <g id="Group_27586" data-name="Group 27586" transform="translate(0)">
        <path id="Path_19676" data-name="Path 19676" d="M36.263,241.468H31.7a1.141,1.141,0,0,0-1.141,1.141v18.263a1.141,1.141,0,0,0,1.141,1.141h4.566a1.141,1.141,0,0,0,1.141-1.141V242.609A1.141,1.141,0,0,0,36.263,241.468Z" transform="translate(-30.556 -241.468)" fill="#13bdbf"/>
      </g>
    </g>
    <g id="Group_27589" data-name="Group 27589" transform="translate(39.688 6.924)">
      <g id="Group_27588" data-name="Group 27588" transform="translate(0)">
        <path id="Path_19677" data-name="Path 19677" d="M175.883,105.612a3.59,3.59,0,0,0-3.637-3.026h-8.9c.756-1.354,1.162-5.184,1.144-6.749a4.753,4.753,0,0,0-4.765-4.665h-.942a1.141,1.141,0,0,0-1.141,1.141c0,2.639-1.028,7.4-2.966,9.342a12.644,12.644,0,0,1-3.882,2.508v17.127a26.664,26.664,0,0,0,9.415,1.841h7.467a3.471,3.471,0,0,0,3.423-4.686,3.425,3.425,0,0,0,2.283-4.566,3.426,3.426,0,0,0,1.65-5.587A3.417,3.417,0,0,0,175.883,105.612Z" transform="translate(-150.794 -91.172)" fill="#13bdbf"/>
      </g>
    </g>
  </g>
</svg>
