<svg xmlns="http://www.w3.org/2000/svg" width="195.118" height="32.2" viewBox="0 0 195.118 32.2">
  <g id="Group_26507" data-name="Group 26507" transform="translate(-567.427 -478)">
    <g id="Group_26507-2" data-name="Group 26507" transform="translate(567.427 478)">
      <path id="Path_19349" data-name="Path 19349" d="M567.427,478.791h2.324v16.057h7.694v1.95H567.427Z" transform="translate(-567.427 -478.604)" fill="#dd2723"/>
      <path id="Path_19350" data-name="Path 19350" d="M655.066,478.791v10.66c0,4.034,1.79,5.744,4.195,5.744,2.672,0,4.382-1.763,4.382-5.744v-10.66h2.351v10.5c0,5.53-2.912,7.8-6.813,7.8-3.687,0-6.465-2.111-6.465-7.694V478.791Z" transform="translate(-632.543 -478.604)" fill="#dd2723"/>
      <path id="Path_19351" data-name="Path 19351" d="M759.809,496.8l-5.878-18.007h2.511l2.805,8.87c.775,2.431,1.443,4.622,1.924,6.733h.053c.508-2.084,1.256-4.355,2.057-6.706l3.046-8.9h2.485L762.373,496.8Z" transform="translate(-709.82 -478.604)" fill="#dd2723"/>
      <path id="Path_19352" data-name="Path 19352" d="M861.247,478.6a33.32,33.32,0,0,1,4.943-.374c3.34,0,5.717.775,7.294,2.244a8.294,8.294,0,0,1,2.538,6.466,9.522,9.522,0,0,1-2.591,7c-1.683,1.683-4.462,2.592-7.961,2.592a37.452,37.452,0,0,1-4.221-.214Zm2.324,15.923a14.67,14.67,0,0,0,2.351.134c4.969,0,7.668-2.779,7.668-7.641.027-4.248-2.378-6.946-7.294-6.946a13.205,13.205,0,0,0-2.725.241Z" transform="translate(-791.755 -478.173)" fill="#13bdbf"/>
      <path id="Path_19353" data-name="Path 19353" d="M981.953,488.355h-7v6.492h7.8v1.95H972.629V478.791h9.725v1.95h-7.4v5.691h7Z" transform="translate(-876.793 -478.604)" fill="#13bdbf"/>
      <path id="Path_19354" data-name="Path 19354" d="M1059.16,495.435l9.992-14.614v-.08h-9.137v-1.95h12.156v1.416l-9.939,14.561v.08H1072.3v1.95H1059.16Z" transform="translate(-942.859 -478.604)" fill="#13bdbf"/>
      <path id="Path_19355" data-name="Path 19355" d="M1165.3,478.791V496.8h-2.324V478.791Z" transform="translate(-1022.12 -478.604)" fill="#dd2723"/>
      <path id="Path_19356" data-name="Path 19356" d="M1236.377,495.392a16.769,16.769,0,0,1-5.53.989,8.457,8.457,0,0,1-9.244-9.084c.027-5.37,3.714-9.3,9.751-9.3a11.13,11.13,0,0,1,4.489.828l-.561,1.9a9.33,9.33,0,0,0-3.981-.775c-4.381,0-7.24,2.725-7.24,7.24,0,4.569,2.752,7.267,6.947,7.267a7.584,7.584,0,0,0,3.1-.481v-5.37h-3.66v-1.87h5.931Z" transform="translate(-1066.882 -478)" fill="#13bdbf"/>
      <path id="Path_19357" data-name="Path 19357" d="M1335.245,496.8V478.791h2.538l5.771,9.111a50.91,50.91,0,0,1,3.233,5.851l.054-.027c-.214-2.4-.267-4.6-.267-7.4v-7.534h2.191V496.8h-2.351l-5.718-9.137a57.115,57.115,0,0,1-3.366-6.011l-.08.027c.134,2.271.187,4.435.187,7.427V496.8Z" transform="translate(-1153.646 -478.604)" fill="#13bdbf"/>
    </g>
    <g id="Group_26508" data-name="Group 26508" transform="translate(602.171 504.812)">
      <path id="Path_19358" data-name="Path 19358" d="M714.329,591.724h2.81v.565H715v1.734h1.974v.557H715v2.361h-.674Z" transform="translate(-714.329 -591.639)" fill="#959595"/>
      <path id="Path_19359" data-name="Path 19359" d="M740.748,591.669a7.03,7.03,0,0,1,1.293-.108,2.134,2.134,0,0,1,1.51.426,1.3,1.3,0,0,1,.41.991,1.37,1.37,0,0,1-.983,1.332v.023a1.3,1.3,0,0,1,.767,1.053,8.291,8.291,0,0,0,.4,1.432h-.7a6.742,6.742,0,0,1-.348-1.246c-.155-.72-.434-.991-1.045-1.014h-.635v2.26h-.674Zm.674,2.376h.689c.72,0,1.177-.395,1.177-.991,0-.674-.488-.968-1.2-.975a2.764,2.764,0,0,0-.666.062Z" transform="translate(-734.5 -591.514)" fill="#959595"/>
      <path id="Path_19360" data-name="Path 19360" d="M771.538,594.5H769.51v1.881h2.26v.565h-2.934v-5.217h2.818v.565H769.51v1.649h2.028Z" transform="translate(-755.944 -591.639)" fill="#959595"/>
      <path id="Path_19361" data-name="Path 19361" d="M798.121,594.5h-2.028v1.881h2.26v.565h-2.934v-5.217h2.818v.565h-2.144v1.649h2.028Z" transform="translate(-776.24 -591.639)" fill="#959595"/>
      <path id="Path_19362" data-name="Path 19362" d="M822,591.669a9.648,9.648,0,0,1,1.432-.108,2.99,2.99,0,0,1,2.113.65,2.4,2.4,0,0,1,.735,1.873,2.76,2.76,0,0,1-.751,2.028,3.214,3.214,0,0,1-2.307.751A10.9,10.9,0,0,1,822,596.8Zm.674,4.614a4.245,4.245,0,0,0,.681.039,2.006,2.006,0,0,0,2.222-2.214,1.861,1.861,0,0,0-2.113-2.013,3.817,3.817,0,0,0-.789.07Z" transform="translate(-796.535 -591.514)" fill="#959595"/>
      <path id="Path_19363" data-name="Path 19363" d="M857.739,594a2.444,2.444,0,0,1-2.423,2.748,2.392,2.392,0,0,1-2.346-2.648,2.478,2.478,0,0,1,2.423-2.74A2.376,2.376,0,0,1,857.739,594Zm-4.049.085c0,1.115.6,2.113,1.664,2.113s1.672-.983,1.672-2.168c0-1.037-.542-2.121-1.664-2.121S853.69,592.942,853.69,594.088Z" transform="translate(-820.18 -591.363)" fill="#959595"/>
      <path id="Path_19364" data-name="Path 19364" d="M891.259,594.65c-.038-.728-.085-1.6-.077-2.253h-.023c-.178.611-.395,1.262-.658,1.982l-.921,2.531h-.511l-.844-2.485c-.248-.735-.457-1.409-.6-2.028h-.015c-.016.65-.054,1.525-.1,2.307l-.139,2.237h-.642l.364-5.217h.859l.89,2.524c.217.642.395,1.215.526,1.757h.023c.132-.526.317-1.1.55-1.757l.929-2.524h.859l.325,5.217h-.658Z" transform="translate(-845.95 -591.639)" fill="#959595"/>
      <path id="Path_19365" data-name="Path 19365" d="M938.594,592.3h-1.587v-.573h3.863v.573h-1.595v4.644h-.681Z" transform="translate(-884.341 -591.639)" fill="#959595"/>
      <path id="Path_19366" data-name="Path 19366" d="M966.947,591.724v2.183h2.524v-2.183h.681v5.217h-.681V594.5h-2.524v2.446h-.674v-5.217Z" transform="translate(-906.685 -591.639)" fill="#959595"/>
      <path id="Path_19367" data-name="Path 19367" d="M998.094,591.669a7.03,7.03,0,0,1,1.293-.108,2.133,2.133,0,0,1,1.509.426,1.3,1.3,0,0,1,.41.991,1.37,1.37,0,0,1-.983,1.332v.023a1.3,1.3,0,0,1,.766,1.053,8.264,8.264,0,0,0,.4,1.432h-.7a6.742,6.742,0,0,1-.348-1.246c-.155-.72-.433-.991-1.045-1.014h-.635v2.26h-.673Zm.673,2.376h.689c.72,0,1.177-.395,1.177-.991,0-.674-.488-.968-1.2-.975a2.766,2.766,0,0,0-.666.062Z" transform="translate(-930.98 -591.514)" fill="#959595"/>
      <path id="Path_19368" data-name="Path 19368" d="M1029.74,594a2.444,2.444,0,0,1-2.423,2.748,2.392,2.392,0,0,1-2.346-2.648,2.478,2.478,0,0,1,2.423-2.74A2.376,2.376,0,0,1,1029.74,594Zm-4.048.085c0,1.115.6,2.113,1.664,2.113s1.672-.983,1.672-2.168c0-1.037-.542-2.121-1.664-2.121S1025.691,592.942,1025.691,594.088Z" transform="translate(-951.5 -591.363)" fill="#959595"/>
      <path id="Path_19369" data-name="Path 19369" d="M1059.96,591.724v3.089c0,1.169.519,1.664,1.215,1.664.774,0,1.269-.511,1.269-1.664v-3.089h.681v3.042c0,1.6-.844,2.261-1.974,2.261-1.068,0-1.873-.611-1.873-2.23v-3.073Z" transform="translate(-977.694 -591.639)" fill="#959595"/>
      <path id="Path_19370" data-name="Path 19370" d="M1093.941,596.534a4.865,4.865,0,0,1-1.6.286,2.45,2.45,0,0,1-2.678-2.632,2.617,2.617,0,0,1,2.825-2.694,3.221,3.221,0,0,1,1.3.24l-.162.549a2.7,2.7,0,0,0-1.154-.224,1.951,1.951,0,0,0-2.1,2.1,1.912,1.912,0,0,0,2.013,2.105,2.19,2.19,0,0,0,.9-.14v-1.556h-1.061v-.542h1.719Z" transform="translate(-1000.889 -591.463)" fill="#959595"/>
      <path id="Path_19371" data-name="Path 19371" d="M1123.266,591.724v2.183h2.524v-2.183h.681v5.217h-.681V594.5h-2.524v2.446h-.673v-5.217Z" transform="translate(-1026.033 -591.639)" fill="#959595"/>
      <path id="Path_19372" data-name="Path 19372" d="M1170.744,595.3l-.542,1.641h-.7l1.772-5.217h.813l1.78,5.217h-.72l-.557-1.641Zm1.711-.526-.511-1.5c-.116-.341-.193-.65-.271-.952h-.016c-.077.31-.162.627-.263.944l-.511,1.51Z" transform="translate(-1061.851 -591.639)" fill="#959595"/>
      <path id="Path_19373" data-name="Path 19373" d="M1201.686,591.669a7.028,7.028,0,0,1,1.292-.108,2.134,2.134,0,0,1,1.51.426,1.3,1.3,0,0,1,.41.991,1.37,1.37,0,0,1-.983,1.332v.023a1.3,1.3,0,0,1,.767,1.053,8.249,8.249,0,0,0,.4,1.432h-.7a6.769,6.769,0,0,1-.348-1.246c-.155-.72-.433-.991-1.045-1.014h-.635v2.26h-.673Zm.673,2.376h.689c.72,0,1.177-.395,1.177-.991,0-.674-.488-.968-1.2-.975a2.766,2.766,0,0,0-.666.062Z" transform="translate(-1086.42 -591.514)" fill="#959595"/>
      <path id="Path_19374" data-name="Path 19374" d="M1229.135,592.3h-1.587v-.573h3.863v.573h-1.594v4.644h-.681Z" transform="translate(-1106.165 -591.639)" fill="#959595"/>
    </g>
  </g>
</svg>
