<svg id="Group_26511" data-name="Group 26511" xmlns="http://www.w3.org/2000/svg" width="98.56" height="9.339" viewBox="0 0 98.56 9.339">
  <path id="Path_19349" data-name="Path 19349" d="M567.427,478.791H568.6V486.9h3.887v.985h-5.061Z" transform="translate(-567.427 -478.697)" fill="#dd2723"/>
  <path id="Path_19350" data-name="Path 19350" d="M653.9,478.791v5.385c0,2.038.9,2.9,2.119,2.9,1.349,0,2.213-.891,2.213-2.9v-5.385h1.188v5.3c0,2.794-1.471,3.941-3.441,3.941-1.862,0-3.266-1.066-3.266-3.887v-5.358Z" transform="translate(-642.526 -478.697)" fill="#dd2723"/>
  <path id="Path_19351" data-name="Path 19351" d="M756.9,487.887l-2.969-9.1H755.2l1.417,4.48c.391,1.228.729,2.335.972,3.4h.027c.257-1.053.634-2.2,1.039-3.387l1.539-4.494h1.255l-3.252,9.1Z" transform="translate(-731.649 -478.697)" fill="#dd2723"/>
  <path id="Path_19352" data-name="Path 19352" d="M861.247,478.415a16.83,16.83,0,0,1,2.5-.189,5.21,5.21,0,0,1,3.684,1.134,4.19,4.19,0,0,1,1.282,3.266,4.81,4.81,0,0,1-1.309,3.536,5.6,5.6,0,0,1-4.022,1.309,18.922,18.922,0,0,1-2.132-.108Zm1.174,8.043a7.41,7.41,0,0,0,1.188.067,3.5,3.5,0,0,0,3.873-3.86c.013-2.146-1.2-3.509-3.684-3.509a6.669,6.669,0,0,0-1.377.122Z" transform="translate(-826.144 -478.199)" fill="#13bdbf"/>
  <path id="Path_19353" data-name="Path 19353" d="M977.339,483.622H973.8V486.9h3.941v.985h-5.115v-9.1h4.912v.985H973.8v2.875h3.536Z" transform="translate(-924.219 -478.697)" fill="#13bdbf"/>
  <path id="Path_19354" data-name="Path 19354" d="M1059.16,487.2l5.047-7.382v-.04h-4.615v-.985h6.141v.715l-5.021,7.355v.04h5.088v.985h-6.64Z" transform="translate(-1000.413 -478.697)" fill="#13bdbf"/>
  <path id="Path_19355" data-name="Path 19355" d="M1164.149,478.791v9.1h-1.174v-9.1Z" transform="translate(-1091.825 -478.697)" fill="#dd2723"/>
  <path id="Path_19356" data-name="Path 19356" d="M1229.066,486.785a8.469,8.469,0,0,1-2.793.5,4.272,4.272,0,0,1-4.669-4.588,4.562,4.562,0,0,1,4.926-4.7,5.622,5.622,0,0,1,2.267.418l-.284.958a4.713,4.713,0,0,0-2.011-.391,3.4,3.4,0,0,0-3.657,3.657,3.334,3.334,0,0,0,3.509,3.671,3.832,3.832,0,0,0,1.565-.243v-2.713h-1.849v-.945h3Z" transform="translate(-1143.448 -478)" fill="#13bdbf"/>
  <path id="Path_19357" data-name="Path 19357" d="M1335.245,487.887v-9.1h1.282l2.915,4.6a25.71,25.71,0,0,1,1.633,2.955l.027-.013c-.108-1.215-.135-2.321-.135-3.738v-3.806h1.107v9.1h-1.187L1338,483.271a28.853,28.853,0,0,1-1.7-3.036l-.04.013c.068,1.147.094,2.24.094,3.752v3.887Z" transform="translate(-1243.514 -478.697)" fill="#13bdbf"/>
</svg>
