<svg xmlns="http://www.w3.org/2000/svg" width="156.809" height="14.858" viewBox="0 0 156.809 14.858">
  <g id="Group_28035" data-name="Group 28035" transform="translate(-0.001 0)">
    <path id="Path_19349" data-name="Path 19349" d="M567.427,478.791H569.3v12.9h6.184v1.567h-8.052Z" transform="translate(-567.426 -478.641)" fill="#dd2723"/>
    <path id="Path_19350" data-name="Path 19350" d="M654.6,478.791v8.567c0,3.242,1.439,4.616,3.371,4.616,2.147,0,3.521-1.417,3.521-4.616v-8.567h1.889v8.438c0,4.445-2.34,6.27-5.475,6.27-2.963,0-5.2-1.7-5.2-6.184v-8.524Z" transform="translate(-636.503 -478.641)" fill="#dd2723"/>
    <path id="Path_19351" data-name="Path 19351" d="M758.655,493.263l-4.724-14.471h2.018l2.255,7.128c.623,1.954,1.16,3.715,1.546,5.411h.043c.408-1.675,1.009-3.5,1.653-5.389l2.448-7.15h2l-5.175,14.471Z" transform="translate(-718.48 -478.641)" fill="#dd2723"/>
    <path id="Path_19352" data-name="Path 19352" d="M861.247,478.527a26.779,26.779,0,0,1,3.972-.3c2.684,0,4.595.623,5.862,1.8a6.665,6.665,0,0,1,2.04,5.2,7.653,7.653,0,0,1-2.083,5.625c-1.353,1.353-3.586,2.083-6.4,2.083a30.1,30.1,0,0,1-3.393-.172Zm1.868,12.8a11.791,11.791,0,0,0,1.889.107c3.994,0,6.162-2.233,6.162-6.141.021-3.414-1.911-5.583-5.862-5.583a10.614,10.614,0,0,0-2.19.193Z" transform="translate(-805.397 -478.183)" fill="#13bdbf"/>
    <path id="Path_19353" data-name="Path 19353" d="M980.123,486.477H974.5V491.7h6.269v1.567h-8.138V478.791h7.816v1.567H974.5v4.573h5.626Z" transform="translate(-895.608 -478.641)" fill="#13bdbf"/>
    <path id="Path_19354" data-name="Path 19354" d="M1059.16,492.167l8.03-11.745v-.064h-7.343v-1.567h9.769v1.138l-7.987,11.7v.064h8.095v1.567H1059.16Z" transform="translate(-965.691 -478.641)" fill="#13bdbf"/>
    <path id="Path_19355" data-name="Path 19355" d="M1164.843,478.791v14.471h-1.868V478.791Z" transform="translate(-1049.774 -478.641)" fill="#dd2723"/>
    <path id="Path_19356" data-name="Path 19356" d="M1233.477,491.978a13.476,13.476,0,0,1-4.444.795,6.8,6.8,0,0,1-7.429-7.3c.021-4.316,2.984-7.472,7.837-7.472a8.945,8.945,0,0,1,3.607.666l-.451,1.524a7.5,7.5,0,0,0-3.2-.623,5.412,5.412,0,0,0-5.819,5.819c0,3.672,2.212,5.84,5.583,5.84a6.1,6.1,0,0,0,2.491-.386v-4.316h-2.942v-1.5h4.766Z" transform="translate(-1097.258 -478)" fill="#13bdbf"/>
    <path id="Path_19357" data-name="Path 19357" d="M1335.245,493.263V478.791h2.04l4.638,7.322a40.9,40.9,0,0,1,2.6,4.7l.043-.021c-.172-1.932-.215-3.693-.215-5.948v-6.055h1.761v14.471h-1.889l-4.595-7.343a45.912,45.912,0,0,1-2.705-4.831l-.064.021c.107,1.825.15,3.564.15,5.969v6.184Z" transform="translate(-1189.299 -478.641)" fill="#13bdbf"/>
  </g>
</svg>
