<svg xmlns="http://www.w3.org/2000/svg" width="50" height="50" viewBox="0 0 50 50">
  <g id="luv-point-4" transform="translate(-313 -809)">
    <circle id="Ellipse_3198" data-name="Ellipse 3198" cx="25" cy="25" r="25" transform="translate(313 809)" fill="#13bdbf"/>
    <path id="Path_19894" data-name="Path 19894" d="M13.242,9.869a3.373,3.373,0,1,0,3.373,3.373A3.373,3.373,0,0,0,13.242,9.869Zm0-2.248a5.621,5.621,0,1,1-5.621,5.621A5.621,5.621,0,0,1,13.242,7.621Zm7.307-.281a1.405,1.405,0,1,1-1.405-1.405A1.405,1.405,0,0,1,20.549,7.34ZM13.242,4.248c-2.781,0-3.235.008-4.529.065a6.107,6.107,0,0,0-2.021.373,3.245,3.245,0,0,0-1.214.79,3.249,3.249,0,0,0-.791,1.214,6.1,6.1,0,0,0-.372,2.021c-.058,1.241-.065,1.675-.065,4.529,0,2.781.008,3.235.065,4.529a6.132,6.132,0,0,0,.372,2.02,3.5,3.5,0,0,0,2,2,6.12,6.12,0,0,0,2.024.374c1.241.058,1.675.065,4.529.065,2.781,0,3.235-.008,4.529-.065a6.144,6.144,0,0,0,2.02-.372,3.284,3.284,0,0,0,1.214-.789,3.25,3.25,0,0,0,.791-1.214,6.146,6.146,0,0,0,.373-2.024c.058-1.241.065-1.675.065-4.529,0-2.781-.008-3.235-.065-4.529A6.119,6.119,0,0,0,21.8,6.691a3.272,3.272,0,0,0-.79-1.214,3.242,3.242,0,0,0-1.214-.791,6.1,6.1,0,0,0-2.021-.372C16.53,4.255,16.1,4.248,13.242,4.248Zm0-2.248c3.054,0,3.436.011,4.634.067a8.282,8.282,0,0,1,2.73.523,5.481,5.481,0,0,1,1.992,1.3,5.517,5.517,0,0,1,1.3,1.992,8.3,8.3,0,0,1,.523,2.73c.053,1.2.067,1.579.067,4.634s-.011,3.436-.067,4.634a8.311,8.311,0,0,1-.523,2.73,5.74,5.74,0,0,1-3.288,3.288,8.3,8.3,0,0,1-2.73.523c-1.2.053-1.579.067-4.634.067s-3.436-.011-4.634-.067a8.311,8.311,0,0,1-2.73-.523A5.74,5.74,0,0,1,2.59,20.605a8.276,8.276,0,0,1-.523-2.73C2.015,16.677,2,16.3,2,13.242s.011-3.436.067-4.634a8.276,8.276,0,0,1,.523-2.73,5.486,5.486,0,0,1,1.3-1.992,5.505,5.505,0,0,1,1.992-1.3,8.276,8.276,0,0,1,2.73-.523C9.806,2.015,10.187,2,13.242,2Z" transform="translate(325 821)" fill="#fff"/>
  </g>
</svg>
