<svg xmlns="http://www.w3.org/2000/svg" width="50" height="50" viewBox="0 0 50 50">
  <g id="luv-point-8" transform="translate(-313 -809)">
    <circle id="Ellipse_3198" data-name="Ellipse 3198" cx="25" cy="25" r="25" transform="translate(313 809)" fill="#13bdbf"/>
    <path id="Path_19901" data-name="Path 19901" d="M15,2a4,4,0,0,1,3.464,6H23v2H21V20a1,1,0,0,1-1,1H4a1,1,0,0,1-1-1V10H1V8H5.536A4,4,0,0,1,12,3.355,3.983,3.983,0,0,1,15,2Zm-4,8H5v9h6Zm8,0H13v9h6ZM9,4a2,2,0,0,0-.15,3.995L9,8h2V6A2,2,0,0,0,9.3,4.023L9.149,4Zm6,0a2,2,0,0,0-1.995,1.85L13,6V8h2a2,2,0,0,0,2-1.85L17,6A2,2,0,0,0,15,4Z" transform="translate(326 823)" fill="#fff"/>
  </g>
</svg>
