<svg xmlns="http://www.w3.org/2000/svg" width="50" height="50" viewBox="0 0 50 50">
  <g id="luv-point-5" transform="translate(-313 -809)">
    <circle id="Ellipse_3198" data-name="Ellipse 3198" cx="25" cy="25" r="25" transform="translate(313 809)" fill="#13b5b7"/>
    <g id="Group_28087" data-name="Group 28087" transform="translate(323 819)">
      <path id="Path_19891" data-name="Path 19891" d="M0,0H30.278V30.278H0Z" fill="none"/>
      <path id="Path_19892" data-name="Path 19892" d="M4,27.494a10.093,10.093,0,1,1,20.186,0H21.662a7.57,7.57,0,1,0-15.139,0ZM14.093,16.139a7.57,7.57,0,1,1,7.57-7.57A7.567,7.567,0,0,1,14.093,16.139Zm0-2.523A5.046,5.046,0,1,0,9.046,8.57,5.045,5.045,0,0,0,14.093,13.616Z" transform="translate(1.046 0.262)" fill="#fff"/>
    </g>
  </g>
</svg>
