<svg id="mastercard" xmlns="http://www.w3.org/2000/svg" width="43.453" height="26.072" viewBox="0 0 43.453 26.072">
  <path id="Path_18853" data-name="Path 18853" d="M45.405,22.7a13.036,13.036,0,1,1-26.072,0h0a13.036,13.036,0,1,1,26.072,0Z" transform="translate(-1.952 -9.667)" fill="#ffb600"/>
  <path id="Path_18854" data-name="Path 18854" d="M32.369,9.667A13.07,13.07,0,0,1,45.405,22.7h0a13.036,13.036,0,0,1-26.072,0" transform="translate(-1.952 -9.667)" fill="#f7981d"/>
  <path id="Path_18855" data-name="Path 18855" d="M33.833,9.667A13.07,13.07,0,0,1,46.869,22.7h0A13.026,13.026,0,0,1,33.833,35.739" transform="translate(-3.416 -9.667)" fill="#ff8500"/>
  <path id="Path_18856" data-name="Path 18856" d="M12.9,9.667a13.036,13.036,0,0,0,.138,26.072,13.188,13.188,0,0,0,8.76-3.38h0a12.394,12.394,0,0,0,1.31-1.379h-2.69a15.91,15.91,0,0,1-.966-1.31h4.621a8.835,8.835,0,0,0,.759-1.379H18.692a8.221,8.221,0,0,1-.552-1.379h7.173A13.7,13.7,0,0,0,26,22.772a17.8,17.8,0,0,0-.276-2.759h-8a10.083,10.083,0,0,1,.345-1.379h7.173a8.221,8.221,0,0,0-.552-1.379h-6.07a13.679,13.679,0,0,1,.759-1.379H24a6.559,6.559,0,0,0-1.035-1.379H20.416a11.756,11.756,0,0,1,1.31-1.31,12.728,12.728,0,0,0-8.76-3.38C12.967,9.667,12.967,9.667,12.9,9.667Z" transform="translate(0 -9.667)" fill="#ff5050"/>
  <path id="Path_18857" data-name="Path 18857" d="M0,22.718A13.026,13.026,0,0,0,13.036,35.754a13.188,13.188,0,0,0,8.76-3.38h0a12.4,12.4,0,0,0,1.31-1.379h-2.69a15.911,15.911,0,0,1-.966-1.311h4.621A8.835,8.835,0,0,0,24.83,28.3H18.692a8.221,8.221,0,0,1-.552-1.379h7.173A13.7,13.7,0,0,0,26,22.787a17.8,17.8,0,0,0-.276-2.759h-8a10.083,10.083,0,0,1,.345-1.379h7.173a8.221,8.221,0,0,0-.552-1.379h-6.07a13.678,13.678,0,0,1,.759-1.379H24a6.559,6.559,0,0,0-1.035-1.379H20.416a11.756,11.756,0,0,1,1.31-1.31,12.728,12.728,0,0,0-8.76-3.38H12.9" transform="translate(0 -9.682)" fill="#e52836"/>
  <path id="Path_18858" data-name="Path 18858" d="M14.485,35.754a13.188,13.188,0,0,0,8.76-3.38h0a12.394,12.394,0,0,0,1.31-1.379h-2.69a15.911,15.911,0,0,1-.966-1.311H25.52a8.835,8.835,0,0,0,.759-1.379H20.14a8.221,8.221,0,0,1-.552-1.379h7.173a13.7,13.7,0,0,0,.69-4.138,17.8,17.8,0,0,0-.276-2.759h-8a10.084,10.084,0,0,1,.345-1.379h7.173a8.221,8.221,0,0,0-.552-1.379h-6.07a13.679,13.679,0,0,1,.759-1.379h4.621a6.559,6.559,0,0,0-1.035-1.379H21.865a11.756,11.756,0,0,1,1.31-1.31,12.728,12.728,0,0,0-8.76-3.38h-.069" transform="translate(-1.449 -9.682)" fill="#cb2026"/>
  <g id="Group_26693" data-name="Group 26693" transform="translate(1.242 9.656)">
    <path id="Path_18859" data-name="Path 18859" d="M19.416,27.168l.207-1.173a2.988,2.988,0,0,1-.345.069c-.483,0-.552-.276-.483-.414l.414-2.414h.759l.207-1.31h-.69l.138-.828H18.243s-.828,4.552-.828,5.1a1.035,1.035,0,0,0,1.1,1.173A2.117,2.117,0,0,0,19.416,27.168Z" transform="translate(-3 -20.477)" fill="#fff"/>
    <path id="Path_18860" data-name="Path 18860" d="M20.177,25.045a2.194,2.194,0,0,0,2.414,2.414,3.581,3.581,0,0,0,1.448-.207l.276-1.31a4.135,4.135,0,0,1-1.448.345c-1.517,0-1.242-1.1-1.242-1.1h2.828a8.943,8.943,0,0,0,.207-1.242,1.869,1.869,0,0,0-2-2C21.212,21.8,20.177,23.32,20.177,25.045Zm2.414-2c.759,0,.621.9.621.966H21.695C21.695,23.941,21.833,23.044,22.591,23.044Z" transform="translate(-3.279 -20.561)" fill="#fff"/>
    <path id="Path_18861" data-name="Path 18861" d="M32.18,27.1l.276-1.517a3.39,3.39,0,0,1-1.173.345c-.966,0-1.379-.759-1.379-1.586,0-1.655.828-2.552,1.793-2.552a2.3,2.3,0,0,1,1.242.414l.207-1.448a4.85,4.85,0,0,0-1.586-.345c-1.586,0-3.173,1.379-3.173,4,0,1.724.828,2.9,2.483,2.9A6.19,6.19,0,0,0,32.18,27.1Z" transform="translate(-4.108 -20.407)" fill="#fff"/>
    <path id="Path_18862" data-name="Path 18862" d="M10.907,21.788a4.885,4.885,0,0,0-1.655.276l-.207,1.173a4.077,4.077,0,0,1,1.517-.276c.483,0,.9.069.9.483,0,.276-.069.345-.069.345h-.621c-1.173,0-2.483.483-2.483,2.069,0,1.242.828,1.517,1.31,1.517a2.072,2.072,0,0,0,1.448-.621l-.069.552h1.242l.552-3.794A1.635,1.635,0,0,0,10.907,21.788Zm.276,3.1c0,.207-.138,1.31-.966,1.31a.538.538,0,0,1-.552-.552c0-.345.207-.828,1.242-.828A1.088,1.088,0,0,0,11.183,24.892Z" transform="translate(-2.078 -20.547)" fill="#fff"/>
    <path id="Path_18863" data-name="Path 18863" d="M14.552,27.367a1.768,1.768,0,0,0,2.069-1.793c0-1.724-1.655-1.379-1.655-2.069,0-.345.276-.483.759-.483.207,0,.966.069.966.069L16.9,21.85a5.239,5.239,0,0,0-1.31-.138c-1.035,0-2.069.414-2.069,1.793,0,1.586,1.724,1.448,1.724,2.069,0,.414-.483.483-.828.483a4.511,4.511,0,0,1-1.242-.207l-.207,1.242C13.035,27.23,13.379,27.367,14.552,27.367Z" transform="translate(-2.551 -20.539)" fill="#fff"/>
    <path id="Path_18864" data-name="Path 18864" d="M44.9,20.561l-.276,1.862a1.913,1.913,0,0,0-1.31-.69c-1.242,0-2.345,1.517-2.345,3.311,0,1.1.552,2.276,1.724,2.276A1.841,1.841,0,0,0,44,26.768l-.069.483h1.379l1.035-6.621Zm-.621,3.656c0,.759-.345,1.724-1.1,1.724-.483,0-.759-.414-.759-1.1,0-1.1.483-1.793,1.1-1.793C44,23.044,44.279,23.389,44.279,24.216Z" transform="translate(-5.378 -20.423)" fill="#fff"/>
    <path id="Path_18865" data-name="Path 18865" d="M2.691,27.182l.828-4.966.138,4.966h.966l1.793-4.966-.759,4.966H7.106l1.1-6.621H5.933L4.554,24.63l-.069-4.069h-2l-1.1,6.621Z" transform="translate(-1.381 -20.423)" fill="#fff"/>
    <path id="Path_18866" data-name="Path 18866" d="M26.451,27.322c.414-2.276.483-4.138,1.448-3.794a5.413,5.413,0,0,1,.483-1.586h-.276c-.621,0-1.1.828-1.1.828l.138-.759h-1.31l-.9,5.38h1.517Z" transform="translate(-3.759 -20.562)" fill="#fff"/>
    <path id="Path_18867" data-name="Path 18867" d="M35.841,21.788a4.885,4.885,0,0,0-1.655.276l-.207,1.173a4.077,4.077,0,0,1,1.517-.276c.483,0,.9.069.9.483,0,.276-.069.345-.069.345H35.7c-1.173,0-2.483.483-2.483,2.069,0,1.242.828,1.517,1.31,1.517a2.072,2.072,0,0,0,1.448-.621l-.069.552h1.242l.552-3.794A1.611,1.611,0,0,0,35.841,21.788Zm.345,3.1c0,.207-.138,1.31-.966,1.31a.538.538,0,0,1-.552-.552c0-.345.207-.828,1.242-.828C36.116,24.892,36.116,24.892,36.185,24.892Z" transform="translate(-4.596 -20.547)" fill="#fff"/>
    <path id="Path_18868" data-name="Path 18868" d="M39.34,27.322c.414-2.276.483-4.138,1.448-3.794a5.414,5.414,0,0,1,.483-1.586H41c-.621,0-1.1.828-1.1.828l.138-.759H38.719l-.9,5.38H39.34Z" transform="translate(-5.06 -20.562)" fill="#fff"/>
  </g>
  <g id="Group_26694" data-name="Group 26694" transform="translate(1.242 9.656)">
    <path id="Path_18869" data-name="Path 18869" d="M17.262,26.2a1.035,1.035,0,0,0,1.1,1.173,2.625,2.625,0,0,0,1.035-.207l.207-1.173a2.987,2.987,0,0,1-.345.069c-.483,0-.552-.276-.483-.414l.414-2.414h.759l.207-1.31h-.69l.138-.828" transform="translate(-2.984 -20.477)" fill="#dce5e5"/>
    <path id="Path_18870" data-name="Path 18870" d="M20.944,25.045c0,1.931.621,2.414,1.724,2.414a3.581,3.581,0,0,0,1.448-.207l.276-1.31a4.135,4.135,0,0,1-1.448.345c-1.517,0-1.242-1.1-1.242-1.1h2.828a8.943,8.943,0,0,0,.207-1.242,1.869,1.869,0,0,0-2-2C21.289,21.8,20.944,23.32,20.944,25.045Zm1.724-2c.759,0,.9.9.9.966H21.772C21.772,23.941,21.91,23.044,22.669,23.044Z" transform="translate(-3.356 -20.561)" fill="#dce5e5"/>
    <path id="Path_18871" data-name="Path 18871" d="M32.257,27.1l.276-1.517a3.39,3.39,0,0,1-1.173.345c-.966,0-1.379-.759-1.379-1.586,0-1.655.828-2.552,1.793-2.552a2.3,2.3,0,0,1,1.242.414l.207-1.448a4.85,4.85,0,0,0-1.586-.345c-1.586,0-2.483,1.379-2.483,4,0,1.724.138,2.9,1.793,2.9A6.19,6.19,0,0,0,32.257,27.1Z" transform="translate(-4.185 -20.407)" fill="#dce5e5"/>
    <path id="Path_18872" data-name="Path 18872" d="M9.044,23.321a4.077,4.077,0,0,1,1.517-.276c.483,0,.9.069.9.483,0,.276-.069.345-.069.345h-.621c-1.173,0-2.483.483-2.483,2.069,0,1.242.828,1.517,1.31,1.517a2.072,2.072,0,0,0,1.448-.621l-.069.552h1.242l.552-3.794c0-1.586-1.379-1.655-1.931-1.655m1.035,2.966a2.258,2.258,0,0,1-1.655,1.31.538.538,0,0,1-.552-.552c0-.345.207-.828,1.242-.828A5.635,5.635,0,0,0,11.872,24.908Z" transform="translate(-2.078 -20.562)" fill="#dce5e5"/>
    <path id="Path_18873" data-name="Path 18873" d="M13.042,27.23a5.838,5.838,0,0,0,1.586.138A1.768,1.768,0,0,0,16.7,25.574c0-1.724-1.655-1.379-1.655-2.069,0-.345.276-.483.759-.483.207,0,.966.069.966.069l.207-1.242a5.239,5.239,0,0,0-1.31-.138c-1.035,0-1.379.414-1.379,1.793,0,1.586,1.035,1.448,1.035,2.069,0,.414-.483.483-.828.483" transform="translate(-2.558 -20.539)" fill="#dce5e5"/>
    <path id="Path_18874" data-name="Path 18874" d="M44.7,22.431a1.913,1.913,0,0,0-1.311-.69c-1.242,0-1.655,1.517-1.655,3.311,0,1.1-.138,2.276,1.035,2.276a1.841,1.841,0,0,0,1.311-.552l-.069.483H45.39l1.035-6.621m-1.793,3.587c0,.759-.621,1.724-1.379,1.724-.483,0-.759-.414-.759-1.1,0-1.1.483-1.793,1.1-1.793A1.054,1.054,0,0,1,44.632,24.224Z" transform="translate(-5.455 -20.431)" fill="#dce5e5"/>
    <path id="Path_18875" data-name="Path 18875" d="M2.691,27.182l.828-4.966.138,4.966h.966l1.793-4.966-.759,4.966H7.106l1.1-6.621H6.485L4.554,24.63l-.069-4.069H3.726L1.381,27.182Z" transform="translate(-1.381 -20.423)" fill="#dce5e5"/>
    <path id="Path_18876" data-name="Path 18876" d="M25.011,27.322h1.448c.414-2.276.483-4.138,1.448-3.794a5.414,5.414,0,0,1,.483-1.586h-.276c-.621,0-1.1.828-1.1.828l.138-.759" transform="translate(-3.767 -20.562)" fill="#dce5e5"/>
    <path id="Path_18877" data-name="Path 18877" d="M33.978,23.321a4.077,4.077,0,0,1,1.517-.276c.483,0,.9.069.9.483,0,.276-.069.345-.069.345H35.7c-1.173,0-2.483.483-2.483,2.069,0,1.242.828,1.517,1.31,1.517a2.072,2.072,0,0,0,1.448-.621l-.069.552h1.242L37.7,23.6c0-1.586-1.379-1.655-1.931-1.655m1.035,2.966a2.258,2.258,0,0,1-1.655,1.31.538.538,0,0,1-.552-.552c0-.345.207-.828,1.242-.828A6.068,6.068,0,0,0,36.806,24.908Z" transform="translate(-4.596 -20.562)" fill="#dce5e5"/>
    <path id="Path_18878" data-name="Path 18878" d="M37.9,27.322h1.448c.414-2.276.483-4.138,1.448-3.794a5.413,5.413,0,0,1,.483-1.586H41c-.621,0-1.1.828-1.1.828l.138-.759" transform="translate(-5.068 -20.562)" fill="#dce5e5"/>
  </g>
</svg>
