<svg xmlns="http://www.w3.org/2000/svg" width="22.224" height="22.2" viewBox="0 0 22.224 22.2">
  <g id="salary_1_" data-name="salary(1)" transform="translate(0.1 0.1)">
    <path id="Path_19706" data-name="Path 19706" d="M21.735,13.9a2.743,2.743,0,0,0-4.262-.359l-2.762,2.9a3.228,3.228,0,0,0-3.05-2.182H9.328a3.833,3.833,0,0,0-2.883-1.289,3.879,3.879,0,0,0-2.84,1.242A3.807,3.807,0,0,1,.849,15.555H0V22H15.838L22,14.3Zm-6.517,6.806H1.289V16.822a5.192,5.192,0,0,0,3.263-1.728,2.586,2.586,0,0,1,1.893-.828A2.559,2.559,0,0,1,8.508,15.3l.193.257h2.959a1.937,1.937,0,0,1,1.823,1.289H9.023v1.289h5.863l3.52-3.7a1.456,1.456,0,0,1,1.948-.145Zm0,0" fill="#19124f" stroke="#181346" stroke-width="0.2"/>
    <path id="Path_19707" data-name="Path 19707" d="M12.891,12.977A3.867,3.867,0,1,0,9.023,9.109,3.872,3.872,0,0,0,12.891,12.977Zm0-6.445a2.578,2.578,0,1,1-2.578,2.578A2.581,2.581,0,0,1,12.891,6.531Zm0,0" fill="#19124f" stroke="#181346" stroke-width="0.2"/>
    <path id="Path_19708" data-name="Path 19708" d="M18.047,6.531a2.578,2.578,0,1,0-2.578-2.578A2.581,2.581,0,0,0,18.047,6.531Zm0-3.867a1.289,1.289,0,1,1-1.289,1.289A1.29,1.29,0,0,1,18.047,2.664Zm0,0" fill="#19124f" stroke="#181346" stroke-width="0.2"/>
    <path id="Path_19709" data-name="Path 19709" d="M12.246,3.867a1.934,1.934,0,1,0-1.934-1.934A1.936,1.936,0,0,0,12.246,3.867Zm0-2.578a.645.645,0,1,1-.645.645A.645.645,0,0,1,12.246,1.289Zm0,0" fill="#19124f" stroke="#181346" stroke-width="0.2"/>
    <path id="Path_19710" data-name="Path 19710" d="M12.246,7.82h1.289V10.4H12.246Zm0,0" fill="#19124f" stroke="#181346" stroke-width="0.2"/>
  </g>
</svg>
