<svg xmlns="http://www.w3.org/2000/svg" width="22.3" height="22.301" viewBox="0 0 22.3 22.301">
  <g id="artificial-intelligence" transform="translate(0.15 0.151)">
    <g id="Group_27670" data-name="Group 27670">
      <g id="Group_27669" data-name="Group 27669">
        <path id="Path_19694" data-name="Path 19694" d="M11,0H9.167A6.883,6.883,0,0,0,2.292,6.875v.77L.057,11.7A.461.461,0,0,0,0,11.917Q0,11.956,0,12a1.336,1.336,0,0,0,1.375,1.3,1.641,1.641,0,0,1,.917.343v1.49q0,.053,0,.105a1.782,1.782,0,0,0,1.833,1.728H6.954a1.336,1.336,0,0,0,1.3-1.375v-2.75H7.334v2.75a.419.419,0,0,1-.458.458H4.125a.863.863,0,0,1-.917-.917V13.417a.458.458,0,0,0-.154-.343,2.648,2.648,0,0,0-1.679-.7H1.369a.4.4,0,0,1-.443-.358L3.152,7.985a.461.461,0,0,0,.057-.221V6.875A5.965,5.965,0,0,1,9.167.917h1.828a.421.421,0,0,1,.464.458V3.667h.917V1.376q0-.039,0-.078A1.336,1.336,0,0,0,11,0Z" fill="#19124f" stroke="#181346" stroke-width="0.3"/>
      </g>
    </g>
    <g id="Group_27672" data-name="Group 27672">
      <g id="Group_27671" data-name="Group 27671">
        <path id="Path_19695" data-name="Path 19695" d="M18.792,13.75H13.75v.917h5.042a.419.419,0,0,1,.458.458v.866c-.066.274-.508,1.884-1.833,1.884a.458.458,0,0,0-.458.458v2.75H8.25V19.708H7.334v1.833A.458.458,0,0,0,7.792,22h9.625a.458.458,0,0,0,.458-.458v-2.79a3.263,3.263,0,0,0,2.282-2.618.456.456,0,0,0,.009-.092v-.917q0-.039,0-.078A1.336,1.336,0,0,0,18.792,13.75Z" fill="#19124f" stroke="#181346" stroke-width="0.3"/>
      </g>
    </g>
    <g id="Group_27674" data-name="Group 27674">
      <g id="Group_27673" data-name="Group 27673">
        <path id="Path_19696" data-name="Path 19696" d="M21.542,5.5H20.386a4.18,4.18,0,0,0-.166-.4l.818-.818a.458.458,0,0,0,0-.648l-1.3-1.3a.458.458,0,0,0-.648,0l-.818.818a4.241,4.241,0,0,0-.4-.166V1.834a.458.458,0,0,0-.458-.458H15.583a.458.458,0,0,0-.458.458V2.99a4.078,4.078,0,0,0-.718.335l.466.789a3.208,3.208,0,0,1,.825-.341.458.458,0,0,0,.344-.444V2.292h.917V3.329a.458.458,0,0,0,.343.444,3.208,3.208,0,0,1,.825.341.458.458,0,0,0,.557-.071l.733-.733.649.647-.733.733a.458.458,0,0,0-.071.557,3.209,3.209,0,0,1,.342.825.458.458,0,0,0,.443.344h1.037v.916H20.047a.458.458,0,0,0-.443.344,3.209,3.209,0,0,1-.342.825.458.458,0,0,0,.071.557l.733.733-.648.648-.733-.733a.458.458,0,0,0-.557-.071,3.208,3.208,0,0,1-.825.341.458.458,0,0,0-.344.444v1.037h-.917V10.422a.458.458,0,0,0-.344-.444,3.208,3.208,0,0,1-.825-.341.458.458,0,0,0-.557.071l-.733.733-.648-.648.733-.733a.458.458,0,0,0,.071-.557,3.209,3.209,0,0,1-.342-.825.458.458,0,0,0-.443-.344h-1.5V8.25h1.156a4.176,4.176,0,0,0,.166.4l-.818.818a.458.458,0,0,0,0,.648l1.3,1.3a.458.458,0,0,0,.648,0l.818-.818a4.241,4.241,0,0,0,.4.166v1.156a.458.458,0,0,0,.458.458h1.833a.458.458,0,0,0,.458-.458V10.761a4.253,4.253,0,0,0,.4-.166l.818.817a.458.458,0,0,0,.648,0l1.3-1.3a.458.458,0,0,0,0-.648l-.818-.818a4.179,4.179,0,0,0,.166-.4h1.156A.458.458,0,0,0,22,7.792V5.959A.458.458,0,0,0,21.542,5.5Z" fill="#19124f" stroke="#181346" stroke-width="0.3"/>
      </g>
    </g>
    <g id="Group_27676" data-name="Group 27676">
      <g id="Group_27675" data-name="Group 27675">
        <path id="Path_19697" data-name="Path 19697" d="M16.5,5.042a1.833,1.833,0,1,0,1.833,1.833A1.833,1.833,0,0,0,16.5,5.042Zm0,2.75a.917.917,0,1,1,.917-.917A.917.917,0,0,1,16.5,7.792Z" fill="#19124f" stroke="#181346" stroke-width="0.3"/>
      </g>
    </g>
    <g id="Group_27678" data-name="Group 27678">
      <g id="Group_27677" data-name="Group 27677">
        <path id="Path_19698" data-name="Path 19698" d="M6.875,7.334v.458H5.5V7.334H4.584v.458c0,.013,0,.025,0,.038a.9.9,0,0,0,.917.879H6.913a.9.9,0,0,0,.879-.917V7.334Z" fill="#19124f" stroke="#181346" stroke-width="0.3"/>
      </g>
    </g>
    <g id="Group_27680" data-name="Group 27680">
      <g id="Group_27679" data-name="Group 27679">
        <path id="Path_19699" data-name="Path 19699" d="M12.834,12.834a1.375,1.375,0,1,0,1.375,1.375A1.375,1.375,0,0,0,12.834,12.834Zm0,1.833a.458.458,0,1,1,.458-.458A.458.458,0,0,1,12.834,14.667Z" fill="#19124f" stroke="#181346" stroke-width="0.3"/>
      </g>
    </g>
    <g id="Group_27682" data-name="Group 27682">
      <g id="Group_27681" data-name="Group 27681">
        <path id="Path_19700" data-name="Path 19700" d="M7.792,10.542a1.375,1.375,0,1,0,1.375,1.375A1.375,1.375,0,0,0,7.792,10.542Zm0,1.833a.458.458,0,1,1,.458-.458A.458.458,0,0,1,7.792,12.375Z" fill="#19124f" stroke="#181346" stroke-width="0.3"/>
      </g>
    </g>
    <g id="Group_27684" data-name="Group 27684">
      <g id="Group_27683" data-name="Group 27683">
        <path id="Path_19701" data-name="Path 19701" d="M11.917,3.209a1.375,1.375,0,1,0,1.375,1.375A1.375,1.375,0,0,0,11.917,3.209Zm0,1.833a.458.458,0,1,1,.458-.458A.458.458,0,0,1,11.917,5.042Z" fill="#19124f" stroke="#181346" stroke-width="0.3"/>
      </g>
    </g>
    <g id="Group_27686" data-name="Group 27686">
      <g id="Group_27685" data-name="Group 27685">
        <rect id="Rectangle_1974" data-name="Rectangle 1974" width="0.917" height="0.917" transform="translate(9.625 7.334)" fill="#19124f" stroke="#181346" stroke-width="0.3"/>
      </g>
    </g>
    <g id="Group_27688" data-name="Group 27688">
      <g id="Group_27687" data-name="Group 27687">
        <rect id="Rectangle_1975" data-name="Rectangle 1975" width="0.917" height="0.917" transform="translate(9.625 9.167)" fill="#19124f" stroke="#181346" stroke-width="0.3"/>
      </g>
    </g>
    <g id="Group_27690" data-name="Group 27690">
      <g id="Group_27689" data-name="Group 27689">
        <rect id="Rectangle_1976" data-name="Rectangle 1976" width="0.917" height="0.917" transform="translate(7.334 17.875)" fill="#19124f" stroke="#181346" stroke-width="0.3"/>
      </g>
    </g>
  </g>
</svg>
