<svg xmlns="http://www.w3.org/2000/svg" width="18.002" height="22.832" viewBox="0 0 18.002 22.832">
  <g id="_879761" data-name="879761" transform="translate(-54.154)">
    <g id="Group_26679" data-name="Group 26679" transform="translate(54.154)">
      <g id="Group_26678" data-name="Group 26678" transform="translate(0)">
        <path id="Path_19429" data-name="Path 19429" d="M63.155,0a9,9,0,0,0-5.049,16.448v5.725a.659.659,0,0,0,.929.6l4.12-1.854,4.12,1.854a.659.659,0,0,0,.929-.6V16.448A9,9,0,0,0,63.155,0Zm3.732,21.154L63.425,19.6a.658.658,0,0,0-.54,0l-3.462,1.558V17.193a8.956,8.956,0,0,0,1.017.39l.059.019.133.04.1.028.108.029.126.033.089.022.146.034.076.017.161.033.066.013.172.03.059.01.178.026.055.008.182.022.054.006.182.017.055,0,.181.012.058,0,.183.007.055,0q.119,0,.238,0t.238,0l.055,0,.183-.007.058,0,.181-.012.055,0,.182-.017.054-.006.182-.022.055-.008.178-.026.059-.01.172-.03.066-.013.161-.033.076-.017.146-.034.089-.022.126-.033.108-.029.1-.028.133-.04.059-.019a8.956,8.956,0,0,0,1.017-.39v3.961Zm-1.225-4.89-.079.027-.121.039-.141.043-.1.029-.188.05-.07.017-.185.042-.047.01q-.12.025-.241.046l-.025,0q-.109.019-.218.034l-.049.007c-.078.011-.156.02-.234.028h-.009q-.123.013-.246.021l-.054,0-.192.01-.065,0c-.081,0-.161,0-.242,0s-.161,0-.242,0l-.065,0-.192-.01-.054,0q-.123-.009-.246-.021h-.009c-.078-.008-.156-.018-.234-.028l-.049-.007q-.109-.016-.218-.034l-.025,0q-.121-.021-.241-.046l-.047-.01-.185-.042-.07-.017-.188-.05-.1-.029-.141-.043-.121-.039-.079-.027a7.684,7.684,0,1,1,5.015,0Z" transform="translate(-54.154)" fill="#19124f"/>
      </g>
    </g>
    <g id="Group_26681" data-name="Group 26681" transform="translate(57.933 3.074)">
      <g id="Group_26680" data-name="Group 26680">
        <path id="Path_19430" data-name="Path 19430" d="M148.036,74.851l1.237-2.325a.659.659,0,0,0-.559-.968l-2.632-.091-1.4-2.234a.659.659,0,0,0-1.117,0l-1.4,2.234-2.632.091a.659.659,0,0,0-.559.968l1.237,2.325-1.237,2.325a.659.659,0,0,0,.559.968l2.632.091,1.4,2.234a.659.659,0,0,0,1.117,0l1.4-2.234,2.632-.091a.659.659,0,0,0,.559-.968Zm-2.349,2.079a.659.659,0,0,0-.536.309l-1.022,1.637-1.022-1.637a.659.659,0,0,0-.536-.309l-1.928-.067.906-1.7a.658.658,0,0,0,0-.619l-.906-1.7,1.928-.067a.659.659,0,0,0,.536-.309l1.022-1.637,1.022,1.637a.659.659,0,0,0,.536.309l1.928.067-.906,1.7a.659.659,0,0,0,0,.619l.906,1.7Z" transform="translate(-138.907 -68.924)" fill="#19124f"/>
      </g>
    </g>
  </g>
</svg>
