<svg xmlns="http://www.w3.org/2000/svg" xmlns:xlink="http://www.w3.org/1999/xlink" width="130" height="130" viewBox="0 0 130 130">
  <defs>
    <linearGradient id="linear-gradient" x1="0.5" x2="0.5" y2="1" gradientUnits="objectBoundingBox">
      <stop offset="0" stop-color="#f8f4f4"/>
      <stop offset="1" stop-color="#fff"/>
    </linearGradient>
  </defs>
  <g id="Group_28458" data-name="Group 28458" transform="translate(-343 -1693)">
    <circle id="Ellipse_3224" data-name="Ellipse 3224" cx="65" cy="65" r="65" transform="translate(343 1693)" fill="url(#linear-gradient)"/>
    <path id="gift_9_" data-name="gift(9)" d="M109.046,55.771H94.793C94.139,46.941,88.052,40,80.659,40a1.577,1.577,0,0,0-.836.24L67.59,47.885H59.034L46.8,40.24a1.577,1.577,0,0,0-.836-.24c-7.392,0-13.48,6.941-14.134,15.771H17.577A1.577,1.577,0,0,0,16,57.348V73.118A1.577,1.577,0,0,0,17.577,74.7v48.889a1.577,1.577,0,0,0,1.577,1.577h88.315a1.577,1.577,0,0,0,1.577-1.577V74.7a1.577,1.577,0,0,0,1.577-1.577V57.348A1.577,1.577,0,0,0,109.046,55.771Zm-1.577,15.771h-34.7V58.925h34.7ZM53.849,58.925V71.541H42.81V58.925Zm15.771,0V71.541H57V58.925ZM66.466,74.7v47.312H60.157V74.7Zm14.628-31.53c5.476.274,9.938,5.7,10.534,12.606h-16.9l6.641-3.321h0a1.576,1.576,0,1,0-1.409-2.819h0L69.62,54.8v-4.46ZM66.466,51.039v4.731H60.157V51.039ZM45.529,43.165,57,50.336V54.8L46.669,49.629h0a1.576,1.576,0,1,0-1.409,2.819h0l6.64,3.32h-16.9C35.591,48.866,40.054,43.439,45.529,43.165ZM19.154,58.925h20.5V71.541h-20.5ZM20.731,74.7H39.656V80.35L33.809,86.2a1.577,1.577,0,0,0,0,2.23l6.308,6.308a1.577,1.577,0,0,0,2.23,0l6.308-6.308a1.577,1.577,0,0,0,0-2.23L42.81,80.35V74.7H57v47.312H20.731Zm20.5,8.539,4.078,4.078-4.078,4.078-4.078-4.078Zm64.659,38.773H69.62V74.7h36.272Z" transform="translate(344 1677.42)" fill="#8784a4"/>
  </g>
</svg>
