<svg xmlns="http://www.w3.org/2000/svg" width="20" height="25.6" viewBox="0 0 20 25.6">
  <path id="notepad" d="M19,1.9H15.5V1a1,1,0,0,0-2,0v.9H11V1A1,1,0,0,0,9,1v.9H6.35V1a1,1,0,0,0-2,0v.9H1a1,1,0,0,0-1,1V24.6a1,1,0,0,0,1,1H19a1,1,0,0,0,1-1V2.9A1,1,0,0,0,19,1.9ZM18,23.6H2V3.9H4.35V6a1,1,0,0,0,2,0V3.9H9V6a1,1,0,0,0,2,0V3.9h2.5V6a1,1,0,0,0,2,0V3.9H18ZM15.5,10.8a1,1,0,0,1-1,1h-9a1,1,0,1,1,0-2h9A1,1,0,0,1,15.5,10.8Zm0,4a1,1,0,0,1-1,1h-9a1,1,0,0,1,0-2h9A1,1,0,0,1,15.5,14.8Zm0,4a1,1,0,0,1-1,1h-9a1,1,0,0,1,0-2h9A1,1,0,0,1,15.5,18.8Zm0,0" fill="#19124f"/>
</svg>
