<svg xmlns="http://www.w3.org/2000/svg" width="28.33" height="28.139" viewBox="0 0 28.33 28.139">
  <g id="offer" transform="translate(0.3 0.317)">
    <path id="Path_19821" data-name="Path 19821" d="M10.94,11.937v.018a2.989,2.989,0,0,0,1.706,2.852l.011.006a2.01,2.01,0,0,1,.91.875l0,.008a3.123,3.123,0,0,0,2.935,1.638h.019a2.138,2.138,0,0,1,1.264.329,3.2,3.2,0,0,0,3.4,0,2.138,2.138,0,0,1,1.264-.329h.019a3.125,3.125,0,0,0,2.936-1.64l0-.006a2.013,2.013,0,0,1,.913-.877l.009,0a2.989,2.989,0,0,0,1.706-2.852v-.017a1.913,1.913,0,0,1,.333-1.185,2.941,2.941,0,0,0,0-3.326,1.912,1.912,0,0,1-.333-1.185V6.225a2.989,2.989,0,0,0-1.707-2.852l-.01-.005A2.008,2.008,0,0,1,25.41,2.5L25.4,2.484A3.126,3.126,0,0,0,22.469.846H22.45A2.136,2.136,0,0,1,21.187.518h0a3.2,3.2,0,0,0-3.4,0,2.139,2.139,0,0,1-1.264.328h-.019a3.124,3.124,0,0,0-2.935,1.638l0,.008a2.011,2.011,0,0,1-.911.877l-.011.005a2.989,2.989,0,0,0-1.706,2.852v.017a1.911,1.911,0,0,1-.333,1.185,2.941,2.941,0,0,0,0,3.326A1.911,1.911,0,0,1,10.94,11.937Zm.516-3.925a2.948,2.948,0,0,0,.514-1.829V6.165A1.96,1.96,0,0,1,13.095,4.3l.009,0a3.036,3.036,0,0,0,1.375-1.324l.005-.01a2.091,2.091,0,0,1,1.967-1.088h.018a3.159,3.159,0,0,0,1.869-.486,2.167,2.167,0,0,1,2.3,0,3.166,3.166,0,0,0,1.868.486h.018A2.088,2.088,0,0,1,24.49,2.961l.007.013A3.036,3.036,0,0,0,25.871,4.3l.009,0a1.961,1.961,0,0,1,1.127,1.865v.018a2.948,2.948,0,0,0,.514,1.829,1.9,1.9,0,0,1,0,2.154A2.951,2.951,0,0,0,27.005,12v.017a1.962,1.962,0,0,1-1.127,1.866l-.008,0a3.04,3.04,0,0,0-1.376,1.326l0,.008A2.09,2.09,0,0,1,22.524,16.3h-.018a3.165,3.165,0,0,0-1.869.486,2.167,2.167,0,0,1-2.3,0,3.16,3.16,0,0,0-1.694-.491q-.087,0-.175,0h-.018a2.089,2.089,0,0,1-1.968-1.089l-.005-.01a3.032,3.032,0,0,0-1.373-1.322l-.01,0a1.96,1.96,0,0,1-1.127-1.865V12a2.95,2.95,0,0,0-.514-1.829,1.9,1.9,0,0,1,0-2.154Zm0,0" transform="translate(-2.737 0)" fill="#19124f" stroke="#19124f" stroke-width="0.6"/>
    <path id="Path_19822" data-name="Path 19822" d="M18.328,15.777a.516.516,0,0,0,.71-.164l6.108-9.785a.516.516,0,1,0-.875-.546l-6.108,9.785A.516.516,0,0,0,18.328,15.777Zm0,0" transform="translate(-4.904 -1.357)" fill="#19124f" stroke="#19124f" stroke-width="0.6"/>
    <path id="Path_19823" data-name="Path 19823" d="M18.322,10.563a2.456,2.456,0,0,0,2.277-2.6,2.455,2.455,0,0,0-2.277-2.6,2.455,2.455,0,0,0-2.277,2.6A2.456,2.456,0,0,0,18.322,10.563Zm0-4.162a1.435,1.435,0,0,1,1.246,1.565,1.435,1.435,0,0,1-1.246,1.566,1.435,1.435,0,0,1-1.246-1.566A1.435,1.435,0,0,1,18.322,6.4Zm0,0" transform="translate(-4.351 -1.448)" fill="#19124f" stroke="#19124f" stroke-width="0.6"/>
    <path id="Path_19824" data-name="Path 19824" d="M23.673,15.023a2.455,2.455,0,0,0,2.277,2.6,2.456,2.456,0,0,0,2.277-2.6,2.456,2.456,0,0,0-2.277-2.6A2.455,2.455,0,0,0,23.673,15.023Zm3.523,0a1.435,1.435,0,0,1-1.246,1.565A1.435,1.435,0,0,1,24.7,15.023a1.435,1.435,0,0,1,1.246-1.565A1.435,1.435,0,0,1,27.2,15.023Zm0,0" transform="translate(-6.42 -3.362)" fill="#19124f" stroke="#19124f" stroke-width="0.6"/>
    <path id="Path_19825" data-name="Path 19825" d="M27.628,26.583a2.6,2.6,0,0,0-3.439-1.048L20.15,27.443a3.29,3.29,0,0,0-2.8-1.73l-3.729-.1a3.942,3.942,0,0,1-1.695-.438l-.379-.2a6.692,6.692,0,0,0-6.2.007l.024-.86a.516.516,0,0,0-.5-.53L.777,23.48a.515.515,0,0,0-.529.5L0,32.955a.516.516,0,0,0,.5.53L4.59,33.6H4.6a.516.516,0,0,0,.515-.5l.012-.429L6.194,32.1a1.823,1.823,0,0,1,1.36-.149l6.343,1.78.033.008a6.791,6.791,0,0,0,1.394.144,6.88,6.88,0,0,0,2.874-.627.506.506,0,0,0,.064-.035l9.2-5.949A.515.515,0,0,0,27.628,26.583ZM1.045,32.467l.219-7.942,3.058.084L4.1,32.552Zm16.689-.135a5.844,5.844,0,0,1-3.575.4L7.833,30.956a2.85,2.85,0,0,0-2.125.232l-.543.291L5.31,26.2a5.667,5.667,0,0,1,5.758-.307l.379.2a4.978,4.978,0,0,0,2.141.553l3.729.1a2.261,2.261,0,0,1,2.149,1.8l-5.554-.153a.516.516,0,0,0-.028,1.031l6.129.169h.015a.516.516,0,0,0,.515-.5,3.29,3.29,0,0,0-.05-.669l4.142-1.958.012-.006a1.575,1.575,0,0,1,1.782.249Zm0,0" transform="translate(0 -6.359)" fill="#19124f" stroke="#19124f" stroke-width="0.6"/>
  </g>
</svg>
