<svg xmlns="http://www.w3.org/2000/svg" width="35.007" height="34.465" viewBox="0 0 35.007 34.465">
  <g id="handshake" transform="translate(0.458 0.374)">
    <path id="Path_19568" data-name="Path 19568" d="M33.957,17.4,28.25,9.99a.669.669,0,0,0-.889-.156l-3.684,2.343H18.872a.663.663,0,0,0-.184.031L14.962,13.28,11.1,12.223,7.339,9.834a.668.668,0,0,0-.879.144L.148,17.8a.668.668,0,0,0,.084.927L3.541,21.57l2.968,4a2.361,2.361,0,0,0,1.485,3.965,2.378,2.378,0,0,0-.028.361,2.363,2.363,0,0,0,2.363,2.363h.025c0,.016,0,.032,0,.048a2.362,2.362,0,0,0,2.363,2.363,2.411,2.411,0,0,0,.369-.029,2.363,2.363,0,0,0,4.021,1.439l.361-.361.152.122a2.362,2.362,0,0,0,4-1.735,2.359,2.359,0,0,0,2.4-2.4,2.361,2.361,0,0,0,2.4-2.4,2.361,2.361,0,0,0,2.018-3.648l2.167-4.539,3.258-2.8A.668.668,0,0,0,33.957,17.4ZM7.125,11.282,9.827,13,3.951,20.159,1.6,18.132ZM7.507,26.46l.815-.815c.025-.025.051-.048.077-.07a1.023,1.023,0,0,1,.557-.226h.017c.029,0,.058,0,.088,0a1.02,1.02,0,0,1,.731.321,1.051,1.051,0,0,1-.045,1.454l-.791.791a1.026,1.026,0,0,1-1.45-1.45Zm2.1,4.161a1.025,1.025,0,0,1,0-1.45l1.581-1.581a1.036,1.036,0,0,1,1.166-.2,1.022,1.022,0,0,1,.565,1.059,1.082,1.082,0,0,1-.305.618l-1.556,1.556a1.026,1.026,0,0,1-1.45,0Zm2.387,2.41a1.025,1.025,0,0,1,0-1.45L13.571,30a1.037,1.037,0,0,1,1.24-.163,1.021,1.021,0,0,1,.49,1.036,1.084,1.084,0,0,1-.3.6l-1.556,1.556a1.026,1.026,0,0,1-1.45,0Zm2.719,2.1a1.027,1.027,0,0,1,0-1.45l.815-.815c.025-.025.05-.048.077-.07l0,0a1.022,1.022,0,0,1,.455-.211l.012,0c.029-.005.058-.009.087-.012l.035,0c.024,0,.048,0,.072,0a1.019,1.019,0,0,1,.731.321.925.925,0,0,1,.066.078,1.058,1.058,0,0,1-.115,1.381l-.786.786A1.027,1.027,0,0,1,14.71,35.133Zm12.472-7.461a1.026,1.026,0,0,1-1.45,0,.608.608,0,0,0-.046-.041l-4.3-4.344a.669.669,0,0,0-.951.941l4.345,4.391,0,0a1.026,1.026,0,1,1-1.45,1.45l-2.907-2.937a.669.669,0,0,0-.95.941l2.862,2.892a.635.635,0,0,0,.047.052,1.026,1.026,0,1,1-1.451,1.45l-1.587-1.6a.669.669,0,0,0-.951.94l1.542,1.558a.6.6,0,0,0,.047.053,1.026,1.026,0,1,1-1.45,1.45,1.479,1.479,0,0,0-.152-.121c-.044-.033-.055-.056-.033-.11s.055-.1.077-.157.044-.123.063-.185a2.411,2.411,0,0,0,.087-1.029,2.339,2.339,0,0,0-1.993-2.013,2.385,2.385,0,0,0-.573-2.152,2.345,2.345,0,0,0-1.684-.739h-.07a2.34,2.34,0,0,0-2.316-2.41,2.4,2.4,0,0,0-.57.061A2.34,2.34,0,0,0,9.08,24.008a2.368,2.368,0,0,0-1.614.607L4.881,21.132,11.064,13.6l1.97.539L10.461,18.68a2.363,2.363,0,0,0,.891,3.22c.034.02.069.038.1.056l.008,0a2.378,2.378,0,0,0,.284.119,2.363,2.363,0,0,0,2.825-1.069l1.672-2.951,2.986.212,7.951,7.951A1.027,1.027,0,0,1,27.182,27.672Zm.277-3.065L20,17.148a.593.593,0,0,0-.044-.041.669.669,0,0,0-.381-.153L15.918,16.7a.68.68,0,0,0-.629.337l-1.88,3.318a1.026,1.026,0,1,1-1.784-1.011l2.51-4.43,1.017-.293.02-.007,3.8-1.1h4.587l5.726,7.279Zm2.7-4.864-5.3-6.735,2.7-1.719,4.948,6.427Zm0,0" transform="translate(0 -3.079)" fill="#fff" stroke="#fff" stroke-width="0.8"/>
    <path id="Path_19569" data-name="Path 19569" d="M29.98,8.724a.667.667,0,0,0,.473-.2l4.567-4.567a.669.669,0,1,0-.946-.946L29.507,7.582a.669.669,0,0,0,.473,1.141Zm0,0" transform="translate(-9.323 -0.881)" fill="#fff" stroke="#fff" stroke-width="0.8"/>
    <path id="Path_19570" data-name="Path 19570" d="M16.794,8.528a.669.669,0,0,0,.946-.946L13.172,3.015a.669.669,0,1,0-.946.946Zm0,0" transform="translate(-3.827 -0.881)" fill="#fff" stroke="#fff" stroke-width="0.8"/>
    <path id="Path_19571" data-name="Path 19571" d="M24.688,9.091a.669.669,0,0,0,.669-.669V4.643a.669.669,0,0,0-1.337,0V8.422A.669.669,0,0,0,24.688,9.091Zm0,0" transform="translate(-7.64 -1.249)" fill="#fff" stroke="#fff" stroke-width="0.8"/>
    <path id="Path_19572" data-name="Path 19572" d="M24.072.971A.668.668,0,1,0,25.1.185.676.676,0,0,0,24.318.16a.673.673,0,0,0-.246.812Zm0,0" transform="translate(-7.641 0)" fill="#fff" stroke="#fff" stroke-width="0.8"/>
  </g>
</svg>
