<svg id="printer" xmlns="http://www.w3.org/2000/svg" width="28" height="28" viewBox="0 0 28 28">
  <path id="Path_19774" data-name="Path 19774" d="M23.9,7.055h-.766V4.1a4.106,4.106,0,0,0-4.1-4.1H8.969a4.106,4.106,0,0,0-4.1,4.1V7.055H4.1a4.106,4.106,0,0,0-4.1,4.1v6.563a4.106,4.106,0,0,0,4.1,4.1h.766v3.719A2.464,2.464,0,0,0,7.328,28H20.672a2.464,2.464,0,0,0,2.461-2.461V21.82H23.9a4.106,4.106,0,0,0,4.1-4.1V11.156A4.106,4.106,0,0,0,23.9,7.055ZM6.508,4.1A2.464,2.464,0,0,1,8.969,1.641H19.031A2.464,2.464,0,0,1,21.492,4.1V7.055H6.508ZM21.492,25.539a.821.821,0,0,1-.82.82H7.328a.821.821,0,0,1-.82-.82V17.445H21.492Zm4.867-7.82A2.464,2.464,0,0,1,23.9,20.18h-.766V17.445h.492a.82.82,0,0,0,0-1.641H4.375a.82.82,0,0,0,0,1.641h.492V20.18H4.1a2.464,2.464,0,0,1-2.461-2.461V11.156A2.464,2.464,0,0,1,4.1,8.7H23.9a2.464,2.464,0,0,1,2.461,2.461Z" fill="#fff"/>
  <path id="Path_19775" data-name="Path 19775" d="M24.824,34.473H20.449a.82.82,0,0,0,0,1.641h4.375a.82.82,0,0,0,0-1.641Z" transform="translate(-8.637 -15.168)" fill="#fff"/>
  <path id="Path_19776" data-name="Path 19776" d="M24.824,40.723H20.449a.82.82,0,0,0,0,1.641h4.375a.82.82,0,0,0,0-1.641Z" transform="translate(-8.637 -17.918)" fill="#fff"/>
  <path id="Path_19777" data-name="Path 19777" d="M9.793,18.848H7.168a.82.82,0,0,0,0,1.641H9.793a.82.82,0,0,0,0-1.641Z" transform="translate(-2.793 -8.293)" fill="#fff"/>
</svg>
