<svg xmlns="http://www.w3.org/2000/svg" width="27.843" height="26.002" viewBox="0 0 27.843 26.002">
  <path id="global_7_" data-name="global(7)" d="M14.37,9.292a10.529,10.529,0,0,1-2.045.558,10.518,10.518,0,0,1-.558,2.045A5.4,5.4,0,0,0,14.37,9.292Zm-3.744.759a17.716,17.716,0,0,1-2.273,0,8.479,8.479,0,0,0,.305,1.071c.287.789.587,1.277.831,1.277s.544-.488.831-1.277A8.514,8.514,0,0,0,10.626,10.051Zm-3.971-.2a10.536,10.536,0,0,1-2.045-.558,5.4,5.4,0,0,0,2.6,2.6A10.488,10.488,0,0,1,6.655,9.85Zm5.111-7.715a10.518,10.518,0,0,1,.558,2.045,10.5,10.5,0,0,1,2.045.558A5.4,5.4,0,0,0,11.766,2.135Zm.759,3.744a17.716,17.716,0,0,1,0,2.273c.5-.11,2.348-.628,2.348-1.136S13.023,5.989,12.526,5.879ZM6.454,8.152a17.716,17.716,0,0,1,0-2.273c-.5.11-2.351.627-2.348,1.139S6.042,8.061,6.454,8.152Zm.2-3.971a10.5,10.5,0,0,1,.558-2.045,5.4,5.4,0,0,0-2.6,2.6A10.486,10.486,0,0,1,6.655,4.181ZM9.49,1.631c-.509,0-1.027,1.851-1.136,2.348a17.639,17.639,0,0,1,2.273,0C10.516,3.482,10,1.631,9.49,1.631Zm-1.382,4a16.331,16.331,0,0,0,0,2.765,16.375,16.375,0,0,0,2.765,0,16.375,16.375,0,0,0,0-2.765A16.375,16.375,0,0,0,8.107,5.633Zm13.1,11.233a.816.816,0,0,1,0-1.631h2.215l-1.1-1.849a4.413,4.413,0,0,0-3.343-2.2V21.869h.6a3.129,3.129,0,0,1,5.923,0h.709V17.79a.928.928,0,0,0-.924-.924ZM5.737,19.748A3.128,3.128,0,0,0,2.772,21.88H1.631V8.546H2.642a7.017,7.017,0,0,0,13.7,0h1.011V21.88H8.7A3.128,3.128,0,0,0,5.737,19.748ZM8.8,23.511a3.128,3.128,0,0,1-6.124,0H.816A.816.816,0,0,1,0,22.7V7.73a.816.816,0,0,1,.816-.816H2.475a7.015,7.015,0,0,1,14.029,0h1.659a.816.816,0,0,1,.816.816V9.55a6.058,6.058,0,0,1,4.738,3l1.6,2.684a2.56,2.56,0,0,1,2.527,2.556v4.894a.816.816,0,0,1-.816.816H25.606a3.128,3.128,0,0,1-6.129,0C15.918,23.5,12.359,23.511,8.8,23.511Zm-2-1.694a1.5,1.5,0,1,0,.438,1.057A1.5,1.5,0,0,0,6.795,21.818Zm16.8,0a1.5,1.5,0,1,1-2.553,1.057A1.5,1.5,0,0,1,23.6,21.818Zm0,0" fill="#fff" fill-rule="evenodd"/>
</svg>
