<svg xmlns="http://www.w3.org/2000/svg" width="28.005" height="28" viewBox="0 0 28.005 28">
  <g id="technics" transform="translate(0 -0.005)">
    <g id="Group_27276" data-name="Group 27276" transform="translate(0 0.005)">
      <g id="Group_27275" data-name="Group 27275">
        <path id="Path_19575" data-name="Path 19575" d="M26.8,21.026c-2.506-2.506-2.342-2.348-2.413-2.4l-6.635-4.9,2.574-2.574A5.744,5.744,0,0,0,27.442,3.27a.821.821,0,0,0-1.32-.226L24,5.165a.82.82,0,0,1-1.16-1.16l2.122-2.122a.821.821,0,0,0-.226-1.32,5.743,5.743,0,0,0-7.884,7.111l-2.968,2.968c-.6-.47.193.333-5.5-5.7l.6-.6A.821.821,0,0,0,8.822,3.06L4.429.424A2.921,2.921,0,0,0,.422,4.432L3.057,8.825a.821.821,0,0,0,1.283.158L4.9,8.42c5.663,6,4.917,5.189,5.365,5.764.011.014.022.026.034.038L7.67,16.855A5.743,5.743,0,0,0,.559,24.739a.821.821,0,0,0,1.32.226L4,22.844A.82.82,0,0,1,5.161,24L3.039,26.126a.821.821,0,0,0,.226,1.32,5.744,5.744,0,0,0,7.884-7.111L13.4,18.087l5.234,6.36c.04.048-.092-.086,2.249,2.255A4.4,4.4,0,0,0,23.98,28a3.924,3.924,0,0,0,2.3-.726A4.1,4.1,0,0,0,26.8,21.026ZM5.517,6.68a.821.821,0,0,0-1.177-.017l-.417.417-2.1-3.492A1.281,1.281,0,0,1,3.585,1.831l3.492,2.1-.417.417a.82.82,0,0,0-.017,1.143c6.54,6.935,5.512,5.892,6.07,6.326l-1.245,1.245C11.039,12.5,12.038,13.594,5.517,6.68ZM9.6,19.562a.82.82,0,0,0-.16.934A4.105,4.105,0,0,1,5.16,26.324l1.16-1.16a2.461,2.461,0,0,0-3.48-3.48l-1.16,1.16a4.1,4.1,0,0,1,5.829-4.282.82.82,0,0,0,.934-.16L18.4,8.447a.82.82,0,0,0,.16-.934A4.1,4.1,0,0,1,22.84,1.685l-1.16,1.16a2.461,2.461,0,0,0,3.48,3.48l1.16-1.16a4.1,4.1,0,0,1-5.829,4.282.82.82,0,0,0-.933.16Zm4.957-2.637L16.584,14.9l2.063,1.523-2.465,2.465C14.506,16.853,14.611,16.975,14.56,16.925Zm10.764,9.013a2.58,2.58,0,0,1-3.283-.4l-2.168-2.168-2.643-3.212,2.752-2.752,3.386,2.5,2.276,2.276A2.462,2.462,0,0,1,25.324,25.938Z" transform="translate(0 -0.005)" fill="#fff"/>
      </g>
    </g>
    <g id="Group_27278" data-name="Group 27278" transform="translate(19.789 19.684)">
      <g id="Group_27277" data-name="Group 27277">
        <path id="Path_19576" data-name="Path 19576" d="M40.012,38.66,36.731,35.38a.82.82,0,0,0-1.16,1.16l3.281,3.281a.82.82,0,0,0,1.16-1.16Z" transform="translate(-35.331 -35.139)" fill="#fff"/>
      </g>
    </g>
  </g>
</svg>
