<svg xmlns="http://www.w3.org/2000/svg" width="31.08" height="31.08" viewBox="0 0 31.08 31.08">
  <g id="global-shipping_1_" data-name="global-shipping(1)" transform="translate(-0.656 -0.656)">
    <path id="Path_19769" data-name="Path 19769" d="M23.878,41.617h6.95V36.653h1.8l-2.293-4.585L28.04,36.653h1.8v3.972H24.871V36.653h1.8l-2.293-4.585-2.293,4.585h1.8Zm6.454-7.33.686,1.372H29.646Zm-5.957,0,.686,1.372H23.689Z" transform="translate(-8.179 -12.017)" fill="#fff" stroke="#fff" stroke-width="0.3"/>
    <path id="Path_19770" data-name="Path 19770" d="M20.161,45.968h.993v.993h-.993Z" transform="translate(-7.44 -17.36)" fill="#fff" stroke="#fff" stroke-width="0.3"/>
    <path id="Path_19771" data-name="Path 19771" d="M16.935,45.968h.993v.993h-.993Z" transform="translate(-6.2 -17.36)" fill="#fff" stroke="#fff" stroke-width="0.3"/>
    <path id="Path_19772" data-name="Path 19772" d="M13.71,45.968H14.7v.993H13.71Z" transform="translate(-4.96 -17.36)" fill="#fff" stroke="#fff" stroke-width="0.3"/>
    <path id="Path_19773" data-name="Path 19773" d="M31.586,13.012,26.331,7.757H22.625c.013-.164.025-.329.025-.5a6.454,6.454,0,0,0-12.908,0c0,.168.012.332.025.5H6.062L.806,13.012v10.34l4.964-4.964v13.2H26.622v-13.2l4.964,4.964ZM20.549,10.544a7.712,7.712,0,0,0-2.1-.991,10.148,10.148,0,0,0-.09-4.564,7.694,7.694,0,0,0,2.19-1.017,5.421,5.421,0,0,1,0,6.572Zm-3.357,2.082a10.1,10.1,0,0,0,.989-2.112,6.706,6.706,0,0,1,1.688.776,5.443,5.443,0,0,1-2.678,1.336ZM12.54,11.305a8.507,8.507,0,0,1,1.69-.726,10.147,10.147,0,0,0,.969,2.047A5.439,5.439,0,0,1,12.54,11.305ZM14.99,5.136a7.949,7.949,0,0,0,1.4.128,7.365,7.365,0,0,0,1-.071,9.189,9.189,0,0,1,.084,4.143,7.713,7.713,0,0,0-2.559.06,9.047,9.047,0,0,1,.074-4.26Zm1.2-2.919a11.514,11.514,0,0,1,.918,2.024A6.669,6.669,0,0,1,15.27,4.2a11.278,11.278,0,0,1,.922-1.985ZM14.328,3.989a8.291,8.291,0,0,1-1.791-.769,5.44,5.44,0,0,1,2.716-1.332A12.782,12.782,0,0,0,14.328,3.989Zm2.813-2.1A5.441,5.441,0,0,1,19.87,3.232a6.8,6.8,0,0,1-1.785.815A12.853,12.853,0,0,0,17.141,1.887ZM17.2,10.3A9.247,9.247,0,0,1,16.2,12.35a9.444,9.444,0,0,1-1-2A6.764,6.764,0,0,1,17.2,10.3ZM11.855,3.961a9.639,9.639,0,0,0,2.2.957,10.156,10.156,0,0,0-.09,4.712,9.63,9.63,0,0,0-2.11.93,5.421,5.421,0,0,1,0-6.6ZM9.742,8.75V15.7h.993V10.684a6.5,6.5,0,0,0,1.986,2.006V15.7h.993V13.216a6.4,6.4,0,0,0,1.986.473V15.7h.993V13.689a6.416,6.416,0,0,0,1.986-.473V15.7h.993V12.69a6.49,6.49,0,0,0,1.986-2.006V15.7h.993V8.75h2.979v7.943H6.764V8.75ZM1.8,20.955V13.423L5.771,9.452v7.532Zm23.829,9.638H6.764V17.686H25.629Zm4.964-9.638-3.972-3.972V9.452l3.972,3.972Z" fill="#fff" stroke="#fff" stroke-width="0.3"/>
  </g>
</svg>
