<svg xmlns="http://www.w3.org/2000/svg" width="27.354" height="27.323" viewBox="0 0 27.354 27.323">
  <g id="Group_28456" data-name="Group 28456" transform="translate(0 -0.028)">
    <path id="Path_19778" data-name="Path 19778" d="M13.767,29.667H6.64a.8.8,0,0,0-.8.8v4.061a.8.8,0,0,0,.8.8h7.127a.8.8,0,0,0,.8-.8V30.468A.8.8,0,0,0,13.767,29.667Zm-.8,4.061H7.441V31.269h5.525Z" transform="translate(-2.645 -13.424)" fill="#fff"/>
    <path id="Path_19779" data-name="Path 19779" d="M13.782,23.843H6.64a.8.8,0,1,0,0,1.6h7.142a.8.8,0,1,0,0-1.6Z" transform="translate(-2.645 -10.786)" fill="#fff"/>
    <path id="Path_19780" data-name="Path 19780" d="M26.236,17.641V.829a.8.8,0,0,0-.8-.8H.8a.8.8,0,0,0-.8.8V24.3a.8.8,0,0,0,.8.8h15.62a6.169,6.169,0,0,0,9.815-7.462Zm-1.6-12.184H16.767V1.63h7.867ZM15.165,1.63V5.457h-4.2V1.63Zm-4.2,5.429h4.2V9.545h-4.2ZM9.363,1.63V5.457H1.6V1.63ZM1.6,23.5V7.059H9.363v3.287a.8.8,0,0,0,.8.8h5.8a.8.8,0,0,0,.8-.8V7.059h7.867v9.007A6.17,6.17,0,0,0,15.464,23.5Zm19.58,2.248a4.57,4.57,0,1,1,4.57-4.57A4.575,4.575,0,0,1,21.182,25.749Z" fill="#fff"/>
  </g>
</svg>
