<svg xmlns="http://www.w3.org/2000/svg" width="32.293" height="30.198" viewBox="0 0 32.293 30.198">
  <g id="care" transform="translate(0 -1.622)">
    <path id="Path_19573" data-name="Path 19573" d="M31.624,24.167a4.738,4.738,0,0,0-6.693,0l-3.042,3.042a2.82,2.82,0,0,1-1.355.757v-3.71H10a4.7,4.7,0,0,0-3.345,1.386L0,32.3l7.016,7.015,5.6-5.6h7.27A8.453,8.453,0,0,0,25.9,31.228c4.152-4.152,6.148-6.146,6.394-6.392ZM24.561,29.89a6.573,6.573,0,0,1-4.679,1.935H11.828L7.016,36.637,2.676,32.3,8,26.979A2.82,2.82,0,0,1,10,26.148h8.639V28.04H12.22v1.892h7.662a4.7,4.7,0,0,0,3.345-1.386L26.269,25.5A2.845,2.845,0,0,1,29.5,24.95Z" transform="translate(0 -7.494)" fill="#fff"/>
    <path id="Path_19574" data-name="Path 19574" d="M30.331,1.622H17.084V14.869H30.331ZM28.438,12.977H18.976V3.515h3.785V7.3h1.892V3.515h3.785Z" transform="translate(-6.05)" fill="#fff"/>
  </g>
</svg>
