<svg xmlns="http://www.w3.org/2000/svg" width="27.512" height="27.511" viewBox="0 0 27.512 27.511">
  <path id="sketch" d="M20.26,13.748l7.016-7.024a.806.806,0,0,0,0-1.141L21.9.236a.806.806,0,0,0-1.138,0L13.756,7.243,7.889,1.376a.805.805,0,0,0-.431-.224L.945.012A.806.806,0,0,0,.012.945L1.153,7.458a.805.805,0,0,0,.224.431l5.87,5.863L.236,20.763a.806.806,0,0,0,0,1.14l5.373,5.372a.806.806,0,0,0,.57.236h0a.806.806,0,0,0,.57-.236l7.01-7.018,7.028,7.02a.806.806,0,0,0,.57.236h0a.806.806,0,0,0,.57-.237L27.276,21.9a.806.806,0,0,0,0-1.138ZM16.548,6.73l1.71,1.71A.806.806,0,0,0,19.4,7.3l-1.71-1.71,1.547-1.547,1.71,1.71a.806.806,0,1,0,1.14-1.14L20.375,2.9l.958-.958,4.232,4.21L19.12,12.608,14.9,8.383ZM5.653,2.473l-3.18,3.18L1.8,1.8Zm.526,23.092L1.946,21.332l.957-.957,1.71,1.71a.806.806,0,0,0,1.14-1.14l-1.71-1.71L5.59,17.689,7.3,19.4a.806.806,0,1,0,1.14-1.14l-1.71-1.71,1.658-1.658,4.231,4.226Zm15.177,0L3.087,7.318,4.632,5.773,22.886,24.026Zm2.668-2.681L5.772,4.633,7.319,3.086,25.566,21.333Z" transform="translate(0 0)" fill="#fff"/>
</svg>
