<svg xmlns="http://www.w3.org/2000/svg" width="33.594" height="27" viewBox="0 0 33.594 27">
  <g id="credit-card_30_" data-name="credit-card(30)" transform="translate(0 -4.907)">
    <path id="Path_19577" data-name="Path 19577" d="M29.172,4.907H8.989A4.427,4.427,0,0,0,4.567,9.329v.6H4.422A4.427,4.427,0,0,0,0,14.349V27.485a4.427,4.427,0,0,0,4.422,4.422H24.605a4.427,4.427,0,0,0,4.422-4.422v-.6h.145a4.427,4.427,0,0,0,4.422-4.422V9.329a4.427,4.427,0,0,0-4.422-4.422ZM27.059,27.485a2.456,2.456,0,0,1-2.453,2.453H4.422a2.456,2.456,0,0,1-2.453-2.453V21.639h25.09Zm0-7.815H1.968V16.915h25.09Zm0-4.724H1.968v-.6A2.456,2.456,0,0,1,4.422,11.9H24.605a2.456,2.456,0,0,1,2.453,2.453Zm4.567,7.52a2.456,2.456,0,0,1-2.453,2.453h-.145V14.349a4.427,4.427,0,0,0-4.422-4.422H6.536v-.6A2.456,2.456,0,0,1,8.989,6.876H29.172a2.456,2.456,0,0,1,2.453,2.453Z" fill="#fff"/>
    <path id="Path_19578" data-name="Path 19578" d="M7.1,34.3h8.661V36.27H7.1Z" transform="translate(-2.328 -9.645)" fill="#fff"/>
    <path id="Path_19579" data-name="Path 19579" d="M30.729,34.3h3.613V36.27H30.729Z" transform="translate(-10.083 -9.645)" fill="#fff"/>
  </g>
</svg>
