<svg xmlns="http://www.w3.org/2000/svg" width="30.066" height="24.001" viewBox="0 0 30.066 24.001">
  <g id="received_2_" data-name="received(2)" transform="translate(0 -5.043)">
    <path id="Path_19782" data-name="Path 19782" d="M25.045,15.424V12.87h3.066L24.744,5.043H3.367L0,12.87H3.066V25H16.81a6.946,6.946,0,1,0,8.235-9.577ZM23.584,6.8l1.851,4.3H17.244L15.393,6.8ZM4.527,6.8h8.191l-1.851,4.3H2.676Zm.3,6.065h7.2L13.175,10.2V23.239H4.828ZM14.936,23.239V10.2l1.148,2.669h7.2v2.284l-.163,0a6.947,6.947,0,0,0-6.852,8.087Zm8.184,4.043A5.184,5.184,0,1,1,28.3,22.1,5.19,5.19,0,0,1,23.12,27.282Z" fill="#fff"/>
    <path id="Path_19783" data-name="Path 19783" d="M35.63,32.308l-1.542-1.542-1.246,1.246L35.63,34.8l3.955-3.955L38.339,29.6Z" transform="translate(-13.094 -9.79)" fill="#fff"/>
    <g id="Group_28457" data-name="Group 28457">
      <path id="Path_19784" data-name="Path 19784" d="M11.984,28.578h1.762V30.34H11.984Z" transform="translate(-4.778 -9.383)" fill="#fff"/>
    </g>
  </g>
</svg>
