<svg xmlns="http://www.w3.org/2000/svg" width="22.545" height="24" viewBox="0 0 22.545 24">
  <g id="profits" transform="translate(-1.082 0.5)">
    <g id="Group_27264" data-name="Group 27264" transform="translate(7.491 15.426)">
      <g id="Group_27263" data-name="Group 27263">
        <rect id="Rectangle_1914" data-name="Rectangle 1914" width="1.05" height="7.575" fill="#fff" stroke="#fff" stroke-width="1"/>
      </g>
    </g>
    <g id="Group_27266" data-name="Group 27266" transform="translate(11.859 14.154)">
      <g id="Group_27265" data-name="Group 27265" transform="translate(0)">
        <rect id="Rectangle_1915" data-name="Rectangle 1915" width="1.05" height="8.846" fill="#fff" stroke="#fff" stroke-width="1"/>
      </g>
    </g>
    <g id="Group_27268" data-name="Group 27268" transform="translate(3.179 20.181)">
      <g id="Group_27267" data-name="Group 27267">
        <rect id="Rectangle_1916" data-name="Rectangle 1916" width="0.995" height="2.82" fill="#fff" stroke="#fff" stroke-width="1"/>
      </g>
    </g>
    <g id="Group_27270" data-name="Group 27270" transform="translate(16.172 10.947)">
      <g id="Group_27269" data-name="Group 27269">
        <rect id="Rectangle_1917" data-name="Rectangle 1917" width="1.05" height="12.053" fill="#fff" stroke="#fff" stroke-width="1"/>
      </g>
    </g>
    <g id="Group_27272" data-name="Group 27272" transform="translate(20.539 8.072)">
      <g id="Group_27271" data-name="Group 27271">
        <rect id="Rectangle_1918" data-name="Rectangle 1918" width="0.995" height="14.928" fill="#fff" stroke="#fff" stroke-width="1"/>
      </g>
    </g>
    <g id="Group_27274" data-name="Group 27274" transform="translate(1.582)">
      <g id="Group_27273" data-name="Group 27273">
        <path id="Path_19567" data-name="Path 19567" d="M22.967.149a.612.612,0,0,0-.4-.149H18.781a.553.553,0,0,0,0,1.106L21.225,1.1,15.248,7.083l-2.1-2.107a.535.535,0,0,0-.785,0L1.752,15.6a.555.555,0,1,0,.769.8c.006-.006.011-.011.017-.011L12.766,6.165l2.1,2.09a.566.566,0,0,0,.393.155.576.576,0,0,0,.393-.155L22.021,1.88l-.006,2.438a.545.545,0,0,0,.547.547h.006a.545.545,0,0,0,.553-.542V4.318L23.127.536A.568.568,0,0,0,22.967.149Z" transform="translate(-1.582)" fill="#fff" stroke="#fff" stroke-width="1"/>
      </g>
    </g>
  </g>
</svg>
