<svg xmlns="http://www.w3.org/2000/svg" width="31.939" height="34.427" viewBox="0 0 31.939 34.427">
  <g id="idea_1_" data-name="idea(1)" transform="translate(-1.807)">
    <path id="Path_19580" data-name="Path 19580" d="M20.466,8.789a9.963,9.963,0,0,0-9.8,9.869A9.837,9.837,0,0,0,14.291,26.3a2.217,2.217,0,0,1,.814,1.488c-.029.172-.009-.026-.015,4.27A1.009,1.009,0,0,0,16.1,33.063h.37V33.1a4.068,4.068,0,1,0,8.136,0v-.034h.37a1.009,1.009,0,0,0,1.009-1.009c-.007-4.279.016-4.108-.018-4.288a2.033,2.033,0,0,1,.75-1.415A9.868,9.868,0,0,0,20.466,8.789Zm3.5,20.172v2.084H17.107V28.961ZM22.587,33.1a2.051,2.051,0,1,1-4.1,0v-.034h4.1Zm2.864-8.318a4.03,4.03,0,0,0-1.386,2.165H17a4.249,4.249,0,0,0-1.427-2.208,7.827,7.827,0,0,1-2.883-6.078,7.967,7.967,0,0,1,7.794-7.851h.057a7.851,7.851,0,0,1,4.914,13.973Z" transform="translate(-2.76 -2.737)" fill="#fff"/>
    <path id="Path_19581" data-name="Path 19581" d="M26.061,20.035,23.788,21.8v-.967a1.009,1.009,0,0,0-1.627-.8l-3.9,3.026A1.009,1.009,0,1,0,19.5,24.655l2.273-1.764v.967a1.009,1.009,0,0,0,1.627.8l3.9-3.026a1.009,1.009,0,1,0-1.237-1.594Z" transform="translate(-5.003 -6.174)" fill="#fff"/>
    <path id="Path_19582" data-name="Path 19582" d="M24.544,4.1a1.009,1.009,0,0,0,1.009-1.009V1.009a1.009,1.009,0,0,0-2.017,0V3.093A1.009,1.009,0,0,0,24.544,4.1Z" transform="translate(-6.767)" fill="#fff"/>
    <path id="Path_19583" data-name="Path 19583" d="M9.94,9.56a1.009,1.009,0,1,0,1.426-1.426L9.893,6.66A1.009,1.009,0,0,0,8.466,8.086Z" transform="translate(-1.982 -1.982)" fill="#fff"/>
    <path id="Path_19584" data-name="Path 19584" d="M5.908,22.737A1.009,1.009,0,0,0,4.9,21.729H2.815a1.009,1.009,0,1,0,0,2.017H4.9A1.009,1.009,0,0,0,5.908,22.737Z" transform="translate(0 -6.767)" fill="#fff"/>
    <path id="Path_19585" data-name="Path 19585" d="M45.329,21.729H43.245a1.009,1.009,0,0,0,0,2.017h2.084a1.009,1.009,0,1,0,0-2.017Z" transform="translate(-12.592 -6.767)" fill="#fff"/>
    <path id="Path_19586" data-name="Path 19586" d="M44.133,29.76l-1.926-.8a1.009,1.009,0,1,0-.772,1.864l1.926.8a1.009,1.009,0,0,0,.772-1.864Z" transform="translate(-12.148 -8.996)" fill="#fff"/>
    <path id="Path_19587" data-name="Path 19587" d="M16.094,4.974A1.009,1.009,0,0,0,17.958,4.2l-.8-1.926a1.009,1.009,0,1,0-1.864.772Z" transform="translate(-4.178 -0.515)" fill="#fff"/>
    <path id="Path_19588" data-name="Path 19588" d="M6.781,14.288l-1.926-.8a1.009,1.009,0,0,0-.772,1.864l1.926.8a1.009,1.009,0,0,0,.772-1.864Z" transform="translate(-0.515 -4.178)" fill="#fff"/>
    <path id="Path_19589" data-name="Path 19589" d="M38.481,9.56l1.474-1.474A1.009,1.009,0,0,0,38.528,6.66L37.054,8.133A1.009,1.009,0,1,0,38.481,9.56Z" transform="translate(-10.886 -1.982)" fill="#fff"/>
    <path id="Path_19590" data-name="Path 19590" d="M31.314,5.52a1.009,1.009,0,0,0,1.318-.546l.8-1.926a1.009,1.009,0,0,0-1.864-.772l-.8,1.926a1.009,1.009,0,0,0,.546,1.318Z" transform="translate(-8.996 -0.515)" fill="#fff"/>
    <path id="Path_19591" data-name="Path 19591" d="M6.009,28.962l-1.926.8a1.009,1.009,0,0,0,.772,1.864l1.926-.8a1.009,1.009,0,0,0-.772-1.864Z" transform="translate(-0.515 -8.996)" fill="#fff"/>
    <path id="Path_19592" data-name="Path 19592" d="M40.889,15.606a1.009,1.009,0,0,0,1.318.546l1.926-.8a1.009,1.009,0,0,0-.772-1.864l-1.926.8A1.009,1.009,0,0,0,40.889,15.606Z" transform="translate(-12.148 -4.178)" fill="#fff"/>
  </g>
</svg>
