<svg xmlns="http://www.w3.org/2000/svg" width="44" height="44" viewBox="0 0 44 44">
  <g id="Group_26615" data-name="Group 26615" transform="translate(-725 -1241)">
    <circle id="Ellipse_83" data-name="Ellipse 83" cx="22" cy="22" r="22" transform="translate(725 1241)" fill="#85dee2"/>
    <g id="Page-1" transform="translate(737.004 1253)">
      <g id="_003---Call" data-name="003---Call" transform="translate(-0.003)">
        <path id="Shape" d="M9.53,12.111A8.316,8.316,0,0,1,7.019,7.39a.706.706,0,0,1,.2-.591L8.813,5.208a.711.711,0,0,0,.1-.879L6.38.394a.711.711,0,0,0-.92-.259L1.391,2.05A.707.707,0,0,0,1,2.756,19.664,19.664,0,0,0,6.988,14.651a19.658,19.658,0,0,0,11.895,5.988.707.707,0,0,0,.706-.391L21.5,16.18a.711.711,0,0,0-.258-.919l-3.935-2.533a.711.711,0,0,0-.879.1l-1.591,1.592a.706.706,0,0,1-.591.2A8.316,8.316,0,0,1,9.53,12.111Z" transform="translate(-0.997 -0.038)" fill="#fff"/>
        <path id="Shape-2" data-name="Shape" d="M34.75,17.46a.711.711,0,0,1-.711-.711,5.335,5.335,0,0,0-5.329-5.329.711.711,0,1,1,0-1.421,6.757,6.757,0,0,1,6.75,6.75A.711.711,0,0,1,34.75,17.46Z" transform="translate(-18.407 -6.447)" fill="#fff"/>
        <path id="Shape-3" data-name="Shape" d="M38.3,11.013a.711.711,0,0,1-.711-.711,8.891,8.891,0,0,0-8.881-8.881.711.711,0,1,1,0-1.421,10.314,10.314,0,0,1,10.3,10.3.711.711,0,0,1-.711.711Z" transform="translate(-18.407)" fill="#fff"/>
      </g>
    </g>
  </g>
</svg>
