<svg xmlns="http://www.w3.org/2000/svg" xmlns:xlink="http://www.w3.org/1999/xlink" width="50" height="50" viewBox="0 0 50 50">
  <defs>
    <linearGradient id="linear-gradient" x1="0.5" x2="0.5" y2="1" gradientUnits="objectBoundingBox">
      <stop offset="0" stop-color="#5dc8e1"/>
      <stop offset="1" stop-color="#41a4ea"/>
    </linearGradient>
    <linearGradient id="linear-gradient-2" y1="0.5" x2="1" y2="0.5" gradientUnits="objectBoundingBox">
      <stop offset="0" stop-color="#5ecae0"/>
      <stop offset="0.286" stop-color="#5ecae0"/>
      <stop offset="0.557" stop-color="#40a3eb"/>
      <stop offset="0.744" stop-color="#5ecae0"/>
      <stop offset="0.862" stop-color="#5ecae0"/>
      <stop offset="1" stop-color="#5ecae0"/>
    </linearGradient>
  </defs>
  <g id="platinum-crown" transform="translate(-74.779 19.999)">
    <g id="Group_28251" data-name="Group 28251" transform="translate(74.779 -19.999)">
      <circle id="Ellipse_3208" data-name="Ellipse 3208" cx="25" cy="25" r="25" fill="url(#linear-gradient)"/>
      <circle id="Ellipse_3202" data-name="Ellipse 3202" cx="23" cy="23" r="23" transform="translate(2 2)" fill="#fcfcfc"/>
      <g id="crown_2_" data-name="crown(2)" transform="translate(7 11)">
        <g id="Layer_1_17_" transform="translate(0 0)">
          <g id="Group_28250" data-name="Group 28250">
            <g id="Group_28239" data-name="Group 28239" transform="translate(2.539 5.341)">
              <g id="Group_28238" data-name="Group 28238">
                <path id="Path_19955" data-name="Path 19955" d="M36.1,31.017c-1.851,1.328-4.449,3.093-5.621,3.093a.4.4,0,0,1-.361-.136c-.479-.59-.349-2.659.386-6.146a.735.735,0,0,0-1.33-.562c-2.529,3.77-3.687,4.561-4.212,4.561-.745,0-1.5-2.142-2.252-6.366a.733.733,0,0,0-.682-.6v0l-.021,0-.022,0v0a.734.734,0,0,0-.681.6c-.752,4.224-1.509,6.366-2.253,6.366-.525,0-1.683-.791-4.211-4.561a.736.736,0,0,0-1.33.562c.734,3.487.865,5.556.385,6.146-.053.066-.129.136-.36.136-1.172,0-3.77-1.765-5.622-3.093a.736.736,0,0,0-1.026,1.027,17.019,17.019,0,0,1,3.437,11.63,1.5,1.5,0,0,0-.024.267c0,1.527,2.138,2.131,4,2.487a43.107,43.107,0,0,0,7.625.62h.166a43.165,43.165,0,0,0,7.624-.62c1.862-.356,4-.961,4-2.487a1.507,1.507,0,0,0-.024-.267,17.021,17.021,0,0,1,3.437-11.63A.736.736,0,0,0,36.1,31.017ZM22.089,44.94h-.166a31.325,31.325,0,0,1-8.91-1,31.277,31.277,0,0,1,8.91-1h.165a31.278,31.278,0,0,1,8.91,1A31.315,31.315,0,0,1,22.089,44.94Z" transform="translate(-6.748 -24.855)" fill="url(#linear-gradient-2)"/>
              </g>
            </g>
            <g id="Group_28241" data-name="Group 28241" transform="translate(15.572)">
              <g id="Group_28240" data-name="Group 28240">
                <circle id="Ellipse_3203" data-name="Ellipse 3203" cx="2.225" cy="2.225" r="2.225" fill="url(#linear-gradient-2)"/>
              </g>
            </g>
            <g id="Group_28243" data-name="Group 28243" transform="translate(6.551 3.059)">
              <g id="Group_28242" data-name="Group 28242">
                <circle id="Ellipse_3204" data-name="Ellipse 3204" cx="1.854" cy="1.854" r="1.854" fill="url(#linear-gradient-2)"/>
              </g>
            </g>
            <g id="Group_28245" data-name="Group 28245" transform="translate(25.181 3.059)">
              <g id="Group_28244" data-name="Group 28244">
                <circle id="Ellipse_3205" data-name="Ellipse 3205" cx="1.854" cy="1.854" r="1.854" fill="url(#linear-gradient-2)"/>
              </g>
            </g>
            <g id="Group_28247" data-name="Group 28247" transform="translate(0 8.946)">
              <g id="Group_28246" data-name="Group 28246">
                <circle id="Ellipse_3206" data-name="Ellipse 3206" cx="1.25" cy="1.25" r="1.25" fill="url(#linear-gradient-2)"/>
              </g>
            </g>
            <g id="Group_28249" data-name="Group 28249" transform="translate(33.055 8.946)">
              <g id="Group_28248" data-name="Group 28248">
                <circle id="Ellipse_3207" data-name="Ellipse 3207" cx="1.25" cy="1.25" r="1.25" fill="url(#linear-gradient-2)"/>
              </g>
            </g>
          </g>
        </g>
      </g>
    </g>
  </g>
</svg>
