<svg xmlns="http://www.w3.org/2000/svg" width="18.001" height="18.001" viewBox="0 0 18.001 18.001">
  <path id="_1665601" data-name="1665601" d="M7.029,12.652h2.39v1.406H7.029Zm-2.636-.176a.879.879,0,1,0,.879.879A.879.879,0,0,0,4.393,12.476Zm9.736-4.288h-7.1V9.594h7.1ZM4.393,8.012a.879.879,0,1,0,.879.879A.879.879,0,0,0,4.393,8.012ZM14.129,3.97h-7.1V5.376h7.1ZM4.393,3.794a.879.879,0,1,0,.879.879.879.879,0,0,0-.879-.879ZM1.406,15.886V2.107a.7.7,0,0,1,.7-.7H15.887a.7.7,0,0,1,.7.7v7.944H18V2.107A2.111,2.111,0,0,0,15.887,0H2.109A2.111,2.111,0,0,0,0,2.107V15.886a2.111,2.111,0,0,0,2.109,2.109h8.119V16.589H2.109a.7.7,0,0,1-.7-.7ZM17.007,18l-1.4-1.4a3.167,3.167,0,1,1,1.018-.97L18,17.005Zm-3.018-2.36a1.757,1.757,0,1,0-1.758-1.757A1.759,1.759,0,0,0,13.989,15.64Zm0,0" transform="translate(0 0.002)" fill="#19124f"/>
</svg>
