<svg xmlns="http://www.w3.org/2000/svg" width="22.403" height="15.532" viewBox="0 0 22.403 15.532">
  <g id="_709790" data-name="709790" transform="translate(0 -78.521)">
    <g id="Group_26683" data-name="Group 26683" transform="translate(14.096 88.405)">
      <g id="Group_26682" data-name="Group 26682">
        <path id="Path_19431" data-name="Path 19431" d="M324.975,304.4a2.824,2.824,0,1,0,2.824,2.824A2.827,2.827,0,0,0,324.975,304.4Zm0,4.236a1.412,1.412,0,1,1,1.412-1.412A1.413,1.413,0,0,1,324.975,308.639Z" transform="translate(-322.151 -304.403)" fill="#19124f"/>
      </g>
    </g>
    <g id="Group_26685" data-name="Group 26685" transform="translate(4.448 88.405)">
      <g id="Group_26684" data-name="Group 26684">
        <path id="Path_19432" data-name="Path 19432" d="M104.471,304.4a2.824,2.824,0,1,0,2.824,2.824A2.827,2.827,0,0,0,104.471,304.4Zm0,4.236a1.412,1.412,0,1,1,1.412-1.412A1.413,1.413,0,0,1,104.471,308.639Z" transform="translate(-101.647 -304.403)" fill="#19124f"/>
      </g>
    </g>
    <g id="Group_26687" data-name="Group 26687" transform="translate(14.473 79.933)">
      <g id="Group_26686" data-name="Group 26686" transform="translate(0 0)">
        <path id="Path_19433" data-name="Path 19433" d="M335.105,111.179a.706.706,0,0,0-.631-.389h-3.718V112.2h3.283l1.922,3.824,1.262-.634Z" transform="translate(-330.756 -110.79)" fill="#19124f"/>
      </g>
    </g>
    <g id="Group_26689" data-name="Group 26689" transform="translate(9.46 90.546)">
      <g id="Group_26688" data-name="Group 26688" transform="translate(0 0)">
        <rect id="Rectangle_1868" data-name="Rectangle 1868" width="5.342" height="1.412" fill="#19124f"/>
      </g>
    </g>
    <g id="Group_26691" data-name="Group 26691" transform="translate(2 90.546)">
      <g id="Group_26690" data-name="Group 26690" transform="translate(0 0)">
        <path id="Path_19434" data-name="Path 19434" d="M48.868,353.345H46.421a.706.706,0,0,0,0,1.412h2.447a.706.706,0,1,0,0-1.412Z" transform="translate(-45.715 -353.345)" fill="#19124f"/>
      </g>
    </g>
    <g id="Group_26693" data-name="Group 26693" transform="translate(2 78.521)">
      <g id="Group_26692" data-name="Group 26692" transform="translate(0 0)">
        <path id="Path_19435" data-name="Path 19435" d="M65.97,86.23l-1.389-1.788a.705.705,0,0,0-.557-.273h-5.13V79.227a.706.706,0,0,0-.706-.706H46.421a.706.706,0,1,0,0,1.412h11.06v4.942a.706.706,0,0,0,.706.706h5.49l1.028,1.324v3.641H62.753a.706.706,0,0,0,0,1.412h2.659a.706.706,0,0,0,.706-.706V86.663A.707.707,0,0,0,65.97,86.23Z" transform="translate(-45.715 -78.521)" fill="#19124f"/>
      </g>
    </g>
    <g id="Group_26695" data-name="Group 26695" transform="translate(1.153 86.969)">
      <g id="Group_26694" data-name="Group 26694" transform="translate(0 0)">
        <path id="Path_19436" data-name="Path 19436" d="M30.307,271.6H27.059a.706.706,0,0,0,0,1.412h3.248a.706.706,0,0,0,0-1.412Z" transform="translate(-26.353 -271.597)" fill="#19124f"/>
      </g>
    </g>
    <g id="Group_26697" data-name="Group 26697" transform="translate(0 84.192)">
      <g id="Group_26696" data-name="Group 26696" transform="translate(0 0)">
        <path id="Path_19437" data-name="Path 19437" d="M6.73,208.134H.706a.706.706,0,0,0,0,1.412H6.73a.706.706,0,0,0,0-1.412Z" transform="translate(0 -208.134)" fill="#19124f"/>
      </g>
    </g>
    <g id="Group_26699" data-name="Group 26699" transform="translate(1.153 81.416)">
      <g id="Group_26698" data-name="Group 26698" transform="translate(0 0)">
        <path id="Path_19438" data-name="Path 19438" d="M33.083,144.672H27.059a.706.706,0,0,0,0,1.412h6.024a.706.706,0,0,0,0-1.412Z" transform="translate(-26.353 -144.672)" fill="#19124f"/>
      </g>
    </g>
  </g>
</svg>
