<svg xmlns="http://www.w3.org/2000/svg" width="26.514" height="34.502" viewBox="0 0 26.514 34.502">
  <g id="profile_4_" data-name="profile(4)" transform="translate(-59.89 0.25)">
    <g id="Group_28423" data-name="Group 28423" transform="translate(60.638 0.499)">
      <path id="Path_20153" data-name="Path 20153" d="M67.639,61.241V89.4a1.277,1.277,0,0,0,1.277,1.277H91.38A1.277,1.277,0,0,0,92.657,89.4V61.241Z" transform="translate(-67.639 -57.673)" fill="#fff"/>
      <path id="Path_20155" data-name="Path 20155" d="M140.894,7.516H120.675v3.7h21.5V8.793A1.277,1.277,0,0,0,140.894,7.516Z" transform="translate(-117.153 -7.516)" fill="#fff"/>
      <path id="Path_20156" data-name="Path 20156" d="M71.294,7.516H68.916a1.277,1.277,0,0,0-1.277,1.277v2.424h3.655Z" transform="translate(-67.639 -7.516)" fill="#13bdbf"/>
      <path id="Path_20157" data-name="Path 20157" d="M71.107,7.516H68.916a1.277,1.277,0,0,0-1.277,1.277v2.424h2.192V8.793A1.277,1.277,0,0,1,71.107,7.516Z" transform="translate(-67.639 -7.516)" fill="#13bdbf"/>
      <circle id="Ellipse_3219" data-name="Ellipse 3219" cx="1.696" cy="1.696" r="1.696" transform="translate(10.813 7.753)" fill="#13bdbf"/>
      <path id="Path_20161" data-name="Path 20161" d="M215.8,175.32h-2.962a1.488,1.488,0,0,0-1.484,1.484v1.314a4.636,4.636,0,0,0,5.93,0V176.8A1.488,1.488,0,0,0,215.8,175.32Z" transform="translate(-201.809 -164.176)" fill="#13bdbf"/>
      <g id="Group_28422" data-name="Group 28422" transform="translate(2.758 17.518)">
        <path id="Path_20163" data-name="Path 20163" d="M114.784,271.3h-4.928a.681.681,0,0,0-.681.681v3.854a.681.681,0,0,0,.681.681h4.928a.681.681,0,0,0,.681-.681v-3.854A.681.681,0,0,0,114.784,271.3Z" transform="translate(-109.175 -271.296)" fill="#13bdbf"/>
        <path id="Path_20164" data-name="Path 20164" d="M114.784,383.555h-4.928a.681.681,0,0,0-.681.681v3.854a.681.681,0,0,0,.681.681h4.928a.681.681,0,0,0,.681-.681v-3.854A.681.681,0,0,0,114.784,383.555Z" transform="translate(-109.175 -376.1)" fill="#13bdbf"/>
      </g>
    </g>
    <g id="Group_28424" data-name="Group 28424" transform="translate(60.14 0)">
      <path id="Path_20165" data-name="Path 20165" d="M168.72,27.863H152.26a.5.5,0,1,0,0,1h16.46a.5.5,0,1,0,0-1Z" transform="translate(-145.677 -26.013)" fill="#19124f"/>
      <path id="Path_20166" data-name="Path 20166" d="M108.96,264.959a1.18,1.18,0,0,0-1.179-1.179h-4.928a1.18,1.18,0,0,0-1.179,1.179v3.854a1.18,1.18,0,0,0,1.179,1.179h4.928a1.18,1.18,0,0,0,1.179-1.179Zm-1,3.854a.183.183,0,0,1-.182.182h-4.928a.183.183,0,0,1-.182-.182v-3.854a.183.183,0,0,1,.182-.182h4.928a.183.183,0,0,1,.182.182Z" transform="translate(-98.917 -246.262)" fill="#19124f"/>
      <path id="Path_20167" data-name="Path 20167" d="M107.782,376.04h-4.928a1.18,1.18,0,0,0-1.179,1.179v3.854a1.18,1.18,0,0,0,1.179,1.179h4.928a1.18,1.18,0,0,0,1.179-1.179v-3.854A1.18,1.18,0,0,0,107.782,376.04Zm.182,5.033a.183.183,0,0,1-.182.182h-4.928a.183.183,0,0,1-.182-.182v-3.854a.183.183,0,0,1,.182-.182h4.928a.183.183,0,0,1,.182.182Z" transform="translate(-98.917 -351.067)" fill="#19124f"/>
      <path id="Path_20168" data-name="Path 20168" d="M242.537,273.447h-10.4a.5.5,0,1,0,0,1h10.4a.5.5,0,0,0,0-1Z" transform="translate(-220.252 -255.287)" fill="#19124f"/>
      <path id="Path_20169" data-name="Path 20169" d="M242.537,303.047h-10.4a.5.5,0,0,0,0,1h10.4a.5.5,0,0,0,0-1Z" transform="translate(-220.252 -282.922)" fill="#19124f"/>
      <path id="Path_20170" data-name="Path 20170" d="M242.537,332.647h-10.4a.5.5,0,0,0,0,1h10.4a.5.5,0,0,0,0-1Z" transform="translate(-220.252 -310.556)" fill="#19124f"/>
      <path id="Path_20171" data-name="Path 20171" d="M242.537,385.706h-10.4a.5.5,0,0,0,0,1h10.4a.5.5,0,0,0,0-1Z" transform="translate(-220.252 -360.091)" fill="#19124f"/>
      <path id="Path_20172" data-name="Path 20172" d="M242.537,415.306h-10.4a.5.5,0,0,0,0,1h10.4a.5.5,0,0,0,0-1Z" transform="translate(-220.252 -387.726)" fill="#19124f"/>
      <path id="Path_20173" data-name="Path 20173" d="M242.537,444.906h-10.4a.5.5,0,1,0,0,1h10.4a.5.5,0,0,0,0-1Z" transform="translate(-220.252 -415.36)" fill="#19124f"/>
      <path id="Path_20174" data-name="Path 20174" d="M136.074,294.122l-.853.853-.449-.449a.5.5,0,0,0-.7.7l.8.8a.5.5,0,0,0,.7,0l1.2-1.2a.5.5,0,0,0-.7-.7Z" transform="translate(-129.022 -274.453)" fill="#19124f"/>
      <path id="Path_20175" data-name="Path 20175" d="M136.074,406.38l-.853.853-.449-.449a.5.5,0,1,0-.7.7l.8.8a.5.5,0,0,0,.7,0l1.2-1.2a.5.5,0,0,0-.7-.7Z" transform="translate(-129.022 -379.256)" fill="#19124f"/>
      <path id="Path_20176" data-name="Path 20176" d="M183.8,98.74a5.136,5.136,0,0,0,1.287-10.109.5.5,0,0,0-.249.965,4.137,4.137,0,0,1,2.425,6.272v-.012a1.985,1.985,0,0,0-1.645-1.953,2.194,2.194,0,1,0-3.636,0,1.985,1.985,0,0,0-1.645,1.953v.012a4.137,4.137,0,0,1,2.425-6.272.5.5,0,0,0-.249-.965A5.136,5.136,0,0,0,183.8,98.74Zm0-7.261a1.2,1.2,0,1,1-1.2,1.2A1.2,1.2,0,0,1,183.8,91.479Zm-2.467,4.377a.987.987,0,0,1,.986-.986h2.962a.987.987,0,0,1,.986.986v1.07a4.13,4.13,0,0,1-4.934,0v-1.07Z" transform="translate(-170.794 -82.73)" fill="#19124f"/>
      <path id="Path_20177" data-name="Path 20177" d="M60.14,1.775V32.227A1.777,1.777,0,0,0,61.915,34H84.379a1.777,1.777,0,0,0,1.775-1.775V18.163a.5.5,0,1,0-1,0V32.227a.78.78,0,0,1-.779.779H61.915a.78.78,0,0,1-.779-.779V4.7H85.158V15.839a.5.5,0,1,0,1,0V1.775A1.777,1.777,0,0,0,84.379,0H61.915A1.777,1.777,0,0,0,60.14,1.775ZM64.791,1H84.379a.78.78,0,0,1,.779.779V3.7H64.791Zm-1,2.7H61.136V1.775A.78.78,0,0,1,61.915,1h1.88Z" transform="translate(-60.14 0)" fill="#181346" stroke="#181346" stroke-width="0.5"/>
    </g>
  </g>
</svg>
