<svg xmlns="http://www.w3.org/2000/svg" width="41.588" height="26.906" viewBox="0 0 41.588 26.906">
  <g id="pur-10" transform="translate(0 -16.239)">
    <path id="Path_19929" data-name="Path 19929" d="M40.369,18.687a1.23,1.23,0,0,1-1.229-1.229V16.239H12.235v1.218a1.229,1.229,0,1,1-2.458,0V16.239H2.447v1.218a1.23,1.23,0,0,1-1.229,1.229H0V40.7H1.218a1.23,1.23,0,0,1,1.229,1.229v1.218h7.33V41.927a1.229,1.229,0,0,1,2.458,0v1.218H39.141V41.927A1.23,1.23,0,0,1,40.369,40.7h1.218V18.687ZM39.151,38.47a3.685,3.685,0,0,0-2.239,2.239H14.464a3.666,3.666,0,0,0-6.915,0H4.676A3.684,3.684,0,0,0,2.437,38.47V20.915a3.685,3.685,0,0,0,2.239-2.239H7.549a3.666,3.666,0,0,0,6.915,0H36.912a3.685,3.685,0,0,0,2.239,2.239V38.47Z" fill="#ff4a61"/>
    <path id="Path_19930" data-name="Path 19930" d="M0,0H20.76V2.436H0Z" transform="translate(17.482 36.171) rotate(-45)" fill="#ff4a61"/>
    <path id="Path_19931" data-name="Path 19931" d="M41.557,34.4a3.665,3.665,0,1,0-3.665-3.665A3.669,3.669,0,0,0,41.557,34.4Zm0-4.894a1.229,1.229,0,1,1-1.229,1.229A1.23,1.23,0,0,1,41.557,29.5Z" transform="translate(-20.763 -5.932)" fill="#ff4a61"/>
    <path id="Path_19932" data-name="Path 19932" d="M63.209,48.718a3.665,3.665,0,1,0,3.665,3.665A3.669,3.669,0,0,0,63.209,48.718Zm0,4.894a1.229,1.229,0,1,1,1.229-1.229A1.23,1.23,0,0,1,63.209,53.612Z" transform="translate(-32.628 -17.797)" fill="#ff4a61"/>
    <path id="Path_19933" data-name="Path 19933" d="M21.652,32.479h2.437v2.437H21.652Z" transform="translate(-11.865 -8.898)" fill="#ff4a61"/>
    <path id="Path_19934" data-name="Path 19934" d="M21.652,43.3h2.437v2.437H21.652Z" transform="translate(-11.865 -14.831)" fill="#ff4a61"/>
    <path id="Path_19935" data-name="Path 19935" d="M21.652,54.131h2.437v2.437H21.652Z" transform="translate(-11.865 -20.763)" fill="#ff4a61"/>
  </g>
</svg>
