<svg xmlns="http://www.w3.org/2000/svg" width="32.082" height="27.071" viewBox="0 0 32.082 27.071">
  <g id="pur-4" transform="translate(0 -7.186)">
    <path id="Path_19936" data-name="Path 19936" d="M6.4,34.256a2.4,2.4,0,0,1-1-.223,2.363,2.363,0,0,1-1.39-2.169V29.242H2.882A2.886,2.886,0,0,1,0,26.36V10.068A2.886,2.886,0,0,1,2.882,7.186H29.2a2.886,2.886,0,0,1,2.882,2.882V26.36A2.886,2.886,0,0,1,29.2,29.242H12.443L8,33.629q-.025.025-.052.048A2.37,2.37,0,0,1,6.4,34.256ZM2.882,9.191a.878.878,0,0,0-.877.877V26.36a.878.878,0,0,0,.877.877h2.13a1,1,0,0,1,1,1v3.625a.383.383,0,0,0,.611.307l4.7-4.645a1,1,0,0,1,.7-.289H29.2a.878.878,0,0,0,.877-.877V10.068a.878.878,0,0,0-.877-.877H2.882Z" fill="#ff4a61"/>
    <path id="Path_19937" data-name="Path 19937" d="M35.984,31.785a1,1,0,0,1-.47-.117l-3.557-1.891L28.4,31.668a1,1,0,0,1-1.459-1.053l.682-4.019-2.886-2.844a1,1,0,0,1,.558-1.706l3.98-.585,1.782-3.65a1,1,0,0,1,1.8,0l1.782,3.65,3.98.585a1,1,0,0,1,.558,1.706L36.291,26.6l.682,4.019a1,1,0,0,1-.988,1.17Zm-4.027-4.146a1,1,0,0,1,.471.117l2.228,1.184-.428-2.524a1,1,0,0,1,.285-.882l1.824-1.8-2.511-.369a1,1,0,0,1-.755-.552l-1.113-2.28-1.113,2.28a1,1,0,0,1-.755.552l-2.511.369,1.824,1.8a1,1,0,0,1,.285.882l-.428,2.524,2.228-1.184a1,1,0,0,1,.471-.117Z" transform="translate(-15.916 -6.554)" fill="#ff4a61"/>
  </g>
</svg>
