<svg id="pur-9" xmlns="http://www.w3.org/2000/svg" width="35.912" height="35.912" viewBox="0 0 35.912 35.912">
  <g id="Group_28145" data-name="Group 28145" transform="translate(16.565 8.331)">
    <g id="Group_28144" data-name="Group 28144">
      <path id="Path_19927" data-name="Path 19927" d="M50.226,34.139l-5.007-3.755v-7.65a1.391,1.391,0,0,0-2.782,0v8.345a1.388,1.388,0,0,0,.556,1.113l5.563,4.173a1.391,1.391,0,0,0,1.669-2.225Z" transform="translate(-42.437 -21.343)" fill="#ff4a61"/>
    </g>
  </g>
  <g id="Group_28147" data-name="Group 28147">
    <g id="Group_28146" data-name="Group 28146">
      <path id="Path_19928" data-name="Path 19928" d="M17.956,0A17.956,17.956,0,1,0,35.912,17.956,17.976,17.976,0,0,0,17.956,0Zm0,33.13A15.174,15.174,0,1,1,33.13,17.956,15.193,15.193,0,0,1,17.956,33.13Z" fill="#ff4a61"/>
    </g>
  </g>
</svg>
