<svg id="pur-5" xmlns="http://www.w3.org/2000/svg" width="36.211" height="36.211" viewBox="0 0 36.211 36.211">
  <path id="Path_19906" data-name="Path 19906" d="M55.692,62.172a.707.707,0,1,0,.707.707A.708.708,0,0,0,55.692,62.172Zm0,0" transform="translate(-33.343 -37.701)" fill="#ff4a61"/>
  <path id="Path_19907" data-name="Path 19907" d="M32.675,0H3.536A3.54,3.54,0,0,0,0,3.536V25.178a3.54,3.54,0,0,0,3.536,3.536H14.569v3.253h-.707A3.537,3.537,0,0,0,10.326,35.5a.707.707,0,0,0,.707.707H25.178a.707.707,0,0,0,.707-.707,3.54,3.54,0,0,0-3.536-3.536h-.707V28.714H32.675a3.54,3.54,0,0,0,3.536-3.536V3.536A3.54,3.54,0,0,0,32.675,0ZM3.536,1.414H32.675A2.124,2.124,0,0,1,34.8,3.536V21.642H31.543V5.375a.707.707,0,0,0-.707-.707H25.178a.707.707,0,0,0-.707.707V21.642h-3.54c-.007-.732-.027-1.453-.057-2.152a45.491,45.491,0,0,0-.553-5.659,3.537,3.537,0,0,0,.966-4.613L18.835,4.973a.707.707,0,0,0-1.225,0L15.158,9.218a3.536,3.536,0,0,0,.778,4.463,44.9,44.9,0,0,0-.6,5.807c-.032.707-.052,1.429-.06,2.154H11.74V11.033a.7.7,0,0,0-.07-.305l0-.011L8.837,5.059a.707.707,0,0,0-1.265,0L4.742,10.717l0,.011a.7.7,0,0,0-.07.305V21.642H1.414V3.536A2.124,2.124,0,0,1,3.536,1.414ZM25.885,21.642V6.082h4.243V7.5h-.707a.707.707,0,1,0,0,1.414h.707v2.122h-.707a.707.707,0,1,0,0,1.414h.707v2.122h-.707a.707.707,0,1,0,0,1.414h.707v2.829h-.707a.707.707,0,0,0,0,1.414h.707v1.414ZM18.223,14.52a3.541,3.541,0,0,0,.763-.085c.131.841.324,2.33.438,4.377H16.792c.12-2.046.322-3.558.461-4.427A3.541,3.541,0,0,0,18.223,14.52Zm0-1.414a2.124,2.124,0,0,1-1.84-3.18l1.84-3.185,1.839,3.185A2.123,2.123,0,0,1,18.223,13.106Zm-1.5,7.121h2.76c.015.465.025.937.03,1.414H16.695C16.7,21.168,16.711,20.695,16.727,20.227ZM8.911,21.642v-9.9h1.414v9.9Zm-2.829,0v-9.9H7.5v9.9Zm.437-11.316L8.2,6.956l1.685,3.369ZM24.349,34.8H11.861a2.126,2.126,0,0,1,2-1.414h8.487A2.125,2.125,0,0,1,24.349,34.8Zm-4.122-2.829H15.984V28.714h4.243ZM32.675,27.3H3.536a2.124,2.124,0,0,1-2.122-2.122V23.056H34.8v2.122A2.124,2.124,0,0,1,32.675,27.3Zm0,0" fill="#ff4a61"/>
  <path id="Path_19908" data-name="Path 19908" d="M41.966,62.172H37.723a.707.707,0,0,0,0,1.414h4.243a.707.707,0,0,0,0-1.414Zm0,0" transform="translate(-22.446 -37.701)" fill="#ff4a61"/>
</svg>
