<svg xmlns="http://www.w3.org/2000/svg" width="36.486" height="32.234" viewBox="0 0 36.486 32.234">
  <g id="pur-6" transform="translate(0 -5.361)">
    <g id="Group_28135" data-name="Group 28135" transform="translate(0 5.361)">
      <path id="Path_19922" data-name="Path 19922" d="M33.824,8.528A9.19,9.19,0,0,0,19.151,9.583a13.989,13.989,0,0,0-.908,1.473,13.978,13.978,0,0,0-.908-1.473A9.19,9.19,0,0,0,2.662,8.528,11.06,11.06,0,0,0,0,15.873c0,3.036,1.185,5.86,3.73,8.886a83.045,83.045,0,0,0,9.336,8.722c1.412,1.2,2.872,2.447,4.426,3.807l.047.041a1.069,1.069,0,0,0,1.408,0l.047-.041c1.554-1.36,3.015-2.6,4.427-3.808a83.033,83.033,0,0,0,9.336-8.722c2.545-3.027,3.73-5.85,3.73-8.886A11.06,11.06,0,0,0,33.824,8.528ZM22.034,31.855c-1.217,1.037-2.47,2.1-3.791,3.253-1.321-1.148-2.573-2.216-3.791-3.253C7.037,25.536,2.138,21.361,2.138,15.873A8.926,8.926,0,0,1,4.266,9.941,7.136,7.136,0,0,1,9.692,7.5a7.207,7.207,0,0,1,5.9,3.32,12.673,12.673,0,0,1,1.636,3.254,1.069,1.069,0,0,0,2.033,0A12.674,12.674,0,0,1,20.9,10.819,7.055,7.055,0,0,1,32.22,9.941a8.925,8.925,0,0,1,2.128,5.932C34.348,21.361,29.45,25.536,22.034,31.855Z" transform="translate(0 -5.361)" fill="#ff4a61"/>
    </g>
  </g>
</svg>
