<svg xmlns="http://www.w3.org/2000/svg" width="31.621" height="40.105" viewBox="0 0 31.621 40.105">
  <g id="pur-8" transform="translate(-9.731)">
    <g id="Group_28141" data-name="Group 28141" transform="translate(9.731)">
      <g id="Group_28140" data-name="Group 28140">
        <path id="Path_19925" data-name="Path 19925" d="M25.541,0a15.806,15.806,0,0,0-8.869,28.892V38.948A1.157,1.157,0,0,0,18.3,40l7.238-3.257L32.779,40a1.157,1.157,0,0,0,1.632-1.055V28.893A15.806,15.806,0,0,0,25.541,0ZM32.1,37.159l-6.081-2.736a1.156,1.156,0,0,0-.949,0l-6.081,2.736V30.2a15.731,15.731,0,0,0,1.786.685l.1.033.233.07.173.05.189.051.221.057.157.038.256.059.133.029.283.057.115.022q.15.028.3.053l.1.017q.156.025.313.046l.1.014c.106.014.212.027.319.039l.1.011c.106.011.213.021.32.03l.1.009c.105.008.211.015.317.021l.1.007c.107.006.215.009.322.013l.1,0q.209.005.419.006t.419-.006l.1,0c.108,0,.215-.007.322-.013l.1-.007c.106-.006.212-.013.317-.021l.1-.009c.107-.009.214-.019.32-.03l.1-.011c.107-.012.213-.025.319-.039l.1-.014q.157-.022.313-.046l.1-.017q.151-.025.3-.053l.115-.022.283-.057.133-.029.256-.059.157-.038.221-.057.189-.051.173-.05.233-.07.1-.033A15.731,15.731,0,0,0,32.1,30.2v6.958Zm-2.151-8.59-.139.047-.212.069-.248.075-.176.051q-.165.046-.33.088l-.124.03q-.162.039-.326.075l-.082.018q-.211.044-.423.082l-.043.007q-.191.033-.384.06l-.087.012c-.137.019-.274.036-.411.05l-.016,0q-.216.022-.433.038l-.094.006q-.169.011-.338.018l-.115,0c-.142,0-.283.007-.425.007s-.284,0-.425-.007L25,29.3q-.169-.007-.338-.018l-.094-.006q-.217-.016-.433-.038l-.016,0c-.137-.014-.274-.031-.411-.05l-.087-.012q-.192-.028-.384-.06L23.2,29.1q-.212-.037-.423-.082L22.691,29q-.163-.035-.326-.075l-.124-.03q-.166-.042-.33-.088l-.176-.051-.248-.075-.212-.069-.139-.047a13.5,13.5,0,1,1,8.809,0Z" transform="translate(-9.731)" fill="#ff4a61"/>
      </g>
    </g>
    <g id="Group_28143" data-name="Group 28143" transform="translate(16.369 5.399)">
      <g id="Group_28142" data-name="Group 28142" transform="translate(0)">
        <path id="Path_19926" data-name="Path 19926" d="M41,22.8l2.173-4.084a1.157,1.157,0,0,0-.981-1.7l-4.623-.16-2.45-3.924a1.157,1.157,0,0,0-1.962,0L30.7,16.853l-4.623.16a1.157,1.157,0,0,0-.981,1.7L27.268,22.8,25.1,26.881a1.157,1.157,0,0,0,.981,1.7l4.623.16,2.45,3.924a1.157,1.157,0,0,0,1.962,0l2.45-3.924,4.623-.16a1.157,1.157,0,0,0,.981-1.7Zm-4.127,3.653a1.157,1.157,0,0,0-.941.543l-1.8,2.875-1.8-2.875a1.157,1.157,0,0,0-.941-.543l-3.387-.117L29.6,23.34a1.157,1.157,0,0,0,0-1.087l-1.592-2.992,3.387-.117a1.157,1.157,0,0,0,.941-.543l1.8-2.875,1.8,2.875a1.157,1.157,0,0,0,.941.543l3.387.117-1.592,2.992a1.157,1.157,0,0,0,0,1.087l1.592,2.992Z" transform="translate(-24.96 -12.385)" fill="#ff4a61"/>
      </g>
    </g>
  </g>
</svg>
