<svg xmlns="http://www.w3.org/2000/svg" width="34.713" height="37.201" viewBox="0 0 34.713 37.201">
  <g id="pur-2" transform="translate(-3.077)">
    <g id="Group_28149" data-name="Group 28149" transform="translate(3.077)">
      <g id="Group_28148" data-name="Group 28148">
        <path id="Path_19938" data-name="Path 19938" d="M35.252,22.838V9.288L19.165,0,3.077,9.288V27.864l16.087,9.288,4.28-2.471A8.362,8.362,0,1,0,35.252,22.838ZM19.165,2.52l12.813,7.4-5.315,3.069-12.813-7.4ZM18.073,34,5.26,26.6v-14.8l12.813,7.4ZM6.351,9.918l5.315-3.069,12.813,7.4-5.315,3.069ZM20.256,34v-14.8l12.813-7.4v9.5A8.364,8.364,0,0,0,22.125,32.922Zm9.167,1.017a6.184,6.184,0,1,1,6.184-6.184A6.191,6.191,0,0,1,29.423,35.019Z" transform="translate(-3.077)" fill="#ff4a61"/>
      </g>
    </g>
    <g id="Group_28151" data-name="Group 28151" transform="translate(25.297 25.664)">
      <g id="Group_28150" data-name="Group 28150">
        <path id="Path_19939" data-name="Path 19939" d="M64.738,63.468l-3.574,3.593-1.6-1.585-1.535,1.551,3.148,3.117,5.109-5.137Z" transform="translate(-58.028 -63.468)" fill="#ff4a61"/>
      </g>
    </g>
  </g>
</svg>
