<svg xmlns="http://www.w3.org/2000/svg" width="39.09" height="35.776" viewBox="0 0 39.09 35.776">
  <g id="pur-1" transform="translate(0 -3.9)">
    <g id="Group_28153" data-name="Group 28153" transform="translate(26.076 29.928)">
      <g id="Group_28152" data-name="Group 28152">
        <path id="Path_19940" data-name="Path 19940" d="M66.246,65.157a4.874,4.874,0,1,0,4.874,4.874A4.88,4.88,0,0,0,66.246,65.157Zm0,6.824a1.95,1.95,0,1,1,1.95-1.95A1.952,1.952,0,0,1,66.246,71.981Z" transform="translate(-61.372 -65.157)" fill="#ff4a61"/>
      </g>
    </g>
    <g id="Group_28155" data-name="Group 28155" transform="translate(0 3.9)">
      <g id="Group_28154" data-name="Group 28154">
        <path id="Path_19941" data-name="Path 19941" d="M38.779,11.09a1.46,1.46,0,0,0-1.151-.561H9.026L7.71,5.023A1.463,1.463,0,0,0,6.288,3.9H1.462a1.462,1.462,0,1,0,0,2.924H5.133L9.886,26.709a1.462,1.462,0,0,0,1.422,1.122H34.07a1.462,1.462,0,0,0,1.419-1.11l3.558-14.379A1.465,1.465,0,0,0,38.779,11.09ZM32.926,24.907H12.462L9.725,13.453H35.76Z" transform="translate(0 -3.9)" fill="#ff4a61"/>
      </g>
    </g>
    <g id="Group_28157" data-name="Group 28157" transform="translate(8.383 29.928)">
      <g id="Group_28156" data-name="Group 28156">
        <path id="Path_19942" data-name="Path 19942" d="M24.6,65.157a4.874,4.874,0,1,0,4.874,4.874A4.88,4.88,0,0,0,24.6,65.157Zm0,6.824a1.95,1.95,0,1,1,1.95-1.95A1.952,1.952,0,0,1,24.6,71.981Z" transform="translate(-19.731 -65.157)" fill="#ff4a61"/>
      </g>
    </g>
  </g>
</svg>
