<svg xmlns="http://www.w3.org/2000/svg" width="47.855" height="32.72" viewBox="0 0 47.855 32.72">
  <path id="pur-3" d="M38.878,139.573a4.391,4.391,0,0,0-3.1,1.278,4.3,4.3,0,0,0,0,6.159,4.408,4.408,0,0,0,3.1,1.278,4.358,4.358,0,0,0,0-8.715Zm0,6.778a2.421,2.421,0,1,1,0-4.842,2.421,2.421,0,0,1,0,4.842ZM40,125.058a.94.94,0,0,0-.649-.252H34.385a.971.971,0,0,0-.968.968v7.94a.971.971,0,0,0,.968.968h7.882a.971.971,0,0,0,.968-.968V128.4a.969.969,0,0,0-.32-.717Zm1.3,7.689H35.354v-6.013h3.622l2.324,2.092Zm-26.067,6.827a4.391,4.391,0,0,0-3.1,1.278,4.3,4.3,0,0,0,0,6.159,4.408,4.408,0,0,0,3.1,1.278,4.358,4.358,0,0,0,0-8.715Zm0,6.778a2.421,2.421,0,1,1,0-4.842,2.421,2.421,0,0,1,0,4.842Zm-6.459-5.587H6.827v-2.576a.968.968,0,0,0-1.937,0v3.544a.971.971,0,0,0,.968.968H8.773a.968.968,0,1,0,0-1.937Zm4.909-5.277a.971.971,0,0,0-.968-.968H.968a.968.968,0,0,0,0,1.937H12.714A.965.965,0,0,0,13.683,135.487Zm-10.748-3.5,11.746.068a.978.978,0,0,0,.978-.959.959.959,0,0,0-.959-.978l-11.746-.068h-.01a.968.968,0,0,0-.01,1.937Zm1.975-4.4H16.655a.968.968,0,1,0,0-1.937H4.909a.968.968,0,0,0,0,1.937ZM47.2,126.288h0l-6.933-5.742a.954.954,0,0,0-.62-.223H31.49v-3.486a.971.971,0,0,0-.968-.968H5.858a.971.971,0,0,0-.968.968v7.088a.968.968,0,1,0,1.937,0V117.8H29.563v22.959h-7.94a.968.968,0,1,0,0,1.937H33.446a.968.968,0,1,0,0-1.937H31.5v-18.5h7.8l6.314,5.229-.068,13.256H44.543a.968.968,0,1,0,0,1.937h1.966a.963.963,0,0,0,.968-.959l.077-14.68A1.023,1.023,0,0,0,47.2,126.288Z" transform="translate(0.15 -115.718)" fill="#ff4a61" stroke="#ff4056" stroke-width="0.3"/>
</svg>
