<svg xmlns="http://www.w3.org/2000/svg" width="17.248" height="17.248" viewBox="0 0 17.248 17.248">
  <path id="return" d="M12.262,16.574a.674.674,0,0,1-.674.674H3.369a2.7,2.7,0,0,1-2.7-2.7V7.074a.674.674,0,0,1,1.348,0v7.479A1.349,1.349,0,0,0,3.369,15.9h8.22A.674.674,0,0,1,12.262,16.574ZM17.248,2.021V4.043a.674.674,0,0,1-.674.674V9.635a.674.674,0,1,1-1.348,0V4.716H.674A.674.674,0,0,1,0,4.043V2.021A2.023,2.023,0,0,1,2.021,0H15.227A2.023,2.023,0,0,1,17.248,2.021ZM1.348,3.369H15.9V2.021a.675.675,0,0,0-.674-.674H2.021a.675.675,0,0,0-.674.674Zm8.759,4.043a.674.674,0,1,0,0-1.348H7.074a.674.674,0,1,0,0,1.348Zm4.16,3.874H10.713l.844-.835a.674.674,0,0,0-.947-.958L9.358,10.73a1.675,1.675,0,0,0,0,2.381l1.253,1.246a.674.674,0,1,0,.95-.955l-.773-.769h3.481a1.634,1.634,0,0,1,.019,3.268.674.674,0,0,0,0,1.348,2.934,2.934,0,0,0,2.1-.876,2.988,2.988,0,0,0-2.12-5.087Zm0,0" fill="#fff"/>
</svg>
