<svg xmlns="http://www.w3.org/2000/svg" width="39.334" height="39.349" viewBox="0 0 39.334 39.349">
  <g id="returning" transform="translate(0.034 0.068)">
    <path id="Path_19282" data-name="Path 19282" d="M55.722,45.685l2.918-2.547a1.229,1.229,0,1,0-1.617-1.851l-5.375,4.692a1.23,1.23,0,0,0,0,1.851l5.375,4.69a1.228,1.228,0,0,0,1.615-1.851l-2.88-2.513a8.073,8.073,0,0,1,7.754,8.129v3.127a1.229,1.229,0,0,0,2.459,0V56.286a10.538,10.538,0,0,0-10.25-10.6Z" transform="translate(-26.673 -21.36)" fill="#85dee2"/>
    <path id="Path_19283" data-name="Path 19283" d="M15.638,0,7.676.033a2.854,2.854,0,0,0-2.49,1.474L1.025,9.043l13.81-.033Z" transform="translate(-0.551 -0.036)" fill="#85dee2"/>
    <path id="Path_19284" data-name="Path 19284" d="M51.29,8.942,47.08,1.406A2.88,2.88,0,0,0,44.573-.068l-7.962.033.836,9.01Z" transform="translate(-19.067 0)" fill="#85dee2"/>
    <path id="Path_19285" data-name="Path 19285" d="M32.747,29.063a4.28,4.28,0,0,0-1.589-.295,4.536,4.536,0,0,0-2.965,1.114l-5.373,4.685a4.522,4.522,0,0,0,0,6.8l4.325,3.768L2.62,45.2H2.6A2.59,2.59,0,0,1,.031,42.611L-.034,23.886l15.154-.033h2.457L32.731,23.8Z" transform="translate(0 -12.421)" fill="#85dee2"/>
  </g>
</svg>
