<svg xmlns="http://www.w3.org/2000/svg" width="20.111" height="18.579" viewBox="0 0 20.111 18.579">
  <g id="review-edit" transform="translate(0.25 -1.53)">
    <g id="XMLID_277_" transform="translate(0 1.78)">
      <path id="XMLID_292_" d="M12.239,9.59l-.125.052a1.222,1.222,0,0,0-1.061-.617H9.114a1.223,1.223,0,0,0-1.222,1.222v5.514a1.223,1.223,0,0,0,1.222,1.222h1.939A1.22,1.22,0,0,0,12,16.527a5.325,5.325,0,0,0,2.15.456h4.1a1.246,1.246,0,0,0,1.1-1.84,1.244,1.244,0,0,0,.587-1.7,1.246,1.246,0,0,0,0-2.308,1.245,1.245,0,0,0-1.106-1.818H16.784a.35.35,0,0,1-.35-.35V7.836A2.039,2.039,0,0,0,14.4,5.8a.894.894,0,0,0-.893.893V7.7A2.037,2.037,0,0,1,12.239,9.59Zm-1.186,6.627H9.114a.456.456,0,0,1-.456-.456V10.247a.456.456,0,0,1,.456-.456h1.939a.456.456,0,0,1,.456.456v5.514A.456.456,0,0,1,11.053,16.217ZM14.27,7.7V6.692a.127.127,0,0,1,.127-.127,1.273,1.273,0,0,1,1.271,1.271V8.963a1.117,1.117,0,0,0,1.116,1.116h2.041a.48.48,0,0,1,0,.96H16.435a.383.383,0,1,0,0,.766h3.028a.48.48,0,1,1,0,.96H16.435a.383.383,0,1,0,0,.766h2.391a.48.48,0,1,1,0,.96H16.435a.383.383,0,1,0,0,.766H18.25a.48.48,0,0,1,0,.96h-4.1a4.554,4.554,0,0,1-1.88-.409c0-.016,0-.031,0-.047V10.4l.256-.105A2.8,2.8,0,0,0,14.27,7.7Z" transform="translate(-4.495 -4.069)" fill="#fff" stroke="#fff" stroke-width="0.5"/>
      <path id="XMLID_297_" d="M16.163,1.78H11.529a.383.383,0,0,0,0,.766h4.635a2.684,2.684,0,0,1,2.681,2.681v8.886a2.684,2.684,0,0,1-2.681,2.681H11.132a.383.383,0,0,0-.332.192l-1,1.724-1-1.724a.383.383,0,0,0-.332-.192H3.447A2.684,2.684,0,0,1,.766,14.113V5.227A2.684,2.684,0,0,1,3.447,2.546H8.082a.383.383,0,1,0,0-.766H3.447A3.451,3.451,0,0,0,0,5.227v8.886A3.451,3.451,0,0,0,3.447,17.56h4.81l1.216,2.107a.383.383,0,0,0,.663,0l1.216-2.107h4.81a3.451,3.451,0,0,0,3.447-3.447V5.227A3.451,3.451,0,0,0,16.163,1.78Z" transform="translate(0 -1.78)" fill="#fff" stroke="#fff" stroke-width="0.5"/>
      <path id="XMLID_298_" d="M22.273,2.546A.383.383,0,1,0,22,2.433.386.386,0,0,0,22.273,2.546Z" transform="translate(-12.468 -1.78)" fill="#fff" stroke="#fff" stroke-width="0.5"/>
    </g>
  </g>
</svg>
