<svg id="salary" xmlns="http://www.w3.org/2000/svg" width="23.709" height="23.709" viewBox="0 0 23.709 23.709">
  <rect id="Rectangle_2043" data-name="Rectangle 2043" width="2" height="6" transform="translate(0.854 17)" fill="#13bdbf"/>
  <path id="Path_20005" data-name="Path 20005" d="M23.424,296.728a2.956,2.956,0,0,0-4.593-.387l-2.976,3.127a3.479,3.479,0,0,0-3.287-2.351H10.053a4.13,4.13,0,0,0-3.107-1.389,4.18,4.18,0,0,0-3.06,1.339,4.1,4.1,0,0,1-2.97,1.44H0v6.946H17.068l6.641-8.3ZM16.4,304.063H1.389v-4.191a5.6,5.6,0,0,0,3.516-1.862,2.787,2.787,0,0,1,2.04-.892,2.758,2.758,0,0,1,2.223,1.112l.208.277h3.189a2.088,2.088,0,0,1,1.965,1.389H9.724v1.389h6.319l3.794-3.985a1.569,1.569,0,0,1,2.1-.156Zm0,0" transform="translate(0 -281.743)" fill="#19124f"/>
  <circle id="Ellipse_3213" data-name="Ellipse 3213" cx="3" cy="3" r="3" transform="translate(10.854 7)" fill="#13bdbf"/>
  <path id="Path_20006" data-name="Path 20006" d="M214.168,130.335A4.168,4.168,0,1,0,210,126.168,4.172,4.172,0,0,0,214.168,130.335Zm0-6.946a2.778,2.778,0,1,1-2.778,2.778A2.782,2.782,0,0,1,214.168,123.389Zm0,0" transform="translate(-200.276 -116.351)" fill="#19124f"/>
  <circle id="Ellipse_3214" data-name="Ellipse 3214" cx="1.5" cy="1.5" r="1.5" transform="translate(11.854 1)" fill="#13bdbf"/>
  <circle id="Ellipse_3215" data-name="Ellipse 3215" cx="2" cy="2" r="2" transform="translate(17.854 2)" fill="#13bdbf"/>
  <path id="Path_20007" data-name="Path 20007" d="M362.778,37.557A2.778,2.778,0,1,0,360,34.778,2.782,2.782,0,0,0,362.778,37.557Zm0-4.168a1.389,1.389,0,1,1-1.389,1.389A1.391,1.391,0,0,1,362.778,33.389Zm0,0" transform="translate(-343.33 -30.518)" fill="#19124f"/>
  <path id="Path_20008" data-name="Path 20008" d="M242.084,4.168A2.084,2.084,0,1,0,240,2.084,2.086,2.086,0,0,0,242.084,4.168Zm0-2.778a.695.695,0,1,1-.695.695A.7.7,0,0,1,242.084,1.389Zm0,0" transform="translate(-228.886)" fill="#19124f"/>
</svg>
