<svg xmlns="http://www.w3.org/2000/svg" width="36.031" height="36.031" viewBox="0 0 36.031 36.031">
  <g id="sale-4" transform="translate(0 0)">
    <g id="Group_28128" data-name="Group 28128" transform="translate(0 0)">
      <g id="Group_28127" data-name="Group 28127" transform="translate(0)">
        <path id="Path_19916" data-name="Path 19916" d="M35.722.309a1.056,1.056,0,0,0-1.493,0L31.154,3.384a3.175,3.175,0,0,0-.6-.215L21,.809A3.183,3.183,0,0,0,18,1.642L.926,18.683a3.171,3.171,0,0,0,0,4.479L12.869,35.105a3.171,3.171,0,0,0,4.479,0L34.39,18.035a3.183,3.183,0,0,0,.833-3.007l-2.36-9.555a3.181,3.181,0,0,0-.215-.6L35.722,1.8A1.056,1.056,0,0,0,35.722.309ZM33.174,15.54a1.061,1.061,0,0,1-.278,1L15.855,33.612a1.057,1.057,0,0,1-1.493,0L2.419,21.669a1.057,1.057,0,0,1,0-1.493L19.489,3.135a1.062,1.062,0,0,1,.749-.309,1.047,1.047,0,0,1,.254.031l8.975,2.216L26.924,7.615a3.167,3.167,0,1,0,1.493,1.493l2.542-2.542Zm-6.869-4.322a1.055,1.055,0,1,1,0-1.493h0A1.057,1.057,0,0,1,26.306,11.219Z" transform="translate(0 0)" fill="#13bdbf"/>
      </g>
    </g>
    <g id="Group_28130" data-name="Group 28130" transform="translate(11.943 11.785)">
      <g id="Group_28129" data-name="Group 28129">
        <path id="Path_19917" data-name="Path 19917" d="M35.9,31.018a3.167,3.167,0,1,0,0,4.479A3.171,3.171,0,0,0,35.9,31.018ZM34.407,34a1.056,1.056,0,1,1,0-1.493A1.057,1.057,0,0,1,34.407,34Z" transform="translate(-30.495 -30.092)" fill="#13bdbf"/>
      </g>
    </g>
    <g id="Group_28132" data-name="Group 28132" transform="translate(13.436 22.234)">
      <g id="Group_28131" data-name="Group 28131">
        <path id="Path_19918" data-name="Path 19918" d="M39.712,57.7a3.167,3.167,0,1,0,0,4.479A3.165,3.165,0,0,0,39.712,57.7Zm-1.493,2.986a1.056,1.056,0,1,1,0-1.493A1.055,1.055,0,0,1,38.219,60.684Z" transform="translate(-34.307 -56.77)" fill="#13bdbf"/>
      </g>
    </g>
    <g id="Group_28134" data-name="Group 28134" transform="translate(8.081 18.374)">
      <g id="Group_28133" data-name="Group 28133">
        <path id="Path_19919" data-name="Path 19919" d="M36.175,47.854a1.056,1.056,0,0,0-1.166-.933L21.574,48.414a1.056,1.056,0,0,0,.115,2.105,1.077,1.077,0,0,0,.118-.007L35.243,49.02A1.056,1.056,0,0,0,36.175,47.854Z" transform="translate(-20.634 -46.915)" fill="#13bdbf"/>
      </g>
    </g>
  </g>
</svg>
