<svg xmlns="http://www.w3.org/2000/svg" width="32.752" height="32.751" viewBox="0 0 32.752 32.751">
  <g id="sale-3" transform="translate(0 -0.001)">
    <g id="Group_28118" data-name="Group 28118" transform="translate(0 0.001)">
      <g id="Group_28117" data-name="Group 28117">
        <path id="Path_19911" data-name="Path 19911" d="M31.723,12.129a2.875,2.875,0,0,0-4.045.352l-2.731,3.232V6.342a2.891,2.891,0,0,0-.9-2.087L20.406.792A2.867,2.867,0,0,0,18.424,0H2.879A2.882,2.882,0,0,0,0,2.879V29.874a2.882,2.882,0,0,0,2.879,2.879h19.19a2.882,2.882,0,0,0,2.879-2.879V24.631l7.13-8.446A2.877,2.877,0,0,0,31.723,12.129ZM19.19,2.284c3.839,3.647,3.566,3.38,3.638,3.474H19.19Zm3.838,27.59a.961.961,0,0,1-.96.96H2.879a.961.961,0,0,1-.96-.96V2.879a.961.961,0,0,1,.96-.96H17.271v4.8a.96.96,0,0,0,.96.96h4.8V17.984l-4.079,4.827a2.893,2.893,0,0,0-.595,1.182l-.892,3.733a.96.96,0,0,0,1.315,1.1L22.3,27.3a2.893,2.893,0,0,0,.729-.457Zm-2.282-6.216,1.47,1.233-.327.387a.963.963,0,0,1-.353.264l-1.761.763.446-1.866a.961.961,0,0,1,.2-.391Zm2.708-.233-1.469-1.233,5.3-6.276,1.466,1.23Zm7.156-8.476-.617.731-1.465-1.23.619-.733a.956.956,0,0,1,1.463,1.231Z" transform="translate(0 -0.001)" fill="#13bdbf"/>
      </g>
    </g>
    <g id="Group_28120" data-name="Group 28120" transform="translate(3.838 5.758)">
      <g id="Group_28119" data-name="Group 28119">
        <path id="Path_19912" data-name="Path 19912" d="M21.336,16.172h-9.6a.96.96,0,1,0,0,1.919h9.6a.96.96,0,1,0,0-1.919Z" transform="translate(-10.781 -16.172)" fill="#13bdbf"/>
      </g>
    </g>
    <g id="Group_28122" data-name="Group 28122" transform="translate(3.838 11.579)">
      <g id="Group_28121" data-name="Group 28121">
        <path id="Path_19913" data-name="Path 19913" d="M27.093,32.524H11.74a.96.96,0,1,0,0,1.919H27.093a.96.96,0,0,0,0-1.919Z" transform="translate(-10.781 -32.524)" fill="#13bdbf"/>
      </g>
    </g>
    <g id="Group_28124" data-name="Group 28124" transform="translate(3.838 17.336)">
      <g id="Group_28123" data-name="Group 28123">
        <path id="Path_19914" data-name="Path 19914" d="M27.093,48.7H11.74a.96.96,0,1,0,0,1.919H27.093a.96.96,0,0,0,0-1.919Z" transform="translate(-10.781 -48.695)" fill="#13bdbf"/>
      </g>
    </g>
    <g id="Group_28126" data-name="Group 28126" transform="translate(3.838 23.093)">
      <g id="Group_28125" data-name="Group 28125">
        <path id="Path_19915" data-name="Path 19915" d="M21.336,64.867h-9.6a.96.96,0,0,0,0,1.919h9.6a.96.96,0,0,0,0-1.919Z" transform="translate(-10.781 -64.867)" fill="#13bdbf"/>
      </g>
    </g>
  </g>
</svg>
