<svg xmlns="http://www.w3.org/2000/svg" width="35.688" height="31.159" viewBox="0 0 35.688 31.159">
  <g id="sale-2" transform="translate(-4 -8.838)">
    <g id="Group_28116" data-name="Group 28116" transform="translate(4 8.838)">
      <path id="Path_19909" data-name="Path 19909" d="M53.914,49.581H49.064a2.409,2.409,0,0,0-2.406,2.406v3.719a2.409,2.409,0,0,0,2.406,2.406h4.849a2.409,2.409,0,0,0,2.406-2.406V51.988A2.409,2.409,0,0,0,53.914,49.581Zm.656,6.125a.658.658,0,0,1-.656.656H49.064a.658.658,0,0,1-.656-.656V51.988a.658.658,0,0,1,.656-.656h4.849a.658.658,0,0,1,.656.656Z" transform="translate(-28.559 -32.612)" fill="#13bdbf"/>
      <path id="Path_19910" data-name="Path 19910" d="M35.688,16.046a.812.812,0,0,0-.117-.43L30.262,6.282a.88.88,0,0,0-.758-.445H6.176a.865.865,0,0,0-.758.445l-5.3,9.334a.885.885,0,0,0-.117.43,5.119,5.119,0,0,0,3.063,4.682V36.121A.878.878,0,0,0,3.938,37h27.8a.878.878,0,0,0,.875-.875V20.837a.385.385,0,0,0-.007-.095A5.133,5.133,0,0,0,35.688,16.046Zm-29-8.452H28.993l4.149,7.3H2.545ZM25.4,16.637a3.363,3.363,0,0,1-6.621,0Zm-8.481,0a3.368,3.368,0,0,1-6.629,0Zm-15.109,0H8.437a3.368,3.368,0,0,1-6.629,0ZM14.7,35.246H9.669V25.8a1.246,1.246,0,0,1,1.247-1.247h2.545A1.246,1.246,0,0,1,14.708,25.8v9.443Zm16.167,0H16.451V25.8a3,3,0,0,0-3-3H10.909a3,3,0,0,0-3,3v9.451h-3.1v-14.1c.1.007.2.007.306.007A5.112,5.112,0,0,0,9.363,18.9a5.114,5.114,0,0,0,8.488,0,5.1,5.1,0,0,0,8.473,0,5.112,5.112,0,0,0,4.244,2.261c.1,0,.2-.007.3-.007V35.246Zm-.3-15.831a3.361,3.361,0,0,1-3.311-2.771h6.629A3.382,3.382,0,0,1,30.568,19.415Z" transform="translate(0 -5.837)" fill="#13bdbf"/>
    </g>
  </g>
</svg>
