<svg xmlns="http://www.w3.org/2000/svg" width="40.342" height="30.725" viewBox="0 0 40.342 30.725">
  <g id="sale-5" transform="translate(0 -10.966)">
    <path id="Path_19920" data-name="Path 19920" d="M.039,21.892,4.844,40.8a1.182,1.182,0,0,0,1.145.891H34.352A1.182,1.182,0,0,0,35.5,40.8L40.3,21.892a1.183,1.183,0,0,0-1.851-1.239l-3.92,2.916-1.385-6.926a1.183,1.183,0,0,0-2.1-.477l-4.1,5.46L21.2,11.56a1.183,1.183,0,0,0-2.052,0L13.394,21.625l-4.1-5.46a1.183,1.183,0,0,0-2.1.477L5.809,23.568l-3.92-2.916A1.183,1.183,0,0,0,.039,21.892ZM31.348,19.7l1.086,5.432L29.99,26.947l-1.764-3.087Zm-22.354,0,3.122,4.163-1.764,3.087L7.908,25.129Zm1.018,9.942a1.182,1.182,0,0,0,1.731-.362l8.428-14.749L28.6,29.278a1.182,1.182,0,0,0,1.731.362l6.862-5.1L34.635,34.6h-5.01a1.182,1.182,0,1,0,0,2.364h4.409l-.6,2.364H6.909l-.6-2.364h4.409a1.182,1.182,0,0,0,0-2.364H5.707L3.149,24.535Z" transform="translate(0)" fill="#13bdbf"/>
    <path id="Path_19921" data-name="Path 19921" d="M38.934,51.522a1.182,1.182,0,0,0,2.027,0l3.545-5.909a1.181,1.181,0,0,0,0-1.216L40.96,38.489a1.182,1.182,0,0,0-2.027,0L35.388,44.4a1.181,1.181,0,0,0,0,1.216Zm1.013-10.129,2.167,3.612-2.167,3.612L37.78,45.005Z" transform="translate(-19.776 -15.132)" fill="#13bdbf"/>
  </g>
</svg>
