<svg xmlns="http://www.w3.org/2000/svg" width="60.033" height="54.847" viewBox="0 0 60.033 54.847">
  <g id="satisfaction" transform="translate(1727.371 -9975.262)">
    <g id="customer-satisfaction" transform="translate(-1727.371 9975.262)">
      <path id="Path_19026" data-name="Path 19026" d="M54.013,4H26.573A4.573,4.573,0,0,0,22,8.573V26.866a4.573,4.573,0,0,0,4.573,4.573H28.86v8h4.573v-8h20.58a4.573,4.573,0,0,0,4.573-4.573V8.573A4.573,4.573,0,0,0,54.013,4Z" transform="translate(-3.698 -3.428)" fill="#e0f5f4"/>
      <path id="Path_19027" data-name="Path 19027" d="M33.5,40.086H28.932a.572.572,0,0,1-.572-.572V32.083H26.645A5.151,5.151,0,0,1,21.5,26.938V8.645A5.151,5.151,0,0,1,26.645,3.5H54.085A5.151,5.151,0,0,1,59.23,8.645V26.938a5.151,5.151,0,0,1-5.145,5.145H34.077v7.432A.572.572,0,0,1,33.5,40.086Zm-4-1.143h3.43V31.511a.572.572,0,0,1,.572-.572h20.58a4.006,4.006,0,0,0,4-4V8.645a4.006,4.006,0,0,0-4-4H26.645a4.006,4.006,0,0,0-4,4V26.938a4.006,4.006,0,0,0,4,4h2.287a.572.572,0,0,1,.572.572Z" transform="translate(-3.77 -3.5)" fill="#19124f"/>
      <path id="Path_19028" data-name="Path 19028" d="M58.013,4H30.573A4.573,4.573,0,0,0,26,8.573V26.866a4.573,4.573,0,0,0,4.573,4.573H32.86v8l11.433-8h13.72a4.573,4.573,0,0,0,4.573-4.573V8.573A4.573,4.573,0,0,0,58.013,4Z" transform="translate(-3.125 -3.428)" fill="#85dee2"/>
      <path id="Path_19029" data-name="Path 19029" d="M32.932,40.086a.573.573,0,0,1-.572-.572V32.083H30.645A5.151,5.151,0,0,1,25.5,26.938V8.645A5.151,5.151,0,0,1,30.645,3.5H58.085A5.151,5.151,0,0,1,63.23,8.645V26.938a5.151,5.151,0,0,1-5.145,5.145H44.545l-11.286,7.9a.572.572,0,0,1-.328.1ZM30.645,4.643a4.006,4.006,0,0,0-4,4V26.938a4.006,4.006,0,0,0,4,4h2.287a.572.572,0,0,1,.572.572v6.906l10.533-7.373a.57.57,0,0,1,.328-.1h13.72a4.006,4.006,0,0,0,4-4V8.645a4.006,4.006,0,0,0-4-4Z" transform="translate(-3.197 -3.5)" fill="#19124f"/>
      <g id="Group_26362" data-name="Group 26362" transform="translate(0 21.691)">
        <circle id="Ellipse_362" data-name="Ellipse 362" cx="16.006" cy="16.006" r="16.006" transform="translate(0.572 0.572)" fill="#fd596f"/>
        <path id="Path_19025" data-name="Path 19025" d="M22.078,64.656A16.578,16.578,0,1,1,38.656,48.078,16.6,16.6,0,0,1,22.078,64.656Zm0-32.013A15.435,15.435,0,1,0,37.513,48.078,15.452,15.452,0,0,0,22.078,32.643Z" transform="translate(-5.5 -31.5)" fill="#19124f"/>
        <circle id="Ellipse_363" data-name="Ellipse 363" cx="16.006" cy="16.006" r="16.006" transform="translate(4.002 0.572)" fill="#fd596f"/>
        <path id="Path_19032" data-name="Path 19032" d="M25.078,64.656A16.578,16.578,0,1,1,41.656,48.078,16.6,16.6,0,0,1,25.078,64.656Zm0-32.013A15.435,15.435,0,1,0,40.513,48.078,15.452,15.452,0,0,0,25.078,32.643Z" transform="translate(-5.07 -31.5)" fill="#19124f"/>
        <path id="Path_19033" data-name="Path 19033" d="M23.071,60.363a.572.572,0,1,1,0-1.143A13.163,13.163,0,0,0,36.219,46.072a.572.572,0,1,1,1.143,0A14.307,14.307,0,0,1,23.071,60.363Z" transform="translate(-3.063 -29.494)" fill="#fff"/>
        <path id="Path_19034" data-name="Path 19034" d="M11.072,48.363a.572.572,0,0,1-.572-.572A14.307,14.307,0,0,1,24.791,33.5a.572.572,0,0,1,0,1.143A13.163,13.163,0,0,0,11.643,47.792a.572.572,0,0,1-.572.572Z" transform="translate(-4.783 -31.213)" fill="#fff"/>
        <path id="Path_19035" data-name="Path 19035" d="M24.29,56.783a10.289,10.289,0,0,0,10.29-10.29H14a10.289,10.289,0,0,0,10.291,10.29Z" transform="translate(-4.282 -29.344)" fill="#fff"/>
        <path id="Path_19036" data-name="Path 19036" d="M24.362,57.433A10.874,10.874,0,0,1,13.5,46.572.572.572,0,0,1,14.072,46h20.58a.572.572,0,0,1,.572.572A10.874,10.874,0,0,1,24.362,57.433Zm-9.7-10.29a9.718,9.718,0,0,0,19.4,0Z" transform="translate(-4.353 -29.422)" fill="#19124f"/>
        <circle id="Ellipse_364" data-name="Ellipse 364" cx="1.715" cy="1.715" r="1.715" transform="translate(23.438 9.718)" fill="#fff"/>
        <path id="Path_19037" data-name="Path 19037" d="M27.787,44.073a2.287,2.287,0,1,1,2.287-2.287A2.287,2.287,0,0,1,27.787,44.073Zm0-3.43a1.143,1.143,0,1,0,1.143,1.143,1.143,1.143,0,0,0-1.143-1.143Z" transform="translate(-2.634 -30.354)" fill="#19124f"/>
        <circle id="Ellipse_365" data-name="Ellipse 365" cx="1.715" cy="1.715" r="1.715" transform="translate(13.148 9.718)" fill="#fff"/>
        <path id="Path_19038" data-name="Path 19038" d="M18.787,44.073a2.287,2.287,0,1,1,2.287-2.287A2.287,2.287,0,0,1,18.787,44.073Zm0-3.43a1.143,1.143,0,1,0,1.143,1.143,1.143,1.143,0,0,0-1.143-1.143Z" transform="translate(-3.923 -30.354)" fill="#19124f"/>
      </g>
      <path id="Path_19039" data-name="Path 19039" d="M43,8l2.473,5.27,5.53.845-4,4.1.944,5.791L43,21.273l-4.946,2.733L39,18.216l-4-4.1,5.53-.845Z" transform="translate(-1.835 -2.855)" fill="#fd596f"/>
      <path id="Path_19040" data-name="Path 19040" d="M48.023,24.646a.579.579,0,0,1-.277-.071l-4.669-2.582-4.669,2.582a.567.567,0,0,1-.606-.033.574.574,0,0,1-.236-.559l.9-5.506-3.8-3.895a.571.571,0,0,1,.322-.964l5.228-.8,2.344-4.993a.594.594,0,0,1,1.035,0l2.344,4.993,5.228.8a.571.571,0,0,1,.322.964l-3.8,3.894.9,5.506a.572.572,0,0,1-.564.663Zm-4.946-3.878a.579.579,0,0,1,.277.071L47.27,23l-.756-4.629a.574.574,0,0,1,.156-.492l3.224-3.305-4.43-.677a.571.571,0,0,1-.431-.322L43.077,9.414,41.122,13.58a.571.571,0,0,1-.431.322l-4.43.676,3.224,3.305a.573.573,0,0,1,.156.492l-.756,4.629L42.8,20.84a.568.568,0,0,1,.277-.072Z" transform="translate(-1.909 -2.923)" fill="#19124f"/>
    </g>
    <g id="Group_26360" data-name="Group 26360" transform="translate(-1684.785 10009.626)">
      <g id="Path_19084" data-name="Path 19084" transform="translate(4.973 2.691)">
        <path id="Path_19035-2" data-name="Path 19035" d="M47.338,40.662a7.187,7.187,0,0,0-.528-1.2,4.631,4.631,0,0,0-1.142-1.386,3.242,3.242,0,0,0-1.1-.576,5.455,5.455,0,0,0,1.021-.478,4.235,4.235,0,0,0,1.281-1.175,3.89,3.89,0,0,0,.606-1.363,7.4,7.4,0,0,0,.616,1.2,4.927,4.927,0,0,0,1.176,1.3,3.4,3.4,0,0,0,1.219.586l-.035.016a8.464,8.464,0,0,0-1.284.742,5.418,5.418,0,0,0-1.31,1.271A3.5,3.5,0,0,0,47.338,40.662Z" transform="translate(-43.791 -33.814)" fill="#fd596f"/>
        <path id="Path_19036-2" data-name="Path 19036" d="M38.863,27.48a3.991,3.991,0,0,1-.5.977,4.4,4.4,0,0,1-1.33,1.221,5.427,5.427,0,0,1-.643.333,3.488,3.488,0,0,1,.742.452A4.793,4.793,0,0,1,38.312,31.9a7.005,7.005,0,0,1,.383.8,3.846,3.846,0,0,1,.385-.678,5.581,5.581,0,0,1,1.349-1.31,8.347,8.347,0,0,1,.973-.591,3.655,3.655,0,0,1-.876-.488,5.09,5.09,0,0,1-1.216-1.344,7.259,7.259,0,0,1-.447-.808m-.092-1.15s.948,3.52,3.676,3.683c0,0-3.642,1.258-3.7,3.949,0,0-.717-3.774-3.594-3.909C35.15,30.053,38.5,29.545,38.772,26.33Z" transform="translate(-35.15 -26.33)" fill="#19124f"/>
      </g>
      <g id="Path_19086" data-name="Path 19086" transform="translate(0 7.412)">
        <path id="Path_19037-2" data-name="Path 19037" d="M27.526,54.974a5,5,0,0,0-.329-.721,3.323,3.323,0,0,0-.82-.994,2.364,2.364,0,0,0-.663-.372,3.837,3.837,0,0,0,.6-.294,3.043,3.043,0,0,0,.921-.844,2.776,2.776,0,0,0,.4-.841,5.172,5.172,0,0,0,.385.725,3.53,3.53,0,0,0,.843.932,2.476,2.476,0,0,0,.753.387,5.931,5.931,0,0,0-.823.485,3.88,3.88,0,0,0-.938.91A2.579,2.579,0,0,0,27.526,54.974Z" transform="translate(-25.019 -50.282)" fill="#fd596f"/>
        <path id="Path_19038-2" data-name="Path 19038" d="M19.9,44.36a2.9,2.9,0,0,1-.287.51,3.207,3.207,0,0,1-.97.89c-.1.058-.19.11-.283.156a2.616,2.616,0,0,1,.363.241,3.485,3.485,0,0,1,.861,1.043c.073.129.136.258.192.382a2.919,2.919,0,0,1,.188-.3,4.043,4.043,0,0,1,.977-.95A5.848,5.848,0,0,1,21.466,46a2.74,2.74,0,0,1-.456-.277,3.693,3.693,0,0,1-.883-.975c-.085-.132-.16-.263-.225-.388m-.075-1.05h0Zm0,0s.671,2.49,2.6,2.605c0,0-2.576.89-2.62,2.793,0,0-.507-2.669-2.542-2.765A3.047,3.047,0,0,0,19.826,43.31Z" transform="translate(-17.265 -43.31)" fill="#19124f"/>
      </g>
      <g id="Path_19088" data-name="Path 19088">
        <path id="Path_19039-2" data-name="Path 19039" d="M27.53,28.315A5.006,5.006,0,0,0,27.2,27.6a3.323,3.323,0,0,0-.824-.991,2.363,2.363,0,0,0-.665-.37,3.838,3.838,0,0,0,.6-.3,3.044,3.044,0,0,0,.917-.848,2.777,2.777,0,0,0,.4-.843,5.172,5.172,0,0,0,.387.722,3.533,3.533,0,0,0,.847.93,2.477,2.477,0,0,0,.755.385,5.933,5.933,0,0,0-.821.488,3.88,3.88,0,0,0-.934.914A2.579,2.579,0,0,0,27.53,28.315Z" transform="translate(-25.015 -23.622)" fill="#fd596f"/>
        <path id="Path_19040-2" data-name="Path 19040" d="M19.894,17.7a2.9,2.9,0,0,1-.285.512,3.207,3.207,0,0,1-.966.894c-.1.058-.19.11-.283.157a2.618,2.618,0,0,1,.364.24,3.486,3.486,0,0,1,.865,1.04c.073.129.137.257.194.381a2.917,2.917,0,0,1,.187-.3,4.043,4.043,0,0,1,.973-.953,5.851,5.851,0,0,1,.522-.332,2.741,2.741,0,0,1-.458-.276,3.7,3.7,0,0,1-.887-.972c-.085-.131-.16-.261-.226-.386m-.079-1.049s.68,2.487,2.611,2.6c0,0-2.573.9-2.609,2.8,0,0-.518-2.667-2.553-2.755A3.047,3.047,0,0,0,19.815,16.653Z" transform="translate(-17.264 -16.653)" fill="#19124f"/>
      </g>
    </g>
  </g>
</svg>
