<svg xmlns="http://www.w3.org/2000/svg" width="52.016" height="51.165" viewBox="0 0 52.016 51.165">
  <g id="secure-payment" transform="translate(1.26 -14.5)">
    <path id="Path_19078" data-name="Path 19078" d="M85.154,32.4,69.429,16.677a2.314,2.314,0,0,0-3.273,0L61.73,21.1l-2.247,2.247L42.289,40.545a2.314,2.314,0,0,0,0,3.273L58.015,59.543a2.314,2.314,0,0,0,3.273,0L85.154,35.675A2.314,2.314,0,0,0,85.154,32.4Z" transform="translate(-35.784 -1.163)" fill="#85dee2"/>
    <path id="Path_19079" data-name="Path 19079" d="M84.228,31,68.5,15.277a2.651,2.651,0,0,0-3.748,0L60.328,19.7a.336.336,0,0,0,.476.476l4.427-4.427a1.978,1.978,0,0,1,2.8,0L83.752,31.478a1.978,1.978,0,0,1,0,2.8L59.885,58.142a1.978,1.978,0,0,1-2.8,0L41.363,42.416a1.978,1.978,0,0,1,0-2.8L58.556,22.426a.336.336,0,1,0-.476-.476L40.887,39.143a2.65,2.65,0,0,0,0,3.749L56.612,58.617a2.651,2.651,0,0,0,3.748,0L84.228,34.75a2.65,2.65,0,0,0,0-3.748Z" transform="translate(-34.62 0)" fill="#19124f"/>
    <path id="Path_19080" data-name="Path 19080" d="M0,0H38.382V5.042H0Z" transform="translate(8.298 44.449) rotate(-45)" fill="#edfafa"/>
    <path id="Path_19081" data-name="Path 19081" d="M82.417,29.191l-3.566-3.565a.336.336,0,0,0-.476,0L51.236,52.765a.336.336,0,0,0,0,.476L54.8,56.806a.337.337,0,0,0,.476,0l27.14-27.14A.337.337,0,0,0,82.417,29.191Zm-27.378,26.9L51.95,53,78.614,26.339l3.09,3.09Z" transform="translate(-43.173 -8.552)" fill="#19124f"/>
    <path id="Path_19082" data-name="Path 19082" d="M53.789,120.231H20.035a2.314,2.314,0,0,0-2.314,2.314v22.239a2.314,2.314,0,0,0,2.314,2.314H53.789a2.314,2.314,0,0,0,2.314-2.314V122.545a2.314,2.314,0,0,0-2.314-2.314Z" transform="translate(-17.253 -82.012)" fill="#85dee2"/>
    <path id="Path_19083" data-name="Path 19083" d="M52.625,118.731H18.871a2.654,2.654,0,0,0-2.651,2.651v11.481a.337.337,0,1,0,.673,0V121.382a1.98,1.98,0,0,1,1.978-1.978H52.625a1.98,1.98,0,0,1,1.977,1.978V143.62a1.98,1.98,0,0,1-1.977,1.978H18.871a1.98,1.98,0,0,1-1.978-1.978v-7.57a.337.337,0,1,0-.673,0v7.57a2.654,2.654,0,0,0,2.651,2.651H52.625a2.654,2.654,0,0,0,2.65-2.651V121.382a2.654,2.654,0,0,0-2.65-2.651Z" transform="translate(-16.089 -80.849)" fill="#19124f"/>
    <g id="Group_26359" data-name="Group 26359" transform="translate(-1.26 22.856)">
      <g id="Path_19084" data-name="Path 19084" transform="translate(4.777 2.585)">
        <path id="Path_19041" data-name="Path 19041" d="M47.372,40.528a6.909,6.909,0,0,0-.513-1.172,4.442,4.442,0,0,0-1.1-1.329,3.105,3.105,0,0,0-1.077-.558,5.241,5.241,0,0,0,1-.465,4.062,4.062,0,0,0,1.229-1.127A3.735,3.735,0,0,0,47.5,34.55a7.117,7.117,0,0,0,.6,1.17,4.726,4.726,0,0,0,1.128,1.248,3.251,3.251,0,0,0,1.186.567l-.05.023a8.122,8.122,0,0,0-1.233.712,5.2,5.2,0,0,0-1.257,1.219A3.35,3.35,0,0,0,47.372,40.528Z" transform="translate(-43.964 -33.927)" fill="#fd596f"/>
        <path id="Path_19042" data-name="Path 19042" d="M38.715,27.4a3.824,3.824,0,0,1-.492.966,4.213,4.213,0,0,1-1.274,1.169,5.215,5.215,0,0,1-.643.331,3.331,3.331,0,0,1,.738.444,4.592,4.592,0,0,1,1.134,1.374,6.734,6.734,0,0,1,.379.8,3.668,3.668,0,0,1,.381-.678,5.348,5.348,0,0,1,1.293-1.255,8.021,8.021,0,0,1,.959-.58,3.488,3.488,0,0,1-.865-.477A4.876,4.876,0,0,1,39.157,28.2a6.979,6.979,0,0,1-.442-.8m-.086-1.071s.91,3.381,3.531,3.538c0,0-3.5,1.209-3.558,3.793,0,0-.689-3.625-3.452-3.755C35.15,29.906,38.369,29.419,38.629,26.33Z" transform="translate(-35.15 -26.33)" fill="#19124f"/>
      </g>
      <g id="Path_19086" data-name="Path 19086" transform="translate(0 7.12)">
        <path id="Path_19043" data-name="Path 19043" d="M27.589,54.923a4.813,4.813,0,0,0-.322-.709,3.186,3.186,0,0,0-.786-.953,2.261,2.261,0,0,0-.652-.363,3.684,3.684,0,0,0,.591-.288A2.917,2.917,0,0,0,27.3,51.8a2.664,2.664,0,0,0,.388-.824,4.97,4.97,0,0,0,.377.712,3.385,3.385,0,0,0,.808.894,2.368,2.368,0,0,0,.737.376,5.7,5.7,0,0,0-.8.473,3.721,3.721,0,0,0-.9.873A2.464,2.464,0,0,0,27.589,54.923Z" transform="translate(-25.181 -50.397)" fill="#fd596f"/>
        <path id="Path_19044" data-name="Path 19044" d="M19.8,44.288a2.776,2.776,0,0,1-.286.513,3.068,3.068,0,0,1-.928.852c-.1.06-.2.113-.293.16a2.5,2.5,0,0,1,.369.243,3.335,3.335,0,0,1,.824,1c.074.132.139.264.2.39a2.778,2.778,0,0,1,.192-.314,3.871,3.871,0,0,1,.935-.909,5.626,5.626,0,0,1,.523-.328,2.611,2.611,0,0,1-.459-.276,3.535,3.535,0,0,1-.845-.933c-.087-.135-.162-.269-.228-.4m-.071-.978Zm0,0s.645,2.392,2.5,2.5c0,0-2.475.855-2.517,2.683,0,0-.487-2.564-2.442-2.656A2.927,2.927,0,0,0,19.726,43.31Z" transform="translate(-17.265 -43.31)" fill="#19124f"/>
      </g>
      <g id="Path_19088" data-name="Path 19088" transform="translate(0 0)">
        <path id="Path_19045" data-name="Path 19045" d="M27.593,28.264a4.814,4.814,0,0,0-.325-.707,3.186,3.186,0,0,0-.79-.95,2.261,2.261,0,0,0-.653-.36,3.686,3.686,0,0,0,.59-.291,2.918,2.918,0,0,0,.879-.813,2.663,2.663,0,0,0,.385-.825,4.973,4.973,0,0,0,.379.71,3.387,3.387,0,0,0,.812.891,2.369,2.369,0,0,0,.739.374,5.7,5.7,0,0,0-.8.476,3.721,3.721,0,0,0-.9.876A2.464,2.464,0,0,0,27.593,28.264Z" transform="translate(-25.177 -23.737)" fill="#fd596f"/>
        <path id="Path_19046" data-name="Path 19046" d="M19.79,17.631a2.778,2.778,0,0,1-.284.514,3.068,3.068,0,0,1-.924.855c-.1.061-.2.114-.293.161a2.494,2.494,0,0,1,.37.241,3.336,3.336,0,0,1,.828.995c.075.132.14.263.2.389a2.777,2.777,0,0,1,.191-.314,3.871,3.871,0,0,1,.932-.913,5.628,5.628,0,0,1,.522-.33,2.612,2.612,0,0,1-.461-.274,3.537,3.537,0,0,1-.849-.931c-.087-.134-.163-.267-.229-.394m-.075-.978s.653,2.389,2.508,2.493c0,0-2.472.865-2.506,2.693,0,0-.5-2.562-2.452-2.646A2.927,2.927,0,0,0,19.715,16.653Z" transform="translate(-17.264 -16.653)" fill="#19124f"/>
      </g>
    </g>
    <path id="Path_19090" data-name="Path 19090" d="M147.73,136.838a3.443,3.443,0,1,0,3.443,3.443,3.443,3.443,0,0,0-3.443-3.443Z" transform="translate(-115.427 -94.894)" fill="#edfafa"/>
    <path id="Path_19091" data-name="Path 19091" d="M146.563,135.338a3.78,3.78,0,1,0,3.78,3.78A3.78,3.78,0,0,0,146.563,135.338Zm0,6.886a3.107,3.107,0,1,1,3.107-3.107A3.107,3.107,0,0,1,146.563,142.224Z" transform="translate(-114.26 -93.731)" fill="#19124f"/>
    <path id="Path_19092" data-name="Path 19092" d="M127.349,136.838a3.443,3.443,0,1,0,3.443,3.443,3.443,3.443,0,0,0-3.443-3.443Z" transform="translate(-99.619 -94.894)" fill="#fd596f"/>
    <g id="Group_26357" data-name="Group 26357" transform="translate(4.609 41.607)">
      <path id="Path_19093" data-name="Path 19093" d="M126.182,135.338a3.78,3.78,0,1,0,3.78,3.78A3.78,3.78,0,0,0,126.182,135.338Zm0,6.886a3.107,3.107,0,1,1,3.107-3.107A3.107,3.107,0,0,1,126.182,142.224Z" transform="translate(-103.061 -135.338)" fill="#19124f"/>
      <path id="Path_19094" data-name="Path 19094" d="M46.9,166.633H36.52a.336.336,0,1,0,0,.673H46.905a.337.337,0,1,0,0-.673Z" transform="translate(-36.183 -159.612)" fill="#19124f"/>
      <path id="Path_19095" data-name="Path 19095" d="M66.134,218.465H36.52a.337.337,0,1,0,0,.673H66.134a.337.337,0,1,0,0-.673Z" transform="translate(-36.183 -199.817)" fill="#19124f"/>
      <path id="Path_19096" data-name="Path 19096" d="M46.9,145.833H36.52a.337.337,0,1,0,0,.673H46.905a.337.337,0,1,0,0-.673Z" transform="translate(-36.183 -143.478)" fill="#19124f"/>
    </g>
    <circle id="Ellipse_367" data-name="Ellipse 367" cx="10.032" cy="10.032" r="10.032" transform="translate(29.319 45.652) rotate(-4.069)" fill="#fd596f"/>
    <path id="Path_19097" data-name="Path 19097" d="M158.165,148.522a10.368,10.368,0,1,0,10.368,10.368A10.38,10.38,0,0,0,158.165,148.522Zm0,20.064a9.7,9.7,0,1,1,9.7-9.7A9.7,9.7,0,0,1,158.165,168.586Z" transform="translate(-118.15 -103.957)" fill="#19124f"/>
    <path id="Path_19098" data-name="Path 19098" d="M182.279,163.268a3.417,3.417,0,0,0-3.413,3.413v2.634a.779.779,0,1,0,1.558,0v-2.634a1.854,1.854,0,0,1,3.709,0v2.634a.779.779,0,1,0,1.558,0v-2.634a3.416,3.416,0,0,0-3.412-3.413Z" transform="translate(-142.249 -115.395)" fill="#edfafa"/>
    <path id="Path_19099" data-name="Path 19099" d="M181.115,161.768a3.753,3.753,0,0,0-3.749,3.749v2.634a1.116,1.116,0,1,0,2.231,0v-2.634a1.518,1.518,0,1,1,3.036,0v2.634a1.116,1.116,0,0,0,2.231,0v-2.634a3.754,3.754,0,0,0-3.75-3.749Zm3.076,6.383a.443.443,0,0,1-.886,0v-2.634a2.191,2.191,0,1,0-4.382,0v2.634a.443.443,0,1,1-.886,0v-2.634a3.076,3.076,0,1,1,6.152,0v2.634Z" transform="translate(-141.085 -114.232)" fill="#19124f"/>
    <path id="Path_19100" data-name="Path 19100" d="M182.131,189.092h-4.814a1.743,1.743,0,0,0-1.743,1.743v4.814a1.743,1.743,0,0,0,1.743,1.743h4.814a1.743,1.743,0,0,0,1.744-1.743v-4.814a1.743,1.743,0,0,0-1.743-1.743Z" transform="translate(-139.695 -135.426)" fill="#85dee2"/>
    <path id="Path_19101" data-name="Path 19101" d="M180.973,187.592h-4.814a2.082,2.082,0,0,0-2.08,2.08v4.814a2.082,2.082,0,0,0,2.08,2.08h4.814a2.082,2.082,0,0,0,2.08-2.08v-4.814A2.082,2.082,0,0,0,180.973,187.592Zm1.407,6.893a1.408,1.408,0,0,1-1.407,1.407h-4.814a1.408,1.408,0,0,1-1.407-1.407v-4.814a1.408,1.408,0,0,1,1.407-1.407h4.814a1.408,1.408,0,0,1,1.407,1.407Z" transform="translate(-138.536 -134.263)" fill="#19124f"/>
    <path id="Path_19102" data-name="Path 19102" d="M189.7,197.33a1.264,1.264,0,0,0-.543,2.406V201.4a.543.543,0,1,0,1.085,0v-1.664a1.264,1.264,0,0,0-.542-2.406Z" transform="translate(-149.666 -141.816)" fill="#c5bccf"/>
    <path id="Path_19103" data-name="Path 19103" d="M188.536,195.83a1.6,1.6,0,0,0-1.6,1.6,1.585,1.585,0,0,0,.724,1.336v1.468a.879.879,0,1,0,1.759,0v-1.468a1.585,1.585,0,0,0,.724-1.336A1.605,1.605,0,0,0,188.536,195.83Zm.4,2.439a.337.337,0,0,0-.192.3v1.664a.206.206,0,1,1-.413,0v-1.664a.337.337,0,0,0-.192-.3.93.93,0,1,1,.8,0Z" transform="translate(-148.506 -140.653)" fill="#19124f"/>
    <path id="Path_19104" data-name="Path 19104" d="M152.782,18.079a1.977,1.977,0,0,0-2.8,0l-.608.606,2.959,2.959,2-2.006Z" transform="translate(-119.376 -2.327)" fill="#e0f5f4"/>
    <path id="Path_19105" data-name="Path 19105" d="M192.712,55.166,182.585,45.04l-2.006,2.006,7.883,7.883a2.318,2.318,0,0,1,0,3.273l-5.716,5.716a2.755,2.755,0,0,1,.018.305V67.91l9.947-9.947A1.979,1.979,0,0,0,192.712,55.166Z" transform="translate(-143.578 -23.689)" fill="#e0f5f4"/>
    <path id="Path_19106" data-name="Path 19106" d="M0,0H2.835V4.369H0Z" transform="matrix(0.707, -0.708, 0.708, 0.707, 33.45, 19.776)" fill="#edfafa"/>
  </g>
</svg>
