<svg xmlns="http://www.w3.org/2000/svg" width="22.2" height="18.991" viewBox="0 0 22.2 18.991">
  <g id="shop" transform="translate(0.1 -1.504)">
    <g id="Group_27692" data-name="Group 27692">
      <g id="Group_27691" data-name="Group 27691">
        <path id="Path_19702" data-name="Path 19702" d="M21.968,7.284,21.953,7.2c0-.013,0-.026-.007-.038L20.4,3.438V1.6H1.571V3.438L.054,7.164c0,.015-.005.03-.008.044l-.014.077A2.653,2.653,0,0,0,0,7.694,2.618,2.618,0,0,0,1.375,10V20.4h19.25V10A2.619,2.619,0,0,0,22,7.694,2.653,2.653,0,0,0,21.968,7.284ZM20.932,7.1H17.564l-.4-2.721h2.664ZM2.488,2.521h17v.917h-17Zm14.286,5.5.05.333-.271.361a1.7,1.7,0,0,1-2.724,0l-.277-.369-.016-.325ZM13.49,7.1l-.134-2.721h2.876L16.638,7.1Zm-.873.916h0l.016.332-.272.361a1.7,1.7,0,0,1-2.725,0l-.278-.371.016-.323ZM9.422,7.1l.138-2.721h2.88L12.572,7.1Zm-4.055,0,.4-2.721H8.642L8.5,7.1Zm3.09.916-.017.336-.269.358a1.7,1.7,0,0,1-2.724,0l-.265-.352.05-.341ZM2.176,4.383H4.841L4.441,7.1H1.068ZM.948,8.021H4.306l-.072.356-.253.337A1.7,1.7,0,0,1,.948,8.021ZM17.875,19.48H14.208V16.271h.459a.458.458,0,1,0,0-.916h-.459V12.146h3.667Zm1.833,0h-.917V11.23h-5.5v8.25h-11V10.292A2.619,2.619,0,0,0,4.714,9.265a2.619,2.619,0,0,0,4.191,0,2.619,2.619,0,0,0,4.19,0,2.619,2.619,0,0,0,4.191,0,2.619,2.619,0,0,0,2.422,1.027V19.48ZM19.38,9.4a1.689,1.689,0,0,1-1.362-.681l-.267-.354-.052-.34h3.35A1.7,1.7,0,0,1,19.38,9.4Z" fill="#19124f" stroke="#181346" stroke-width="0.2"/>
      </g>
    </g>
    <g id="Group_27694" data-name="Group 27694">
      <g id="Group_27693" data-name="Group 27693">
        <path id="Path_19703" data-name="Path 19703" d="M3.208,11.23v6.416h9.167V11.23Zm8.25,5.5H4.125V12.146h7.333Z" fill="#19124f" stroke="#181346" stroke-width="0.2"/>
      </g>
    </g>
    <g id="Group_27696" data-name="Group 27696">
      <g id="Group_27695" data-name="Group 27695">
        <path id="Path_19704" data-name="Path 19704" d="M10.538,14.438a.455.455,0,0,0-.324.134l-.916.917a.458.458,0,0,0,.648.647l.916-.916a.459.459,0,0,0-.324-.783Z" fill="#19124f" stroke="#181346" stroke-width="0.2"/>
      </g>
    </g>
    <g id="Group_27698" data-name="Group 27698">
      <g id="Group_27697" data-name="Group 27697">
        <path id="Path_19705" data-name="Path 19705" d="M10.538,12.6a.455.455,0,0,0-.324.134l-2.75,2.749a.458.458,0,1,0,.648.648l2.75-2.749a.458.458,0,0,0-.324-.782Z" fill="#19124f" stroke="#181346" stroke-width="0.2"/>
      </g>
    </g>
  </g>
</svg>
