<svg xmlns="http://www.w3.org/2000/svg" xmlns:xlink="http://www.w3.org/1999/xlink" width="50" height="50" viewBox="0 0 50 50">
  <defs>
    <linearGradient id="linear-gradient" x1="0.5" x2="0.5" y2="1" gradientUnits="objectBoundingBox">
      <stop offset="0" stop-color="#777674"/>
      <stop offset="1" stop-color="#777673"/>
    </linearGradient>
    <linearGradient id="linear-gradient-2" y1="0.5" x2="1" y2="0.5" gradientUnits="objectBoundingBox">
      <stop offset="0" stop-color="#d0d0d0"/>
      <stop offset="0.286" stop-color="#75726b"/>
      <stop offset="0.522" stop-color="#6c6b68"/>
      <stop offset="0.744" stop-color="#c3c3c3"/>
      <stop offset="0.892" stop-color="#d0d0d0"/>
      <stop offset="1" stop-color="#d0d0d0"/>
    </linearGradient>
  </defs>
  <g id="silver-crown" transform="translate(-71.779 22.999)">
    <circle id="Ellipse_3208" data-name="Ellipse 3208" cx="25" cy="25" r="25" transform="translate(71.779 -22.999)" fill="url(#linear-gradient)"/>
    <circle id="Ellipse_3202" data-name="Ellipse 3202" cx="23" cy="23" r="23" transform="translate(73.779 -20.999)" fill="#fcfcfc"/>
    <g id="crown_2_" data-name="crown(2)" transform="translate(78.779 -11.999)">
      <g id="Layer_1_17_" transform="translate(0)">
        <g id="Group_28250" data-name="Group 28250">
          <g id="Group_28239" data-name="Group 28239" transform="translate(2.559 5.384)">
            <g id="Group_28238" data-name="Group 28238">
              <path id="Path_19955" data-name="Path 19955" d="M36.335,31.066c-1.866,1.338-4.485,3.118-5.666,3.118a.4.4,0,0,1-.364-.137c-.482-.595-.352-2.68.389-6.2a.741.741,0,0,0-1.341-.567c-2.549,3.8-3.716,4.6-4.245,4.6-.751,0-1.513-2.159-2.27-6.417a.739.739,0,0,0-.688-.607v0l-.021,0-.022,0v0a.74.74,0,0,0-.687.607c-.758,4.258-1.521,6.417-2.271,6.417-.529,0-1.7-.8-4.245-4.6a.742.742,0,0,0-1.341.567c.74,3.515.872,5.6.388,6.2-.053.067-.13.137-.363.137-1.181,0-3.8-1.779-5.667-3.118A.742.742,0,0,0,6.887,32.1a17.155,17.155,0,0,1,3.464,11.723,1.516,1.516,0,0,0-.024.269c0,1.539,2.155,2.148,4.032,2.507a43.452,43.452,0,0,0,7.686.625h.167A43.509,43.509,0,0,0,29.9,46.6c1.877-.359,4.033-.969,4.033-2.507a1.519,1.519,0,0,0-.024-.269A17.157,17.157,0,0,1,37.37,32.1a.742.742,0,0,0-1.035-1.035ZM22.212,45.1h-.167a31.575,31.575,0,0,1-8.981-1.008,31.527,31.527,0,0,1,8.981-1.008h.166a31.528,31.528,0,0,1,8.981,1.008A31.565,31.565,0,0,1,22.212,45.1Z" transform="translate(-6.748 -24.855)" fill="url(#linear-gradient-2)"/>
            </g>
          </g>
          <g id="Group_28241" data-name="Group 28241" transform="translate(15.696)">
            <g id="Group_28240" data-name="Group 28240">
              <circle id="Ellipse_3203" data-name="Ellipse 3203" cx="2.243" cy="2.243" r="2.243" fill="url(#linear-gradient-2)"/>
            </g>
          </g>
          <g id="Group_28243" data-name="Group 28243" transform="translate(6.603 3.084)">
            <g id="Group_28242" data-name="Group 28242">
              <circle id="Ellipse_3204" data-name="Ellipse 3204" cx="1.869" cy="1.869" r="1.869" fill="url(#linear-gradient-2)"/>
            </g>
          </g>
          <g id="Group_28245" data-name="Group 28245" transform="translate(25.382 3.084)">
            <g id="Group_28244" data-name="Group 28244">
              <circle id="Ellipse_3205" data-name="Ellipse 3205" cx="1.869" cy="1.869" r="1.869" fill="url(#linear-gradient-2)"/>
            </g>
          </g>
          <g id="Group_28247" data-name="Group 28247" transform="translate(0 9.018)">
            <g id="Group_28246" data-name="Group 28246">
              <circle id="Ellipse_3206" data-name="Ellipse 3206" cx="1.26" cy="1.26" r="1.26" fill="url(#linear-gradient-2)"/>
            </g>
          </g>
          <g id="Group_28249" data-name="Group 28249" transform="translate(33.319 9.018)">
            <g id="Group_28248" data-name="Group 28248">
              <circle id="Ellipse_3207" data-name="Ellipse 3207" cx="1.26" cy="1.26" r="1.26" fill="url(#linear-gradient-2)"/>
            </g>
          </g>
        </g>
      </g>
    </g>
  </g>
</svg>
