<svg xmlns="http://www.w3.org/2000/svg" width="38.007" height="38.007" viewBox="0 0 38.007 38.007">
  <g id="star_26_" data-name="star(26)" transform="translate(0 -0.003)">
    <path id="Path_20065" data-name="Path 20065" d="M160.65,150.912l-1.99-5.468-1.99,5.468-5.815.2,4.585,3.582-1.6,5.593,4.824-3.254,4.824,3.254-1.6-5.593,4.585-3.582Z" transform="translate(-139.657 -134.645)" fill="#13bdbf" fill-rule="evenodd"/>
    <g id="Group_28344" data-name="Group 28344" transform="translate(0 0.003)">
      <path id="Path_20066" data-name="Path 20066" d="M154.939,150.827l-1.466-5.112,4.191-3.274a.742.742,0,0,0-.431-1.327l-5.315-.186-1.819-5a.742.742,0,0,0-1.4,0l-1.819,5-5.315.186a.742.742,0,0,0-.431,1.327l4.191,3.274-1.466,5.112a.742.742,0,0,0,1.129.82l4.409-2.974,4.409,2.974a.742.742,0,0,0,1.129-.82Zm-5.122-3.665a.743.743,0,0,0-.83,0l-3.133,2.113,1.042-3.633a.742.742,0,0,0-.257-.79l-2.978-2.327,3.777-.132a.742.742,0,0,0,.672-.488l1.293-3.551,1.293,3.551a.742.742,0,0,0,.672.488l3.777.132-2.978,2.327a.742.742,0,0,0-.257.79l1.042,3.633Z" transform="translate(-130.398 -125.389)" fill="#19124f"/>
      <path id="Path_20067" data-name="Path 20067" d="M246.743,1.488a.742.742,0,0,0,.742-.742h0a.742.742,0,1,0-.742.743Z" transform="translate(-227.74 -0.003)" fill="#19124f"/>
      <path id="Path_20068" data-name="Path 20068" d="M246.743,49.829a.742.742,0,0,0,.742-.742v-3.34a.742.742,0,1,0-1.485,0v3.34A.742.742,0,0,0,246.743,49.829Z" transform="translate(-227.74 -41.663)" fill="#19124f"/>
      <path id="Path_20069" data-name="Path 20069" d="M72.3,146.887l2.893,1.67a.742.742,0,0,0,.742-1.286l-2.893-1.67a.742.742,0,1,0-.742,1.286Z" transform="translate(-66.591 -134.701)" fill="#19124f"/>
      <path id="Path_20070" data-name="Path 20070" d="M33.35,124.4a.742.742,0,0,0,.7-1.307h0a.742.742,0,1,0-.7,1.307Z" transform="translate(-30.513 -113.869)" fill="#19124f"/>
      <path id="Path_20071" data-name="Path 20071" d="M33.313,369.106h0a.742.742,0,1,0,1.022.243A.742.742,0,0,0,33.312,369.107Z" transform="translate(-30.512 -341.605)" fill="#19124f"/>
      <path id="Path_20072" data-name="Path 20072" d="M76.208,324.371a.742.742,0,0,0-1.014-.272l-2.893,1.67a.742.742,0,1,0,.742,1.286l2.893-1.67A.742.742,0,0,0,76.208,324.371Z" transform="translate(-66.591 -299.948)" fill="#19124f"/>
      <path id="Path_20073" data-name="Path 20073" d="M246.743,491.994a.742.742,0,0,0-.742.742h0a.742.742,0,1,0,.742-.743Z" transform="translate(-227.74 -455.472)" fill="#19124f"/>
      <path id="Path_20074" data-name="Path 20074" d="M246.743,402a.742.742,0,0,0-.742.742v3.34a.742.742,0,0,0,1.485,0v-3.34A.742.742,0,0,0,246.743,402Z" transform="translate(-227.74 -372.161)" fill="#19124f"/>
      <path id="Path_20075" data-name="Path 20075" d="M460.13,369.085a.742.742,0,0,0-.7,1.307h0a.742.742,0,0,0,.7-1.307Z" transform="translate(-424.96 -341.605)" fill="#19124f"/>
      <path id="Path_20076" data-name="Path 20076" d="M385.107,325.769l-2.893-1.67a.742.742,0,1,0-.742,1.286l2.893,1.67a.742.742,0,0,0,.742-1.286Z" transform="translate(-352.81 -299.948)" fill="#19124f"/>
      <path id="Path_20077" data-name="Path 20077" d="M384.364,145.6l-2.893,1.67a.742.742,0,1,0,.742,1.286l2.893-1.67a.742.742,0,0,0-.742-1.286Z" transform="translate(-352.81 -134.7)" fill="#19124f"/>
      <path id="Path_20078" data-name="Path 20078" d="M459.779,124.488a.739.739,0,0,0,.388-.11h0a.742.742,0,1,0-.389.111Z" transform="translate(-424.96 -113.872)" fill="#19124f"/>
      <path id="Path_20079" data-name="Path 20079" d="M124.768,36.963a.742.742,0,0,0,1.286-.742l-1.67-2.893a.742.742,0,1,0-1.286.742Z" transform="translate(-113.868 -30.511)" fill="#19124f"/>
      <path id="Path_20080" data-name="Path 20080" d="M168.083,111.986a.742.742,0,1,0,.3-1.006.742.742,0,0,0-.3,1.006Z" transform="translate(-155.524 -102.66)" fill="#19124f"/>
      <path id="Path_20081" data-name="Path 20081" d="M89.992,246.743a.742.742,0,0,0,.742.742h0a.742.742,0,1,0-.743-.742Z" transform="translate(-83.312 -227.74)" fill="#19124f"/>
      <path id="Path_20082" data-name="Path 20082" d="M4.082,246H.742a.742.742,0,1,0,0,1.485h3.34a.742.742,0,1,0,0-1.485Z" transform="translate(0 -227.74)" fill="#19124f"/>
      <path id="Path_20083" data-name="Path 20083" d="M125.783,420.175a.742.742,0,0,0-1.014.272l-1.67,2.893a.742.742,0,1,0,1.286.742l1.67-2.893A.742.742,0,0,0,125.783,420.175Z" transform="translate(-113.869 -388.892)" fill="#19124f"/>
      <path id="Path_20084" data-name="Path 20084" d="M169.127,381.214a.743.743,0,1,0,.243,1.022h0A.742.742,0,0,0,169.127,381.214Z" transform="translate(-155.524 -352.814)" fill="#19124f"/>
      <path id="Path_20085" data-name="Path 20085" d="M325.4,381.493a.743.743,0,1,0-.3,1.006.742.742,0,0,0,.3-1.006Z" transform="translate(-299.951 -352.813)" fill="#19124f"/>
      <path id="Path_20086" data-name="Path 20086" d="M347.888,420.445a.742.742,0,1,0-1.286.742l1.67,2.893a.742.742,0,1,0,1.286-.742Z" transform="translate(-320.78 -388.891)" fill="#19124f"/>
      <path id="Path_20087" data-name="Path 20087" d="M403.49,246.743a.742.742,0,0,0-.742-.742h0a.742.742,0,1,0,.743.742Z" transform="translate(-372.163 -227.74)" fill="#19124f"/>
      <path id="Path_20088" data-name="Path 20088" d="M451.088,246h-3.34a.742.742,0,0,0,0,1.485h3.34a.742.742,0,0,0,0-1.485Z" transform="translate(-413.823 -227.74)" fill="#19124f"/>
      <path id="Path_20089" data-name="Path 20089" d="M324.353,112.267a.742.742,0,1,0-.243-1.022h0A.742.742,0,0,0,324.353,112.267Z" transform="translate(-299.949 -102.66)" fill="#19124f"/>
      <path id="Path_20090" data-name="Path 20090" d="M346.873,37.236a.742.742,0,0,0,1.014-.272l1.67-2.893a.742.742,0,0,0-1.286-.742l-1.67,2.893A.742.742,0,0,0,346.873,37.236Z" transform="translate(-320.78 -30.511)" fill="#19124f"/>
    </g>
  </g>
</svg>
