<svg xmlns="http://www.w3.org/2000/svg" width="32.973" height="32.394" viewBox="0 0 32.973 32.394">
  <g id="surprise_1_" data-name="surprise(1)" transform="translate(-0.001 -4.496)">
    <g id="Group_28345" data-name="Group 28345" transform="translate(25.888 4.979)">
      <path id="Path_20091" data-name="Path 20091" d="M403.906,15.858a1.932,1.932,0,1,0-1.933-1.931A1.933,1.933,0,0,0,403.906,15.858Z" transform="translate(-401.973 -11.995)" fill="#13bdbf" fill-rule="evenodd"/>
    </g>
    <g id="Group_28346" data-name="Group 28346" transform="translate(0.484 16.863)">
      <path id="Path_20092" data-name="Path 20092" d="M17.015,201.771l-2.248-3.45c-7.67-6.008-10.774,5.152-1.778,4.084Z" transform="translate(-7.497 -196.535)" fill="#13bdbf" fill-rule="evenodd"/>
    </g>
    <g id="Group_28347" data-name="Group 28347" transform="translate(8.816 11.965)">
      <path id="Path_20093" data-name="Path 20093" d="M141.371,127.161c5.637-7.086-5.489-10.315-4.41-.635l1.875,3.23Z" transform="translate(-136.887 -120.475)" fill="#13bdbf" fill-rule="evenodd"/>
    </g>
    <g id="Group_28348" data-name="Group 28348" transform="translate(6.18 17.388)">
      <path id="Path_20094" data-name="Path 20094" d="M96.782,209.456l3.155-.6,2.048-2.3-.658-1.178a1.337,1.337,0,0,0-.508-.513,1.356,1.356,0,0,0-1.33-.009l-.824.459-1.137.633-.88.493a1.347,1.347,0,0,0-.688,1.071,1.326,1.326,0,0,0,.165.764Z" transform="translate(-95.955 -204.687)" fill="#fff" fill-rule="evenodd"/>
    </g>
    <g id="Group_28349" data-name="Group 28349" transform="translate(12.21 16.064)">
      <path id="Path_20095" data-name="Path 20095" d="M191.489,190.722l5.519-3.075a.951.951,0,0,0,.367-1.288l-.98-1.757a.949.949,0,0,0-1.289-.365l-4.429,2.468-1.09.607v2.3Z" transform="translate(-189.587 -184.116)" fill="#13bdbf" fill-rule="evenodd"/>
    </g>
    <g id="Group_28350" data-name="Group 28350" transform="translate(7.264 23.863)">
      <path id="Path_20096" data-name="Path 20096" d="M119.793,317.774l1.388-6.289-1.388-5.955h-2.836l-3.471-.3-.7,2.622v8.689a1.236,1.236,0,0,0,1.233,1.232Z" transform="translate(-112.79 -305.231)" fill="#13bdbf" fill-rule="evenodd"/>
    </g>
    <g id="Group_28351" data-name="Group 28351" transform="translate(1.003 22.157)">
      <path id="Path_20097" data-name="Path 20097" d="M17.948,285.228l5.519-3.077.157-2.3-2.059-1.111-1.032.577-4.489,2.5a.949.949,0,0,0-.365,1.287l.98,1.758A.952.952,0,0,0,17.948,285.228Z" transform="translate(-15.56 -278.741)" fill="#13bdbf" fill-rule="evenodd"/>
    </g>
    <g id="Group_28352" data-name="Group 28352" transform="translate(17.229 24.163)">
      <path id="Path_20098" data-name="Path 20098" d="M276.173,320.9V310.573a.692.692,0,0,0-.689-.689H269.17l-1.65,6.124,1.65,6.12h5.77A1.236,1.236,0,0,0,276.173,320.9Z" transform="translate(-267.52 -309.884)" fill="#13bdbf" fill-rule="evenodd"/>
    </g>
    <g id="Group_28357" data-name="Group 28357" transform="translate(7.008 19.258)">
      <path id="Path_20103" data-name="Path 20103" d="M115.909,237.136l-1.9-3.41-5.2,2.9,1.9,3.41Z" transform="translate(-108.805 -233.726)" fill="#13bdbf" fill-rule="evenodd"/>
    </g>
    <g id="Group_28358" data-name="Group 28358" transform="translate(14.267 24.163)">
      <path id="Path_20104" data-name="Path 20104" d="M221.528,309.884h4.612v12.244h-4.612Z" transform="translate(-221.528 -309.884)" fill="#13bdbf" fill-rule="evenodd"/>
    </g>
    <g id="Group_28360" data-name="Group 28360" transform="translate(17.23 5.67)">
      <path id="Path_20106" data-name="Path 20106" d="M272.269,26.237l.948-1.142c.195-.221.182-.287-.1-.358l-1.473-.365c-.167-.041-.176-.086-.259-.221l-.744-1.242c-.15-.253-.242-.253-.393,0l-.744,1.242c-.081.135-.092.18-.259.221l-1.472.365c-.285.071-.3.137-.1.358l.95,1.142a.568.568,0,0,1,.1.436l-.114,1.412c-.032.292.03.328.3.217l1.294-.539a.7.7,0,0,1,.48,0l1.3.539c.274.111.333.075.3-.217l-.112-1.412A.56.56,0,0,1,272.269,26.237Z" transform="translate(-267.534 -22.719)" fill="#13bdbf" fill-rule="evenodd"/>
    </g>
    <g id="Group_28362" data-name="Group 28362" transform="translate(26.676 16.773)">
      <path id="Path_20108" data-name="Path 20108" d="M418.946,198.648l.948-1.142c.2-.221.182-.287-.1-.358l-1.473-.365c-.165-.041-.176-.086-.257-.221l-.744-1.242c-.152-.253-.244-.253-.393,0l-.746,1.242c-.081.135-.092.18-.257.221l-1.473.365c-.287.071-.3.137-.1.358l.948,1.142a.56.56,0,0,1,.1.436l-.114,1.41c-.03.294.03.33.3.219l1.294-.539a.709.709,0,0,1,.481,0l1.294.539c.274.111.333.075.3-.219l-.114-1.41a.56.56,0,0,1,.1-.436Z" transform="translate(-414.212 -195.13)" fill="#13bdbf" fill-rule="evenodd"/>
    </g>
    <g id="Group_28365" data-name="Group 28365" transform="translate(0.001 4.496)">
      <path id="Path_20111" data-name="Path 20111" d="M25.193,125.131H13.29l6.576-3.665a1.434,1.434,0,0,0,.553-1.945l-.98-1.757a1.432,1.432,0,0,0-1.945-.551l-2.736,1.524a5.82,5.82,0,0,0,.6-1.893,3.561,3.561,0,0,0-.672-2.672,3.227,3.227,0,0,0-3.885-.952.483.483,0,0,0,.4.881,2.263,2.263,0,0,1,2.726.663c.92,1.183.567,3.034-.94,4.963l-.583.325-.422-.756a1.823,1.823,0,0,0-.415-.505,6.068,6.068,0,0,1,.7-1.928.483.483,0,0,0-.825-.5,7,7,0,0,0-.783,2.018,1.816,1.816,0,0,0-1.177.208l-.167.093a6.252,6.252,0,0,1,.637-3.4.483.483,0,1,0-.836-.484,7.442,7.442,0,0,0-.734,4.406l-.583.325c-2.464-1.832-4.876-2.207-6.494-.993a3.235,3.235,0,0,0-1.073,3.781A4.219,4.219,0,0,0,4.052,124.7l-2.8,1.561A1.432,1.432,0,0,0,.7,128.207l.98,1.759a1.433,1.433,0,0,0,1.945.552h0l3.156-1.759v7.867A1.717,1.717,0,0,0,8.5,138.341H24.65a1.717,1.717,0,0,0,1.716-1.715V126.3a1.174,1.174,0,0,0-1.172-1.172ZM9.1,126.362,7.665,123.8l4.359-2.429,1.431,2.567-2.179,1.215a.48.48,0,0,0-.2.114Zm8.869-8.306A.459.459,0,0,1,18.19,118a.465.465,0,0,1,.406.238l.979,1.756a.466.466,0,0,1-.18.632l-5.1,2.84L12.868,120.9ZM9.95,119.431a.856.856,0,0,1,.418-.109.883.883,0,0,1,.241.034.86.86,0,0,1,.522.411l.422.756-4.358,2.429-.423-.758a.854.854,0,0,1-.106-.484s0-.009,0-.014a.884.884,0,0,1,.03-.16.86.86,0,0,1,.411-.52Zm-8.824,2.524a2.268,2.268,0,0,1,.756-2.649c1.185-.889,3.015-.606,4.981.74l-.224.125a1.815,1.815,0,0,0-.788.869,9.9,9.9,0,0,0-2.031-.4.483.483,0,1,0-.105.96,8.767,8.767,0,0,1,2,.411,1.82,1.82,0,0,0,.216.653l.423.758-.527.294C3.427,123.978,1.674,123.323,1.126,121.955Zm2.03,7.719a.472.472,0,0,1-.632-.178l-.98-1.758a.464.464,0,0,1,.178-.63l4.468-2.489.041-.023.591-.329,1.431,2.567-1.215.677-.008,0Zm4.592,6.952V128.22l3.81-2.123h2.227v4.277a.483.483,0,1,0,.966,0V126.1H18.4v11.278H14.75v-4.712a.483.483,0,1,0-.966,0v4.712H8.5A.75.75,0,0,1,7.747,136.626Zm17.652,0a.75.75,0,0,1-.75.749H19.363V126.1h5.83a.209.209,0,0,1,.206.206Z" transform="translate(-0.001 -105.947)" fill="#19124f"/>
      <path id="Path_20112" data-name="Path 20112" d="M340.778,126.581c.006.059.619,5.965-1.449,8.207a.483.483,0,1,0,.71.655c2.362-2.561,1.727-8.706,1.7-8.966a.483.483,0,1,0-.96.1Z" transform="translate(-317.357 -118.218)" fill="#19124f"/>
      <path id="Path_20113" data-name="Path 20113" d="M416.312,76.048a8.179,8.179,0,0,0-1.087,2.415.483.483,0,0,0,.942.215,7.359,7.359,0,0,1,.973-2.13,6.366,6.366,0,0,1,3.934-2.793.483.483,0,0,0-.224-.94A7.4,7.4,0,0,0,416.312,76.048Z" transform="translate(-388.473 -68.403)" fill="#19124f"/>
      <path id="Path_20114" data-name="Path 20114" d="M261.215,19.519a.467.467,0,0,1,0,.1l-.114,1.405a.716.716,0,0,0,.224.689.741.741,0,0,0,.746.02l1.291-.538a.273.273,0,0,1,.112,0l1.3.541a1.052,1.052,0,0,0,.392.092.562.562,0,0,0,.348-.114.717.717,0,0,0,.224-.689l-.112-1.4a.547.547,0,0,1,0-.1l.938-1.13a.636.636,0,0,0-.356-1.14l-1.426-.354-.75-1.252a.74.74,0,0,0-.61-.426h0a.743.743,0,0,0-.611.424h0l-.744,1.242-.007.011-1.427.354a.636.636,0,0,0-.355,1.14Zm1.121-1.7a.763.763,0,0,0,.538-.41l.545-.91.55.918a.76.76,0,0,0,.533.4l1.059.263-.682.822a1.028,1.028,0,0,0-.216.787l.078.979-.894-.372a1.174,1.174,0,0,0-.853,0l-.9.373.079-.981a1.047,1.047,0,0,0-.213-.782l-.686-.825Z" transform="translate(-243.284 -14.527)" fill="#19124f"/>
      <path id="Path_20115" data-name="Path 20115" d="M413.24,190.8a.635.635,0,0,0-.355-1.141l-1.424-.353-.751-1.254a.743.743,0,0,0-.611-.424h0a.739.739,0,0,0-.609.425l-.745,1.241-.007.012-1.424.353a.635.635,0,0,0-.355,1.141l.937,1.129a.528.528,0,0,1,0,.1l-.114,1.405a.722.722,0,0,0,.227.69.74.74,0,0,0,.743.019l1.291-.538a.28.28,0,0,1,.114,0l1.3.541a1.053,1.053,0,0,0,.392.092.564.564,0,0,0,.347-.113.722.722,0,0,0,.227-.69l-.114-1.4a.536.536,0,0,1,0-.1Zm-1.683.515a1.029,1.029,0,0,0-.216.787l.079.978-.9-.373a1.181,1.181,0,0,0-.853,0l-.9.373.079-.981a1.024,1.024,0,0,0-.213-.781l-.685-.825,1.06-.263a.763.763,0,0,0,.535-.409l.547-.911.526.878.02.033a.763.763,0,0,0,.536.409l1.059.263Z" transform="translate(-380.515 -175.835)" fill="#19124f"/>
      <path id="Path_20116" data-name="Path 20116" d="M396.889,9.325a2.415,2.415,0,1,0-2.416-2.414A2.418,2.418,0,0,0,396.889,9.325Zm0-3.863a1.449,1.449,0,1,1-1.45,1.45,1.452,1.452,0,0,1,1.45-1.45Z" transform="translate(-369.069 -4.496)" fill="#19124f"/>
    </g>
  </g>
</svg>
