<svg xmlns="http://www.w3.org/2000/svg" width="38.372" height="36.983" viewBox="0 0 38.372 36.983">
  <g id="surprise_2_" data-name="surprise(2)" transform="translate(-0.001 -14.659)">
    <g id="Group_28346" data-name="Group 28346" transform="translate(0.703 22.496)">
      <path id="Path_20092" data-name="Path 20092" d="M21.349,204.156l-3.272-5.021c-11.163-8.744-15.681,7.5-2.588,5.944Z" transform="translate(-7.497 -196.535)" fill="#fff" fill-rule="evenodd"/>
    </g>
    <g id="Group_28347" data-name="Group 28347" transform="translate(12.831 15.367)">
      <path id="Path_20093" data-name="Path 20093" d="M143.413,130.206c8.2-10.314-7.989-15.013-6.418-.924l2.729,4.7Z" transform="translate(-136.887 -120.475)" fill="#fff" fill-rule="evenodd"/>
    </g>
    <g id="Group_28348" data-name="Group 28348" transform="translate(8.995 23.26)">
      <path id="Path_20094" data-name="Path 20094" d="M97.159,211.628l4.592-.872,2.98-3.347-.957-1.714a1.946,1.946,0,0,0-.739-.747,1.974,1.974,0,0,0-1.936-.014l-1.2.668-1.655.921-1.281.717a1.961,1.961,0,0,0-1,1.559,1.93,1.93,0,0,0,.24,1.112Z" transform="translate(-95.955 -204.687)" fill="#fff" fill-rule="evenodd"/>
    </g>
    <g id="Group_28349" data-name="Group 28349" transform="translate(17.771 21.332)">
      <path id="Path_20095" data-name="Path 20095" d="M192.355,193.73l8.033-4.475a1.384,1.384,0,0,0,.534-1.875l-1.426-2.557a1.382,1.382,0,0,0-1.876-.531l-6.446,3.592-1.587.883v3.347Z" transform="translate(-189.587 -184.116)" fill="#fff" fill-rule="evenodd"/>
    </g>
    <g id="Group_28350" data-name="Group 28350" transform="translate(10.572 32.684)">
      <path id="Path_20096" data-name="Path 20096" d="M122.982,323.487l2.02-9.153-2.02-8.667h-4.128l-5.052-.436-1.012,3.816v12.647a1.8,1.8,0,0,0,1.794,1.793Z" transform="translate(-112.79 -305.231)" fill="#fff" fill-rule="evenodd"/>
    </g>
    <g id="Group_28351" data-name="Group 28351" transform="translate(1.459 30.201)">
      <path id="Path_20097" data-name="Path 20097" d="M19.035,288.182l8.033-4.478.229-3.347-3-1.616-1.5.839-6.533,3.639a1.382,1.382,0,0,0-.532,1.872l1.426,2.559A1.386,1.386,0,0,0,19.035,288.182Z" transform="translate(-15.56 -278.741)" fill="#fff" fill-rule="evenodd"/>
    </g>
    <g id="Group_28352" data-name="Group 28352" transform="translate(25.075 33.12)">
      <path id="Path_20098" data-name="Path 20098" d="M280.114,325.91V310.887a1.008,1.008,0,0,0-1-1h-9.189l-2.4,8.913,2.4,8.907h8.4A1.8,1.8,0,0,0,280.114,325.91Z" transform="translate(-267.52 -309.884)" fill="#fff" fill-rule="evenodd"/>
    </g>
    <g id="Group_28357" data-name="Group 28357" transform="translate(10.199 25.982)">
      <path id="Path_20103" data-name="Path 20103" d="M119.144,238.689l-2.767-4.963-7.572,4.219,2.767,4.963Z" transform="translate(-108.805 -233.726)" fill="#13bdbf" fill-rule="evenodd"/>
    </g>
    <g id="Group_28358" data-name="Group 28358" transform="translate(20.764 33.12)">
      <path id="Path_20104" data-name="Path 20104" d="M221.528,309.884h6.713V327.7h-6.713Z" transform="translate(-221.528 -309.884)" fill="#13bdbf" fill-rule="evenodd"/>
    </g>
    <g id="Group_28365" data-name="Group 28365" transform="translate(0.001 4.496)">
      <path id="Path_20111" data-name="Path 20111" d="M36.666,130.688H19.343l9.571-5.334a2.087,2.087,0,0,0,.805-2.831l-1.427-2.558a2.084,2.084,0,0,0-2.831-.8l-3.981,2.218a8.471,8.471,0,0,0,.867-2.756,5.182,5.182,0,0,0-.978-3.889,4.7,4.7,0,0,0-5.654-1.385.7.7,0,0,0,.576,1.282,3.294,3.294,0,0,1,3.967.965c1.338,1.722.825,4.416-1.368,7.224l-.849.473-.614-1.1a2.653,2.653,0,0,0-.6-.735,8.832,8.832,0,0,1,1.026-2.807.7.7,0,0,0-1.2-.731,10.18,10.18,0,0,0-1.14,2.937,2.644,2.644,0,0,0-1.713.3l-.243.136a9.1,9.1,0,0,1,.927-4.95.7.7,0,0,0-1.217-.7,10.831,10.831,0,0,0-1.069,6.412l-.849.473c-3.587-2.666-7.1-3.211-9.451-1.445a4.709,4.709,0,0,0-1.562,5.5c.8,2,2.8,3.219,5.565,3.477l-4.076,2.271a2.083,2.083,0,0,0-.8,2.829l1.426,2.56a2.086,2.086,0,0,0,2.831.8h0l4.593-2.56v11.45a2.5,2.5,0,0,0,2.5,2.5H35.875a2.5,2.5,0,0,0,2.5-2.5V132.394a1.708,1.708,0,0,0-1.706-1.706ZM13.239,132.48l-2.083-3.736,6.344-3.535,2.083,3.736-3.172,1.768a.7.7,0,0,0-.3.166ZM26.147,120.39a.669.669,0,0,1,.327-.086.677.677,0,0,1,.591.346l1.425,2.556a.679.679,0,0,1-.262.92L20.81,128.26l-2.083-3.736Zm-11.665,2a1.246,1.246,0,0,1,.609-.159,1.285,1.285,0,0,1,.351.049,1.252,1.252,0,0,1,.759.6l.614,1.1-6.343,3.535-.615-1.1a1.243,1.243,0,0,1-.155-.7c0-.007,0-.013,0-.02a1.286,1.286,0,0,1,.043-.233,1.251,1.251,0,0,1,.6-.757ZM1.638,126.065a3.3,3.3,0,0,1,1.1-3.856c1.724-1.293,4.388-.882,7.249,1.077l-.327.182a2.642,2.642,0,0,0-1.147,1.265,14.4,14.4,0,0,0-2.956-.584.7.7,0,1,0-.153,1.4,12.759,12.759,0,0,1,2.908.6,2.649,2.649,0,0,0,.315.951l.615,1.1-.767.428C4.987,129.009,2.435,128.057,1.638,126.065ZM4.592,137.3a.687.687,0,0,1-.92-.26l-1.426-2.559a.675.675,0,0,1,.259-.917l6.5-3.623a.68.68,0,0,0,.06-.033l.86-.479,2.083,3.736-1.769.986-.011.006Zm6.684,10.118V135.184l5.545-3.09h3.241v6.226a.7.7,0,1,0,1.406,0v-6.226h5.307v16.414H21.467V141.65a.7.7,0,1,0-1.406,0v6.858H12.367A1.092,1.092,0,0,1,11.275,147.417Zm25.691,0a1.092,1.092,0,0,1-1.091,1.09H28.18V132.094h8.486a.3.3,0,0,1,.3.3Z" transform="translate(-0.001 -102.767)" fill="#19124f"/>
    </g>
  </g>
</svg>
