<svg xmlns="http://www.w3.org/2000/svg" width="31.973" height="45.518" viewBox="0 0 31.973 45.518">
  <g id="tracking_1_" data-name="tracking(1)" transform="translate(-24.549)">
    <g id="Group_26317" data-name="Group 26317" transform="translate(24.549)">
      <path id="Path_19295" data-name="Path 19295" d="M40.535,10.658a5.329,5.329,0,1,0,5.329,5.329A5.335,5.335,0,0,0,40.535,10.658Zm0,0a5.329,5.329,0,1,0,5.329,5.329A5.335,5.335,0,0,0,40.535,10.658ZM40.535,0A16.005,16.005,0,0,0,24.549,15.987C24.549,27,38.9,44.308,39.513,45.04a1.333,1.333,0,0,0,2.045,0C42.169,44.308,56.522,27,56.522,15.987A16.005,16.005,0,0,0,40.535,0Zm9.326,17.319H48.417a8.011,8.011,0,0,1-6.549,6.549v1.444a1.332,1.332,0,1,1-2.664,0V23.868a8.011,8.011,0,0,1-6.549-6.549H31.21a1.332,1.332,0,1,1,0-2.664h1.444A8.011,8.011,0,0,1,39.2,8.105V6.661a1.332,1.332,0,1,1,2.664,0V8.105a8.011,8.011,0,0,1,6.549,6.549h1.444a1.332,1.332,0,1,1,0,2.664Zm-9.326-6.661a5.329,5.329,0,1,0,5.329,5.329A5.335,5.335,0,0,0,40.535,10.658Zm0,0a5.329,5.329,0,1,0,5.329,5.329A5.335,5.335,0,0,0,40.535,10.658Zm0,0a5.329,5.329,0,1,0,5.329,5.329A5.335,5.335,0,0,0,40.535,10.658Z" transform="translate(-24.549)" fill="#85dee2"/>
    </g>
  </g>
</svg>
