<svg id="trash" xmlns="http://www.w3.org/2000/svg" width="18.146" height="18.146" viewBox="0 0 18.146 18.146">
  <path id="Path_19475" data-name="Path 19475" d="M0,0H18.146V18.146H0Z" fill="none"/>
  <path id="Path_19476" data-name="Path 19476" d="M13.342,5.024h3.781V6.537H15.61v9.829a.756.756,0,0,1-.756.756H4.268a.756.756,0,0,1-.756-.756V6.537H2V5.024H5.781V2.756A.756.756,0,0,1,6.537,2h6.049a.756.756,0,0,1,.756.756ZM7.293,8.8v4.537H8.8V8.8Zm3.024,0v4.537h1.512V8.8ZM7.293,3.512V5.024h4.537V3.512Z" transform="translate(-0.488 -0.488)" fill="#19124f"/>
</svg>
