<svg id="truck" xmlns="http://www.w3.org/2000/svg" width="24" height="24" viewBox="0 0 24 24">
  <path id="Path_19806" data-name="Path 19806" d="M0,0H24V24H0Z" fill="none"/>
  <path id="Path_19807" data-name="Path 19807" d="M8.965,18a3.5,3.5,0,0,1-6.93,0H1V6A1,1,0,0,1,2,5H16a1,1,0,0,1,1,1V8h3l3,4.056V18H20.965a3.5,3.5,0,0,1-6.93,0ZM15,7H3v8.05A3.5,3.5,0,0,1,8.663,16h5.674A3.527,3.527,0,0,1,15,15.05Zm2,6h4v-.285L18.992,10H17Zm.5,6A1.5,1.5,0,1,0,16,17.5,1.5,1.5,0,0,0,17.5,19ZM7,17.5A1.5,1.5,0,1,0,5.5,19,1.5,1.5,0,0,0,7,17.5Z" fill="#19124f"/>
</svg>
