<svg xmlns="http://www.w3.org/2000/svg" width="46.966" height="46.965" viewBox="0 0 46.966 46.965">
  <g id="_145808" data-name="145808" transform="translate(-0.386 0.368)">
    <ellipse id="Ellipse_3143" data-name="Ellipse 3143" cx="23.483" cy="23.483" rx="23.483" ry="23.483" transform="translate(0.386 -0.368)" fill="#2196f3"/>
    <g id="messenger_2_" data-name="messenger(2)" transform="translate(9.384 9.632)">
      <path id="Path_19557" data-name="Path 19557" d="M26.132,15.888a.576.576,0,0,0-.737-.161L19.41,18.99,15.686,15.8a.576.576,0,0,0-.782.03L8,22.733a.576.576,0,0,0,.683.912l5.986-3.263,3.727,3.194a.576.576,0,0,0,.782-.03l6.907-6.907A.576.576,0,0,0,26.132,15.888Z" transform="translate(-3.223 -6.446)" fill="#2196f3"/>
    </g>
    <g id="Group_27551" data-name="Group 27551" transform="translate(7.386 6.632)">
      <path id="Path_19661" data-name="Path 19661" d="M0,0H33.934V33.934H0Z" fill="none"/>
      <path id="Path_19662" data-name="Path 19662" d="M30.6,6.47a11.854,11.854,0,0,1-3.4.93,5.933,5.933,0,0,0,2.6-3.272,11.817,11.817,0,0,1-3.755,1.435,5.913,5.913,0,0,0-10.075,5.393A16.789,16.789,0,0,1,3.785,4.778a5.922,5.922,0,0,0,1.83,7.9,5.893,5.893,0,0,1-2.678-.739v.074a5.917,5.917,0,0,0,4.742,5.8,5.953,5.953,0,0,1-2.671.1,5.917,5.917,0,0,0,5.524,4.107,11.868,11.868,0,0,1-8.753,2.449,16.726,16.726,0,0,0,9.063,2.658c10.877,0,16.825-9.011,16.825-16.825,0-.255-.007-.512-.018-.764A12.012,12.012,0,0,0,30.6,6.472Z" transform="translate(0.736 1.527)" fill="#fff"/>
    </g>
  </g>
</svg>
