<svg xmlns="http://www.w3.org/2000/svg" width="38.094" height="38.094" viewBox="0 0 38.094 38.094">
  <g id="user_46_" data-name="user(46)" transform="translate(0.5 0.5)">
    <path id="Path_20141" data-name="Path 20141" d="M25.929,8A17.928,17.928,0,0,0,12.122,37.365a14.237,14.237,0,0,1,9.7-10.2,7.419,7.419,0,1,1,8.208,0,14.237,14.237,0,0,1,9.7,10.2A17.928,17.928,0,0,0,25.929,8Z" transform="translate(-7.382 -7.382)" fill="#fff"/>
    <path id="Path_20142" data-name="Path 20142" d="M79.254,93.6a7.419,7.419,0,1,0-8.208,0,14.237,14.237,0,0,0-9.7,10.2h0c.2.236.4.466.605.691.05.055.1.108.154.161.16.169.321.336.487.5.069.067.138.132.208.2.153.146.309.29.467.43.079.069.158.138.237.206q.233.2.472.391c.084.067.169.134.253.2q.243.187.493.365c.086.061.171.124.258.184.176.121.354.237.534.352.081.051.16.1.242.155.208.128.419.25.632.37.056.032.111.066.168.1q.414.226.84.432l.021.009q.407.195.826.369c.087.036.175.069.262.1.2.08.4.16.608.232.109.039.219.074.328.111.187.063.375.124.564.181.12.036.24.069.362.1q.274.076.553.144.188.045.378.087c.186.041.373.078.561.113.127.023.254.048.383.068.194.032.389.058.585.083.124.016.247.034.371.047.216.023.435.04.653.056.106.007.21.019.316.024.326.019.653.029.983.029s.657-.011.983-.028c.106-.006.211-.017.316-.024.219-.015.437-.032.653-.056.124-.014.247-.031.371-.047.2-.025.391-.052.585-.083.128-.021.255-.045.383-.068.188-.035.375-.072.561-.113q.19-.042.378-.087.278-.068.553-.144c.121-.033.242-.067.362-.1.19-.057.377-.118.564-.181.109-.037.22-.072.328-.111.2-.074.407-.152.608-.232.087-.035.176-.067.262-.1.278-.116.552-.238.822-.368l.025-.011q.427-.2.84-.432c.057-.031.112-.065.168-.1.213-.12.425-.242.632-.37.082-.05.161-.1.242-.155.18-.115.359-.232.534-.352.087-.06.172-.122.258-.184q.249-.179.493-.365c.085-.066.169-.132.253-.2q.239-.191.472-.391c.08-.068.16-.137.237-.206.158-.14.313-.284.467-.43.069-.066.14-.132.208-.2q.249-.245.487-.5c.051-.054.1-.107.154-.161.207-.226.41-.456.605-.691h0A14.234,14.234,0,0,0,79.254,93.6Z" transform="translate(-56.603 -73.818)" fill="#13bdbf"/>
    <path id="Path_20143" data-name="Path 20143" d="M18.547,0A18.537,18.537,0,0,0,4.25,30.348c.007.009.007.021.015.03a18.542,18.542,0,0,0,7,5.226l.092.04c.217.091.436.176.657.259.087.033.173.066.261.1q.285.1.573.194c.123.04.246.079.37.116q.255.076.513.146c.151.041.3.079.455.115s.308.074.464.107c.173.037.348.07.524.1.141.026.281.053.423.076.195.032.391.056.587.082.127.016.253.035.38.048.223.023.447.04.672.056.1.007.208.019.313.024q.492.028.995.028c.334,0,.666-.01,1-.027.105-.006.209-.017.313-.024.225-.016.449-.032.672-.056.127-.014.253-.032.38-.048.2-.025.393-.05.587-.082.142-.023.283-.05.423-.076.175-.032.35-.065.524-.1.155-.033.309-.07.464-.107s.3-.075.455-.115c.172-.046.342-.1.513-.146.124-.037.247-.076.37-.116q.288-.093.573-.194c.087-.032.174-.065.261-.1.221-.083.44-.168.657-.259l.092-.04a18.547,18.547,0,0,0,7-5.226c.007-.009.008-.021.015-.03A18.539,18.539,0,0,0,18.547,0Zm3.7,19.3a6.549,6.549,0,0,1-.757.423l-.092.045a6.956,6.956,0,0,1-5.7,0l-.092-.045a6.5,6.5,0,0,1-.757-.423,6.8,6.8,0,1,1,7.4,0ZM14.617,20.6c.052.029.1.06.156.088.184.1.371.189.562.271.147.064.3.119.449.174l.089.033a7.89,7.89,0,0,0,5.347,0l.089-.033c.151-.056.3-.11.449-.174.191-.082.378-.174.562-.271.053-.028.1-.059.156-.088.088-.049.179-.1.265-.15a13.649,13.649,0,0,1,8.93,9.359,17.411,17.411,0,0,1-5.609,4.324l-.027.014c-.221.106-.445.206-.671.3l-.153.066q-.3.124-.6.237c-.084.032-.168.062-.253.092-.179.064-.358.125-.539.183-.113.036-.226.07-.339.1-.161.048-.322.095-.485.138-.137.036-.276.07-.414.1s-.29.07-.436.1-.321.063-.482.092c-.13.024-.26.049-.392.07-.181.028-.364.051-.547.074-.116.015-.231.032-.347.045-.208.022-.419.036-.628.051-.093.006-.186.017-.281.022q-.459.024-.921.025t-.92-.025c-.094,0-.187-.015-.281-.022-.21-.014-.42-.029-.628-.051-.117-.012-.232-.03-.347-.045-.182-.023-.365-.046-.547-.074-.132-.021-.262-.046-.392-.07-.161-.029-.323-.059-.482-.092s-.292-.066-.436-.1-.277-.066-.414-.1c-.163-.043-.325-.09-.485-.138-.113-.033-.226-.067-.339-.1q-.272-.087-.539-.183l-.253-.092q-.3-.113-.6-.237l-.153-.065c-.226-.1-.451-.2-.672-.3l-.027-.014a17.394,17.394,0,0,1-5.609-4.324,13.645,13.645,0,0,1,8.93-9.359C14.439,20.509,14.529,20.556,14.617,20.6ZM32.6,28.638a14.9,14.9,0,0,0-8.684-9.072,8.037,8.037,0,1,0-10.734,0A14.9,14.9,0,0,0,4.5,28.638,17.306,17.306,0,1,1,35.857,18.547,17.212,17.212,0,0,1,32.6,28.638Z" fill="#19124f" stroke="#181346" stroke-width="1"/>
  </g>
</svg>
