<svg xmlns="http://www.w3.org/2000/svg" width="57.062" height="17.3" viewBox="0 0 57.062 17.3">
  <g id="visa" transform="translate(0 0)">
    <path id="Path_18838" data-name="Path 18838" d="M184.8,196.7l2.9-16.3h4.529l-2.808,16.3Z" transform="translate(-163.877 -179.857)" fill="#3c58bf"/>
    <path id="Path_18839" data-name="Path 18839" d="M184.8,196.7l3.714-16.3h3.714l-2.808,16.3Z" transform="translate(-163.877 -179.857)" fill="#293688"/>
    <path id="Path_18840" data-name="Path 18840" d="M261.858,176.325a11.488,11.488,0,0,0-4.166-.725c-4.529,0-7.789,2.264-7.789,5.525,0,2.445,2.264,3.714,4.076,4.529s2.355,1.359,2.355,2.083c0,1.087-1.449,1.63-2.717,1.63a9.845,9.845,0,0,1-4.348-.906l-.634-.272L248,191.9a14.686,14.686,0,0,0,5.163.906c4.8,0,7.971-2.264,7.971-5.706,0-1.9-1.178-3.351-3.895-4.529-1.63-.815-2.627-1.268-2.627-2.083,0-.725.815-1.449,2.627-1.449a8.308,8.308,0,0,1,3.442.634l.453.181.724-3.532Z" transform="translate(-219.922 -175.6)" fill="#3c58bf"/>
    <path id="Path_18841" data-name="Path 18841" d="M261.858,176.325a11.488,11.488,0,0,0-4.166-.725c-4.529,0-6.974,2.264-6.974,5.525,0,2.445,1.449,3.714,3.261,4.529s2.355,1.359,2.355,2.083c0,1.087-1.449,1.63-2.717,1.63a9.845,9.845,0,0,1-4.348-.906l-.634-.272L248,191.9a14.686,14.686,0,0,0,5.163.906c4.8,0,7.971-2.264,7.971-5.706,0-1.9-1.178-3.351-3.895-4.529-1.63-.815-2.627-1.268-2.627-2.083,0-.725.815-1.449,2.627-1.449a8.308,8.308,0,0,1,3.442.634l.453.181.724-3.532Z" transform="translate(-219.922 -175.6)" fill="#293688"/>
    <path id="Path_18842" data-name="Path 18842" d="M367.548,180.4c-1.087,0-1.9.091-2.355,1.177L358.4,196.7h4.891l.906-2.717h5.8l.543,2.717h4.348l-3.8-16.3Zm-2.083,10.869c.272-.815,1.811-4.8,1.811-4.8s.362-1,.634-1.63l.272,1.54s.906,4.076,1.087,4.982h-3.8Z" transform="translate(-317.823 -179.857)" fill="#3c58bf"/>
    <path id="Path_18843" data-name="Path 18843" d="M368.635,180.4c-1.087,0-1.9.091-2.355,1.177L358.4,196.7h4.891l.906-2.717h5.8l.543,2.717h4.348l-3.8-16.3Zm-3.17,10.869c.362-.906,1.811-4.8,1.811-4.8s.362-1,.634-1.63l.272,1.54s.906,4.076,1.087,4.982h-3.8Z" transform="translate(-317.823 -179.857)" fill="#293688"/>
    <path id="Path_18844" data-name="Path 18844" d="M57.993,192.522l-.453-2.355a13.13,13.13,0,0,0-6.34-7.155L55.276,197.5h4.891L67.5,181.2H62.612Z" transform="translate(-45.403 -180.566)" fill="#3c58bf"/>
    <path id="Path_18845" data-name="Path 18845" d="M57.993,192.522l-.453-2.355a13.13,13.13,0,0,0-6.34-7.155L55.276,197.5h4.891L67.5,181.2H63.518Z" transform="translate(-45.403 -180.566)" fill="#293688"/>
    <path id="Path_18846" data-name="Path 18846" d="M0,180.4l.815.181c5.8,1.359,9.782,4.8,11.322,8.876l-1.63-7.7c-.272-1.087-1.087-1.359-2.083-1.359Z" transform="translate(0 -179.857)" fill="#ffbc00"/>
    <path id="Path_18847" data-name="Path 18847" d="M0,180.4H0c5.8,1.359,10.6,4.891,12.137,8.967l-1.54-6.431a2.211,2.211,0,0,0-2.174-1.721Z" transform="translate(0 -179.857)" fill="#f7981d"/>
    <path id="Path_18848" data-name="Path 18848" d="M0,180.4H0c5.8,1.359,10.6,4.891,12.137,8.967l-1.087-3.532a3.194,3.194,0,0,0-1.9-2.627Z" transform="translate(0 -179.857)" fill="#ed7c00"/>
    <g id="Group_26689" data-name="Group 26689" transform="translate(5.887 2.355)">
      <path id="Path_18849" data-name="Path 18849" d="M63.231,205.457l-3.08-3.08L58.7,205.82l-.362-2.264A13.13,13.13,0,0,0,52,196.4l4.076,14.492h4.891Z" transform="translate(-52 -196.4)" fill="#051244"/>
      <path id="Path_18850" data-name="Path 18850" d="M189.419,293.185l-3.895-3.985-.725,3.985Z" transform="translate(-169.765 -278.693)" fill="#051244"/>
      <path id="Path_18851" data-name="Path 18851" d="M255.88,274.8h0c.362.362.543.634.453,1,0,1.087-1.449,1.63-2.717,1.63a9.845,9.845,0,0,1-4.348-.906l-.634-.272L248,279.963a14.686,14.686,0,0,0,5.163.906c2.9,0,5.253-.815,6.612-2.264Z" transform="translate(-225.809 -265.924)" fill="#051244"/>
      <path id="Path_18852" data-name="Path 18852" d="M364,231.465h4.257l.906-2.717h5.8l.543,2.717h4.348l-1.54-6.612-5.434-5.253.272,1.449s.906,4.076,1.087,4.982h-3.8c.362-.906,1.811-4.8,1.811-4.8s.362-1,.634-1.63" transform="translate(-328.676 -216.973)" fill="#051244"/>
    </g>
  </g>
</svg>
