<svg xmlns="http://www.w3.org/2000/svg" width="70.019" height="50.807" viewBox="0 0 70.019 50.807">
  <g id="worldwide_delivery" data-name="worldwide delivery" transform="translate(2933.559 -11381.981)">
    <g id="worldwide" transform="translate(-2923.458 11381.981)">
      <g id="Group_26355" data-name="Group 26355" transform="translate(1.048 6.944)">
        <path id="Path_19072" data-name="Path 19072" d="M408.233,72.934a6.64,6.64,0,0,1-.08,4.954,5.914,5.914,0,0,1-3.591,3.306c-6.5,2.336-6.475-10.764-6.475-10.764l9.992,2.094Z" transform="translate(-359.542 -70.431)" fill="#fd596f"/>
        <path id="Path_19073" data-name="Path 19073" d="M10.978,347.5a6.639,6.639,0,0,1,.08-4.954,5.914,5.914,0,0,1,3.591-3.306C21.149,336.9,21.124,350,21.124,350l-9.992-2.094Z" transform="translate(-10.537 -312.25)" fill="#fd596f"/>
      </g>
      <circle id="Ellipse_366" data-name="Ellipse 366" cx="24.656" cy="24.656" r="24.656" transform="translate(0.743 0.745)" fill="#85dee2"/>
      <path id="Path_19074" data-name="Path 19074" d="M227.611,8.1a24.9,24.9,0,0,0-3.066.19,24.658,24.658,0,0,1,0,48.932A24.656,24.656,0,1,0,227.611,8.1Z" transform="translate(-202.212 -7.355)" fill="#e0f5f4"/>
      <g id="Group_26356" data-name="Group 26356" transform="translate(1.141 2.008)">
        <path id="Path_19075" data-name="Path 19075" d="M36.409,297.65l4.578,1.69a.2.2,0,0,1,.061.34A30.061,30.061,0,0,1,11.468,305.4a6.866,6.866,0,0,0,.335,1.234l.154.41A11.652,11.652,0,0,0,25.284,313.8a37.163,37.163,0,0,0,18.947-10.871.2.2,0,0,1,.333.064l1.863,4.89a.2.2,0,0,0,.38-.023l3.5-14.006a.2.2,0,0,0-.245-.241L36.427,297.27a.2.2,0,0,0-.017.38Z" transform="translate(-11.468 -266.475)" fill="#fd596f"/>
        <path id="Path_19076" data-name="Path 19076" d="M126.925,37.249l-4.578-1.69a.2.2,0,0,1-.061-.34,30.061,30.061,0,0,1,29.581-5.724,6.868,6.868,0,0,0-.335-1.233l-.154-.41A11.652,11.652,0,0,0,138.052,21.1,37.162,37.162,0,0,0,119.1,31.967a.2.2,0,0,1-.333-.063l-1.864-4.89a.2.2,0,0,0-.38.023l-3.5,14.007a.2.2,0,0,0,.245.241l13.637-3.655a.2.2,0,0,0,.017-.38Z" transform="translate(-102.92 -20.801)" fill="#fd596f"/>
        <path id="Path_19107" data-name="Path 19107" d="M130.067,126.7l-1.817,6.349,6.666-1.84-3.994-.911Z" transform="translate(-115.815 -114.897)" fill="#fff"/>
        <path id="Path_19108" data-name="Path 19108" d="M132.188,131.859l1.475-5.154-5.411,1.493,3.243.74Z" transform="translate(-97.72 -96.642)" fill="#fff"/>
      </g>
      <path id="Path_19077" data-name="Path 19077" d="M50.341,15.3a7.272,7.272,0,0,0,.47-4.124c0-.005,0-.01,0-.015v0a7.626,7.626,0,0,0-.373-1.367l-.154-.409-.013-.031A12.4,12.4,0,0,0,36.086,2.177q-.58.133-1.156.285a25.411,25.411,0,0,0-33.1,14.064.743.743,0,1,0,1.379.555,23.959,23.959,0,0,1,1.726-3.453c2.356.559,4.871,1.021,7.5,1.376L10.522,22.69a.947.947,0,0,0,.255.9.924.924,0,0,0,.084.072l.027.019c.022.016.045.03.068.044l.029.017a.959.959,0,0,0,.1.046h0a.946.946,0,0,0,.1.034l.032.008c.026.006.052.011.079.015l.032,0a.926.926,0,0,0,.109.007h0a.94.94,0,0,0,.243-.032l.985-.265q-.038.8-.052,1.616l0,.1H1.5a24.022,24.022,0,0,1,.549-4.441.743.743,0,1,0-1.452-.32,25.537,25.537,0,0,0,1.368,15.3A6.71,6.71,0,0,0,.885,37.55a7.272,7.272,0,0,0-.47,4.124c0,.005,0,.01,0,.015v0A7.627,7.627,0,0,0,.792,43.06l.154.409.013.031A12.383,12.383,0,0,0,12.35,50.992a12.524,12.524,0,0,0,2.79-.316q1.112-.254,2.2-.576A25.411,25.411,0,0,0,48.514,36.546a.743.743,0,0,0-1.352-.618,23.937,23.937,0,0,1-2.242,3.894c-2.01-.447-4.134-.824-6.341-1.127L40.7,30.163a.943.943,0,0,0-1.16-1.138l-1.472.4q.086-1.284.108-2.585l0-.1H49.3a23.932,23.932,0,0,1-.853,5.665.743.743,0,1,0,1.432.4,25.475,25.475,0,0,0-.688-15.683A6.669,6.669,0,0,0,50.341,15.3Zm-1.365-.587a5.361,5.361,0,0,1-.434.813,25.268,25.268,0,0,0-2.173-3.853l-.022-.033q-.129-.188-.262-.373l-.11-.154c-.041-.056-.08-.113-.121-.169a30.9,30.9,0,0,1,3.553.918A5.75,5.75,0,0,1,48.975,14.716ZM32.527,3.176l-.138.047L32,3.356l-.059.021c-.171.06-.343.121-.513.183h0a12.162,12.162,0,0,0-.987-.932Q31.5,2.855,32.527,3.176Zm-6.4,2.806V2.133l.115.018a7.115,7.115,0,0,1,3.7,1.992,38.522,38.522,0,0,0-3.817,1.839Zm-1.577-3.83.115-.018v4.7A37.279,37.279,0,0,0,18.6,11.442l-.089.084q-.156.147-.31.3l-.166.162c-.083.082-.167.163-.25.246q-.17.169-.336.341l-.079.08-.691-1.809c.267-.678.551-1.329.853-1.947,1.922-3.931,4.417-6.326,7.024-6.744ZM5.782,12.323A23.955,23.955,0,0,1,20.349,2.629a17.158,17.158,0,0,0-4.135,5.623q-.149.3-.293.619l-.114-.3a.944.944,0,0,0-.253-.368c-.013-.012-.027-.023-.041-.034L15.5,8.157a.944.944,0,0,0-1.486.523l-1.219,4.895C10.348,13.25,8,12.83,5.782,12.323Zm6.4,9.83,2.848-11.436,1.25,3.273a.942.942,0,0,0,1.574.3q.218-.236.44-.468c.075-.078.152-.156.228-.234s.142-.147.214-.219q.161-.162.326-.322l.118-.116q.2-.195.405-.386l.04-.037a36.75,36.75,0,0,1,12.976-7.79l.1-.032q.251-.087.5-.17l.208-.066c.134-.043.269-.087.4-.128s.243-.073.364-.109c.087-.026.174-.053.261-.077q.979-.282,1.974-.51a10.916,10.916,0,0,1,12.478,6.3l.092.244a31.877,31.877,0,0,0-4.746-1,.744.744,0,0,0-.089-.018A30.619,30.619,0,0,0,21.737,15.1l-.227.17c-.09.068-.18.136-.27.205q-.255.2-.506.4L20.58,16c-.189.154-.377.309-.563.468a.943.943,0,0,0,.286,1.6l2.975,1.1Zm14.04,15.67h-.1V34.6l3.395,1.25-.061.048q-.2.162-.407.319l-.225.173c-.082.062-.165.123-.247.184q-.253.187-.508.37l-.034.024q-.634.449-1.287.864c-.176,0-.351-.006-.527-.008Zm-.316-5.13.218-.059v-5.9H36.72l0,.1c-.016,1-.063,2-.139,2.983Zm.218-7.415V15.845h.1c3.12-.025,6.219-.192,9.212-.5l.087-.009.02.084a45.541,45.541,0,0,1,1.173,9.752l0,.1H26.129Zm8.99-11.482.033.114-.118.012c-2.855.282-5.818.438-8.805.462h-.1v-.343a29.45,29.45,0,0,1,8.061-3.025Q34.7,12.34,35.119,13.795Zm1.589-.057-.084.01-.023-.082q-.423-1.525-.951-2.923l.385-.059.028,0A29.227,29.227,0,0,1,43.68,10.6l.077.091q.084.1.167.2l.149.183q.1.124.2.25l.106.137q.125.163.248.329l.046.061q.172.235.338.473a78.491,78.491,0,0,1-8.3,1.415ZM16.179,39.83l-.041-.119.125-.012c2.583-.241,5.25-.378,7.934-.41a29.507,29.507,0,0,1-5.792,2.22l-.329.085-.281.07q-.249.06-.5.116l-.168.037-.178.037C16.676,41.207,16.418,40.53,16.179,39.83Zm-.4-1.552-.082.008-.023-.079a44.723,44.723,0,0,1-1.595-11.368l0-.1H24.667V37.821h-.1c-2.967.024-5.925.178-8.792.456Zm-.3,3.845c-.1.016-.209.033-.313.048l-.308.042-.244.032a29.257,29.257,0,0,1-6.722.049L7.8,42.2,7.622,42l-.188-.21-.165-.19c-.064-.075-.128-.149-.192-.224L6.934,41.2l-.076-.094c2.437-.517,5.026-.932,7.713-1.234l.08-.009.025.076q.371,1.13.8,2.182Zm-1.4-16.847,0-.1q.017-1.015.073-2.012l10.517-2.828v4.941H14.076ZM21.7,17.006l.072-.057q.2-.156.394-.309l.243-.186.163-.121q.347-.259.7-.507.646.013,1.293.019h.1V18.1ZM1.5,26.739H12.614l0,.1a46.49,46.49,0,0,0,1.574,11.494l.031.112-.115.013a80.894,80.894,0,0,0-8.226,1.367,23.877,23.877,0,0,1-2.362-4.158c0-.01-.01-.019-.015-.029a23.842,23.842,0,0,1-2-8.9Zm.753,11.4a5.427,5.427,0,0,1,.416-.785,25.3,25.3,0,0,0,2.113,3.49l.05.069q.164.225.333.448l.1.126q.149.193.3.384c.023.028.044.057.068.086a30.852,30.852,0,0,1-3.807-.967,5.751,5.751,0,0,1,.43-2.85Zm17.6,11.136.255-.1c.079.07.158.138.238.205C20.181,49.347,20.016,49.312,19.852,49.273Zm4.815.609-.115-.018a6.544,6.544,0,0,1-2.9-1.308q1.541-.657,3.011-1.44v2.766Zm1.577-.019-.115.018V46.294A36.88,36.88,0,0,0,33.861,40.2l.317.83c-.283.73-.587,1.429-.91,2.088-1.923,3.931-4.417,6.326-7.025,6.744Zm17.7-8.756a24.015,24.015,0,0,1-5.452,4.912,23.762,23.762,0,0,1-8.042,3.364,17.165,17.165,0,0,0,4.133-5.621c.12-.245.237-.5.352-.752l.485,1.271a.943.943,0,0,0,1.8-.109l1.009-4.05c1.977.268,3.892.6,5.719.985ZM39.039,30.7,36.191,42.136,34.94,38.863a.942.942,0,0,0-1.574-.3q-.219.237-.442.471l-.085.088q-.19.2-.383.391l-.053.052a36.4,36.4,0,0,1-13.574,8.5l-.349.12-.216.073q-.236.079-.474.154l-.093.03q-.266.084-.534.164-1.166.35-2.355.623a10.916,10.916,0,0,1-12.478-6.3l-.092-.244a31.877,31.877,0,0,0,5.139,1.046.737.737,0,0,0,.078.016,30.75,30.75,0,0,0,3.577.209,30.31,30.31,0,0,0,4.412-.324l.113-.017.378-.059.213-.036q.27-.046.54-.1l.175-.033.079-.016.347-.071.189-.041a31.277,31.277,0,0,0,12.385-5.795l.165-.126c.075-.058.149-.117.224-.176q.152-.12.3-.242l.173-.141q.242-.2.481-.4a.944.944,0,0,0-.286-1.6l-2.975-1.1ZM49.3,25.276H38.182l0-.1a47.219,47.219,0,0,0-1.167-9.894l-.025-.108.11-.013a79.072,79.072,0,0,0,8.76-1.534A23.912,23.912,0,0,1,49.3,25.277Z" transform="translate(0.001 -0.607)" fill="#19124f"/>
    </g>
    <g id="Group_26361" data-name="Group 26361" transform="translate(-2933.559 11394.461)">
      <g id="Path_19084" data-name="Path 19084" transform="translate(0 20.356)">
        <path id="Path_19047" data-name="Path 19047" d="M47.15,40.746a7.6,7.6,0,0,0-.542-1.219,4.926,4.926,0,0,0-1.215-1.474,3.463,3.463,0,0,0-1.121-.6,5.779,5.779,0,0,0,1.031-.489,4.508,4.508,0,0,0,1.364-1.25,4.132,4.132,0,0,0,.632-1.394,7.839,7.839,0,0,0,.632,1.22,5.24,5.24,0,0,0,1.251,1.384,3.627,3.627,0,0,0,1.247.611,8.983,8.983,0,0,0-1.353.783,5.761,5.761,0,0,0-1.392,1.351A3.751,3.751,0,0,0,47.15,40.746Z" transform="translate(-43.392 -33.55)" fill="#fd596f"/>
        <path id="Path_19048" data-name="Path 19048" d="M39.09,27.646a4.258,4.258,0,0,1-.507.961,4.7,4.7,0,0,1-1.421,1.3,5.753,5.753,0,0,1-.61.321,3.756,3.756,0,0,1,.719.449,5.118,5.118,0,0,1,1.264,1.531,7.394,7.394,0,0,1,.374.772,4.157,4.157,0,0,1,.375-.645,5.953,5.953,0,0,1,1.439-1.4,8.823,8.823,0,0,1,.963-.59,3.933,3.933,0,0,1-.861-.491,5.432,5.432,0,0,1-1.3-1.434,7.668,7.668,0,0,1-.437-.78m-.1-1.316s1,3.731,3.9,3.9c0,0-3.86,1.334-3.926,4.185,0,0-.76-4-3.809-4.143C35.15,30.276,38.7,29.738,38.988,26.33Z" transform="translate(-35.15 -26.33)" fill="#19124f"/>
      </g>
      <g id="Path_19086" data-name="Path 19086" transform="translate(64.548 7.856)">
        <path id="Path_19049" data-name="Path 19049" d="M27.3,54.934a5.291,5.291,0,0,0-.333-.719,3.54,3.54,0,0,0-.874-1.06,2.533,2.533,0,0,0-.662-.38,4.068,4.068,0,0,0,.593-.3,3.244,3.244,0,0,0,.981-.9,2.954,2.954,0,0,0,.412-.848,5.473,5.473,0,0,0,.389.724,3.761,3.761,0,0,0,.9.993,2.654,2.654,0,0,0,.759.4,6.281,6.281,0,0,0-.833.495,4.131,4.131,0,0,0-1,.969A2.773,2.773,0,0,0,27.3,54.934Z" transform="translate(-24.645 -50.015)" fill="#fd596f"/>
        <path id="Path_19050" data-name="Path 19050" d="M20.062,44.508a3.111,3.111,0,0,1-.277.478,3.436,3.436,0,0,1-1.039.954c-.081.049-.161.094-.24.135a3.476,3.476,0,0,1,1.251,1.341c.064.115.122.229.174.34q.075-.132.165-.26a4.322,4.322,0,0,1,1.045-1.015c.169-.12.337-.225.5-.316a2.966,2.966,0,0,1-.426-.266,3.952,3.952,0,0,1-.945-1.043c-.075-.117-.143-.234-.2-.347m-.082-1.2Zm0,0s.711,2.639,2.756,2.761c0,0-2.731.943-2.777,2.96,0,0-.538-2.829-2.694-2.93A3.23,3.23,0,0,0,19.98,43.31Z" transform="translate(-17.265 -43.31)" fill="#19124f"/>
      </g>
      <g id="Path_19088" data-name="Path 19088" transform="translate(64.548)">
        <path id="Path_19051" data-name="Path 19051" d="M27.306,28.275a5.289,5.289,0,0,0-.335-.717,3.541,3.541,0,0,0-.878-1.056,2.533,2.533,0,0,0-.664-.378,4.068,4.068,0,0,0,.592-.3,3.245,3.245,0,0,0,.978-.9,2.955,2.955,0,0,0,.409-.85,5.471,5.471,0,0,0,.391.721,3.763,3.763,0,0,0,.9.99,2.654,2.654,0,0,0,.761.4,6.282,6.282,0,0,0-.831.5,4.131,4.131,0,0,0-.995.973A2.773,2.773,0,0,0,27.306,28.275Z" transform="translate(-24.641 -23.356)" fill="#fd596f"/>
        <path id="Path_19052" data-name="Path 19052" d="M20.055,17.85a3.113,3.113,0,0,1-.275.479,3.437,3.437,0,0,1-1.035.958c-.081.049-.161.095-.24.136a3.477,3.477,0,0,1,1.257,1.336c.065.114.123.228.176.339q.074-.132.164-.261a4.322,4.322,0,0,1,1.041-1.02c.168-.12.336-.226.495-.318a2.967,2.967,0,0,1-.427-.265,3.954,3.954,0,0,1-.949-1.04c-.075-.116-.143-.232-.2-.345m-.087-1.2s.721,2.636,2.767,2.75c0,0-2.727.954-2.765,2.971,0,0-.549-2.827-2.706-2.92A3.23,3.23,0,0,0,19.968,16.653Z" transform="translate(-17.264 -16.653)" fill="#19124f"/>
      </g>
    </g>
  </g>
</svg>
