<?xml version="1.0" standalone="no"?>
<!DOCTYPE svg PUBLIC "-//W3C//DTD SVG 20010904//EN"
 "http://www.w3.org/TR/2001/REC-SVG-20010904/DTD/svg10.dtd">
<svg version="1.0" xmlns="http://www.w3.org/2000/svg"
 width="225.000000pt" height="225.000000pt" viewBox="0 0 225.000000 225.000000"
 preserveAspectRatio="xMidYMid meet">

<g transform="translate(0.000000,225.000000) scale(0.100000,-0.100000)"
fill="#000000" stroke="none">
<path d="M2016 2239 c-60 -14 -186 -84 -258 -143 -103 -85 -329 -341 -434
-491 -13 -18 -25 -9 -197 163 -101 100 -189 182 -196 182 -8 0 -51 -37 -97
-82 -62 -60 -84 -88 -84 -107 0 -38 973 -1011 1011 -1011 19 0 47 22 107 84
45 46 82 89 82 97 0 7 -82 95 -182 196 -172 172 -181 184 -163 197 150 105
406 331 492 435 30 36 75 108 101 159 42 85 46 100 47 167 0 59 -4 79 -21 102
-41 56 -113 74 -208 52z"/>
<path d="M342 1307 l-342 -342 55 -55 54 -54 140 137 c129 126 161 152 161
129 0 -11 -100 -131 -192 -232 l-68 -74 52 -53 c29 -29 56 -53 61 -53 5 0 42
30 82 67 81 73 121 101 131 91 8 -9 -25 -55 -102 -144 l-62 -71 94 -94 94 -93
118 122 c65 67 127 122 136 122 18 0 18 -1 1 -28 -18 -27 -117 -154 -176 -225
l-32 -38 64 -65 63 -64 221 218 c212 210 285 275 285 253 0 -17 -138 -175
-305 -350 l-157 -164 61 -61 c46 -45 64 -58 75 -51 65 49 127 87 132 82 5 -5
-22 -48 -81 -133 -7 -10 -1 -23 25 -49 l35 -35 345 345 345 345 -480 480
c-264 264 -482 480 -485 480 -3 0 -159 -154 -348 -343z"/>
</g>
</svg>
