<svg xmlns="http://www.w3.org/2000/svg" width="59.807" height="53.209" viewBox="0 0 59.807 53.209">
  <g id="_4082624" data-name="4082624" transform="translate(0 0)">
    <path id="Path_19301" data-name="Path 19301" d="M71.747,92.881c.485-6.99-1.118-12.371-4.765-15.994-4.433-4.4-11.015-5.171-14.206-4.929-5.62.426-8.495,1.62-9.47,2.113a1.227,1.227,0,0,1-1.4-.215,7.013,7.013,0,0,0-5.4-1.845,1.494,1.494,0,0,1-1.472-.4,1.535,1.535,0,0,1-.4-.835,5.342,5.342,0,0,0-1.765-3.312,3.047,3.047,0,0,1-1.24-2.3,3.635,3.635,0,0,1,1.142-2.479c4.992-5.849,3.643-11.283,2.83-13.35a.237.237,0,0,0-.305-.133,10.268,10.268,0,0,0-6.548,7.482,16.614,16.614,0,0,0-.52,5.352v0a2.83,2.83,0,0,1-2.444,3.04c-.509.068-1.116.141-1.857.222a5.11,5.11,0,0,0-3.929,3.164,6.04,6.04,0,0,1-1.006,1.513A17.6,17.6,0,0,0,17.6,72.067c-.214.347-.451.731-.716,1.156-.767,1.227-1.042,2.216-.776,2.787a1.663,1.663,0,0,0,1.279.731,1.461,1.461,0,0,1,.73.319,4.166,4.166,0,0,0,4.2.555,2.391,2.391,0,0,1,2.205.114c1.2.794,1.307,2.767,1.405,4.508.03.541.059,1.052.119,1.449.654,4.359,4.346,6.89,8.882,9.373a18.819,18.819,0,0,0-.212-2.527.623.623,0,1,1,1.228-.21c.034.2.809,4.859-.679,7.672a3.181,3.181,0,0,1-2.23,1.653,3.618,3.618,0,0,0-2.527,1.266,1.321,1.321,0,0,0-.134.269h4.171a1.105,1.105,0,0,0,.834-.379c1.4-1.606,4.977-5.727,7.926-9.282,3.329-4.013-1.6-9.787-1.651-9.845a.623.623,0,1,1,.94-.818,15.521,15.521,0,0,1,2.328,3.816c1.246,2.98,1.018,5.622-.658,7.643-.86,1.037-1.773,2.121-2.67,3.177a18.411,18.411,0,0,0,5.479.555,10.845,10.845,0,0,0,5.075-1.206c-.1-.324-.2-.662-.29-1.012-1-3.855-.743-7.342.75-10.085a8.478,8.478,0,0,1,5.428-4.355,9.692,9.692,0,0,1,7.347,1.164c2.761,1.806,3.336,3.555,3.36,3.629a.623.623,0,1,1-1.187.38A6.943,6.943,0,0,0,64.7,81.6a8.508,8.508,0,0,0-6.361-1A7.17,7.17,0,0,0,53.7,84.342c-3.26,5.987,1.157,13.8,1.2,13.881a.623.623,0,0,1-.507.933l-7.056.326c-.218.01-.436.012-.655.014a2.468,2.468,0,0,0-2.229,1.067,1.87,1.87,0,0,0-.336.935,1.251,1.251,0,0,0,.559.062h.017l19.149-.133a.47.47,0,0,0,.344-.18l.607-1.454A1.728,1.728,0,0,1,66.17,99a5.359,5.359,0,0,0,3.139-1.3,6.872,6.872,0,0,0,2.439-4.822Z" transform="translate(-16.007 -48.353)"/>
    <path id="Path_19302" data-name="Path 19302" d="M95.589,52.777a17.409,17.409,0,0,1,.449-2.282,12.862,12.862,0,0,1,2.607-5.1c-2.338-3.187-3.328-2.955-3.508-2.872-.369.171-.79.962-.867,2.671a19.724,19.724,0,0,0,.668,5.495C95.139,51.469,95.367,52.161,95.589,52.777Z" transform="translate(-84.508 -42.486)"/>
    <path id="Path_19303" data-name="Path 19303" d="M433.472,412.782l-2.577.415a8.018,8.018,0,0,1-2.515,3.749,6.844,6.844,0,0,1-3.1,1.488,6.157,6.157,0,0,0,3.955.069c1.32-.452,3.224-1.68,4.8-4.97a.514.514,0,0,0-.054-.542A.523.523,0,0,0,433.472,412.782Z" transform="translate(-374.287 -366.636)"/>
  </g>
</svg>
