<svg xmlns="http://www.w3.org/2000/svg" width="55.857" height="48.114" viewBox="0 0 55.857 48.114">
  <g id="_4081987" data-name="4081987" transform="translate(0.001 0)">
    <path id="Path_19304" data-name="Path 19304" d="M46.7,250.44a.8.8,0,0,0,.384-.487l.159-.57a9.345,9.345,0,0,0,.281-1.557c.092-.89.6-2.3,2.5-3.974.073-.064.171-.139.295-.234a6.034,6.034,0,0,0,1.466-1.447,6.78,6.78,0,0,1-1.181-1.425c-.6.916-1.273,2.158-1.926,3.37a24.273,24.273,0,0,1-2.483,4.064,3.183,3.183,0,0,0-.677,1.369.808.808,0,0,0,1.179.892Z" transform="translate(-43.796 -218.591)"/>
    <path id="Path_19305" data-name="Path 19305" d="M72.771,64.677a2.633,2.633,0,0,0-1.289-1.743,3.543,3.543,0,0,0,.29,3.466,3.78,3.78,0,0,1,.744-.1,3.86,3.86,0,0,1,.075-1A4.187,4.187,0,0,1,72.771,64.677Z" transform="translate(-66.263 -62.934)"/>
    <path id="Path_19306" data-name="Path 19306" d="M98.108,433.033a.979.979,0,0,0-.741.415l-.341.653a.129.129,0,0,0,.114.188h5.2a1.672,1.672,0,0,1,.384-1.533Z" transform="translate(-88.893 -386.676)"/>
    <path id="Path_19307" data-name="Path 19307" d="M209.41,353.362a1.929,1.929,0,0,0,1.4-.468,1.6,1.6,0,0,0,.3-1.212,20.493,20.493,0,0,0-.271-2.159,12.315,12.315,0,0,0-2.307-5.368,5.469,5.469,0,0,1-1.009-.35c1.071,2.412,2.4,6.328,1.555,9.567Z" transform="translate(-185.639 -308.81)"/>
    <path id="Path_19308" data-name="Path 19308" d="M181.879,289.474a7.826,7.826,0,0,0,3.128,4.157,11.3,11.3,0,0,1-.822-5.5A4.459,4.459,0,0,1,181.879,289.474Z" transform="translate(-163.186 -260.074)"/>
    <path id="Path_19309" data-name="Path 19309" d="M73.244,106.285c-1.506-1.832-1.83-4.41-1.084-8.62C73.849,88.129,67.46,80.08,67.4,80c-5.476-6.741-11.89-4.528-17.044-2.751-.631.218-1.228.424-1.807.607-2.24.712-4.015.573-5.275-.411C41.424,76,41.446,73.288,41.5,72.491a3.315,3.315,0,0,0-1.158-2.883.623.623,0,0,1-.058-.973,4.215,4.215,0,0,0,1-5.244c-2.537,1.891-1.864,3.681-1.832,3.762a.617.617,0,0,1-.092.637.624.624,0,0,1-.612.211c-1.81-.382-3.385,1.368-3.952,2.56a7.822,7.822,0,0,1-2.811,2.686.272.272,0,0,0-.123.186.278.278,0,0,0,.056.221l.484.617a.519.519,0,0,0,.537.189,10.023,10.023,0,0,1,3.311-.2,3.043,3.043,0,0,0,2.56-1.114,1.637,1.637,0,0,0,.3-1.628.623.623,0,0,1,1.167-.436,2.85,2.85,0,0,1-.486,2.831,4.353,4.353,0,0,1-2.342,1.483,6.5,6.5,0,0,1,1.262,4.672,6.523,6.523,0,0,0,2.8,6.527,4.822,4.822,0,0,0-.435-1.647.623.623,0,1,1,1.107-.573c.061.118,1.478,2.911-.306,5.07a17.827,17.827,0,0,0-1.99,3.629,14.69,14.69,0,0,1-1.971,3.514,3.184,3.184,0,0,0-.677,1.369.808.808,0,0,0,1.563.4l.159-.57a9.333,9.333,0,0,0,.281-1.557c.092-.89.6-2.3,2.5-3.974a21.2,21.2,0,0,0,2.933-3.679s.007-.008.01-.012a.621.621,0,0,1,.057-.074l.012-.015a.631.631,0,0,1,.073-.065,4.011,4.011,0,0,0,1.508-4.556A.623.623,0,1,1,47.5,83.4a5.2,5.2,0,0,1-1.008,5.17A6.384,6.384,0,0,1,50,91.542c.5,0,1.805-.275,3.254-2.757a10.168,10.168,0,0,1,1.63-3.819,9.259,9.259,0,0,1,5.429-3.482,8.043,8.043,0,0,1,5.185.936.623.623,0,0,1-.577,1.1c-3.332-1.742-6.387-.988-9.08,2.241a11.382,11.382,0,0,0-1.7,5.161,9.559,9.559,0,0,0,1.529,6.909,13.547,13.547,0,0,1,2.614,6,21.713,21.713,0,0,1,.287,2.293,2.778,2.778,0,0,1-.626,2.131,3.086,3.086,0,0,1-2.287.875c-.316.009-.673.023-1.056.037a42.918,42.918,0,0,1-5.013,0,4.28,4.28,0,0,0-2.889,1,.445.445,0,0,0-.179.522.47.47,0,0,0,.461.342H58.49a1.454,1.454,0,0,0,1.034-.527,2.23,2.23,0,0,0,.567-1.645c-.209-1.883-.363-4.142-.459-6.716a20.989,20.989,0,0,1,.1-3.157s0,0,0,0v0a13.464,13.464,0,0,1,.43-2.207,5,5,0,0,1,4.093-3.509,4.2,4.2,0,0,0,3.883-3.882.623.623,0,0,1,1.246.037A5.49,5.49,0,0,1,64.44,94.5a3.749,3.749,0,0,0-3.078,2.623,11.4,11.4,0,0,0-.3,1.327,6.615,6.615,0,0,0,4.118-2.027A13.243,13.243,0,0,1,66.993,94.9a.745.745,0,0,1,1.124.856c-.487,1.439-2.715,8.8,1.25,12.41a11.944,11.944,0,0,0,8.389,3.277,40.739,40.739,0,0,0,9.952-1.341C79.912,109.763,75.381,108.886,73.244,106.285Z" transform="translate(-31.852 -63.335)"/>
  </g>
</svg>
