<svg xmlns="http://www.w3.org/2000/svg" width="59.79" height="54.802" viewBox="0 0 59.79 54.802">
  <g id="_4081970" data-name="4081970" transform="translate(0.001 0)">
    <path id="Path_19298" data-name="Path 19298" d="M183.305,329.986c-.035.1-.068.2-.1.3a5.119,5.119,0,0,1-.255.589c-.742,1.43-1.645,4.829-1.727,12.9,0,.17,0,.3,0,.381a1.409,1.409,0,0,1-.329.872l-.929,1.106a.161.161,0,0,0-.033.065l-.008.032,1.9.132a.162.162,0,0,0,.179-.12l.381-1.561a1.413,1.413,0,0,1,.289-.571l.929-1.106c.015-.018.026-.033.034-.044a25.51,25.51,0,0,1,.607-12.641Q183.772,330.159,183.305,329.986Z" transform="translate(-159.501 -293.367)"/>
    <path id="Path_19299" data-name="Path 19299" d="M394.727,362.955l.608.031a15.51,15.51,0,0,1,1.273-1.532c.932-1.02,1.3-1.467,1.016-2.289a9.11,9.11,0,0,1-.184-3.629,8.316,8.316,0,0,0-.566-4.793,5.715,5.715,0,0,0-2.819-1.829,7.891,7.891,0,0,1,1.489,5.492,21.686,21.686,0,0,0,.226,3.637c.264,1.683-.949,3.26-2.161,4.619A2.827,2.827,0,0,0,394.727,362.955Z" transform="translate(-346.568 -309.936)"/>
    <path id="Path_19300" data-name="Path 19300" d="M17.595,50.4a3.27,3.27,0,0,1,2.53.392,4.815,4.815,0,0,1,1.352,1.262,2.195,2.195,0,0,0,.554-1.552.623.623,0,0,1,.762-.641,3.961,3.961,0,0,0,.942.073,8.037,8.037,0,0,1,1.534-4.772,1.628,1.628,0,0,0,.148-1.608.623.623,0,1,1,1.136-.511,2.878,2.878,0,0,1-.27,2.842,6.45,6.45,0,0,0-1.014,5.788.313.313,0,0,0,.173.2.3.3,0,0,0,.251,0c3.908-1.809,2.773-8.122,2.761-8.186a.623.623,0,0,1,1.225-.23,14.218,14.218,0,0,1,.1,3.857,6.964,6.964,0,0,1-2.825,5.279,9.789,9.789,0,0,1,1.981,7.051,18.1,18.1,0,0,0,3.95,12.733,6.619,6.619,0,0,1,1.366,3.154c.039.206.07.41.1.607a4.115,4.115,0,0,0,.215.972c.443.831-.142,4.984-.332,6.238-.307,2.027-.939,5.564-1.723,6.471l-.028.03-.307.31,2.549.147h.018a.162.162,0,0,0,.168-.121l.381-1.561a1.415,1.415,0,0,1,.289-.571l.929-1.106a.157.157,0,0,0,.037-.1c0-.079,0-.2,0-.366.069-6.675.7-11.2,1.867-13.459a3.924,3.924,0,0,0,.193-.448c2.43-6.565-.967-8.453-1.113-8.53a.623.623,0,1,1,.569-1.109,4.973,4.973,0,0,1,1.987,2.224,8.97,8.97,0,0,1,.2,6.361,35.061,35.061,0,0,0,14.3,2.115,30.924,30.924,0,0,0,5.095-.73,8.6,8.6,0,0,1-2.6-6.524,16,16,0,0,1,.913-5.283.623.623,0,0,1,1.164.446,14.981,14.981,0,0,0-.83,4.861c.033,3.341,1.453,5.661,4.221,6.9.3.133.641.268,1.005.411,1.512.594,3.226,1.267,3.952,2.584a9.4,9.4,0,0,1,.717,5.49,8.293,8.293,0,0,0,.12,3.129c.534,1.554-.345,2.516-1.274,3.534a10.926,10.926,0,0,0-1.706,2.264l3.771.18a.132.132,0,0,0,.122-.061.133.133,0,0,0,.011-.136l-.319-.685a1.385,1.385,0,0,1,.846-1.906l.552-.171a.138.138,0,0,0,.1-.12l.734-8.236a5.656,5.656,0,0,0-.63-3.143l-.075-.142a9.053,9.053,0,0,1-.66-6.725,16.468,16.468,0,0,0,.391-5.823,1.526,1.526,0,0,1,.8-1.514c3.765-2.009,4.727-4.275,4.895-5.767-1.645,1.634-4.47,2.151-5.826,2.309a1.544,1.544,0,0,1-1.149-.333c-3.825-3.121-8.621-2.719-15.258-2.163-2.416.2-5.154.431-8.1.5-.111,0-.222,0-.332,0A13.269,13.269,0,0,1,33.952,50.7,19.726,19.726,0,0,1,31.1,44.507,5.221,5.221,0,0,0,28.236,41a1.468,1.468,0,0,1-.825-1.082,1.512,1.512,0,0,1,.41-1.321,7.72,7.72,0,0,1,5.133-2.134,5.544,5.544,0,0,0-3.019-.267c-2.486.52-3.932,2.842-4.407,3.606a1.21,1.21,0,0,1-.943.565A3.435,3.435,0,0,0,21.59,42.4a6.209,6.209,0,0,1-1.955,2.1,5.493,5.493,0,0,0-1.794,2.1,3.246,3.246,0,0,1-1.093,1.257c-.6.4-.877.857-.495,1.98.086.253.287.843,1.342.57Z" transform="translate(-16.078 -36.092)"/>
  </g>
</svg>
