<svg xmlns="http://www.w3.org/2000/svg" width="61.43" height="58.969" viewBox="0 0 61.43 58.969">
  <g id="_992535" data-name="992535" transform="translate(0 -10.255)">
    <path id="Path_19496" data-name="Path 19496" d="M77.512,58.363c0,2.792-5.077,4.722-5.915,7.235s2.107,7.159.533,9.316-6.854.787-9.037,2.386-2.539,7.006-5.077,7.869-5.889-3.376-8.682-3.376-6.194,4.214-8.707,3.4-2.894-6.3-5.077-7.869-7.413-.2-9.063-2.386,1.371-6.727.533-9.316-5.864-4.468-5.864-7.26,5.077-4.722,5.915-7.235-2.107-7.159-.584-9.342S33.341,41,35.524,39.4s2.539-7.006,5.077-7.869,5.94,3.4,8.733,3.4,6.194-4.214,8.707-3.4,2.894,6.3,5.077,7.869,7.438.2,9.037,2.386-1.371,6.727-.533,9.316S77.512,55.57,77.512,58.363Z" transform="translate(-18.618 -18.621)" fill="#85dee2"/>
    <g id="Group_27012" data-name="Group 27012" transform="translate(0 10.255)">
      <path id="Path_19497" data-name="Path 19497" d="M22.7,69.224a4.7,4.7,0,0,1-1.477-.236c-2.493-.8-3.511-3.326-4.409-5.547a9.642,9.642,0,0,0-1.371-2.681,9.418,9.418,0,0,0-2.914-.457c-2.267-.152-5.087-.34-6.689-2.46C4.2,55.669,4.922,52.9,5.5,50.67a9.126,9.126,0,0,0,.482-2.891A8.9,8.9,0,0,0,3.93,45.725C2.181,44.276,0,42.466,0,39.742,0,37,2.221,35.17,4.008,33.7a9.39,9.39,0,0,0,2.038-1.993,9.776,9.776,0,0,0-.487-2.917c-.592-2.313-1.264-4.937.228-7.075,1.528-2.191,4.379-2.376,6.669-2.526a9.38,9.38,0,0,0,2.95-.457A9.372,9.372,0,0,0,16.78,16.06c.894-2.209,1.906-4.709,4.389-5.552,2.526-.863,4.915.66,6.829,1.878a8.9,8.9,0,0,0,2.721,1.386,9.008,9.008,0,0,0,2.752-1.391c1.993-1.259,4.25-2.686,6.735-1.886s3.511,3.323,4.407,5.544a9.658,9.658,0,0,0,1.373,2.683,9.379,9.379,0,0,0,2.919.457c2.275.152,5.108.343,6.679,2.488s.876,4.9.31,7.108a9.29,9.29,0,0,0-.477,2.927,9.046,9.046,0,0,0,2.064,2.051c1.759,1.455,3.95,3.267,3.95,5.991,0,2.742-2.221,4.574-4.008,6.047a9.449,9.449,0,0,0-2.038,1.993,9.687,9.687,0,0,0,.477,2.889c.592,2.333,1.262,4.981-.3,7.121s-4.252,2.31-6.633,2.473a9.33,9.33,0,0,0-2.955.467A9.568,9.568,0,0,0,44.6,63.406c-.9,2.206-1.906,4.706-4.389,5.554-2.526.861-4.9-.652-6.8-1.863a8.785,8.785,0,0,0-2.7-1.376,9.008,9.008,0,0,0-2.752,1.391C26.375,68.11,24.616,69.224,22.7,69.224Zm0-53.89a15.407,15.407,0,0,0-1.218,2.63c-.739,1.823-1.5,3.709-3.079,4.864s-3.64,1.3-5.62,1.429a9.472,9.472,0,0,0-2.909.442,18.573,18.573,0,0,0,.6,2.83c.492,1.929,1.005,3.922.383,5.783-.6,1.815-2.14,3.079-3.625,4.3C6.519,38.2,5.189,39.3,5.072,39.78a10.258,10.258,0,0,0,2.1,2.049c1.424,1.185,3.036,2.523,3.643,4.394s.071,3.927-.4,5.737a9.054,9.054,0,0,0-.482,2.9,12.623,12.623,0,0,0,2.937.386c1.95.129,3.965.264,5.544,1.4s2.363,3.054,3.11,4.9a9.6,9.6,0,0,0,1.356,2.66,20.513,20.513,0,0,0,2.368-1.386c1.615-1.02,3.442-2.178,5.468-2.178s3.831,1.155,5.427,2.17a9.2,9.2,0,0,0,2.528,1.323A15.326,15.326,0,0,0,39.9,61.5c.739-1.825,1.5-3.709,3.079-4.864,1.592-1.168,3.729-1.31,5.615-1.437a9.252,9.252,0,0,0,2.929-.459,16.722,16.722,0,0,0-.579-2.818c-.485-1.914-.987-3.894-.371-5.742.6-1.815,2.14-3.082,3.625-4.3a9.808,9.808,0,0,0,2.153-2.13,9.6,9.6,0,0,0-2.1-2.079c-1.432-1.183-3.054-2.526-3.658-4.4s-.079-3.937.386-5.755a9.173,9.173,0,0,0,.477-2.909,13.734,13.734,0,0,0-2.886-.358c-1.952-.129-3.97-.264-5.552-1.4s-2.363-3.054-3.11-4.9a9.612,9.612,0,0,0-1.356-2.658,20.852,20.852,0,0,0-2.369,1.389c-1.615,1.02-3.442,2.178-5.468,2.178s-3.841-1.16-5.448-2.181A9.04,9.04,0,0,0,22.7,15.334ZM56.358,39.78h0Z" transform="translate(0 -10.255)" fill="#13bdbf"/>
      <path id="Path_19498" data-name="Path 19498" d="M159.527,192.113a2.525,2.525,0,0,1-1.795-.744l-6.778-6.778A2.538,2.538,0,0,1,154.544,181l4.816,4.813,11.317-13.533a2.54,2.54,0,0,1,3.9,3.259l-13.1,15.663a2.534,2.534,0,0,1-1.835.906C159.6,192.113,159.565,192.113,159.527,192.113Z" transform="translate(-132.187 -152.041)" fill="#fff"/>
    </g>
  </g>
</svg>
