<svg id="_837993" data-name="837993" xmlns="http://www.w3.org/2000/svg" width="38.872" height="44.59" viewBox="0 0 38.872 44.59">
  <g id="Group_26123" data-name="Group 26123">
    <path id="Path_19245" data-name="Path 19245" d="M69.124,15.484l-4.371-1.591A5.292,5.292,0,1,0,57.88,5.846L54.863,8.513l-.6-4A5.294,5.294,0,1,0,43.828,6.276l-4.121-1.5a3.918,3.918,0,0,0-5.016,2.339l-1.784,4.9a1.3,1.3,0,0,0,.78,1.672l20.386,7.42H34.388a1.3,1.3,0,0,0-1.3,1.3V40.676A3.918,3.918,0,0,0,37,44.589H63.085A3.918,3.918,0,0,0,67,40.676V25.814l1.009.367a1.3,1.3,0,0,0,1.672-.78l1.785-4.9A3.918,3.918,0,0,0,69.124,15.484Zm-23,26.5H37a1.306,1.306,0,0,1-1.3-1.3V23.719H46.127Zm5.218,0H48.736V23.719h2.609ZM59.608,7.8a2.684,2.684,0,1,1,.86,4.533l-4.242-1.544ZM47.447,3.131A2.684,2.684,0,0,1,51.686,4.9l.669,4.48L48.113,7.836A2.7,2.7,0,0,1,47.447,3.131Zm.615,13.015L35.8,11.684l1.338-3.677a1.306,1.306,0,0,1,1.672-.78l11.031,4.015Zm4.9,1.785-2.451-.892,1.785-4.9,2.451.892ZM64.389,40.676a1.306,1.306,0,0,1-1.3,1.3H53.954V23.719H61.24l3.149,1.146V40.676Zm4.623-21.069-1.338,3.677L55.416,18.823l1.785-4.9,11.032,4.015A1.306,1.306,0,0,1,69.012,19.607Z" transform="translate(-32.828 0.001)" fill="#fff"/>
  </g>
</svg>
