<svg id="_2933038" data-name="2933038" xmlns="http://www.w3.org/2000/svg" width="48.926" height="48.926" viewBox="0 0 48.926 48.926">
  <path id="Path_19246" data-name="Path 19246" d="M41.741,7.185A24.435,24.435,0,1,0,7.185,41.741,24.435,24.435,0,1,0,41.741,7.185ZM24.463,46.059a21.6,21.6,0,1,1,21.6-21.6A21.621,21.621,0,0,1,24.463,46.059Z" fill="#fff"/>
  <path id="Path_19247" data-name="Path 19247" d="M79.634,61A18.634,18.634,0,1,0,98.268,79.634,18.655,18.655,0,0,0,79.634,61Zm0,34.4A15.767,15.767,0,1,1,95.4,79.634,15.785,15.785,0,0,1,79.634,95.4Z" transform="translate(-55.171 -55.171)" fill="#fff"/>
  <path id="Path_19248" data-name="Path 19248" d="M192.467,129.447a1.433,1.433,0,1,0,2.867,0,5.286,5.286,0,0,0-2.253-4.187,7.878,7.878,0,0,0-3.481-1.432V122.28a1.433,1.433,0,1,0-2.867,0v1.548a7.877,7.877,0,0,0-3.481,1.432,5.018,5.018,0,0,0,0,8.375,7.878,7.878,0,0,0,3.481,1.432v5.677c-1.651-.4-2.867-1.475-2.867-2.7a1.433,1.433,0,1,0-2.867,0,5.287,5.287,0,0,0,2.253,4.187,7.877,7.877,0,0,0,3.481,1.432v1.562a1.433,1.433,0,1,0,2.867,0v-1.562a7.876,7.876,0,0,0,3.481-1.432,5.018,5.018,0,0,0,0-8.375,7.878,7.878,0,0,0-3.481-1.432v-5.677C191.251,127.155,192.467,128.227,192.467,129.447Zm-8.6,0c0-1.221,1.216-2.292,2.867-2.7v5.392C185.082,131.74,183.867,130.668,183.867,129.447Zm8.6,8.6c0,1.221-1.215,2.292-2.867,2.7v-5.392C191.251,135.755,192.467,136.827,192.467,138.048Z" transform="translate(-163.704 -109.299)" fill="#fff"/>
</svg>
