<svg xmlns="http://www.w3.org/2000/svg" width="54" height="55.289" viewBox="0 0 54 55.289">
  <g id="_66897" data-name="66897" transform="translate(-4.414 0)">
    <g id="Group_26273" data-name="Group 26273" transform="translate(4.414 0)">
      <g id="Group_26267" data-name="Group 26267" transform="translate(29.596 7.915)">
        <path id="Path_19310" data-name="Path 19310" d="M207.4,71.352c.6-.372,1.226-.735,1.848-1.1s1.252-.716,1.876-1.053q.466-.257.929-.5c.307-.162.611-.324.912-.477,1.2-.62,2.344-1.166,3.336-1.609s1.834-.788,2.431-1.015c.3-.116.537-.2.7-.255l.25-.085-.2.173c-.132.11-.321.277-.57.477-.5.4-1.213.962-2.094,1.6s-1.924,1.352-3.062,2.084c-.283.186-.575.367-.87.552s-.593.371-.9.554c-.6.373-1.228.734-1.85,1.1s-1.252.715-1.877,1.052c-.068.038-.136.072-.2.109,3.348.588,12.416,1.826,17.218-.947,10.9-6.293,4.929-7.314,2.542-11.449s-.287-9.816-11.186-3.523c-4.8,2.773-8.263,11.245-9.429,14.438C207.268,71.434,207.332,71.392,207.4,71.352Z" transform="translate(-207.202 -54.231)"/>
      </g>
      <g id="Group_26268" data-name="Group 26268" transform="translate(29.596 27.86)">
        <path id="Path_19311" data-name="Path 19311" d="M208.26,191.791c.625.337,1.25.7,1.877,1.052s1.245.726,1.85,1.1q.456.274.9.554c.295.185.587.366.869.552,1.138.732,2.182,1.447,3.062,2.084s1.6,1.195,2.094,1.6c.249.2.438.367.57.476l.2.174-.25-.085c-.161-.059-.4-.14-.7-.255-.6-.227-1.44-.569-2.432-1.015s-2.133-.99-3.336-1.609c-.3-.152-.605-.315-.913-.477s-.618-.329-.929-.5c-.624-.337-1.25-.7-1.876-1.053s-1.244-.727-1.848-1.1c-.068-.04-.131-.082-.2-.123,1.165,3.193,4.627,11.665,9.429,14.438,10.9,6.292,8.8.611,11.186-3.523s8.357-5.157-2.542-11.449c-4.8-2.773-13.87-1.534-17.218-.947C208.123,191.718,208.191,191.753,208.26,191.791Z" transform="translate(-207.2 -190.892)"/>
      </g>
      <g id="Group_26269" data-name="Group 26269" transform="translate(18.355 31.135)">
        <path id="Path_19312" data-name="Path 19312" d="M139.69,213.566c.02.709.023,1.43.028,2.151s-.006,1.441-.027,2.151c-.006.355-.016.707-.031,1.055s-.024.691-.043,1.029c-.066,1.351-.162,2.612-.274,3.694s-.236,1.982-.337,2.613c-.048.315-.1.563-.128.732s-.052.259-.052.259-.017-.09-.052-.259-.079-.417-.127-.732c-.1-.631-.227-1.532-.338-2.613s-.208-2.342-.273-3.693c-.019-.338-.031-.682-.043-1.029s-.025-.7-.031-1.055c-.02-.71-.022-1.43-.027-2.151s.008-1.442.027-2.151c0-.078,0-.154.008-.232-2.183,2.606-7.789,9.84-7.789,15.385,0,12.585,3.87,7.926,8.644,7.926s8.644,4.659,8.644-7.926c0-5.545-5.606-12.779-7.789-15.385C139.686,213.412,139.689,213.488,139.69,213.566Z" transform="translate(-130.183 -213.334)"/>
      </g>
      <g id="Group_26270" data-name="Group 26270" transform="translate(0 27.86)">
        <path id="Path_19313" data-name="Path 19313" d="M28.621,193.289c-.6.372-1.227.735-1.848,1.1s-1.252.716-1.876,1.053q-.466.257-.929.5c-.307.162-.611.325-.912.477-1.2.62-2.344,1.166-3.336,1.609s-1.834.788-2.431,1.015c-.3.116-.537.2-.7.255l-.25.085.2-.174c.132-.109.321-.277.57-.477.5-.4,1.213-.962,2.094-1.6s1.924-1.352,3.062-2.084c.283-.186.575-.367.87-.552s.593-.371.9-.554c.6-.372,1.228-.734,1.85-1.1s1.252-.715,1.877-1.052c.068-.038.136-.072.2-.11-3.348-.587-12.416-1.825-17.218.947-10.9,6.293-4.929,7.314-2.542,11.449s.287,9.815,11.186,3.523c4.8-2.773,8.264-11.245,9.429-14.438C28.752,193.207,28.688,193.249,28.621,193.289Z" transform="translate(-4.414 -190.897)"/>
      </g>
      <g id="Group_26271" data-name="Group 26271" transform="translate(0 7.915)">
        <path id="Path_19314" data-name="Path 19314" d="M27.76,72.85c-.625-.337-1.25-.7-1.877-1.052s-1.245-.726-1.85-1.1q-.456-.274-.9-.554c-.295-.185-.587-.367-.87-.552-1.138-.732-2.182-1.447-3.062-2.084s-1.6-1.195-2.094-1.6c-.249-.2-.438-.367-.57-.476l-.2-.174.25.085c.161.059.4.139.7.255.6.227,1.44.57,2.432,1.015s2.133.99,3.336,1.609c.3.152.605.315.913.477s.618.329.929.5c.624.338,1.25.7,1.876,1.053s1.244.727,1.848,1.1c.067.04.131.082.2.123-1.165-3.193-4.627-11.665-9.429-14.438-10.9-6.292-8.8-.611-11.186,3.524S-.152,65.72,10.747,72.012c4.8,2.773,13.87,1.534,17.218.948C27.9,72.922,27.829,72.888,27.76,72.85Z" transform="translate(-4.416 -54.235)"/>
      </g>
      <g id="Group_26272" data-name="Group 26272" transform="translate(18.357)">
        <path id="Path_19315" data-name="Path 19315" d="M137.973,23.921c-.019-.709-.022-1.43-.027-2.151s.006-1.441.026-2.151q.009-.532.031-1.055c.012-.347.024-.691.043-1.029.066-1.351.162-2.612.274-3.693s.236-1.982.337-2.613c.048-.315.1-.563.128-.732s.052-.259.052-.259.017.09.052.259.079.417.128.732c.1.631.226,1.532.337,2.613s.208,2.342.274,3.693c.019.338.03.681.043,1.029s.025.7.031,1.055c.02.71.021,1.43.027,2.151s-.008,1.442-.027,2.151c0,.078,0,.154-.008.232,2.182-2.606,7.788-9.84,7.788-15.385,0-12.585-3.87-7.926-8.644-7.926s-8.644-4.659-8.644,7.926c0,5.545,5.606,12.779,7.789,15.385C137.978,24.076,137.975,24,137.973,23.921Z" transform="translate(-130.193 0)"/>
      </g>
    </g>
  </g>
</svg>
