<svg xmlns="http://www.w3.org/2000/svg" width="38.419" height="59.157" viewBox="0 0 38.419 59.157">
  <g id="_66891" data-name="66891" transform="translate(-73.122)">
    <path id="Path_19317" data-name="Path 19317" d="M110.8,23.106c-.049-.074-.1-.148-.148-.219a10.989,10.989,0,0,0-1.44-1.707,7.488,7.488,0,0,0-2.8-1.716l-.094-.028a9.739,9.739,0,0,0-2.325-.3,9.716,9.716,0,0,0,2.341-.334l.072-.023a7.485,7.485,0,0,0,2.778-1.754A11.014,11.014,0,0,0,110.6,15.3c.047-.07.095-.142.142-.215l.737-1.135-1.214-.6-.234-.114a11.164,11.164,0,0,0-1.944-.718l-.157-.04a7.484,7.484,0,0,0-3.283-.087l-.075.018a9.736,9.736,0,0,0-2.181.908,9.707,9.707,0,0,0,1.859-1.459l.051-.056A7.477,7.477,0,0,0,105.83,8.9a10.994,10.994,0,0,0,.364-2.2c.006-.086.011-.174.016-.263l.069-1.349-1.349.087-.261.019a11.059,11.059,0,0,0-2.2.394,7.485,7.485,0,0,0-2.887,1.567L99.53,7.2A9.689,9.689,0,0,0,98.1,9.076a9.705,9.705,0,0,0,.879-2.191l.017-.074a7.48,7.48,0,0,0-.13-3.283,11.032,11.032,0,0,0-.784-2.088c-.038-.077-.077-.155-.117-.235L97.346,0,96.221.752,96,.9A11.015,11.015,0,0,0,94.3,2.337a7.472,7.472,0,0,0-1.717,2.8l-.022.073a9.7,9.7,0,0,0-.3,2.342,9.71,9.71,0,0,0-.334-2.338L91.9,5.143a7.483,7.483,0,0,0-1.753-2.778A11,11,0,0,0,88.422.948L88.2.8,87.07.068l-.6,1.211c-.039.08-.078.16-.114.236a10.986,10.986,0,0,0-.759,2.1A7.477,7.477,0,0,0,85.51,6.9l.018.074a9.708,9.708,0,0,0,.909,2.182,9.722,9.722,0,0,0-1.46-1.86l-.056-.051a7.477,7.477,0,0,0-2.908-1.529,11.052,11.052,0,0,0-2.2-.364c-.086-.006-.173-.01-.261-.015l-1.35-.07.087,1.349c.006.088.012.175.019.261a10.984,10.984,0,0,0,.393,2.2,7.481,7.481,0,0,0,1.566,2.888l.053.056A9.713,9.713,0,0,0,82.2,13.451a9.732,9.732,0,0,0-2.173-.875l-.1-.022a7.479,7.479,0,0,0-3.282.13,10.991,10.991,0,0,0-2.091.786l-.233.117-1.2.614.746,1.123c.049.074.1.147.147.217a11.015,11.015,0,0,0,1.44,1.707,7.483,7.483,0,0,0,2.8,1.717l.093.027a9.758,9.758,0,0,0,2.326.3,9.706,9.706,0,0,0-2.341.334l-.073.023A7.484,7.484,0,0,0,75.482,21.4a11,11,0,0,0-1.419,1.727c-.047.07-.095.142-.142.215l-.738,1.135,1.215.6.235.114a11.176,11.176,0,0,0,1.942.718l.158.04a7.476,7.476,0,0,0,3.283.087l.074-.018a9.721,9.721,0,0,0,2.182-.908,9.713,9.713,0,0,0-1.859,1.459l-.052.056a7.475,7.475,0,0,0-1.529,2.907,10.982,10.982,0,0,0-.364,2.2c-.006.086-.011.176-.016.264l-.068,1.35,1.348-.089c.088-.005.175-.011.259-.019a11.052,11.052,0,0,0,2.2-.393,7.485,7.485,0,0,0,2.887-1.567l.055-.053a9.712,9.712,0,0,0,1.435-1.878,9.707,9.707,0,0,0-.88,2.194l-.017.074A7.478,7.478,0,0,0,85.8,34.9a11.031,11.031,0,0,0,.785,2.089c.038.077.077.155.117.233l.615,1.207,1.126-.754a10.327,10.327,0,0,0,2.682-2.611v8.472c-.932-1.989-2.338-3.916-4.457-4.518-2.914-.827-6.079-.21-9.027.032.492,2.784,3.47,5.383,5.66,6.694,1.939,1.161,5.935,2.645,7.825.633v12.78h2.553V46.407c1.9,1.968,5.867.492,7.8-.663,2.189-1.31,5.168-3.91,5.66-6.694-2.948-.242-6.112-.859-9.027-.032-2.1.6-3.5,2.49-4.429,4.458V35.05a8.087,8.087,0,0,0,.84,1.014,11.011,11.011,0,0,0,1.726,1.418l.218.143,1.132.735.6-1.209c.04-.08.079-.161.115-.236a10.971,10.971,0,0,0,.759-2.1,7.473,7.473,0,0,0,.087-3.284l-.018-.074a9.727,9.727,0,0,0-.91-2.183,9.711,9.711,0,0,0,1.461,1.86l.056.051a7.477,7.477,0,0,0,2.908,1.529,11.109,11.109,0,0,0,2.2.364l.26.015,1.351.07-.088-1.35c-.006-.087-.012-.174-.019-.26a11.01,11.01,0,0,0-.393-2.2,7.485,7.485,0,0,0-1.566-2.887l-.053-.056a9.745,9.745,0,0,0-1.878-1.434,9.727,9.727,0,0,0,2.172.875l.1.023a7.49,7.49,0,0,0,3.282-.13,11.055,11.055,0,0,0,2.091-.786l.233-.117,1.2-.613Zm-10.15-8.866c.443-.2.853-.409,1.232-.62-.37.227-.749.484-1.143.771a25.08,25.08,0,0,0-2.5,2.1L97.1,17.573a5.081,5.081,0,0,0-1.005-1.716l1.5-.461A25.133,25.133,0,0,0,100.646,14.24ZM93.009,25.676a25.085,25.085,0,0,0-.527,3.225c-.046.485-.072.943-.078,1.377-.012-.434-.044-.891-.1-1.375a24.992,24.992,0,0,0-.569-3.218l-.369-1.521a5,5,0,0,0,1.989-.013ZM91.654,12.752a25.144,25.144,0,0,0,.527-3.225c.045-.485.072-.942.078-1.375.012.433.044.889.1,1.373a25.059,25.059,0,0,0,.569,3.219l.369,1.52a5,5,0,0,0-1.989.014Zm-4.146-1.941a25.106,25.106,0,0,0,2.1,2.5l1.08,1.134a5.083,5.083,0,0,0-1.716,1.005l-.461-1.5A25.042,25.042,0,0,0,87.357,10.9c-.2-.443-.409-.853-.621-1.232C86.964,10.037,87.221,10.417,87.508,10.811Zm-3.555,3.537a25.024,25.024,0,0,0,3.072,1.116l1.5.441a5,5,0,0,0-.984,1.728L86.4,16.57A25.2,25.2,0,0,0,83.867,14.5c-.4-.282-.781-.534-1.154-.756C83.095,13.95,83.507,14.151,83.953,14.349Zm-2.688,4.937c.435-.012.893-.044,1.379-.1a25.078,25.078,0,0,0,3.218-.569l1.52-.368a5,5,0,0,0,.014,1.989l-1.526-.349a25.02,25.02,0,0,0-3.226-.527C82.157,19.319,81.7,19.293,81.264,19.286Zm2.753,4.9c-.443.2-.852.409-1.231.62.369-.228.749-.484,1.143-.771a25.132,25.132,0,0,0,2.5-2.1l1.134-1.081a5.079,5.079,0,0,0,1.006,1.716l-1.5.461A25.125,25.125,0,0,0,84.017,24.188Zm5.67.961a25.027,25.027,0,0,0-2.069,2.53c-.282.4-.534.781-.757,1.154.207-.382.407-.794.6-1.24a25.036,25.036,0,0,0,1.116-3.072l.441-1.5A5.007,5.007,0,0,0,90.752,24Zm5.289-11.871a25,25,0,0,0,2.07-2.53q.422-.594.754-1.15c-.206.381-.406.792-.6,1.236a25.091,25.091,0,0,0-1.116,3.072l-.441,1.5a5.016,5.016,0,0,0-1.729-.984Zm2.179,14.338a25.083,25.083,0,0,0-2.1-2.5l-1.08-1.134a5.084,5.084,0,0,0,1.716-1.006l.461,1.5a25.077,25.077,0,0,0,1.156,3.056c.2.444.409.853.621,1.233C97.7,28.391,97.442,28.011,97.155,27.617Zm3.555-3.537a25.029,25.029,0,0,0-3.072-1.116l-1.5-.441a5,5,0,0,0,.984-1.729l1.146,1.064a25.072,25.072,0,0,0,2.53,2.07c.4.282.781.534,1.154.757C101.568,24.478,101.156,24.277,100.71,24.08Zm1.31-4.842a25.247,25.247,0,0,0-3.218.569l-1.521.369a4.993,4.993,0,0,0-.014-1.989l1.526.349a25.052,25.052,0,0,0,3.226.528c.486.046.943.072,1.378.078C102.963,19.154,102.505,19.187,102.02,19.238Z"/>
  </g>
</svg>
