<svg id="_66809" data-name="66809" xmlns="http://www.w3.org/2000/svg" width="58.157" height="58.157" viewBox="0 0 58.157 58.157">
  <path id="Path_19318" data-name="Path 19318" d="M58.157,29.079c0-1.952-6.239-3.535-13.934-3.535q-1.071,0-2.1.04a34.321,34.321,0,0,1-8.476,3.322,4.553,4.553,0,0,0-.527-1.963,34.362,34.362,0,0,1,9-1.36q.91-.48,1.839-1.016c6.665-3.848,11.276-8.338,10.3-10.028s-7.171.058-13.835,3.906q-.927.535-1.8,1.085a34.364,34.364,0,0,1-5.68,7.118,4.609,4.609,0,0,0-1.438-1.438,34.366,34.366,0,0,1,7.118-5.68q.547-.87,1.085-1.8c3.848-6.665,5.6-12.859,3.905-13.835S37.437,7.531,33.589,14.2q-.536.927-1.016,1.839a34.374,34.374,0,0,1-1.36,9,4.537,4.537,0,0,0-1.962-.527,34.319,34.319,0,0,1,3.322-8.477c.026-.685.04-1.386.04-2.1C32.614,6.238,31.031,0,29.079,0s-3.535,6.238-3.535,13.934c0,.714.014,1.415.04,2.1a34.314,34.314,0,0,1,3.322,8.477,4.541,4.541,0,0,0-1.962.527,34.394,34.394,0,0,1-1.36-9q-.479-.909-1.016-1.839C20.72,7.531,16.23,2.919,14.539,3.9s.058,7.17,3.905,13.835q.536.927,1.085,1.8a34.353,34.353,0,0,1,7.118,5.68,4.612,4.612,0,0,0-1.438,1.438,34.384,34.384,0,0,1-5.68-7.118q-.87-.548-1.8-1.085C11.066,14.6,4.872,12.848,3.9,14.539S7.531,20.72,14.2,24.568q.928.536,1.839,1.016a34.36,34.36,0,0,1,9,1.36,4.55,4.55,0,0,0-.527,1.963,34.328,34.328,0,0,1-8.476-3.322q-1.028-.039-2.1-.04C6.239,25.543,0,27.126,0,29.079s6.239,3.535,13.934,3.535q1.071,0,2.1-.04a34.321,34.321,0,0,1,8.476-3.322,4.552,4.552,0,0,0,.527,1.963,34.353,34.353,0,0,1-9,1.36q-.91.48-1.839,1.016C7.531,37.437,2.92,41.927,3.9,43.618s7.171-.058,13.835-3.906q.927-.535,1.8-1.085a34.361,34.361,0,0,1,5.68-7.118,4.61,4.61,0,0,0,1.438,1.438,34.368,34.368,0,0,1-7.118,5.68q-.547.871-1.085,1.8c-3.848,6.664-5.6,12.859-3.905,13.835s6.181-3.635,10.028-10.3q.536-.927,1.016-1.839a34.386,34.386,0,0,1,1.36-9,4.537,4.537,0,0,0,1.962.527,34.322,34.322,0,0,1-3.322,8.477c-.026.685-.04,1.386-.04,2.1,0,7.7,1.583,13.934,3.535,13.934s3.535-6.238,3.535-13.934c0-.714-.014-1.415-.04-2.1a34.309,34.309,0,0,1-3.322-8.477,4.54,4.54,0,0,0,1.962-.527,34.382,34.382,0,0,1,1.36,9q.479.909,1.016,1.839c3.847,6.665,8.338,11.276,10.028,10.3s-.058-7.17-3.905-13.835q-.535-.927-1.084-1.8a34.358,34.358,0,0,1-7.118-5.68,4.613,4.613,0,0,0,1.438-1.438,34.382,34.382,0,0,1,5.68,7.118q.87.548,1.8,1.085c6.664,3.848,12.859,5.6,13.835,3.906s-3.635-6.181-10.3-10.029q-.928-.536-1.839-1.016a34.354,34.354,0,0,1-9-1.36,4.546,4.546,0,0,0,.527-1.963,34.322,34.322,0,0,1,8.476,3.322q1.028.039,2.1.04C51.918,32.614,58.157,31.031,58.157,29.079ZM29.079,31.66a2.581,2.581,0,1,1,2.581-2.581A2.584,2.584,0,0,1,29.079,31.66Z"/>
</svg>
