<svg xmlns="http://www.w3.org/2000/svg" width="51.001" height="55.288" viewBox="0 0 51.001 55.288">
  <g id="_66895" data-name="66895" transform="translate(-16.392)">
    <path id="Path_19316" data-name="Path 19316" d="M62.464,28.916a18.563,18.563,0,0,0-2.713-1.272,18.5,18.5,0,0,0,2.713-1.272C65.185,24.8,66.8,22.8,67.258,20.411a9.5,9.5,0,0,0-1.426-6.589C63.973,10.6,61.423,8.9,58.458,8.9a10.438,10.438,0,0,0-5.179,1.567,18.444,18.444,0,0,0-2.46,1.716,18.416,18.416,0,0,0,.256-2.989C51.076,3.35,47.729,0,41.892,0s-9.184,3.35-9.184,9.192a18.387,18.387,0,0,0,.257,2.989,18.435,18.435,0,0,0-2.46-1.716A10.438,10.438,0,0,0,25.326,8.9c-2.964,0-5.515,1.7-7.375,4.925-2.918,5.054-1.69,9.628,3.369,12.55a18.507,18.507,0,0,0,2.713,1.272,18.542,18.542,0,0,0-2.713,1.272c-2.721,1.571-4.334,3.577-4.795,5.961a9.5,9.5,0,0,0,1.426,6.589c1.86,3.222,4.41,4.924,7.374,4.924A10.441,10.441,0,0,0,30.5,44.823a18.414,18.414,0,0,0,2.46-1.716,18.4,18.4,0,0,0-.257,2.989c0,3.142.93,5.541,2.765,7.133a9.5,9.5,0,0,0,6.419,2.06h0c5.836,0,9.183-3.351,9.183-9.192a18.417,18.417,0,0,0-.256-2.989,18.4,18.4,0,0,0,2.46,1.716,10.44,10.44,0,0,0,5.179,1.567c2.965,0,5.515-1.7,7.375-4.924a9.5,9.5,0,0,0,1.426-6.589C66.8,32.493,65.185,30.487,62.464,28.916Zm-16.974.2a30.819,30.819,0,0,0-3.6-1.476,30.622,30.622,0,0,0,3.073,2.387,5.663,5.663,0,0,0-.48,2.1,5.663,5.663,0,0,0-2.072-.638,30.8,30.8,0,0,0-.52-3.853A30.636,30.636,0,0,0,41.36,31.5a5.663,5.663,0,0,0-2.061.637,5.661,5.661,0,0,0-.484-2.114,30.7,30.7,0,0,0,3.077-2.377,30.578,30.578,0,0,0-3.6,1.466A5.669,5.669,0,0,0,36.7,27.644a5.669,5.669,0,0,0,1.594-1.476,30.807,30.807,0,0,0,3.6,1.476,30.613,30.613,0,0,0-3.072-2.386,5.671,5.671,0,0,0,.48-2.1,5.662,5.662,0,0,0,2.072.638,30.771,30.771,0,0,0,.521,3.853,30.587,30.587,0,0,0,.532-3.854,5.666,5.666,0,0,0,2.061-.637,5.658,5.658,0,0,0,.484,2.113,30.764,30.764,0,0,0-3.076,2.377,30.6,30.6,0,0,0,3.6-1.466,5.672,5.672,0,0,0,1.588,1.466A5.668,5.668,0,0,0,45.49,29.12Zm9.238-16.146a7.625,7.625,0,0,1,3.73-1.179c1.9,0,3.534,1.169,4.866,3.476a6.738,6.738,0,0,1,1.09,4.591c-.294,1.523-1.438,2.87-3.4,4a17.755,17.755,0,0,1-8.379,2.226,6.625,6.625,0,0,1-4.491-1.271l.355-.194c1.59-.874,3.146-1.816,4.65-2.831a32.836,32.836,0,0,0,3.561-2.7,39.594,39.594,0,0,0-6.608,3.02q-1.336.732-2.634,1.533c-.287-1.217.177-2.956,1.321-4.827A17.932,17.932,0,0,1,54.728,12.974ZM41.892,2.9c4.23,0,6.287,2.059,6.287,6.3,0,5.17-2.814,10.808-5.607,11.627,0-.136.007-.272.01-.408.039-1.814,0-3.632-.127-5.443a32.923,32.923,0,0,0-.562-4.436,39.587,39.587,0,0,0-.688,7.233q-.034,1.526.008,3.054C38.419,20,35.605,14.362,35.605,9.193,35.605,4.956,37.662,2.9,41.892,2.9ZM20.461,15.271c1.332-2.307,2.969-3.476,4.866-3.476a7.621,7.621,0,0,1,3.73,1.179c4.478,2.585,7.951,7.841,7.262,10.669l-.345-.212c-1.552-.94-3.145-1.817-4.777-2.611a32.838,32.838,0,0,0-4.123-1.731,39.578,39.578,0,0,0,5.92,4.212q1.3.791,2.647,1.516a6.621,6.621,0,0,1-4.492,1.272,17.755,17.755,0,0,1-8.379-2.226C19.1,21.745,18.346,18.934,20.461,15.271Zm8.6,27.044a7.626,7.626,0,0,1-3.73,1.179c-1.9,0-3.534-1.169-4.866-3.476a6.739,6.739,0,0,1-1.09-4.591c.294-1.523,1.438-2.87,3.4-4A17.757,17.757,0,0,1,31.148,29.2a6.623,6.623,0,0,1,4.491,1.271l-.355.194c-1.59.874-3.146,1.816-4.65,2.831A32.793,32.793,0,0,0,27.073,36.2a39.6,39.6,0,0,0,6.608-3.021q1.336-.732,2.634-1.533c.287,1.217-.177,2.956-1.321,4.827A17.937,17.937,0,0,1,29.056,42.315ZM41.893,52.391h0a6.74,6.74,0,0,1-4.52-1.351c-1.172-1.016-1.766-2.68-1.766-4.944,0-5.169,2.814-10.808,5.607-11.626,0,.136-.007.272-.01.408-.039,1.814,0,3.633.127,5.442a32.854,32.854,0,0,0,.562,4.436,39.594,39.594,0,0,0,.688-7.233q.034-1.525-.008-3.05c1.2.361,2.47,1.635,3.518,3.561A17.934,17.934,0,0,1,48.179,46.1C48.179,50.332,46.123,52.391,41.893,52.391ZM63.324,40.018c-1.332,2.307-2.968,3.476-4.866,3.476a7.623,7.623,0,0,1-3.73-1.179,17.936,17.936,0,0,1-5.937-5.841c-1.144-1.871-1.608-3.61-1.321-4.826l.342.21c1.552.94,3.146,1.817,4.777,2.611A32.817,32.817,0,0,0,56.711,36.2a39.564,39.564,0,0,0-5.92-4.212q-1.3-.791-2.647-1.516A6.622,6.622,0,0,1,52.637,29.2a17.756,17.756,0,0,1,8.379,2.226c1.961,1.132,3.1,2.478,3.4,4A6.737,6.737,0,0,1,63.324,40.018Z" transform="translate(0 0)"/>
  </g>
</svg>
