<svg xmlns="http://www.w3.org/2000/svg" width="40.857" height="54" viewBox="0 0 40.857 54">
  <g id="_135127" data-name="135127" transform="translate(-6.571)">
    <path id="Path_19326" data-name="Path 19326" d="M47.428,21.033a4.083,4.083,0,0,0-1.894-3.648V12h-5V9h-5V5h-5V0h-7V5h-5V9h-5v3h-5v5.344a4.066,4.066,0,0,0-1.963,3.689V21.2c0,.324.015.647.018.971h6.495a6.067,6.067,0,0,1,4.956,2.551C19.846,27.283,24.129,29,27,29s7.157-1.717,8.962-4.273a6.068,6.068,0,0,1,4.956-2.551h6.5c0-.333.017-.664.014-1ZM13.534,16.92c-.151-.013-.3-.019-.45-.019h-2.55V14h3Zm5,3.1a3.6,3.6,0,0,1-.446-.5c-.015-.021-.033-.041-.048-.062a6.007,6.007,0,0,0-2.506-2.027V11h3Zm5,2.726a11.349,11.349,0,0,1-3-1.064V7h3ZM28.534,5V23.582c-.252.043-.49.075-.723.1l-.082.008a7.861,7.861,0,0,1-1.406.006l-.062-.006c-.234-.022-.474-.052-.727-.094V2h3Zm5,4V21.636a11.373,11.373,0,0,1-3,1.1V7h3Zm5,3v5.4a6.012,6.012,0,0,0-2.575,2.057c-.017.023-.037.045-.054.069a3.858,3.858,0,0,1-.372.436V11h3v1Zm5,4.9H40.915c-.126,0-.253,0-.381.013V14h3Z"/>
    <path id="Path_19327" data-name="Path 19327" d="M39.328,50.612A71.749,71.749,0,0,0,27.034,49c-5.806,0-14.332,1.927-14.417,1.946l-.853.2A4.8,4.8,0,0,0,15.969,54H38.03a4.6,4.6,0,0,0,4.3-2.94l-.637-.072A13.358,13.358,0,0,1,39.328,50.612Z"/>
    <path id="Path_19328" data-name="Path 19328" d="M37.593,25.881C35.359,29.043,30.353,31,27,31s-8.356-1.957-10.591-5.119a4.066,4.066,0,0,0-3.322-1.7H6.626a87.569,87.569,0,0,0,4.481,25.066L12.171,49c.359-.082,8.834-2,14.863-2a73.212,73.212,0,0,1,12.678,1.65c.458.089.924.181,1.279.246l1.948.22a85.352,85.352,0,0,0,4.447-24.941H40.915A4.067,4.067,0,0,0,37.593,25.881ZM27.534,45c-4.411,0-8-2.691-8-6s3.589-6,8-6,8,2.691,8,6S31.945,45,27.534,45Z"/>
  </g>
</svg>
