<svg xmlns="http://www.w3.org/2000/svg" width="58.393" height="53.066" viewBox="0 0 58.393 53.066">
  <g id="_135182" data-name="135182" transform="translate(0.001 -2.663)">
    <path id="Path_19329" data-name="Path 19329" d="M57.51,18.857c-.009-.024-.028-.041-.038-.064a19.94,19.94,0,0,0-.782-2.431l-2.812,2.306q.607,1.1,1.126,2.235l1.3,3.727a6.534,6.534,0,0,1-.568,1.949,6.758,6.758,0,0,1-3.529,3.227L34.388,37.03a11.91,11.91,0,0,0-.3-2.187,1.644,1.644,0,0,1-.039-.274L54.327,26.14c.117-.048.218-.118.33-.173L53.15,21.649c-.4-.866-.829-1.733-1.316-2.587l-.007,0a.6.6,0,0,1-.037-.071,19.4,19.4,0,0,0-3.3-4.315.872.872,0,0,1-.107-.051.966.966,0,0,1-.3-.322,18.905,18.905,0,0,0-5.329-3.386.968.968,0,0,1-.278-.056.986.986,0,0,1-.217-.147,30.072,30.072,0,0,0-6.273-1.726A.969.969,0,0,1,35.885,9a1,1,0,0,1-.359-.066c-.016-.006-.025-.019-.04-.026a63.37,63.37,0,0,0-13.43-.446c-.018,0-.033.01-.052.01s-.02-.006-.031-.006A137.757,137.757,0,0,0,7.194,10.24l-1.259.147L4.527,28.371c-1.821,1.161-5.663,4.307-4.2,9.463.515,1.818,1.356,2.887,2.5,3.174.209.053.55.227.5.545a86.478,86.478,0,0,0-1.091,9.713,4.091,4.091,0,0,0,1.111,3.065,5.625,5.625,0,0,0,3.96,1.4c.341,0,.565-.022.566-.023.375-.025,3.474-.3,4.5-2.446.627-1.312.3-2.912-.972-4.751l16.4-6.647.01,0a3.54,3.54,0,0,0,.62.25c.034.011.065.028.1.038a3.981,3.981,0,0,0,.787.134c.132.009.271.014.413.014h0c.04,0,.075-.01.114-.011a5.791,5.791,0,0,0,.915-.086c.119-.021.227-.059.342-.088a4.949,4.949,0,0,0,.507-.156c.141-.053.277-.111.409-.176a8.3,8.3,0,0,0,.746-.459,3.929,3.929,0,0,0,.564-.547c.021-.025.049-.042.07-.068a4.343,4.343,0,0,0,.722-1.388c0-.009.008-.016.011-.025L52.9,31.683a8.663,8.663,0,0,0,4.619-4.2C58.687,25.094,58.683,22.192,57.51,18.857ZM10.263,45.282c.2-.662.928-1.241,2.185-1.729L25.7,38.042a5.911,5.911,0,0,0,.595,2.269L10.42,46.748A2.325,2.325,0,0,1,10.263,45.282ZM24.8,31.832a2.22,2.22,0,0,1,.563-1.539,2.063,2.063,0,0,1,1.5-.7c.047,0,.115-.077.112-.193a2.156,2.156,0,0,1,2.067-2.235c.047,0,.115-.077.112-.193a1,1,0,0,1,.979-1.021,1.01,1.01,0,0,1,1.021.979,2.158,2.158,0,0,1-2.068,2.236c-.047,0-.114.076-.111.192A2.158,2.158,0,0,1,26.914,31.6c-.074,0-.113.117-.112.191a1,1,0,0,1-.977,1.022H25.8A1,1,0,0,1,24.8,31.832ZM41.669,15.746a6.492,6.492,0,0,1,2.823.451,3.387,3.387,0,0,1,1.844,3.363c0,3.365-3.439,6.1-7.667,6.1-3.577,0-6.667,0-6.667-4.1C32,17.77,40.1,15.746,41.669,15.746ZM25.778,9.838a2.7,2.7,0,0,1,1.99.347,2.536,2.536,0,0,1,1.164,1.653.642.642,0,0,0,.79.446,2.7,2.7,0,0,1,1.989.347,2.536,2.536,0,0,1,1.164,1.653.558.558,0,0,0,.258.358.717.717,0,0,0,.53.087,1,1,0,0,1,.406,1.959,2.789,2.789,0,0,1-.566.058,2.7,2.7,0,0,1-1.423-.4,2.534,2.534,0,0,1-1.163-1.653.559.559,0,0,0-.259-.358.7.7,0,0,0-.53-.087,2.649,2.649,0,0,1-3.153-2,.559.559,0,0,0-.259-.358.7.7,0,0,0-.53-.087,1,1,0,0,1-.408-1.96Zm.655,11.055a.57.57,0,0,0,.442,0,.721.721,0,0,0,.378-.382,1,1,0,0,1,1.831.8,2.715,2.715,0,0,1-1.436,1.421,2.536,2.536,0,0,1-2.021-.011.566.566,0,0,0-.442,0,.721.721,0,0,0-.378.382,2.642,2.642,0,0,1-3.458,1.409.566.566,0,0,0-.442,0,.721.721,0,0,0-.378.382,1,1,0,0,1-1.831-.8,2.718,2.718,0,0,1,1.436-1.421,2.536,2.536,0,0,1,2.021.011.646.646,0,0,0,.821-.385,2.714,2.714,0,0,1,1.435-1.42A2.53,2.53,0,0,1,26.433,20.893Zm-7.068-10.1c1.407,0,4.667,0,4.667,3.813,0,3.365-3.439,6.1-7.667,6.1-3.578,0-6.667,0-6.667-4.1C9.7,12.812,17.792,10.788,19.365,10.788ZM7.379,32.827c0-3.79,8.093-5.813,9.667-5.813,1.407,0,4.667,0,4.667,3.813,0,3.365-3.439,6.1-7.667,6.1C10.469,36.931,7.379,36.931,7.379,32.827Z"/>
    <circle id="Ellipse_90" data-name="Ellipse 90" cx="1" cy="1" r="1" transform="translate(35.504 20.837)"/>
    <circle id="Ellipse_91" data-name="Ellipse 91" cx="1" cy="1" r="1" transform="translate(40.722 18.189)"/>
    <circle id="Ellipse_92" data-name="Ellipse 92" cx="1" cy="1" r="1" transform="translate(39.41 20.705)"/>
    <circle id="Ellipse_93" data-name="Ellipse 93" cx="1" cy="1" r="1" transform="translate(13.256 16.07)"/>
    <circle id="Ellipse_94" data-name="Ellipse 94" cx="1" cy="1" r="1" transform="translate(19.088 14.746)"/>
    <circle id="Ellipse_95" data-name="Ellipse 95" cx="1" cy="1" r="1" transform="translate(15.865 13.746)"/>
    <circle id="Ellipse_96" data-name="Ellipse 96" cx="1" cy="1" r="1" transform="translate(11.006 32.134)"/>
    <circle id="Ellipse_97" data-name="Ellipse 97" cx="1" cy="1" r="1" transform="translate(14.256 29.81)"/>
    <circle id="Ellipse_98" data-name="Ellipse 98" cx="1" cy="1" r="1" transform="translate(15.865 31.81)"/>
    <path id="Path_19330" data-name="Path 19330" d="M13,7.339V3.665c-.785.108-1.536.216-2.2.321A5.635,5.635,0,0,0,6.16,8.347l.75-.087Q10.1,7.719,13,7.339Z"/>
    <path id="Path_19331" data-name="Path 19331" d="M51,8.9A23.8,23.8,0,0,0,45.678,5.83L44.153,9.461a21.349,21.349,0,0,1,4.569,2.853Z"/>
    <path id="Path_19332" data-name="Path 19332" d="M21,2.858c-2.151.137-4.174.332-6,.551V7.1q3.163-.371,6-.557Z"/>
    <path id="Path_19333" data-name="Path 19333" d="M36.6,3.365A60.037,60.037,0,0,0,30,2.731V6.42c1.882.09,3.617.26,5.226.5Z"/>
    <path id="Path_19334" data-name="Path 19334" d="M43.815,5.1a38.343,38.343,0,0,0-5.208-1.387L37.238,7.265a32.363,32.363,0,0,1,5.073,1.416Z"/>
    <path id="Path_19335" data-name="Path 19335" d="M28,6.354V2.689c-.416-.006-.817-.026-1.241-.026-1.275,0-2.528.036-3.759.089v3.68Q25.644,6.315,28,6.354Z"/>
    <path id="Path_19336" data-name="Path 19336" d="M52.833,16.938l2.98-2.444a17.434,17.434,0,0,0-3.287-4.274l-2.313,3.464A21.194,21.194,0,0,1,52.833,16.938Z"/>
  </g>
</svg>
