<svg xmlns="http://www.w3.org/2000/svg" width="51" height="51" viewBox="0 0 51 51">
  <g id="_135129" data-name="135129" transform="translate(0 0)">
    <path id="Path_19319" data-name="Path 19319" d="M49,34.379a1,1,0,0,0-1,1,2,2,0,0,1-4,0H42a2,2,0,0,1-4,0H36a2,2,0,0,1-4,0H30a2,2,0,0,1-4,0H24a2,2,0,0,1-4,0H18a2,2,0,0,1-4,0H12a2,2,0,0,1-4,0H6a2,2,0,0,1-4,0,1,1,0,0,0-2,0,4,4,0,0,0,7,2.643,3.995,3.995,0,0,0,6,0,3.995,3.995,0,0,0,6,0,3.995,3.995,0,0,0,6,0,3.995,3.995,0,0,0,6,0,3.995,3.995,0,0,0,6,0,3.995,3.995,0,0,0,6,0,4,4,0,0,0,7-2.643A1,1,0,0,0,49,34.379Z"/>
    <path id="Path_19320" data-name="Path 19320" d="M48,26.829V22.1a.826.826,0,0,0,.02-.1,1,1,0,0,0-.422-.816L26.707.293a1,1,0,0,0-1.414,0l-21,21,0,0a.988.988,0,0,0-.191.283c-.014.031-.022.063-.034.095a.953.953,0,0,0-.053.264c0,.022-.013.04-.013.062v3.222c-2.451.706-4,2.321-4,4.278C0,32.065,3.439,34,8,34a14.234,14.234,0,0,0,3.08-.324L7.905,31.66l3.571-2.268L11.1,29h2.707a.975.975,0,0,1,.193.5c0,.418-.377.9-1.036,1.316l-1.329.844,1.329.844A11.6,11.6,0,0,0,19,34a13.639,13.639,0,0,0,3.912-.539l-2.6-2.165,2.221-1.851L22.107,29h2.706a.982.982,0,0,1,.187.5,1.517,1.517,0,0,1-.64,1.027l-.922.769.922.769A10.741,10.741,0,0,0,31,34a13.835,13.835,0,0,0,3.664-.471l-2.725-2.154,2.629-1.99L34.249,29h2.563a.991.991,0,0,1,.188.5,1.682,1.682,0,0,1-.762,1.129l-1.031.78,1.014.8C37.637,33.331,40.171,34,43,34c3.976,0,8-1.374,8-4C51,28.689,49.913,27.559,48,26.829ZM36,17a1,1,0,1,1-1,1A1,1,0,0,1,36,17Zm-7-3a1,1,0,1,1-1,1A1,1,0,0,1,29,14ZM25,8a1,1,0,1,1-1,1A1,1,0,0,1,25,8Zm-2,7a1,1,0,1,1-1,1A1,1,0,0,1,23,15Zm-7,2a1,1,0,1,1-1,1A1,1,0,0,1,16,17Zm4.189,10H7.5c-1.164,0-1.415-.2-1.419-.2a1.966,1.966,0,0,1-.053-.458c-.006-.122-.016-.244-.028-.366V23H46v4H20.189Z"/>
    <path id="Path_19321" data-name="Path 19321" d="M47,41H5a1,1,0,0,0-1,1v8a1,1,0,0,0,1,1H47a1,1,0,0,0,1-1V42A1,1,0,0,0,47,41ZM9,48a1,1,0,1,1,1-1A1,1,0,0,1,9,48Zm8-2a1,1,0,1,1,1-1A1,1,0,0,1,17,46Zm9,2a1,1,0,1,1,1-1A1,1,0,0,1,26,48Zm7-2a1,1,0,1,1,1-1A1,1,0,0,1,33,46Zm8,2a1,1,0,1,1,1-1A1,1,0,0,1,41,48Z"/>
  </g>
</svg>
