<svg xmlns="http://www.w3.org/2000/svg" width="18" height="18" viewBox="0 0 18 18">
  <g id="Group_27034" data-name="Group 27034" transform="translate(-929.37 -646.37)">
    <circle id="Ellipse_99" data-name="Ellipse 99" cx="9" cy="9" r="9" transform="translate(929.37 646.37)" fill="#dbdbe6"/>
    <g id="_151776" data-name="151776" transform="translate(935.674 648.785)">
      <path id="Path_19352" data-name="Path 19352" d="M36.371,10.889l-.171.7q-.768.3-1.225.461a3.23,3.23,0,0,1-1.062.159,2.12,2.12,0,0,1-1.445-.453,1.467,1.467,0,0,1-.516-1.151,4.072,4.072,0,0,1,.038-.554q.039-.283.125-.64l.639-2.263q.085-.325.144-.616A2.678,2.678,0,0,0,32.958,6a.82.82,0,0,0-.179-.6,1.011,1.011,0,0,0-.684-.171,1.792,1.792,0,0,0-.508.078c-.174.051-.323.1-.447.147l.171-.7q.628-.256,1.2-.438A3.6,3.6,0,0,1,33.6,4.13a2.068,2.068,0,0,1,1.423.446,1.48,1.48,0,0,1,.5,1.159c0,.1-.011.272-.034.519a3.474,3.474,0,0,1-.128.683l-.637,2.254a5.986,5.986,0,0,0-.14.621,3.2,3.2,0,0,0-.062.527.759.759,0,0,0,.2.612,1.132,1.132,0,0,0,.7.163,2.011,2.011,0,0,0,.527-.081A2.945,2.945,0,0,0,36.371,10.889Zm.161-9.464a1.319,1.319,0,0,1-.445,1,1.516,1.516,0,0,1-1.072.415,1.533,1.533,0,0,1-1.078-.415,1.316,1.316,0,0,1-.45-1,1.329,1.329,0,0,1,.45-1.007,1.591,1.591,0,0,1,2.151,0A1.332,1.332,0,0,1,36.532,1.426Z" transform="translate(-31.139 0)" fill="#7f7d97"/>
    </g>
  </g>
</svg>
