<svg xmlns="http://www.w3.org/2000/svg" width="64.403" height="64.403" viewBox="0 0 64.403 64.403">
  <g id="_1014878" data-name="1014878" transform="translate(32.202) rotate(45)">
    <g id="Group_26278" data-name="Group 26278">
      <path id="Path_19337" data-name="Path 19337" d="M44.206,0H38.869a1.333,1.333,0,0,0-1.334,1.334V6.118L6.3,37.357H1.334A1.333,1.333,0,0,0,0,38.691v5.515A1.333,1.333,0,0,0,1.334,45.54H6.849a1.333,1.333,0,0,0,1.334-1.334V39.244L39.422,8.005h4.784A1.333,1.333,0,0,0,45.54,6.671V1.334A1.333,1.333,0,0,0,44.206,0Z"/>
    </g>
  </g>
</svg>
