<svg id="amazonpay-icon" xmlns="http://www.w3.org/2000/svg" width="135.068" height="25.875" viewBox="0 0 135.068 25.875">
  <path id="Shape" d="M10.5,222.028a.548.548,0,0,1-.628.064,6.431,6.431,0,0,1-1.521-1.77,5.266,5.266,0,0,1-4.38,1.93A3.77,3.77,0,0,1,0,218.112a4.529,4.529,0,0,1,2.821-4.34,18.416,18.416,0,0,1,4.993-.922v-.343a3.419,3.419,0,0,0-.322-1.928A1.769,1.769,0,0,0,6,209.89a2.025,2.025,0,0,0-2.137,1.594.557.557,0,0,1-.47.489l-2.553-.28a.47.47,0,0,1-.395-.555c.59-3.122,3.411-4.065,5.939-4.065a6.006,6.006,0,0,1,4,1.321c1.291,1.208,1.175,2.821,1.175,4.573V217.1a3.619,3.619,0,0,0,1,2.462.51.51,0,0,1,0,.705c-.543.454-1.507,1.291-2.036,1.763h0Zm-2.678-6.475a5.252,5.252,0,0,1-.5,2.821,2.159,2.159,0,0,1-1.841,1.208c-1.018,0-1.613-.776-1.613-1.928,0-2.262,2.029-2.673,3.95-2.673v.571Z" transform="translate(0 -207.038)" fill="#232f3e" fill-rule="evenodd"/>
  <path id="Path_00000111892064443368038330000016638241374509145249_" d="M58.667,221.884H56.012a.5.5,0,0,1-.47-.449V207.8a.5.5,0,0,1,.508-.487h2.476a.5.5,0,0,1,.47.47v1.78h.049a3.5,3.5,0,0,1,3.5-2.525c1.636,0,2.7.8,3.446,2.525a3.921,3.921,0,0,1,6.754-1.046c.844,1.147.67,2.821.67,4.274v8.6a.5.5,0,0,1-.512.492H70.245a.5.5,0,0,1-.47-.489v-7.227a17.377,17.377,0,0,0-.075-2.553,1.384,1.384,0,0,0-1.561-1.176,1.763,1.763,0,0,0-1.587,1.117,8.258,8.258,0,0,0-.249,2.612v7.225a.5.5,0,0,1-.51.492H63.131a.5.5,0,0,1-.47-.489v-7.227c0-1.521.235-3.762-1.646-3.762s-1.834,2.179-1.834,3.762v7.225a.5.5,0,0,1-.512.492" transform="translate(-40.888 -206.997)" fill="#232f3e" fill-rule="evenodd"/>
  <path id="Path_29081" data-name="Path 29081" d="M144.524,219.528a3.618,3.618,0,0,1-1-2.459v-4.138c0-1.754.125-3.364-1.175-4.573a6.014,6.014,0,0,0-4-1.321c-2.527,0-5.348.94-5.941,4.065a.47.47,0,0,0,.4.557l2.574.277a.559.559,0,0,0,.47-.489,2.024,2.024,0,0,1,2.135-1.594,1.763,1.763,0,0,1,1.491.691,3.389,3.389,0,0,1,.325,1.925v.336a18.311,18.311,0,0,0-4.993.919,4.513,4.513,0,0,0-2.833,4.342,3.769,3.769,0,0,0,3.975,4.138,5.267,5.267,0,0,0,4.377-1.93,6.436,6.436,0,0,0,1.523,1.77.553.553,0,0,0,.628-.061h0c.529-.47,1.493-1.309,2.036-1.763C144.74,220.059,144.7,219.772,144.524,219.528Zm-5.219-1.192a2.158,2.158,0,0,1-1.838,1.206c-1.018,0-1.613-.776-1.613-1.925,0-2.264,2.029-2.673,3.95-2.673v.574A5.26,5.26,0,0,1,139.3,218.336Z" transform="translate(-97.154 -207.011)" fill="#232f3e" fill-rule="evenodd"/>
  <path id="Path_29082" data-name="Path 29082" d="M186.689,210.376v-1.949a.47.47,0,0,1,.5-.491h8.729a.487.487,0,0,1,.5.492V210.1a2.673,2.673,0,0,1-.656,1.225l-4.523,6.456a9.669,9.669,0,0,1,4.979,1.07.889.889,0,0,1,.47.759V221.7a.468.468,0,0,1-.644.447,10.053,10.053,0,0,0-9.223.016c-.3.162-.621-.165-.621-.451v-1.987a2.35,2.35,0,0,1,.325-1.338l5.24-7.523h-4.57a.487.487,0,0,1-.505-.491" transform="translate(-137.072 -207.672)" fill="#232f3e" fill-rule="evenodd"/>
  <path id="Path_29083" data-name="Path 29083" d="M236.768,209.794c-1.958,0-2.083,2.666-2.083,4.33s-.023,5.219,2.057,5.219,2.158-2.868,2.158-4.617a12.566,12.566,0,0,0-.4-3.613A1.669,1.669,0,0,0,236.768,209.794Zm-.026-2.784c3.943,0,6.075,3.385,6.075,7.688,0,4.159-2.351,7.457-6.075,7.457-3.867,0-5.974-3.385-5.974-7.6S232.9,207.01,236.742,207.01Z" transform="translate(-169.885 -206.991)" fill="#232f3e" fill-rule="evenodd"/>
  <path id="Path_29084" data-name="Path 29084" d="M287.217,221.8H284.57a.5.5,0,0,1-.47-.489V207.672a.5.5,0,0,1,.51-.447h2.464a.5.5,0,0,1,.47.381v2.085h.052c.743-1.864,1.784-2.753,3.618-2.753a3.493,3.493,0,0,1,3.1,1.606c.694,1.091.694,2.927.694,4.246v8.579a.506.506,0,0,1-.51.428h-2.671a.5.5,0,0,1-.47-.428v-7.4c0-1.491.174-3.672-1.662-3.672a1.744,1.744,0,0,0-1.538,1.091,6.077,6.077,0,0,0-.421,2.586v7.337a.508.508,0,0,1-.517.489" transform="translate(-209.146 -206.938)" fill="#232f3e" fill-rule="evenodd"/>
  <path id="Path_29085" data-name="Path 29085" d="M359.705,209.668a6.215,6.215,0,0,0-3.731,1.281v7.758a6.036,6.036,0,0,0,3.675,1.338q3.841,0,3.841-5.172t-3.785-5.207v0Zm-3.926-.362a7.846,7.846,0,0,1,2.255-1.392,6.618,6.618,0,0,1,2.45-.47,5.723,5.723,0,0,1,2.424.489,4.964,4.964,0,0,1,1.836,1.448,6.747,6.747,0,0,1,1.157,2.313,10.677,10.677,0,0,1,.4,3.056,10.52,10.52,0,0,1-.433,3.117,7.1,7.1,0,0,1-1.211,2.367,5.481,5.481,0,0,1-1.895,1.519,5.6,5.6,0,0,1-2.475.519,6.209,6.209,0,0,1-4.314-1.646v6.526a.491.491,0,0,1-.557.557h-1.646a.491.491,0,0,1-.557-.557v-18.74a.494.494,0,0,1,.557-.557H355a.588.588,0,0,1,.642.557l.139.891Z" transform="translate(-260.024 -207.31)" fill="#232f3e" fill-rule="evenodd"/>
  <path id="Path_29086" data-name="Path 29086" d="M415.155,220.311a5.7,5.7,0,0,0,1.921-.36A7.288,7.288,0,0,0,419,218.894v-2.842a14.094,14.094,0,0,0-1.462-.263,11.647,11.647,0,0,0-1.488-.1q-3.15,0-3.148,2.424a2.173,2.173,0,0,0,.585,1.629A2.289,2.289,0,0,0,415.155,220.311Zm-3.258-9.973-.209.07a.728.728,0,0,1-.235.042c-.235,0-.362-.167-.362-.5V209.2a.938.938,0,0,1,.113-.543,1.043,1.043,0,0,1,.444-.294,10.056,10.056,0,0,1,2.2-.614,14.678,14.678,0,0,1,2.617-.235,5.86,5.86,0,0,1,3.9,1.084,4.226,4.226,0,0,1,1.255,3.369v9.512a.494.494,0,0,1-.557.557h-1.2a.557.557,0,0,1-.611-.529l-.141-.919a7.6,7.6,0,0,1-2.212,1.335,6.553,6.553,0,0,1-2.41.47,4.382,4.382,0,0,1-3.174-1.128,4.41,4.41,0,0,1,.273-6.265,5.868,5.868,0,0,1,3.9-1.211,15.046,15.046,0,0,1,3.508.47v-1.829a2.778,2.778,0,0,0-.668-2.116,3.478,3.478,0,0,0-2.339-.614A14.373,14.373,0,0,0,411.9,210.338Z" transform="translate(-301.929 -207.364)" fill="#232f3e" fill-rule="evenodd"/>
  <path id="Path_29087" data-name="Path 29087" d="M467.794,225.589a6.86,6.86,0,0,1-1.742,2.758,3.853,3.853,0,0,1-2.586.835,5.912,5.912,0,0,1-1.587-.2.812.812,0,0,1-.447-.266.942.942,0,0,1-.139-.569v-.724c0-.353.139-.529.418-.529a2.535,2.535,0,0,1,.418.054,3.923,3.923,0,0,0,.75.056,2.453,2.453,0,0,0,1.646-.5,4.325,4.325,0,0,0,1.058-1.838l.529-1.411L460.748,210a2.121,2.121,0,0,1-.193-.67c0-.221.129-.334.388-.334h1.672a1,1,0,0,1,.614.139,1.5,1.5,0,0,1,.331.614l3.9,10.8,3.762-10.8a1.5,1.5,0,0,1,.332-.614,1.006,1.006,0,0,1,.614-.139h1.559c.261,0,.39.113.39.334a2.143,2.143,0,0,1-.2.67l-6.127,15.592" transform="translate(-339.047 -208.448)" fill="#232f3e" fill-rule="evenodd"/>
  <path id="Path_29088" data-name="Path 29088" d="M86.849,270.751c-4.986,3.679-12.225,5.642-18.441,5.642A33.366,33.366,0,0,1,45.886,267.8c-.47-.421-.052-1,.51-.67a45.334,45.334,0,0,0,22.537,5.979,44.871,44.871,0,0,0,17.193-3.526c.842-.358,1.549.555.724,1.175m2.073-2.367c.64.816-.705,4.182-1.309,5.685-.183.454.209.637.621.294,2.673-2.238,3.364-6.926,2.821-7.6s-5.219-1.251-8.073.755c-.44.308-.364.733.125.675,1.606-.193,5.184-.623,5.821.2" transform="translate(-33.63 -250.518)" fill="#f90" fill-rule="evenodd"/>
</svg>
