<svg id="appstore" xmlns="http://www.w3.org/2000/svg" width="185.036" height="57.824" viewBox="0 0 185.036 57.824">
  <path id="Path_24" data-name="Path 24" d="M223.454,76.824H49.982A5.8,5.8,0,0,1,44.2,71.042V24.782A5.8,5.8,0,0,1,49.982,19H223.454a5.8,5.8,0,0,1,5.782,5.782V71.042A5.8,5.8,0,0,1,223.454,76.824Z" transform="translate(-44.2 -19)"/>
  <path id="Path_25" data-name="Path 25" d="M78.666,42.018a8.382,8.382,0,0,1,3.9-6.794,9.007,9.007,0,0,0-6.505-3.614c-2.747-.289-5.493,1.59-6.794,1.59-1.446,0-3.614-1.59-5.927-1.59a8.588,8.588,0,0,0-7.373,4.481c-3.18,5.493-.867,13.589,2.168,18.07,1.59,2.168,3.325,4.626,5.638,4.481S66.957,57.2,69.7,57.2s3.469,1.446,5.927,1.446,4.048-2.168,5.493-4.337a16.57,16.57,0,0,0,2.458-5.06C83.437,49.1,78.666,47.366,78.666,42.018Z" transform="translate(-39.635 -13.395)" fill="#fff"/>
  <path id="Path_26" data-name="Path 26" d="M69.72,31.382A8.965,8.965,0,0,0,71.6,25.6a7.742,7.742,0,0,0-5.2,2.747,7.31,7.31,0,0,0-1.879,5.493A6.867,6.867,0,0,0,69.72,31.382Z" transform="translate(-35.17 -16.059)" fill="#fff"/>
  <path id="Path_27" data-name="Path 27" d="M98.812,55.848h-3.18L93.9,50.355H87.826l-1.59,5.493H83.2L89.272,37.2H93.03Zm-5.493-7.806-1.59-4.915c-.145-.434-.434-1.735-1.012-3.469h0c-.145.723-.434,2.024-.867,3.469l-1.59,4.915Z" transform="translate(-26.822 -10.89)" fill="#fff"/>
  <path id="Path_28" data-name="Path 28" d="M108.71,47.494a7.7,7.7,0,0,1-1.879,5.493,5.561,5.561,0,0,1-4.192,1.735,3.935,3.935,0,0,1-3.759-1.879h0v7.083H95.845V45.47c0-1.446,0-2.891-.145-4.481h2.6l.145,2.168h0a4.981,4.981,0,0,1,4.481-2.458,4.662,4.662,0,0,1,3.9,1.879A6.125,6.125,0,0,1,108.71,47.494Zm-3.036,0a5.194,5.194,0,0,0-.867-3.18,2.919,2.919,0,0,0-2.6-1.3,3.454,3.454,0,0,0-2.024.723,3.214,3.214,0,0,0-1.156,1.879,2.543,2.543,0,0,0-.145.867V48.8a3.648,3.648,0,0,0,.867,2.458,2.876,2.876,0,0,0,2.313,1.012,2.919,2.919,0,0,0,2.6-1.3A5.222,5.222,0,0,0,105.675,47.494Z" transform="translate(-21.252 -9.331)" fill="#fff"/>
  <path id="Path_29" data-name="Path 29" d="M119.41,47.494a7.7,7.7,0,0,1-1.879,5.493,5.561,5.561,0,0,1-4.192,1.735,3.935,3.935,0,0,1-3.759-1.879h0v7.083h-3.036V45.47c0-1.446,0-2.891-.145-4.481H109l.145,2.168h0a4.981,4.981,0,0,1,4.481-2.458,4.662,4.662,0,0,1,3.9,1.879A6.125,6.125,0,0,1,119.41,47.494Zm-3.036,0a5.194,5.194,0,0,0-.867-3.18,2.919,2.919,0,0,0-2.6-1.3,3.454,3.454,0,0,0-2.024.723,3.214,3.214,0,0,0-1.156,1.879,2.544,2.544,0,0,0-.145.867V48.8a3.648,3.648,0,0,0,.867,2.458,2.876,2.876,0,0,0,2.313,1.012,2.919,2.919,0,0,0,2.6-1.3A5.222,5.222,0,0,0,116.375,47.494Z" transform="translate(-16.484 -9.331)" fill="#fff"/>
  <path id="Path_30" data-name="Path 30" d="M130.92,50.689a5.338,5.338,0,0,1-1.59,3.9c-1.156,1.156-2.891,1.59-5.06,1.59a8.937,8.937,0,0,1-4.77-1.156l.723-2.458a8.831,8.831,0,0,0,4.337,1.156,4.292,4.292,0,0,0,2.6-.723,2.625,2.625,0,0,0,.867-2.024,2.748,2.748,0,0,0-.723-1.879,7.244,7.244,0,0,0-2.6-1.446c-3.325-1.156-4.915-3.036-4.915-5.349a4.662,4.662,0,0,1,1.735-3.759A6.584,6.584,0,0,1,126.15,37.1a9.014,9.014,0,0,1,4.192.867l-.723,2.458a7.042,7.042,0,0,0-3.614-.867,4.135,4.135,0,0,0-2.458.723,2.394,2.394,0,0,0-.723,1.735,2.545,2.545,0,0,0,.867,1.879,11.216,11.216,0,0,0,2.747,1.446,9.752,9.752,0,0,1,3.614,2.313A5.818,5.818,0,0,1,130.92,50.689Z" transform="translate(-10.647 -10.935)" fill="#fff"/>
  <path id="Path_31" data-name="Path 31" d="M136.74,44.138h-3.325v6.505c0,1.59.578,2.458,1.735,2.458a3.209,3.209,0,0,0,1.3-.145l.145,2.313a5.3,5.3,0,0,1-2.313.289,3.4,3.4,0,0,1-2.747-1.012c-.723-.723-1.012-1.879-1.012-3.614V44.138H128.5V41.825h2.024V39.367l2.891-.867v3.325h3.325Z" transform="translate(-6.636 -10.311)" fill="#fff"/>
  <path id="Path_32" data-name="Path 32" d="M148.555,47.539a7.415,7.415,0,0,1-1.735,5.06,6.645,6.645,0,0,1-4.915,2.024,6.1,6.1,0,0,1-4.77-2.024,7.041,7.041,0,0,1-1.735-4.915,6.87,6.87,0,0,1,1.879-5.06,6.419,6.419,0,0,1,4.915-2.024,6.1,6.1,0,0,1,4.77,2.024A7.706,7.706,0,0,1,148.555,47.539Zm-3.18.145a5.5,5.5,0,0,0-.867-3.18,3.167,3.167,0,0,0-5.493,0,5.828,5.828,0,0,0-.867,3.18,5.5,5.5,0,0,0,.867,3.18,3.1,3.1,0,0,0,2.747,1.59,3.274,3.274,0,0,0,2.747-1.59A5.828,5.828,0,0,0,145.375,47.683Z" transform="translate(-3.562 -9.375)" fill="#fff"/>
  <path id="Path_33" data-name="Path 33" d="M153.473,43.536c-.289,0-.578-.145-1.012-.145A3.088,3.088,0,0,0,150,44.548a4.992,4.992,0,0,0-.723,2.6v7.083h-3.036V44.981a37.9,37.9,0,0,0-.145-4.192h2.6l.145,2.6h.145a5.719,5.719,0,0,1,1.446-2.168,4.3,4.3,0,0,1,2.168-.723h.723v3.036Z" transform="translate(1.206 -9.42)" fill="#fff"/>
  <path id="Path_34" data-name="Path 34" d="M164.1,46.961a3.209,3.209,0,0,1-.145,1.3h-8.963a3.734,3.734,0,0,0,1.3,3.036,4.656,4.656,0,0,0,2.891,1.012,9.492,9.492,0,0,0,3.614-.578l.434,2.024a10.776,10.776,0,0,1-4.481.867,6.325,6.325,0,0,1-4.915-1.879,6.8,6.8,0,0,1-1.735-4.915,8.131,8.131,0,0,1,1.59-5.06,5.775,5.775,0,0,1,4.77-2.168,4.811,4.811,0,0,1,4.337,2.168A6.069,6.069,0,0,1,164.1,46.961Zm-2.747-.723a4.242,4.242,0,0,0-.578-2.313,2.6,2.6,0,0,0-2.313-1.3,2.809,2.809,0,0,0-2.313,1.156,5.52,5.52,0,0,0-.867,2.313h6.072Z" transform="translate(3.88 -9.375)" fill="#fff"/>
  <path id="Path_35" data-name="Path 35" d="M91.917,30.637A4.7,4.7,0,0,1,90.472,34.4a5.983,5.983,0,0,1-3.9,1.156,9.572,9.572,0,0,1-2.168-.145V26.445A14.055,14.055,0,0,1,87,26.3a5.387,5.387,0,0,1,3.614,1.012A4.682,4.682,0,0,1,91.917,30.637Zm-1.59,0A3.02,3.02,0,0,0,87,27.312a2.818,2.818,0,0,0-1.156.145v6.794h1.012a3.534,3.534,0,0,0,2.6-.867A3.913,3.913,0,0,0,90.327,30.637Z" transform="translate(-26.287 -15.747)" fill="#fff"/>
  <path id="Path_36" data-name="Path 36" d="M97.205,31.369a3.4,3.4,0,0,1-.867,2.458,2.978,2.978,0,0,1-2.458,1.012,2.7,2.7,0,0,1-2.313-1.012,3.4,3.4,0,0,1-.867-2.458,3.4,3.4,0,0,1,.867-2.458A2.978,2.978,0,0,1,94.025,27.9a2.7,2.7,0,0,1,2.313,1.012A3.4,3.4,0,0,1,97.205,31.369Zm-1.446,0a2.914,2.914,0,0,0-.434-1.59,1.264,1.264,0,0,0-1.3-.723,1.518,1.518,0,0,0-1.3.723,3.132,3.132,0,0,0,0,3.18,1.264,1.264,0,0,0,1.3.723,1.389,1.389,0,0,0,1.3-.867A2.158,2.158,0,0,0,95.76,31.369Z" transform="translate(-23.48 -15.034)" fill="#fff"/>
  <path id="Path_37" data-name="Path 37" d="M105.885,28l-2.024,6.65h-1.3l-.867-2.891a12.043,12.043,0,0,1-.578-2.168h0a12.043,12.043,0,0,1-.578,2.168l-.867,2.891h-1.3L96.2,28h1.446l.723,3.18.434,2.168h0c.145-.578.289-1.3.578-2.168l.867-3.18H101.4l.867,3.036a12.043,12.043,0,0,1,.578,2.168h0l.434-2.168L104.151,28Z" transform="translate(-21.029 -14.99)" fill="#fff"/>
  <path id="Path_38" data-name="Path 38" d="M109.838,34.739h-1.446V30.98q0-1.735-1.3-1.735a1.312,1.312,0,0,0-1.012.434,1.641,1.641,0,0,0-.434,1.156v3.9H104.2v-6.65h1.3V29.1h0a3.833,3.833,0,0,1,.723-.867,2.332,2.332,0,0,1,1.3-.434,2.174,2.174,0,0,1,1.59.578,2.488,2.488,0,0,1,.723,2.168Z" transform="translate(-17.464 -15.079)" fill="#fff"/>
  <path id="Path_39" data-name="Path 39" d="M111.346,35.586H109.9V25.9h1.446Z" transform="translate(-14.924 -15.925)" fill="#fff"/>
  <path id="Path_40" data-name="Path 40" d="M118.905,31.369a3.4,3.4,0,0,1-.867,2.458,2.978,2.978,0,0,1-2.458,1.012,2.7,2.7,0,0,1-2.313-1.012,3.4,3.4,0,0,1-.867-2.458,3.4,3.4,0,0,1,.867-2.458,3.487,3.487,0,0,1,2.458-1.012,2.7,2.7,0,0,1,2.313,1.012A3.4,3.4,0,0,1,118.905,31.369Zm-1.446,0a2.914,2.914,0,0,0-.434-1.59,1.264,1.264,0,0,0-1.3-.723,1.518,1.518,0,0,0-1.3.723,3.132,3.132,0,0,0,0,3.18,1.264,1.264,0,0,0,1.3.723,1.389,1.389,0,0,0,1.3-.867A2.158,2.158,0,0,0,117.46,31.369Z" transform="translate(-13.81 -15.034)" fill="#fff"/>
  <path id="Path_41" data-name="Path 41" d="M123.449,34.694h-1.3L122,33.972h0a2.331,2.331,0,0,1-1.879.867,1.676,1.676,0,0,1-1.446-.578,2.6,2.6,0,0,1-.578-1.3,1.961,1.961,0,0,1,1.012-1.879A5.4,5.4,0,0,1,122,30.5v-.145a1.15,1.15,0,0,0-1.3-1.3,3.434,3.434,0,0,0-1.735.434l-.289-1.012a3.668,3.668,0,0,1,2.313-.578c1.735,0,2.6.867,2.6,2.747V33.1A7.094,7.094,0,0,0,123.449,34.694ZM122,32.381V31.369c-1.59,0-2.458.434-2.458,1.3a.988.988,0,0,0,1.012,1.012,2.055,2.055,0,0,0,.867-.289A1.443,1.443,0,0,0,122,32.67Z" transform="translate(-11.27 -15.034)" fill="#fff"/>
  <path id="Path_42" data-name="Path 42" d="M129.516,35.541h-1.3V34.529h0a2.133,2.133,0,0,1-2.168,1.156,2.625,2.625,0,0,1-2.024-.867,3.341,3.341,0,0,1-.723-2.458,4.036,4.036,0,0,1,.867-2.6,2.854,2.854,0,0,1,2.024-.867,2.148,2.148,0,0,1,1.879.867h0V26h1.446v9.541Zm-1.446-2.747V31.2a3.024,3.024,0,0,0-.578-.867,1.22,1.22,0,0,0-1.012-.289,1.518,1.518,0,0,0-1.3.723,3.083,3.083,0,0,0-.434,1.735,2.6,2.6,0,0,0,.434,1.59,1.518,1.518,0,0,0,1.3.723,1.315,1.315,0,0,0,1.156-.578A3.232,3.232,0,0,0,128.07,32.794Z" transform="translate(-8.953 -15.881)" fill="#fff"/>
  <path id="Path_43" data-name="Path 43" d="M138.305,31.369a3.4,3.4,0,0,1-.867,2.458,2.978,2.978,0,0,1-2.458,1.012,2.7,2.7,0,0,1-2.313-1.012,3.4,3.4,0,0,1-.867-2.458,3.4,3.4,0,0,1,.867-2.458,2.978,2.978,0,0,1,2.458-1.012,2.7,2.7,0,0,1,2.313,1.012A3.4,3.4,0,0,1,138.305,31.369Zm-1.59,0a2.914,2.914,0,0,0-.434-1.59,1.264,1.264,0,0,0-1.3-.723,1.518,1.518,0,0,0-1.3.723,3.132,3.132,0,0,0,0,3.18,1.264,1.264,0,0,0,1.3.723,1.389,1.389,0,0,0,1.3-.867A2.158,2.158,0,0,0,136.715,31.369Z" transform="translate(-5.166 -15.034)" fill="#fff"/>
  <path id="Path_44" data-name="Path 44" d="M143.538,34.739h-1.446V30.98q0-1.735-1.3-1.735a1.312,1.312,0,0,0-1.012.434,1.642,1.642,0,0,0-.434,1.156v3.9H137.9v-6.65h1.3V29.1h0a3.833,3.833,0,0,1,.723-.867,2.332,2.332,0,0,1,1.3-.434,2.174,2.174,0,0,1,1.59.578,2.488,2.488,0,0,1,.723,2.168Z" transform="translate(-2.448 -15.079)" fill="#fff"/>
  <path id="Path_45" data-name="Path 45" d="M149.8,29.647h-1.59v3.18c0,.867.289,1.156.867,1.156h.723V35.14a2.818,2.818,0,0,1-1.156.145,1.409,1.409,0,0,1-1.3-.578,2.779,2.779,0,0,1-.434-1.735V29.647H145.9V28.49h1.012V27.334l1.446-.434v1.59h1.59v1.156Z" transform="translate(1.117 -15.48)" fill="#fff"/>
  <path id="Path_46" data-name="Path 46" d="M155.738,35.586h-1.446V31.827q0-1.735-1.3-1.735a1.391,1.391,0,0,0-1.446,1.012v4.481H150.1V25.9h1.446v4.048h0a2.307,2.307,0,0,1,2.024-1.156,1.676,1.676,0,0,1,1.446.578,3.253,3.253,0,0,1,.723,2.168Z" transform="translate(2.989 -15.925)" fill="#fff"/>
  <path id="Path_47" data-name="Path 47" d="M161.282,31.036v.723h-4.337a1.927,1.927,0,0,0,.578,1.446,2.442,2.442,0,0,0,1.446.434,5.392,5.392,0,0,0,1.735-.289l.289,1.012a4.827,4.827,0,0,1-2.168.434,3.482,3.482,0,0,1-2.458-5.782A2.7,2.7,0,0,1,158.68,28a2.282,2.282,0,0,1,2.168,1.012A3.829,3.829,0,0,1,161.282,31.036Zm-1.3-.434a2.724,2.724,0,0,0-.289-1.156,1.173,1.173,0,0,0-1.156-.578,1.315,1.315,0,0,0-1.156.578,1.642,1.642,0,0,0-.434,1.156Z" transform="translate(5.395 -14.99)" fill="#fff"/>
</svg>
