<svg xmlns="http://www.w3.org/2000/svg" xmlns:xlink="http://www.w3.org/1999/xlink" width="58.375" height="58.373" viewBox="0 0 58.375 58.373">
  <defs>
    <filter id="call-icon" x="0" y="0" width="58.375" height="58.373" filterUnits="userSpaceOnUse">
      <feOffset dy="4" input="SourceAlpha"/>
      <feGaussianBlur stdDeviation="5" result="blur"/>
      <feFlood flood-color="#fa53a0" flood-opacity="0.522"/>
      <feComposite operator="in" in2="blur"/>
      <feComposite in="SourceGraphic"/>
    </filter>
  </defs>
  <g transform="matrix(1, 0, 0, 1, 0, 0)" filter="url(#call-icon)">
    <path id="call-icon-2" data-name="call-icon" d="M31.373,24.154v5.574A1.576,1.576,0,0,1,29.907,31.3c-.689.047-1.252.073-1.687.073A25.22,25.22,0,0,1,3,6.153q0-.653.073-1.687A1.576,1.576,0,0,1,4.646,3h5.574A.788.788,0,0,1,11,3.709c.036.363.069.651.1.87a21.912,21.912,0,0,0,1.9,6.307.718.718,0,0,1-.232.894l-3.4,2.431A20.566,20.566,0,0,0,20.164,25l2.427-3.4a.728.728,0,0,1,.9-.235,21.912,21.912,0,0,0,6.305,1.9c.219.032.508.066.867.1a.788.788,0,0,1,.708.785Z" transform="translate(12 8)" fill="#fa53a0"/>
  </g>
</svg>
