<svg id="check-icon" xmlns="http://www.w3.org/2000/svg" width="87.31" height="83.063" viewBox="0 0 87.31 83.063">
  <g id="Group_67740" data-name="Group 67740" transform="translate(0 0)">
    <path id="Path_29011" data-name="Path 29011" d="M290.5,53.969,280.613,43,282.161,28.3l-14.453-3.06-7.372-12.807-13.493,6.031-1.821,35.5,1.821,35.5L260.336,95.5l7.372-12.807,14.453-3.06-1.548-14.691Z" transform="translate(-203.187 -12.437)" fill="#fa53a0" opacity="0.51"/>
    <path id="Path_29012" data-name="Path 29012" d="M30.162,12.437,22.789,25.244,8.336,28.3,9.884,43,0,53.969,9.884,64.942,8.336,79.634l14.453,3.06L30.162,95.5,43.655,89.47v-71Z" transform="translate(0 -12.437)" fill="#fa53a0"/>
  </g>
  <g id="Group_67741" data-name="Group 67741" transform="translate(24.816 28.562)">
    <path id="Path_29013" data-name="Path 29013" d="M265.143,183.136l-3.821-3.411-14.48,16.223-1.821,4.032,1.821,3.66Z" transform="translate(-228.003 -179.725)" fill="#f7f0eb"/>
    <path id="Path_29014" data-name="Path 29014" d="M148.97,233.095l-3.622,3.622,15.227,15.227,3.612-4.047v-7.692l-3.823,4.283Z" transform="translate(-145.348 -223.983)" fill="#fffbf5"/>
  </g>
</svg>
