<svg xmlns="http://www.w3.org/2000/svg" xmlns:xlink="http://www.w3.org/1999/xlink" width="61.526" height="61.262" viewBox="0 0 61.526 61.262">
  <defs>
    <filter id="Path_18953" x="0" y="0" width="61.526" height="61.262" filterUnits="userSpaceOnUse">
      <feOffset dy="4" input="SourceAlpha"/>
      <feGaussianBlur stdDeviation="5" result="blur"/>
      <feFlood flood-color="#fa53a0" flood-opacity="0.522"/>
      <feComposite operator="in" in2="blur"/>
      <feComposite in="SourceGraphic"/>
    </filter>
  </defs>
  <g id="email-icon" transform="translate(11.847 9.16)">
    <path id="Path_18952" data-name="Path 18952" d="M0,0H37.831V37.831H0Z" fill="none"/>
    <g transform="matrix(1, 0, 0, 1, -11.85, -9.16)" filter="url(#Path_18953)">
      <path id="Path_18953-2" data-name="Path 18953" d="M2.383,10.131,16.959,1.392a1.576,1.576,0,0,1,1.622,0l14.562,8.741a.788.788,0,0,1,.383.676V30.853a1.576,1.576,0,0,1-1.576,1.576H3.576A1.576,1.576,0,0,1,2,30.853V10.807a.788.788,0,0,1,.383-.676Zm25.383,2.191L17.859,20.9,7.749,12.313l-2.04,2.4L17.878,25.047l11.95-10.34-2.062-2.385Z" transform="translate(13 9.83)" fill="#fa53a0"/>
    </g>
  </g>
</svg>
