<svg id="facebook-icon" xmlns="http://www.w3.org/2000/svg" width="24" height="24" viewBox="0 0 24 24">
  <path id="Path_174" data-name="Path 174" d="M24,12A12,12,0,0,1,13.875,23.854V15.469h2.8L17.2,12H13.875V9.749a1.734,1.734,0,0,1,1.956-1.874h1.513V4.922a18.458,18.458,0,0,0-2.686-.234c-2.741,0-4.532,1.661-4.532,4.669V12H7.078v3.469h3.047v8.385A12,12,0,1,1,24,12Z" fill="#1877f2"/>
  <path id="Path_175" data-name="Path 175" d="M160.593,110.781l.532-3.469H157.8v-2.251a1.734,1.734,0,0,1,1.956-1.874h1.513v-2.953a18.453,18.453,0,0,0-2.686-.234c-2.741,0-4.533,1.661-4.533,4.669v2.644H151v3.469h3.047v8.385a12.127,12.127,0,0,0,3.75,0v-8.385Z" transform="translate(-143.922 -95.313)" fill="#fff"/>
</svg>
