<svg id="g-pay-icon" xmlns="http://www.w3.org/2000/svg" width="74.689" height="29.305" viewBox="0 0 74.689 29.305">
  <g id="Pay_Typeface_3_" transform="translate(32.118 1.557)">
    <path id="Letter_p_3_" d="M222.912,178.925v8.64H220.17V166.229h7.269a6.556,6.556,0,0,1,4.7,1.842,6.152,6.152,0,0,1,0,9.025,6.545,6.545,0,0,1-4.7,1.814h-4.527Zm0-10.068v7.44H227.5a3.659,3.659,0,0,0,2.713-1.1,3.6,3.6,0,0,0,1.1-2.613,3.8,3.8,0,0,0-3.813-3.713h-4.584Z" transform="translate(-220.17 -166.229)" fill="#383e41"/>
    <path id="Letter_a_3_" d="M327.568,209.108a6.783,6.783,0,0,1,4.8,1.628,5.776,5.776,0,0,1,1.757,4.456v9H331.51v-2.028H331.4a5.215,5.215,0,0,1-4.527,2.5,5.877,5.877,0,0,1-4.042-1.428,4.56,4.56,0,0,1-1.628-3.57,4.312,4.312,0,0,1,1.714-3.6,7.19,7.19,0,0,1,4.57-1.342,7.989,7.989,0,0,1,4.013.9v-.628a3.111,3.111,0,0,0-1.128-2.428,3.871,3.871,0,0,0-2.656-1,4.166,4.166,0,0,0-3.627,1.942l-2.414-1.514A6.7,6.7,0,0,1,327.568,209.108Zm-3.542,10.6a2.162,2.162,0,0,0,.914,1.785,3.357,3.357,0,0,0,2.128.714,4.349,4.349,0,0,0,3.085-1.285,4.033,4.033,0,0,0,1.357-3.013,5.648,5.648,0,0,0-3.57-1.014,4.686,4.686,0,0,0-2.785.8A2.439,2.439,0,0,0,324.027,219.7Z" transform="translate(-306.461 -202.853)" fill="#383e41"/>
    <path id="Letter_y_3_" d="M426.544,212.338,417.4,233.36h-2.828l3.4-7.355-6.026-13.667h2.985l4.341,10.482h.057l4.227-10.482h2.985Z" transform="translate(-383.973 -205.612)" fill="#383e41"/>
  </g>
  <path id="Path_29089" data-name="Path 29089" d="M95.342,223.684H83.849V228.4h6.619a5.67,5.67,0,0,1-2.456,3.8h0l-.119,2.817,4.059.239h0a11.977,11.977,0,0,0,3.619-9A14.448,14.448,0,0,0,95.342,223.684Z" transform="translate(-71.617 -213.746)" fill="#0085f7"/>
  <path id="Path_29090" data-name="Path 29090" d="M24.017,256.186h0a7.413,7.413,0,0,1-11.029-3.878h0L9.6,251.773l-.675,3.689A12.235,12.235,0,0,0,19.856,262.2a11.669,11.669,0,0,0,8.1-2.956h0Z" transform="translate(-7.621 -237.737)" fill="#00a94b"/>
  <path id="Path_29091" data-name="Path 29091" d="M4.983,207.239a7.375,7.375,0,0,1,.383-2.341l-1.058-3.153H1.3a12.251,12.251,0,0,0,0,10.988h0l4.064-3.153h0A7.374,7.374,0,0,1,4.983,207.239Z" transform="translate(0 -195.007)" fill="#fb0"/>
  <path id="Path_29092" data-name="Path 29092" d="M19.852,155.558A12.237,12.237,0,0,0,8.918,162.3l4.064,3.153a7.319,7.319,0,0,1,6.869-5.05,6.649,6.649,0,0,1,4.694,1.835l3.492-3.489A11.752,11.752,0,0,0,19.852,155.558Z" transform="translate(-7.617 -155.558)" fill="#ff4031"/>
</svg>
