<svg id="google-icon" xmlns="http://www.w3.org/2000/svg" width="24.695" height="24.695" viewBox="0 0 24.695 24.695">
  <path id="Path_168" data-name="Path 168" d="M277.577,213.9H267.5a.8.8,0,0,0-.8.8v3.22a.8.8,0,0,0,.8.8h5.674a7.563,7.563,0,0,1-3.257,3.818l2.417,4.188a12.11,12.11,0,0,0,6.171-10.587,8.344,8.344,0,0,0-.137-1.581A.814.814,0,0,0,277.577,213.9Z" transform="translate(-253.813 -203.699)" fill="#167ee6"/>
  <path id="Path_169" data-name="Path 169" d="M65.087,329.26a7.514,7.514,0,0,1-6.5-3.76L54.4,327.911a12.336,12.336,0,0,0,16.863,4.527v-.005l-2.417-4.188A7.45,7.45,0,0,1,65.087,329.26Z" transform="translate(-52.74 -309.398)" fill="#12b347"/>
  <path id="Path_170" data-name="Path 170" d="M262.671,381.593v-.005l-2.417-4.188a7.47,7.47,0,0,1-3.754,1.015v4.833A12.293,12.293,0,0,0,262.671,381.593Z" transform="translate(-244.153 -358.554)" fill="#0f993e"/>
  <path id="Path_171" data-name="Path 171" d="M27.833,144.066a7.47,7.47,0,0,1,1.015-3.754L24.66,137.9a12.278,12.278,0,0,0,0,12.332l4.188-2.411a7.417,7.417,0,0,1-1.015-3.754Z" transform="translate(-23 -131.718)" fill="#ffd500"/>
  <path id="Path_172" data-name="Path 172" d="M65.087,25.833a7.483,7.483,0,0,1,4.77,1.713.8.8,0,0,0,1.079-.048l2.279-2.279a.81.81,0,0,0-.048-1.185A12.307,12.307,0,0,0,54.4,27.182l4.188,2.411A7.514,7.514,0,0,1,65.087,25.833Z" transform="translate(-52.74 -21)" fill="#ff4b26"/>
  <path id="Path_173" data-name="Path 173" d="M261.27,27.547a.8.8,0,0,0,1.079-.048l2.279-2.279a.81.81,0,0,0-.048-1.185A12.27,12.27,0,0,0,256.5,21v4.833A7.453,7.453,0,0,1,261.27,27.547Z" transform="translate(-244.153 -21)" fill="#d93f21"/>
</svg>
