<svg xmlns="http://www.w3.org/2000/svg" width="159.778" height="30.829" viewBox="0 0 159.778 30.829">
  <g id="payments" transform="translate(-1334.117 -1701.276)">
    <g id="Group_229" data-name="Group 229" transform="translate(1213.743 1701.276)">
      <g id="Group_222" data-name="Group 222" transform="translate(120.376 8.479)">
        <path id="Path_88" data-name="Path 88" d="M1285.18,1811.57h-3.473l2.171-13.429h3.473Z" transform="translate(-1266.605 -1797.895)" fill="#00579f"/>
        <path id="Path_89" data-name="Path 89" d="M1295.79,1798.55a8.527,8.527,0,0,0-3.114-.572c-3.43,0-5.846,1.828-5.859,4.443-.027,1.929,1.73,3,3.043,3.643,1.344.656,1.8,1.086,1.8,1.67-.014.9-1.086,1.312-2.085,1.312a6.927,6.927,0,0,1-3.257-.716l-.458-.216-.485,3.014a10.576,10.576,0,0,0,3.872.716c3.643,0,6.016-1.8,6.044-4.586.013-1.529-.914-2.7-2.914-3.658-1.214-.615-1.958-1.03-1.958-1.657.014-.571.629-1.157,2-1.157a5.867,5.867,0,0,1,2.586.515l.315.142.477-2.9Z" transform="translate(-1264.623 -1797.981)" fill="#00579f"/>
        <path id="Path_90" data-name="Path 90" d="M1297.01,1806.81c.286-.772,1.387-3.758,1.387-3.758-.015.029.285-.786.457-1.286l.239,1.157s.656,3.214.8,3.885Zm4.288-8.672h-2.685a1.714,1.714,0,0,0-1.816,1.114l-5.157,12.315h3.645l.729-2.015h4.458c.1.477.414,2.015.414,2.015h3.214l-2.8-13.429Z" transform="translate(-1261.229 -1797.897)" fill="#00579f"/>
        <path id="Path_91" data-name="Path 91" d="M1282.84,1798.14l-3.4,9.158-.372-1.857a10.276,10.276,0,0,0-4.8-5.63l3.115,11.744h3.672l5.458-13.415Z" transform="translate(-1270.635 -1797.895)" fill="#00579f"/>
        <path id="Path_92" data-name="Path 92" d="M1277.55,1798.14h-5.585l-.057.272a11.623,11.623,0,0,1,8.431,7.029l-1.214-6.171a1.437,1.437,0,0,0-1.572-1.128Z" transform="translate(-1271.91 -1797.897)" fill="#faa61a"/>
      </g>
      <g id="Group_227" data-name="Group 227" transform="translate(249.25)">
        <path id="Path_103" data-name="Path 103" d="M1354.96,1792.48h30.827v16.641l-1.526,2.386,1.526,2.122v9.68h-30.829V1807.62l.954-1.1-.954-1.048Z" transform="translate(-1354.952 -1792.48)" fill="#016fd0"/>
        <path id="Path_104" data-name="Path 104" d="M1360.94,1810.35v-4.84h5.124l.55.716.569-.716h18.607v4.507a2.144,2.144,0,0,1-1.049.333h-10.3l-.622-.763v.763h-2.028v-1.3a1.715,1.715,0,0,1-.877.18h-.691v1.121h-3.077l-.549-.732-.558.732Zm-5.985-8.488,1.156-2.695h2l.655,1.509v-1.509h2.485l.39,1.092.379-1.092h11.152v.549a2.4,2.4,0,0,1,1.551-.549l3.619.012.644,1.489v-1.5h2.079l.571.855v-.855h2.1v4.84h-2.1l-.549-.859v.859h-3.053l-.307-.763h-.822l-.3.763h-2.071a2.045,2.045,0,0,1-1.358-.538v.538h-3.125l-.619-.763v.763h-11.615l-.307-.763h-.818l-.3.763h-1.432Z" transform="translate(-1354.953 -1788.861)" fill="#fff"/>
        <path id="Path_105" data-name="Path 105" d="M1356.52,1799.55l-1.558,3.624h1.014l.289-.727h1.67l.285.727h1.038l-1.557-3.624Zm.576.844.511,1.268h-1.02Zm2.267,2.781v-3.624h1.441l.835,2.337.82-2.342h1.432v3.624h-.907v-2.67l-.96,2.671h-.8l-.962-2.671v2.671Zm5.15,0v-3.624h2.956v.811h-2.041v.619h1.993v.763h-1.993v.643h2.041v.787Zm3.48-3.624v3.624h.907v-1.287h.38l1.087,1.287h1.107l-1.193-1.335a1.1,1.1,0,0,0,.994-1.113,1.171,1.171,0,0,0-1.267-1.176Zm.907.811h1.037a.415.415,0,0,1,.428.38.409.409,0,0,1-.415.382h-1.05Zm3.672,2.813h-.925v-3.624h.925Zm2.194,0h-.2a1.6,1.6,0,0,1-1.551-1.8,1.659,1.659,0,0,1,1.8-1.827h1v.859h-1.039a.871.871,0,0,0-.845.977.887.887,0,0,0,.977,1h.239Zm1.972-3.624-1.558,3.624h1.014l.289-.727h1.67l.286.727h1.038l-1.557-3.624Zm.576.844.51,1.268h-1.02Zm2.267,2.781v-3.624h1.151l1.471,2.276v-2.276h.907v3.624H1382l-1.509-2.337v2.337Zm-18.026,6.342v-3.624h2.957v.811h-2.041v.62h1.994v.764h-1.994v.644h2.041v.786Zm14.486,0v-3.624H1379v.811h-2.041v.62h1.984v.764h-1.984v.644H1379v.786Zm-11.416,0,1.44-1.789-1.473-1.835h1.142l.877,1.135.88-1.135h1.1l-1.455,1.813,1.442,1.811h-1.141l-.853-1.117-.835,1.117Zm4.056-3.622v3.624h.929v-1.145h.954a1.254,1.254,0,0,0,1.418-1.261,1.193,1.193,0,0,0-1.3-1.218Zm.929.818h1a.409.409,0,0,1,.447.418.418.418,0,0,1-.45.417h-1Zm2.765-.82v3.624h.907v-1.287h.383l1.086,1.287h1.108l-1.193-1.335a1.1,1.1,0,0,0,.994-1.113,1.171,1.171,0,0,0-1.267-1.176Zm.907.811h1.037a.415.415,0,0,1,.428.383.408.408,0,0,1-.415.381h-1.05Zm6.132,2.813v-.786h1.814c.268,0,.384-.144.384-.3s-.119-.307-.384-.307h-.82a1.013,1.013,0,0,1-1.108-1.085c0-.581.358-1.143,1.421-1.143h1.764l-.383.816h-1.526c-.291,0-.38.153-.38.3a.315.315,0,0,0,.333.316h.859a1,1,0,0,1,1.139,1.04,1.087,1.087,0,0,1-1.182,1.152Zm3.326,0v-.786h1.812c.268,0,.384-.144.384-.3s-.119-.307-.384-.307h-.82a1.013,1.013,0,0,1-1.108-1.085c0-.581.358-1.143,1.421-1.143h1.764l-.382.816H1383.9c-.292,0-.382.153-.382.3a.316.316,0,0,0,.334.316h.857a1,1,0,0,1,1.139,1.04,1.087,1.087,0,0,1-1.182,1.152Z" transform="translate(-1354.95 -1788.653)" fill="#016fd0"/>
      </g>
      <g id="Group_228" data-name="Group 228" transform="translate(186.582 2.313)">
        <path id="Path_106" data-name="Path 106" d="M1322.62,1812.15v-1.736a1.026,1.026,0,0,0-.954-1.094,1.17,1.17,0,0,0-.131,0,1.074,1.074,0,0,0-.971.492,1.018,1.018,0,0,0-.914-.492.919.919,0,0,0-.811.411v-.342h-.6v2.762h.607v-1.528a.648.648,0,0,1,.548-.731.679.679,0,0,1,.13,0c.4,0,.6.26.6.729v1.535h.607v-1.528a.651.651,0,0,1,.562-.731.68.68,0,0,1,.119,0c.411,0,.607.26.607.729v1.535Zm3.383-1.379v-1.379h-.607v.336a1.052,1.052,0,0,0-.867-.406,1.446,1.446,0,0,0,0,2.892,1.044,1.044,0,0,0,.868-.4v.334h.6Zm-2.237,0a.748.748,0,1,1-.011.077.676.676,0,0,1,0-.077Zm15.088-1.446a1.585,1.585,0,0,1,.579.11,1.482,1.482,0,0,1,.471.307,1.4,1.4,0,0,1,.312.46,1.53,1.53,0,0,1,0,1.156,1.4,1.4,0,0,1-.312.459,1.434,1.434,0,0,1-.47.307,1.643,1.643,0,0,1-1.187,0,1.425,1.425,0,0,1-.469-.307,1.386,1.386,0,0,1-.308-.459,1.533,1.533,0,0,1,0-1.156,1.384,1.384,0,0,1,.308-.46,1.473,1.473,0,0,1,.469-.307,1.581,1.581,0,0,1,.6-.119Zm0,.579a.892.892,0,0,0-.344.064.8.8,0,0,0-.274.181.842.842,0,0,0-.181.289.993.993,0,0,0,0,.716.831.831,0,0,0,.181.289.78.78,0,0,0,.274.183.942.942,0,0,0,.686,0,.8.8,0,0,0,.289-.183.821.821,0,0,0,.181-.289.993.993,0,0,0,0-.716.836.836,0,0,0-.181-.289.8.8,0,0,0-.289-.181.88.88,0,0,0-.347-.081Zm-9.583.867a1.312,1.312,0,0,0-1.312-1.446,1.446,1.446,0,1,0,.041,2.892,1.679,1.679,0,0,0,1.131-.386l-.29-.445a1.314,1.314,0,0,1-.805.289.764.764,0,0,1-.827-.677h2.051a1.781,1.781,0,0,0,.018-.231Zm-2.057-.239a.716.716,0,0,1,.727-.668.687.687,0,0,1,.7.67h0Zm4.586-.434a1.77,1.77,0,0,0-.869-.238c-.328,0-.526.119-.526.324s.209.239.469.273l.29.041c.6.086.965.341.965.828s-.463.9-1.259.9a1.992,1.992,0,0,1-1.193-.358l.29-.469a1.467,1.467,0,0,0,.919.29c.411,0,.63-.119.63-.335,0-.155-.155-.239-.485-.289l-.287-.042c-.619-.086-.954-.358-.954-.815,0-.549.45-.885,1.156-.885a2.075,2.075,0,0,1,1.125.29Zm2.892-.156h-.981v1.245c0,.29.1.464.4.464a1.1,1.1,0,0,0,.533-.157l.173.515a1.4,1.4,0,0,1-.752.213c-.716,0-.96-.382-.96-1.023v-1.257h-.559v-.55h.559v-.835h.607v.835h.981Zm2.079-.62a1.3,1.3,0,0,1,.428.075l-.185.579a.965.965,0,0,0-.376-.069c-.393,0-.578.254-.578.716v1.551h-.6v-2.762h.6v.334a.815.815,0,0,1,.729-.4Zm4.159,2.43a.3.3,0,0,1,.111.019.324.324,0,0,1,.089.058.286.286,0,0,1,.06.086.271.271,0,0,1,0,.215.283.283,0,0,1-.06.086.3.3,0,0,1-.089.059.273.273,0,0,1-.111.023.289.289,0,0,1-.259-.168.27.27,0,0,1,0-.215.258.258,0,0,1,.06-.086.319.319,0,0,1,.089-.059.373.373,0,0,1,.1-.019Zm0,.488a.2.2,0,0,0,.151-.063.212.212,0,0,0,0-.3.216.216,0,0,0-.066-.044.2.2,0,0,0-.085-.017.221.221,0,0,0-.083.017.2.2,0,0,0-.069.046.214.214,0,0,0,0,.29.218.218,0,0,0,.153.063Zm.019-.344a.118.118,0,0,1,.074.024.071.071,0,0,1,.026.06.066.066,0,0,1-.02.052.1.1,0,0,1-.06.027l.083.1h-.067l-.079-.1h-.026v.1h-.054v-.266Zm-.064.049v.069h.064a.067.067,0,0,0,.033,0,5.577,5.577,0,0,1,0-.052.062.062,0,0,0-.033,0Z" transform="translate(-1312.433 -1786.091)" fill="#fff"/>
        <rect id="Rectangle_19" data-name="Rectangle 19" width="9.11" height="16.371" transform="translate(12.287 2.226)" fill="#7673c0"/>
        <path id="Path_107" data-name="Path 107" d="M1327.34,1804.39a10.387,10.387,0,0,1,3.976-8.186,10.411,10.411,0,1,0,0,16.371,10.4,10.4,0,0,1-3.976-8.185Z" transform="translate(-1314.474 -1793.98)" fill="#eb001b"/>
        <path id="Path_108" data-name="Path 108" d="M1335.75,1805.07v-.323h.136v-.069h-.344v.069h.136v.334Zm.667,0v-.406h-.1l-.119.29-.119-.29h-.106v.406h.075v-.3l.112.263h.077l.119-.263v.3Z" transform="translate(-1303.063 -1788.199)" fill="#00a1df"/>
        <path id="Path_109" data-name="Path 109" d="M1342.24,1804.4a10.41,10.41,0,0,1-16.841,8.185,10.412,10.412,0,0,0,0-16.371,10.41,10.41,0,0,1,16.845,8.184Z" transform="translate(-1308.556 -1793.981)" fill="#00a1df"/>
      </g>
    </g>
  </g>
</svg>
