<svg xmlns="http://www.w3.org/2000/svg" width="89.137" height="29.304" viewBox="0 0 89.137 29.304">
  <g id="paypal-icon" transform="translate(-6.989)">
    <g id="Group_224" data-name="Group 224" transform="translate(42.641 7.518)">
      <path id="Path_94" data-name="Path 94" d="M1214.068,1806.639h-4.159a.576.576,0,0,0-.572.487l-1.682,10.669a.343.343,0,0,0,.342.4h2.135a.4.4,0,0,0,.4-.341l.476-3.023a.576.576,0,0,1,.571-.487h1.318a4.275,4.275,0,0,0,4.735-3.956,3.208,3.208,0,0,0-.533-2.687A3.872,3.872,0,0,0,1214.068,1806.639Zm.483,3.9c-.228,1.491-1.366,1.491-2.474,1.491h-.626l.442-2.788a.346.346,0,0,1,.341-.292h.289c.749,0,1.461,0,1.821.428a1.4,1.4,0,0,1,.2,1.179Z" transform="translate(-1177.979 -1806.623)" fill="#009ade"/>
      <path id="Path_95" data-name="Path 95" d="M1203.977,1806.639h-4.159a.575.575,0,0,0-.569.487l-1.682,10.669a.343.343,0,0,0,.341.4h1.985a.578.578,0,0,0,.573-.487l.455-2.877a.576.576,0,0,1,.571-.487h1.318a4.277,4.277,0,0,0,4.735-3.956,3.2,3.2,0,0,0-.532-2.687,3.87,3.87,0,0,0-3.036-1.062Zm.483,3.9c-.228,1.49-1.366,1.49-2.475,1.49h-.626l.441-2.788a.346.346,0,0,1,.341-.292h.287c.751,0,1.459,0,1.821.427a1.4,1.4,0,0,1,.2,1.179Z" transform="translate(-1197.562 -1806.623)" fill="#002f87"/>
      <path id="Path_96" data-name="Path 96" d="M1210.2,1808.075h-1.992a.348.348,0,0,0-.344.294l-.084.555-.141-.2a2.832,2.832,0,0,0-2.354-.835,4.581,4.581,0,0,0-4.448,4.006,3.778,3.778,0,0,0,.742,3.062,3.119,3.119,0,0,0,2.5,1.013,3.813,3.813,0,0,0,2.757-1.138l-.089.553a.346.346,0,0,0,.342.4h1.794a.58.58,0,0,0,.573-.487l1.077-6.818a.348.348,0,0,0-.337-.4Zm-2.777,3.87a2.22,2.22,0,0,1-2.247,1.9,1.543,1.543,0,0,1-1.65-1.937,2.229,2.229,0,0,1,2.232-1.919,1.674,1.674,0,0,1,1.327.544,1.7,1.7,0,0,1,.337,1.431Z" transform="translate(-1191.341 -1804.204)" fill="#002f87"/>
      <path id="Path_97" data-name="Path 97" d="M1220.28,1808.075h-1.992a.346.346,0,0,0-.341.294l-.089.555-.141-.2a2.831,2.831,0,0,0-2.354-.835,4.582,4.582,0,0,0-4.448,4.006,3.784,3.784,0,0,0,.742,3.062,3.12,3.12,0,0,0,2.5,1.013,3.811,3.811,0,0,0,2.757-1.138l-.089.553a.346.346,0,0,0,.344.4h1.794a.578.578,0,0,0,.571-.487l1.077-6.818a.349.349,0,0,0-.335-.4Zm-2.777,3.87a2.22,2.22,0,0,1-2.247,1.9,1.542,1.542,0,0,1-1.65-1.937,2.229,2.229,0,0,1,2.233-1.919,1.687,1.687,0,0,1,1.329.545,1.715,1.715,0,0,1,.358,1.432Z" transform="translate(-1171.768 -1804.204)" fill="#009ade"/>
      <path id="Path_98" data-name="Path 98" d="M1213.706,1807.942h-2a.586.586,0,0,0-.481.255l-2.761,4.068-1.173-3.911a.576.576,0,0,0-.553-.415h-1.967a.347.347,0,0,0-.33.455l2.206,6.475-2.074,2.927a.346.346,0,0,0,.282.546h2a.582.582,0,0,0,.476-.251l6.659-9.608a.348.348,0,0,0-.282-.542Z" transform="translate(-1184.245 -1804.074)" fill="#002f87"/>
      <path id="Path_99" data-name="Path 99" d="M1215.991,1806.924l-1.709,10.863a.346.346,0,0,0,.343.4h1.716a.578.578,0,0,0,.571-.487l1.682-10.667a.348.348,0,0,0-.341-.4h-1.923a.343.343,0,0,0-.34.292Z" transform="translate(-1165.114 -1806.612)" fill="#009ade"/>
    </g>
    <g id="Group_225" data-name="Group 225" transform="translate(6.989 0)">
      <path id="Path_100" data-name="Path 100" d="M1224.44,1800.934a5.81,5.81,0,0,0-1.23-5.227,9.03,9.03,0,0,0-6.944-2.2h-9.092a1.3,1.3,0,0,0-1.282,1.1l-3.786,24a.771.771,0,0,0,.771.9h5.613l-.385,2.458a.683.683,0,0,0,.673.791h4.729a1.138,1.138,0,0,0,1.124-.965l.048-.239.889-5.651.058-.312a1.142,1.142,0,0,1,1.124-.964h.708c4.583,0,8.172-1.861,9.221-7.244a6.17,6.17,0,0,0-.947-5.447,4.478,4.478,0,0,0-1.3-1h0" transform="translate(-1202.094 -1793.45)" fill="#009ade"/>
      <path id="Path_101" data-name="Path 101" d="M1224.44,1800.934a5.81,5.81,0,0,0-1.23-5.227,9.03,9.03,0,0,0-6.944-2.2h-9.092a1.3,1.3,0,0,0-1.282,1.1l-3.786,24a.771.771,0,0,0,.771.9h5.613l1.41-8.939-.044.281a1.3,1.3,0,0,1,1.281-1.1h2.668c5.238,0,9.341-2.122,10.538-8.294.035-.181.066-.359.093-.531" transform="translate(-1202.094 -1793.45)" fill="#002169"/>
      <path id="Path_102" data-name="Path 102" d="M1211.416,1800.969a1.14,1.14,0,0,1,1.125-.964h7.136a14.978,14.978,0,0,1,2.351.171c.207.033.405.071.6.116s.386.092.565.145c.092.027.181.054.27.085a6.076,6.076,0,0,1,.983.417,5.808,5.808,0,0,0-1.231-5.227,9.03,9.03,0,0,0-6.943-2.2h-9.092a1.3,1.3,0,0,0-1.283,1.1l-3.786,24a.772.772,0,0,0,.772.9h5.613l1.41-8.939Z" transform="translate(-1202.089 -1793.446)" fill="#002f87"/>
    </g>
  </g>
</svg>
