<svg id="stripe-icon" xmlns="http://www.w3.org/2000/svg" width="77.179" height="32.111" viewBox="0 0 77.179 32.111">
  <path id="Path_93" data-name="Path 93" d="M1238.443,1809.56c0-.835.678-1.156,1.821-1.156a11.955,11.955,0,0,1,5.316,1.371v-5.038a14.138,14.138,0,0,0-5.316-.987c-4.349,0-7.245,2.275-7.245,6.066,0,5.917,8.147,4.97,8.147,7.526,0,.988-.859,1.308-2.058,1.308a13.336,13.336,0,0,1-5.854-1.717v5.1a14.86,14.86,0,0,0,5.854,1.224c4.458,0,7.523-2.209,7.523-6.045C1246.6,1810.826,1238.443,1811.955,1238.443,1809.56Zm14.491-10.094-5.23,1.112-.021,17.17a5.388,5.388,0,0,0,5.553,5.513,8.293,8.293,0,0,0,3.751-.71V1818.2c-.678.278-4.067,1.263-4.067-1.909v-7.609h4.067v-4.566h-4.067Zm10.72,6.235-.344-1.581h-4.629v18.752h5.359v-12.71a3.775,3.775,0,0,1,4.067-1.116v-4.93a3.637,3.637,0,0,0-4.451,1.581Zm5.766-1.581h5.379v18.752h-5.379Zm0-1.629,5.379-1.159v-4.349l-5.379,1.13Zm16.57,1.266a6.055,6.055,0,0,0-4.2,1.672l-.28-1.328h-4.715v24.994l5.361-1.129.021-6.067a6.052,6.052,0,0,0,3.8,1.356c3.841,0,7.331-3.086,7.331-9.882-.027-6.229-3.574-9.618-7.325-9.618Zm-1.283,14.771a3.213,3.213,0,0,1-2.531-1.007l-.021-7.955a3.191,3.191,0,0,1,2.551-1.051c1.95,0,3.3,2.187,3.3,5-.016,2.873-1.326,5.019-3.314,5.019Zm25.487-4.955c0-5.485-2.659-9.816-7.738-9.816s-8.187,4.331-8.187,9.776c0,6.45,3.644,9.715,8.874,9.715a11.978,11.978,0,0,0,5.938-1.392v-4.293a11.38,11.38,0,0,1-5.253,1.179c-2.08,0-3.924-.729-4.159-3.257h10.483c0-.3.047-1.406.047-1.926Zm-10.591-2.033c0-2.422,1.48-3.429,2.829-3.429,1.308,0,2.711,1.008,2.711,3.429Z" transform="translate(-1233.019 -1796.983)" fill="#6772e5"/>
</svg>
