<svg xmlns="http://www.w3.org/2000/svg" width="20.799" height="13.627" viewBox="0 0 20.799 13.627">
  <g id="usa-flag" transform="translate(0 -88.276)">
    <path id="Path_29019" data-name="Path 29019" d="M20.44,101.9H.359A.359.359,0,0,1,0,101.544V88.635a.359.359,0,0,1,.359-.359H20.44a.359.359,0,0,1,.359.359v12.91A.359.359,0,0,1,20.44,101.9Z" fill="#f5f5f5"/>
    <g id="Group_67793" data-name="Group 67793" transform="translate(0 88.276)">
      <path id="Path_29020" data-name="Path 29020" d="M20.8,89.324H0v-.69a.359.359,0,0,1,.359-.359H20.44a.359.359,0,0,1,.359.359v.69Z" transform="translate(0 -88.276)" fill="#ff4b55"/>
      <rect id="Rectangle_18023" data-name="Rectangle 18023" width="20.799" height="1.048" transform="translate(0 4.193)" fill="#ff4b55"/>
      <rect id="Rectangle_18024" data-name="Rectangle 18024" width="20.799" height="1.048" transform="translate(0 2.096)" fill="#ff4b55"/>
      <path id="Path_29021" data-name="Path 29021" d="M20.8,244.146H.359A.359.359,0,0,1,0,243.788v-.69H20.8Z" transform="translate(0 -236.809)" fill="#ff4b55"/>
      <rect id="Rectangle_18025" data-name="Rectangle 18025" width="20.799" height="1.048" transform="translate(0 10.482)" fill="#ff4b55"/>
      <path id="Path_29022" data-name="Path 29022" d="M20.44,398.969H.359A.359.359,0,0,1,0,398.611v-.69H20.8v.69A.359.359,0,0,1,20.44,398.969Z" transform="translate(0 -385.342)" fill="#ff4b55"/>
      <rect id="Rectangle_18026" data-name="Rectangle 18026" width="20.799" height="1.048" transform="translate(0 8.386)" fill="#ff4b55"/>
    </g>
    <path id="Path_29023" data-name="Path 29023" d="M9.324,88.277H.359A.359.359,0,0,0,0,88.636v6.62a.359.359,0,0,0,.359.359H9.324a.359.359,0,0,0,.359-.359v-6.62A.359.359,0,0,0,9.324,88.277Z" transform="translate(0 -0.001)" fill="#41479b"/>
    <g id="Group_67794" data-name="Group 67794" transform="translate(0.579 89.076)">
      <path id="Path_29024" data-name="Path 29024" d="M14.681,107.992l.079.238.251,0a.034.034,0,0,1,.02.061l-.2.149.076.239a.034.034,0,0,1-.052.038l-.2-.146-.2.146a.034.034,0,0,1-.052-.038l.076-.239-.2-.149a.034.034,0,0,1,.02-.061l.251,0,.079-.238A.034.034,0,0,1,14.681,107.992Z" transform="translate(-14.253 -107.969)" fill="#f5f5f5"/>
      <path id="Path_29025" data-name="Path 29025" d="M14.681,138.647l.079.238.251,0a.034.034,0,0,1,.02.061l-.2.149.076.239a.034.034,0,0,1-.052.038l-.2-.146-.2.146a.034.034,0,0,1-.052-.038l.076-.239-.2-.149a.034.034,0,0,1,.02-.061l.251,0,.079-.238A.034.034,0,0,1,14.681,138.647Z" transform="translate(-14.253 -137.378)" fill="#f5f5f5"/>
      <path id="Path_29026" data-name="Path 29026" d="M14.681,169.3l.079.238.251,0a.034.034,0,0,1,.02.061l-.2.149.076.239a.034.034,0,0,1-.052.038l-.2-.146-.2.146a.034.034,0,0,1-.052-.038l.076-.239-.2-.149a.034.034,0,0,1,.02-.061l.251,0,.079-.238A.034.034,0,0,1,14.681,169.3Z" transform="translate(-14.253 -166.787)" fill="#f5f5f5"/>
      <path id="Path_29027" data-name="Path 29027" d="M14.681,199.955l.079.238.251,0a.034.034,0,0,1,.02.061l-.2.149.076.239a.034.034,0,0,1-.052.038l-.2-.146-.2.146a.034.034,0,0,1-.052-.038l.076-.239-.2-.149a.034.034,0,0,1,.02-.061l.251,0,.079-.238A.034.034,0,0,1,14.681,199.955Z" transform="translate(-14.253 -196.196)" fill="#f5f5f5"/>
      <path id="Path_29028" data-name="Path 29028" d="M14.681,230.608l.079.238.251,0a.034.034,0,0,1,.02.061l-.2.149.076.239a.034.034,0,0,1-.052.038l-.2-.146-.2.146a.034.034,0,0,1-.052-.038l.076-.239-.2-.149a.034.034,0,0,1,.02-.061l.251,0,.079-.238A.034.034,0,0,1,14.681,230.608Z" transform="translate(-14.253 -225.604)" fill="#f5f5f5"/>
      <path id="Path_29029" data-name="Path 29029" d="M38.474,123.022l.079.238.251,0a.034.034,0,0,1,.02.061l-.2.149.076.239a.034.034,0,0,1-.052.038l-.2-.146-.2.146a.034.034,0,0,1-.052-.038l.076-.239-.2-.149a.034.034,0,0,1,.02-.061l.251,0,.079-.238A.034.034,0,0,1,38.474,123.022Z" transform="translate(-37.079 -122.388)" fill="#f5f5f5"/>
      <path id="Path_29030" data-name="Path 29030" d="M38.474,153.676l.079.238.251,0a.034.034,0,0,1,.02.061l-.2.149.076.239a.034.034,0,0,1-.052.038l-.2-.146-.2.146a.034.034,0,0,1-.052-.038l.076-.239-.2-.149a.034.034,0,0,1,.02-.061l.251,0,.079-.238A.034.034,0,0,1,38.474,153.676Z" transform="translate(-37.079 -151.797)" fill="#f5f5f5"/>
      <path id="Path_29031" data-name="Path 29031" d="M38.474,184.33l.079.238.251,0a.034.034,0,0,1,.02.061l-.2.149.076.239a.034.034,0,0,1-.052.038l-.2-.146-.2.146a.034.034,0,0,1-.052-.038l.076-.239-.2-.149a.034.034,0,0,1,.02-.061l.251,0,.079-.238A.034.034,0,0,1,38.474,184.33Z" transform="translate(-37.079 -181.206)" fill="#f5f5f5"/>
      <path id="Path_29032" data-name="Path 29032" d="M38.474,214.985l.079.238.251,0a.034.034,0,0,1,.02.061l-.2.149.076.239a.034.034,0,0,1-.052.038l-.2-.146-.2.146a.034.034,0,0,1-.052-.038l.076-.239-.2-.149a.034.034,0,0,1,.02-.061l.251,0,.079-.238A.034.034,0,0,1,38.474,214.985Z" transform="translate(-37.079 -210.615)" fill="#f5f5f5"/>
      <path id="Path_29033" data-name="Path 29033" d="M62.267,107.992l.079.238.251,0a.034.034,0,0,1,.02.061l-.2.149.076.239a.034.034,0,0,1-.052.038l-.2-.146-.2.146a.034.034,0,0,1-.052-.038l.076-.239-.2-.149a.034.034,0,0,1,.02-.061l.251,0,.079-.238A.034.034,0,0,1,62.267,107.992Z" transform="translate(-59.906 -107.969)" fill="#f5f5f5"/>
      <path id="Path_29034" data-name="Path 29034" d="M62.267,138.647l.079.238.251,0a.034.034,0,0,1,.02.061l-.2.149.076.239a.034.034,0,0,1-.052.038l-.2-.146-.2.146a.034.034,0,0,1-.052-.038l.076-.239-.2-.149a.034.034,0,0,1,.02-.061l.251,0,.079-.238A.034.034,0,0,1,62.267,138.647Z" transform="translate(-59.906 -137.378)" fill="#f5f5f5"/>
      <path id="Path_29035" data-name="Path 29035" d="M62.267,169.3l.079.238.251,0a.034.034,0,0,1,.02.061l-.2.149.076.239a.034.034,0,0,1-.052.038l-.2-.146-.2.146a.034.034,0,0,1-.052-.038l.076-.239-.2-.149a.034.034,0,0,1,.02-.061l.251,0,.079-.238A.034.034,0,0,1,62.267,169.3Z" transform="translate(-59.906 -166.787)" fill="#f5f5f5"/>
      <path id="Path_29036" data-name="Path 29036" d="M62.267,199.955l.079.238.251,0a.034.034,0,0,1,.02.061l-.2.149.076.239a.034.034,0,0,1-.052.038l-.2-.146-.2.146a.034.034,0,0,1-.052-.038l.076-.239-.2-.149a.034.034,0,0,1,.02-.061l.251,0,.079-.238A.034.034,0,0,1,62.267,199.955Z" transform="translate(-59.906 -196.196)" fill="#f5f5f5"/>
      <path id="Path_29037" data-name="Path 29037" d="M62.267,230.608l.079.238.251,0a.034.034,0,0,1,.02.061l-.2.149.076.239a.034.034,0,0,1-.052.038l-.2-.146-.2.146a.034.034,0,0,1-.052-.038l.076-.239-.2-.149a.034.034,0,0,1,.02-.061l.251,0,.079-.238A.034.034,0,0,1,62.267,230.608Z" transform="translate(-59.906 -225.604)" fill="#f5f5f5"/>
      <path id="Path_29038" data-name="Path 29038" d="M86.061,123.022l.079.238.251,0a.034.034,0,0,1,.02.061l-.2.149.076.239a.034.034,0,0,1-.052.038l-.2-.146-.2.146a.034.034,0,0,1-.052-.038l.076-.239-.2-.149a.034.034,0,0,1,.02-.061l.251,0,.079-.238A.034.034,0,0,1,86.061,123.022Z" transform="translate(-82.733 -122.388)" fill="#f5f5f5"/>
      <path id="Path_29039" data-name="Path 29039" d="M86.061,153.676l.079.238.251,0a.034.034,0,0,1,.02.061l-.2.149.076.239a.034.034,0,0,1-.052.038l-.2-.146-.2.146a.034.034,0,0,1-.052-.038l.076-.239-.2-.149a.034.034,0,0,1,.02-.061l.251,0,.079-.238A.034.034,0,0,1,86.061,153.676Z" transform="translate(-82.733 -151.797)" fill="#f5f5f5"/>
      <path id="Path_29040" data-name="Path 29040" d="M86.061,184.33l.079.238.251,0a.034.034,0,0,1,.02.061l-.2.149.076.239a.034.034,0,0,1-.052.038l-.2-.146-.2.146a.034.034,0,0,1-.052-.038l.076-.239-.2-.149a.034.034,0,0,1,.02-.061l.251,0L86,184.33A.034.034,0,0,1,86.061,184.33Z" transform="translate(-82.733 -181.206)" fill="#f5f5f5"/>
      <path id="Path_29041" data-name="Path 29041" d="M86.061,214.985l.079.238.251,0a.034.034,0,0,1,.02.061l-.2.149.076.239a.034.034,0,0,1-.052.038l-.2-.146-.2.146a.034.034,0,0,1-.052-.038l.076-.239-.2-.149a.034.034,0,0,1,.02-.061l.251,0,.079-.238A.034.034,0,0,1,86.061,214.985Z" transform="translate(-82.733 -210.615)" fill="#f5f5f5"/>
      <path id="Path_29042" data-name="Path 29042" d="M109.853,107.992l.079.238.251,0a.034.034,0,0,1,.02.061l-.2.149.076.239a.034.034,0,0,1-.052.038l-.2-.146-.2.146a.034.034,0,0,1-.052-.038l.076-.239-.2-.149a.034.034,0,0,1,.02-.061l.251,0,.079-.238A.034.034,0,0,1,109.853,107.992Z" transform="translate(-105.559 -107.969)" fill="#f5f5f5"/>
      <path id="Path_29043" data-name="Path 29043" d="M109.853,138.647l.079.238.251,0a.034.034,0,0,1,.02.061l-.2.149.076.239a.034.034,0,0,1-.052.038l-.2-.146-.2.146a.034.034,0,0,1-.052-.038l.076-.239-.2-.149a.034.034,0,0,1,.02-.061l.251,0,.079-.238A.034.034,0,0,1,109.853,138.647Z" transform="translate(-105.559 -137.378)" fill="#f5f5f5"/>
      <path id="Path_29044" data-name="Path 29044" d="M109.853,169.3l.079.238.251,0a.034.034,0,0,1,.02.061l-.2.149.076.239a.034.034,0,0,1-.052.038l-.2-.146-.2.146a.034.034,0,0,1-.052-.038l.076-.239-.2-.149a.034.034,0,0,1,.02-.061l.251,0,.079-.238A.034.034,0,0,1,109.853,169.3Z" transform="translate(-105.559 -166.787)" fill="#f5f5f5"/>
      <path id="Path_29045" data-name="Path 29045" d="M109.853,199.955l.079.238.251,0a.034.034,0,0,1,.02.061l-.2.149.076.239a.034.034,0,0,1-.052.038l-.2-.146-.2.146a.034.034,0,0,1-.052-.038l.076-.239-.2-.149a.034.034,0,0,1,.02-.061l.251,0,.079-.238A.034.034,0,0,1,109.853,199.955Z" transform="translate(-105.559 -196.196)" fill="#f5f5f5"/>
      <path id="Path_29046" data-name="Path 29046" d="M109.853,230.608l.079.238.251,0a.034.034,0,0,1,.02.061l-.2.149.076.239a.034.034,0,0,1-.052.038l-.2-.146-.2.146a.034.034,0,0,1-.052-.038l.076-.239-.2-.149a.034.034,0,0,1,.02-.061l.251,0,.079-.238A.034.034,0,0,1,109.853,230.608Z" transform="translate(-105.559 -225.604)" fill="#f5f5f5"/>
      <path id="Path_29047" data-name="Path 29047" d="M133.647,123.022l.079.238.251,0a.034.034,0,0,1,.02.061l-.2.149.076.239a.034.034,0,0,1-.052.038l-.2-.146-.2.146a.034.034,0,0,1-.052-.038l.076-.239-.2-.149a.034.034,0,0,1,.02-.061l.251,0,.079-.238A.034.034,0,0,1,133.647,123.022Z" transform="translate(-128.386 -122.388)" fill="#f5f5f5"/>
      <path id="Path_29048" data-name="Path 29048" d="M133.647,153.676l.079.238.251,0a.034.034,0,0,1,.02.061l-.2.149.076.239a.034.034,0,0,1-.052.038l-.2-.146-.2.146a.034.034,0,0,1-.052-.038l.076-.239-.2-.149a.034.034,0,0,1,.02-.061l.251,0,.079-.238A.034.034,0,0,1,133.647,153.676Z" transform="translate(-128.386 -151.797)" fill="#f5f5f5"/>
      <path id="Path_29049" data-name="Path 29049" d="M133.647,184.33l.079.238.251,0a.034.034,0,0,1,.02.061l-.2.149.076.239a.034.034,0,0,1-.052.038l-.2-.146-.2.146a.034.034,0,0,1-.052-.038l.076-.239-.2-.149a.034.034,0,0,1,.02-.061l.251,0,.079-.238A.034.034,0,0,1,133.647,184.33Z" transform="translate(-128.386 -181.206)" fill="#f5f5f5"/>
      <path id="Path_29050" data-name="Path 29050" d="M133.647,214.985l.079.238.251,0a.034.034,0,0,1,.02.061l-.2.149.076.239a.034.034,0,0,1-.052.038l-.2-.146-.2.146a.034.034,0,0,1-.052-.038l.076-.239-.2-.149a.034.034,0,0,1,.02-.061l.251,0,.079-.238A.034.034,0,0,1,133.647,214.985Z" transform="translate(-128.386 -210.615)" fill="#f5f5f5"/>
      <path id="Path_29051" data-name="Path 29051" d="M157.441,107.992l.079.238.251,0a.034.034,0,0,1,.02.061l-.2.149.076.239a.034.034,0,0,1-.052.038l-.2-.146-.2.146a.034.034,0,0,1-.052-.038l.076-.239-.2-.149a.034.034,0,0,1,.02-.061l.251,0,.079-.238A.034.034,0,0,1,157.441,107.992Z" transform="translate(-151.213 -107.969)" fill="#f5f5f5"/>
      <path id="Path_29052" data-name="Path 29052" d="M157.441,138.647l.079.238.251,0a.034.034,0,0,1,.02.061l-.2.149.076.239a.034.034,0,0,1-.052.038l-.2-.146-.2.146a.034.034,0,0,1-.052-.038l.076-.239-.2-.149a.034.034,0,0,1,.02-.061l.251,0,.079-.238A.034.034,0,0,1,157.441,138.647Z" transform="translate(-151.213 -137.378)" fill="#f5f5f5"/>
      <path id="Path_29053" data-name="Path 29053" d="M157.441,169.3l.079.238.251,0a.034.034,0,0,1,.02.061l-.2.149.076.239a.034.034,0,0,1-.052.038l-.2-.146-.2.146a.034.034,0,0,1-.052-.038l.076-.239-.2-.149a.034.034,0,0,1,.02-.061l.251,0,.079-.238A.034.034,0,0,1,157.441,169.3Z" transform="translate(-151.213 -166.787)" fill="#f5f5f5"/>
      <path id="Path_29054" data-name="Path 29054" d="M157.441,199.955l.079.238.251,0a.034.034,0,0,1,.02.061l-.2.149.076.239a.034.034,0,0,1-.052.038l-.2-.146-.2.146a.034.034,0,0,1-.052-.038l.076-.239-.2-.149a.034.034,0,0,1,.02-.061l.251,0,.079-.238A.034.034,0,0,1,157.441,199.955Z" transform="translate(-151.213 -196.196)" fill="#f5f5f5"/>
      <path id="Path_29055" data-name="Path 29055" d="M157.441,230.608l.079.238.251,0a.034.034,0,0,1,.02.061l-.2.149.076.239a.034.034,0,0,1-.052.038l-.2-.146-.2.146a.034.034,0,0,1-.052-.038l.076-.239-.2-.149a.034.034,0,0,1,.02-.061l.251,0,.079-.238A.034.034,0,0,1,157.441,230.608Z" transform="translate(-151.213 -225.604)" fill="#f5f5f5"/>
      <path id="Path_29056" data-name="Path 29056" d="M181.234,123.022l.079.238.251,0a.034.034,0,0,1,.02.061l-.2.149.076.239a.034.034,0,0,1-.052.038l-.2-.146-.2.146a.034.034,0,0,1-.052-.038l.076-.239-.2-.149a.034.034,0,0,1,.02-.061l.251,0,.079-.238A.034.034,0,0,1,181.234,123.022Z" transform="translate(-174.04 -122.388)" fill="#f5f5f5"/>
      <path id="Path_29057" data-name="Path 29057" d="M181.234,153.676l.079.238.251,0a.034.034,0,0,1,.02.061l-.2.149.076.239a.034.034,0,0,1-.052.038l-.2-.146-.2.146a.034.034,0,0,1-.052-.038l.076-.239-.2-.149a.034.034,0,0,1,.02-.061l.251,0,.079-.238A.034.034,0,0,1,181.234,153.676Z" transform="translate(-174.04 -151.797)" fill="#f5f5f5"/>
      <path id="Path_29058" data-name="Path 29058" d="M181.234,184.33l.079.238.251,0a.034.034,0,0,1,.02.061l-.2.149.076.239a.034.034,0,0,1-.052.038l-.2-.146-.2.146a.034.034,0,0,1-.052-.038l.076-.239-.2-.149a.034.034,0,0,1,.02-.061l.251,0,.079-.238A.034.034,0,0,1,181.234,184.33Z" transform="translate(-174.04 -181.206)" fill="#f5f5f5"/>
      <path id="Path_29059" data-name="Path 29059" d="M181.234,214.985l.079.238.251,0a.034.034,0,0,1,.02.061l-.2.149.076.239a.034.034,0,0,1-.052.038l-.2-.146-.2.146a.034.034,0,0,1-.052-.038l.076-.239-.2-.149a.034.034,0,0,1,.02-.061l.251,0,.079-.238A.034.034,0,0,1,181.234,214.985Z" transform="translate(-174.04 -210.615)" fill="#f5f5f5"/>
      <path id="Path_29060" data-name="Path 29060" d="M205.028,107.992l.079.238.251,0a.034.034,0,0,1,.02.061l-.2.149.076.239a.034.034,0,0,1-.052.038l-.2-.146-.2.146a.034.034,0,0,1-.052-.038l.076-.239-.2-.149a.034.034,0,0,1,.02-.061l.251,0,.079-.238A.034.034,0,0,1,205.028,107.992Z" transform="translate(-196.867 -107.969)" fill="#f5f5f5"/>
      <path id="Path_29061" data-name="Path 29061" d="M205.028,138.647l.079.238.251,0a.034.034,0,0,1,.02.061l-.2.149.076.239a.034.034,0,0,1-.052.038l-.2-.146-.2.146a.034.034,0,0,1-.052-.038l.076-.239-.2-.149a.034.034,0,0,1,.02-.061l.251,0,.079-.238A.034.034,0,0,1,205.028,138.647Z" transform="translate(-196.867 -137.378)" fill="#f5f5f5"/>
      <path id="Path_29062" data-name="Path 29062" d="M205.028,169.3l.079.238.251,0a.034.034,0,0,1,.02.061l-.2.149.076.239a.034.034,0,0,1-.052.038l-.2-.146-.2.146a.034.034,0,0,1-.052-.038l.076-.239-.2-.149a.034.034,0,0,1,.02-.061l.251,0,.079-.238A.034.034,0,0,1,205.028,169.3Z" transform="translate(-196.867 -166.787)" fill="#f5f5f5"/>
      <path id="Path_29063" data-name="Path 29063" d="M205.028,199.955l.079.238.251,0a.034.034,0,0,1,.02.061l-.2.149.076.239a.034.034,0,0,1-.052.038l-.2-.146-.2.146a.034.034,0,0,1-.052-.038l.076-.239-.2-.149a.034.034,0,0,1,.02-.061l.251,0,.079-.238A.034.034,0,0,1,205.028,199.955Z" transform="translate(-196.867 -196.196)" fill="#f5f5f5"/>
      <path id="Path_29064" data-name="Path 29064" d="M205.028,230.608l.079.238.251,0a.034.034,0,0,1,.02.061l-.2.149.076.239a.034.034,0,0,1-.052.038l-.2-.146-.2.146a.034.034,0,0,1-.052-.038l.076-.239-.2-.149a.034.034,0,0,1,.02-.061l.251,0,.079-.238A.034.034,0,0,1,205.028,230.608Z" transform="translate(-196.867 -225.604)" fill="#f5f5f5"/>
    </g>
  </g>
</svg>
