<svg id="visa-icon" xmlns="http://www.w3.org/2000/svg" width="50.047" height="31.558" viewBox="0 0 50.047 31.558">
  <path id="Path_29161" data-name="Path 29161" d="M50.047,124.329a1.856,1.856,0,0,1-1.857,1.857H1.856A1.856,1.856,0,0,1,0,124.329V96.484a1.856,1.856,0,0,1,1.856-1.856H48.191a1.856,1.856,0,0,1,1.857,1.856v27.845Z" transform="translate(0 -94.628)" fill="#21246e"/>
  <path id="Path_29162" data-name="Path 29162" d="M45.525,185.933,39.957,199.22H36.322l-2.738-10.6a1.469,1.469,0,0,0-.818-1.169,14.445,14.445,0,0,0-3.393-1.129l.084-.386H35.3a1.6,1.6,0,0,1,1.585,1.355l1.448,7.691,3.576-9.046h3.611Zm14.237,8.947c.016-3.505-4.85-3.7-4.815-5.264.009-.479.463-.985,1.457-1.113a6.488,6.488,0,0,1,3.39.593l.6-2.816a9.238,9.238,0,0,0-3.215-.588c-3.4,0-5.789,1.807-5.809,4.393-.022,1.912,1.706,2.979,3.01,3.616,1.339.652,1.787,1.068,1.782,1.652-.009.892-1.068,1.282-2.056,1.3a7.193,7.193,0,0,1-3.532-.84l-.622,2.913a10.485,10.485,0,0,0,3.824.707c3.611,0,5.973-1.788,5.984-4.55m8.972,4.34h3.18l-2.775-13.288H66.2a1.568,1.568,0,0,0-1.463.974L59.585,199.22h3.608l.716-1.984h4.41ZM64.9,194.512l1.81-4.989,1.041,4.989Zm-14.46-8.58L47.593,199.22H44.155L47,185.932h3.437Z" transform="translate(-26.503 -176.795)" fill="#fff"/>
</svg>
